<?xml version="1.0" encoding="utf-8"?>
<!-- Generator: Adobe Illustrator 25.0.0, SVG Export Plug-In . SVG Version: 6.00 Build 0)  -->
<svg version="1.1" id="Layer_1" xmlns="http://www.w3.org/2000/svg" xmlns:xlink="http://www.w3.org/1999/xlink" x="0px" y="0px"
	 viewBox="0 0 398.91 102.12" style="enable-background:new 0 0 398.91 102.12;" xml:space="preserve">
<style type="text/css">
	.st0{fill:#508A05;}
	.st1{fill:#FFFFFF;}
</style>
<rect class="st0" width="398.91" height="102.12"/>
<g>
	<path class="st1" d="M54.79,72.95c-3.33,0-5.97-0.61-7.91-1.82c-1.94-1.21-3.31-2.92-4.1-5.11c-0.8-2.19-1.2-4.78-1.2-7.75V42.4
		c0-3.04,0.4-5.66,1.2-7.85c0.8-2.19,2.17-3.89,4.1-5.08c1.94-1.2,4.57-1.79,7.91-1.79c3.26,0,5.81,0.54,7.64,1.6
		c1.83,1.07,3.12,2.56,3.89,4.48c0.76,1.92,1.14,4.13,1.14,6.63v3.8h-9.51v-4.4c0-0.87-0.05-1.7-0.14-2.5
		c-0.09-0.8-0.35-1.46-0.79-1.98c-0.43-0.52-1.18-0.79-2.23-0.79c-1.01,0-1.77,0.27-2.26,0.82c-0.49,0.54-0.8,1.22-0.92,2.04
		c-0.13,0.82-0.19,1.68-0.19,2.58v20.71c0,0.98,0.08,1.88,0.24,2.69s0.49,1.47,0.98,1.96c0.49,0.49,1.2,0.73,2.15,0.73
		c1.01,0,1.74-0.26,2.17-0.79s0.71-1.21,0.82-2.04c0.11-0.83,0.16-1.68,0.16-2.55v-4.62h9.51v3.8c0,2.5-0.37,4.74-1.11,6.71
		c-0.74,1.98-2.03,3.53-3.86,4.68C60.65,72.37,58.09,72.95,54.79,72.95z"/>
	<path class="st1" d="M85.4,72.95c-3.3,0-5.91-0.58-7.83-1.74c-1.92-1.16-3.3-2.83-4.13-5c-0.83-2.17-1.25-4.76-1.25-7.77V42.07
		c0-3.04,0.42-5.63,1.25-7.77c0.83-2.14,2.21-3.78,4.13-4.92c1.92-1.14,4.53-1.71,7.83-1.71c3.33,0,5.97,0.57,7.91,1.71
		c1.94,1.14,3.32,2.78,4.16,4.92c0.83,2.14,1.25,4.73,1.25,7.77v16.36c0,3.01-0.42,5.6-1.25,7.77c-0.83,2.17-2.22,3.84-4.16,5
		C91.37,72.37,88.73,72.95,85.4,72.95z M85.4,66.04c1.01,0,1.76-0.25,2.23-0.76c0.47-0.51,0.78-1.16,0.92-1.96
		c0.14-0.8,0.22-1.61,0.22-2.45v-21.2c0-0.87-0.07-1.69-0.22-2.47c-0.15-0.78-0.45-1.42-0.92-1.93c-0.47-0.51-1.21-0.76-2.23-0.76
		c-0.94,0-1.65,0.25-2.12,0.76c-0.47,0.51-0.78,1.15-0.92,1.93c-0.15,0.78-0.22,1.6-0.22,2.47v21.2c0,0.83,0.06,1.65,0.19,2.45
		c0.13,0.8,0.42,1.45,0.87,1.96S84.38,66.04,85.4,66.04z"/>
	<path class="st1" d="M104.64,72.29V28.26h12.12c2.97,0,5.54,0.33,7.72,0.98c2.17,0.65,3.87,1.82,5.08,3.51
		c1.21,1.69,1.82,4.07,1.82,7.15c0,1.81-0.15,3.42-0.44,4.84s-0.82,2.64-1.6,3.67c-0.78,1.03-1.89,1.89-3.34,2.58l6.03,21.31h-10.06
		l-4.84-19.73h-2.77v19.73H104.64z M114.37,46.96h2.72c1.38,0,2.45-0.24,3.21-0.73c0.76-0.49,1.3-1.2,1.6-2.12
		c0.31-0.92,0.46-2.04,0.46-3.34c0-1.88-0.35-3.35-1.03-4.4c-0.69-1.05-1.96-1.58-3.81-1.58h-3.15V46.96z"/>
	<path class="st1" d="M137.04,72.29V28.26h12.12c2.97,0,5.54,0.33,7.72,0.98s3.87,1.82,5.08,3.51c1.21,1.69,1.82,4.07,1.82,7.15
		c0,1.81-0.15,3.42-0.43,4.84c-0.29,1.41-0.83,2.64-1.6,3.67c-0.78,1.03-1.89,1.89-3.34,2.58l6.03,21.31h-10.06l-4.84-19.73h-2.77
		v19.73H137.04z M146.77,46.96h2.72c1.38,0,2.45-0.24,3.21-0.73s1.29-1.2,1.6-2.12c0.31-0.92,0.46-2.04,0.46-3.34
		c0-1.88-0.34-3.35-1.03-4.4c-0.69-1.05-1.96-1.58-3.81-1.58h-3.15V46.96z"/>
	<path class="st1" d="M169.43,72.29V28.26h19.79v6.63h-10.06v10.93h7.66v6.74h-7.66v13.16h10.17v6.58H169.43z"/>
	<path class="st1" d="M206.34,72.95c-3.33,0-5.97-0.61-7.91-1.82c-1.94-1.21-3.31-2.92-4.1-5.11c-0.8-2.19-1.2-4.78-1.2-7.75V42.4
		c0-3.04,0.4-5.66,1.2-7.85c0.8-2.19,2.17-3.89,4.1-5.08c1.94-1.2,4.58-1.79,7.91-1.79c3.26,0,5.81,0.54,7.64,1.6
		c1.83,1.07,3.13,2.56,3.89,4.48c0.76,1.92,1.14,4.13,1.14,6.63v3.8h-9.51v-4.4c0-0.87-0.05-1.7-0.14-2.5
		c-0.09-0.8-0.35-1.46-0.79-1.98c-0.43-0.52-1.18-0.79-2.23-0.79c-1.01,0-1.77,0.27-2.26,0.82c-0.49,0.54-0.8,1.22-0.92,2.04
		s-0.19,1.68-0.19,2.58v20.71c0,0.98,0.08,1.88,0.25,2.69s0.49,1.47,0.98,1.96c0.49,0.49,1.2,0.73,2.15,0.73
		c1.01,0,1.74-0.26,2.17-0.79s0.71-1.21,0.82-2.04c0.11-0.83,0.16-1.68,0.16-2.55v-4.62h9.51v3.8c0,2.5-0.37,4.74-1.11,6.71
		c-0.74,1.98-2.03,3.53-3.86,4.68C212.2,72.37,209.64,72.95,206.34,72.95z"/>
	<path class="st1" d="M228.3,72.29v-36.8h-6.63v-7.23h22.99v7.23h-6.58v36.8H228.3z"/>
</g>
<g>
	<line class="st1" x1="294.33" y1="48.3" x2="304.48" y2="58.45"/>
	<g>
		<path class="st1" d="M348.56,21.8c-2.05-2.05-5.37-2.05-7.42,0l-36.65,36.65L292.93,46.9c-2.05-2.05-5.37-2.05-7.42,0
			c-2.05,2.05-2.05,5.37,0,7.42l15.27,15.26c1.02,1.02,2.37,1.54,3.71,1.54s2.69-0.51,3.71-1.54l40.36-40.36
			C350.61,27.17,350.61,23.85,348.56,21.8z"/>
	</g>
</g>
</svg>
