<?xml version="1.0" encoding="UTF-8"?><svg id="Layer_2" xmlns="http://www.w3.org/2000/svg" viewBox="0 0 38.64 38.64"><defs><style>.cls-1{fill:#e03616;}</style></defs><g id="Layer_1-2"><path class="cls-1" d="M37.63,5.88c.67-.67,1.01-1.43,1.01-2.44,0-.92-.34-1.76-1.01-2.44-.67-.67-1.43-1.01-2.44-1.01-.92,0-1.76,.34-2.44,1.01l-13.44,13.44L5.88,1.01c-.67-.67-1.43-1.01-2.44-1.01-.92,0-1.76,.34-2.44,1.01C.34,1.68,0,2.52,0,3.44s.34,1.76,1.01,2.44l13.44,13.44L1.01,32.76c-.67,.67-1.01,1.51-1.01,2.44s.34,1.76,1.01,2.44c.67,.67,1.51,1.01,2.44,1.01s1.76-.34,2.44-1.01l13.44-13.44,13.44,13.44c.67,.67,1.51,1.01,2.44,1.01s1.76-.34,2.44-1.01c.67-.67,1.01-1.43,1.01-2.44,0-.92-.34-1.76-1.01-2.44l-13.44-13.44,13.44-13.44Z"/></g></svg>