<svg xmlns="http://www.w3.org/2000/svg" viewBox="0 0 22.49 27.64"><defs><style>.cls-1,.cls-2{fill:#043e4b;}.cls-2{stroke:#043e4b;stroke-miterlimit:10;}</style></defs><g id="Layer_2" data-name="Layer 2"><g id="Layer_1-2" data-name="Layer 1"><path class="cls-1" d="M0,17.25c.12-.51.48-.75.45-1.41a15.52,15.52,0,0,0,.93-3.6.66.66,0,0,1,.39-.36A17.74,17.74,0,0,0,1.2,5.19c0-.45.21-.6.09-.75-.06-.36.36-.27.66-.27A8.07,8.07,0,0,0,1.38,2C1.71,1.23,1.71.54,2,0,4.56.78,6.87,2.16,9.09,2.7c3.39,2.43,7.41,4.44,7.68,9.45a3.26,3.26,0,0,0-.18,1.2c-2.76,4.89-9,6.36-14.19,8.82C.18,21.57.21,19.47,0,17.25ZM4.92,5.64a20.17,20.17,0,0,1,.18,9.93c1-.06,1.47-.75,2.7-.84.12-.27.45-.42.63-.63,2-.78,3.9-1.59,4.74-3.54C12.57,9.42,11.22,9,10.65,7.8,9.42,7.59,8.94,6.66,7.59,6.57c0-.12-.12-.12-.09-.27a5.33,5.33,0,0,1-2.22-.75A.64.64,0,0,0,4.92,5.64Z"/><path class="cls-2" d="M21.36,15.55A9.74,9.74,0,0,1,22,18.82a18.44,18.44,0,0,1-1.13,5.49A1.92,1.92,0,0,0,20.47,26a8.93,8.93,0,0,1-.94,1c-.27-.26-1,0-1.14-.07-.24-.35-.84-.86-.63-1.26,0-.14-.05-.19-.19-.19.19-3.17,2.64-5.88,1.26-8.71a4.32,4.32,0,0,0-.12-1.19,1.37,1.37,0,0,0,.12-.82c0-.33.35-.39.38-.7h.37c0,.07.07,0,.07,0a1.09,1.09,0,0,0,.63.44A3.19,3.19,0,0,0,21.36,15.55Z"/></g></g></svg>