<?xml version="1.0" encoding="utf-8"?>
<!-- Generator: Adobe Illustrator 26.4.1, SVG Export Plug-In . SVG Version: 6.00 Build 0)  -->
<svg version="1.1" id="Layer_2_00000107565444708473535190000004677931665138793874_"
	 xmlns="http://www.w3.org/2000/svg" xmlns:xlink="http://www.w3.org/1999/xlink" x="0px" y="0px" viewBox="0 0 155.9 155.8"
	 style="enable-background:new 0 0 155.9 155.8;" xml:space="preserve">
<style type="text/css">
	.st0{clip-path:url(#SVGID_00000181793472521181244690000016195685990367252910_);}
	.st1{fill:#36A7DC;}
	.st2{fill:#F9FBFC;}
	.st3{fill:#F2E910;}
	.st4{fill:#FCD203;}
	.st5{fill:none;stroke:#002A33;stroke-width:8;stroke-miterlimit:10;}
</style>
<g id="Layer_1-2">
	<g>
		<g>
			<defs>
				<circle id="SVGID_1_" cx="79" cy="77.6" r="71.2"/>
			</defs>
			<clipPath id="SVGID_00000180332281825723752790000015221969498015612601_">
				<use xlink:href="#SVGID_1_"  style="overflow:visible;"/>
			</clipPath>
			<g style="clip-path:url(#SVGID_00000180332281825723752790000015221969498015612601_);">
				<path class="st1" d="M-1.6,167.5V11h194.2v156.5H-1.6z M30.4,141.1c-2.8,0.5-5.4,0.5-7.6,1.5c-4.2,2-6.1,6.7-5,10.8
					c1.2,4.7,4.9,7.5,9.9,7.5c6,0,11.9,0,17.9,0c8.3,0,16.6,0,25-0.1c3.9,0,6.8-2.6,7.3-6.4c0.5-3.6-1.6-6.9-5.3-7.9
					c-1.3-0.4-1.4-1-1.4-2.1c-0.1-6.5-6.4-10.7-12.4-8.3c-0.7,0.3-1.4,0.6-2.1,0.9c-3.3-5.9-8.2-9.1-14.9-7.8
					C34.9,130.4,31.4,135,30.4,141.1L30.4,141.1z M136.3,54.5c-0.6-0.1-1.1-0.1-1.6-0.1c-5.6-0.8-10.6,3.1-11.1,8.8
					c-0.5,5.5,3.7,10.5,9.3,10.5c14.6,0.1,29.3,0.1,43.9,0c3.6,0,6.6-2.8,7-6.3c0.5-3.7-1.6-7-5.2-8c-1.2-0.3-1.5-0.8-1.5-2
					c0.1-5.6-4.7-9.8-10.3-9c-1.5,0.2-2.9,0.9-4.4,1.4c-3.1-5.8-7.9-8.8-14.5-7.8C141,43.1,137.4,47.7,136.3,54.5L136.3,54.5z
					 M80.7,58.2c0-0.3,0-0.5,0-0.8c-1-0.6-1.9-1.3-3-1.7c-2.2-0.8-4.5-1.3-6.7-2.2c-2.5-1-2.7-1.8-0.9-3.9c1.8-2.1,3.7-4.1,5.4-6.3
					c0.4-0.5,0.6-1.4,0.4-1.9c-0.1-0.3-1.1-0.6-1.7-0.5c-2.4,0.4-4.9,0.8-7.3,1.4c-3.7,0.9-4.6,0-3.8-3.7c0.1-0.3,0.2-0.7,0.3-1
					c0.4-2,0.9-4,1.2-6.1c0.1-0.7-0.3-1.4-0.5-2.1c-0.8,0.2-1.7,0.2-2.2,0.7c-1.9,1.5-3.6,3.2-5.4,4.8c-2.6,2.3-3.8,2-4.8-1.3
					c-0.7-2.3-1.4-4.6-2.3-6.8c-0.3-0.7-1.1-1.2-1.7-1.8c-0.5,0.6-1.1,1.2-1.6,1.8c-0.1,0.2-0.2,0.4-0.2,0.7
					c-0.8,2.3-1.5,4.6-2.3,6.8c-0.9,2.5-1.9,2.8-4,1.1c-2-1.7-3.8-3.5-5.8-5.1c-0.6-0.5-1.6-0.5-2.3-0.7c-0.2,0.8-0.6,1.7-0.5,2.5
					c0.3,2.2,0.7,4.4,1.4,6.6c1.1,3.8-0.3,4.8-4.1,3.7c-2.3-0.6-4.6-0.9-6.9-1.3c-0.6-0.1-1.4,0.1-1.7,0.5c-0.2,0.3,0.1,1.2,0.4,1.7
					c1.4,1.8,2.9,3.5,4.5,5.2c3.1,3.3,2.8,4.5-1.6,5.8c-2.2,0.6-4.4,1.4-6.5,2.2c-0.5,0.2-1.3,0.9-1.2,1.3c0.1,0.6,0.7,1.3,1.2,1.5
					c2.2,0.9,4.5,1.7,6.8,2.3c3.8,1.1,4.1,2.2,1.7,5.2c-0.3,0.4-0.7,0.8-1.1,1.2c-1.4,1.6-2.8,3.2-4.1,4.9c-0.9,1.2-0.5,1.9,1.1,2
					c0.5,0,0.9,0,1.4-0.1c2.4-0.5,4.7-1,7.1-1.5c2.8-0.6,3.8,0.4,3.2,3.1c-0.5,2.4-1.1,4.8-1.5,7.3c-0.1,0.9,0.3,1.8,0.4,2.8
					c0.8-0.3,1.8-0.4,2.5-0.9c2-1.6,3.8-3.4,5.7-5c2-1.7,3-1.4,3.9,1c0.8,2.2,1.3,4.4,2.2,6.5c0.5,1.1,1.4,2,2.2,2.9
					c0.7-1.1,1.6-2,2-3.2c0.8-2,1.2-4.1,1.9-6.1c0.9-2.6,2.1-2.9,4.2-1.2c1.6,1.3,3,2.9,4.6,4.1c1.1,0.8,2.4,1.3,3.6,1.9
					c0.1-1.5,0.4-3,0.2-4.4c-0.2-1.9-1-3.8-1.3-5.7c-0.4-2.9,0.4-3.6,3.3-3c2.5,0.5,4.9,1.1,7.4,1.5c0.7,0.1,1.5-0.3,2.2-0.5
					c-0.2-0.7-0.3-1.6-0.8-2.2c-1.8-2.1-3.7-4.1-5.4-6.3c-1.4-1.8-1.2-2.7,0.9-3.4c2.3-0.9,4.7-1.5,7-2.3
					C78.7,59.5,79.7,58.8,80.7,58.2L80.7,58.2z M150.4,156.5L150.4,156.5c2.7,0,5.4,0,8.1,0c1.5,0,2.6-0.7,3.1-2.2
					c0.4-1.5-0.4-2.4-1.5-3.3c-0.4-0.3-0.9-0.9-1-1.4c-0.6-2.2-2.1-3.3-4.3-2.9c-0.9,0.2-1.4,0.1-2.1-0.7c-2.9-3.3-7.6-2.4-9.2,1.8
					c-0.2,0.4-0.7,0.9-1.1,1c-2.7,0.4-4.2,1.8-4.1,3.9c0.1,2.3,1.8,3.7,4.5,3.7C145.3,156.6,147.8,156.5,150.4,156.5L150.4,156.5z
					 M220.6,21.3H-44.3v-44.7h264.9V21.3z"/>
				<path class="st2" d="M108.3,53.5c1.2-7.5,5.2-12.6,12.7-13.7c7.2-1.1,12.6,2.2,16,8.5c1.7-0.5,3.2-1.3,4.8-1.5
					c6.2-0.8,11.4,3.7,11.3,9.9c0,1.4,0.4,1.9,1.7,2.2c3.9,1.1,6.2,4.7,5.7,8.8c-0.5,3.9-3.7,6.9-7.7,6.9c-16.1,0.1-32.2,0.1-48.3,0
					C98.3,74.5,93.7,69,94.2,63c0.6-6.2,6.1-10.6,12.3-9.7C107.1,53.4,107.6,53.4,108.3,53.5L108.3,53.5z"/>
				<path class="st2" d="M42,129c1.2-7.5,5.2-12.5,12.7-13.7c7.2-1.1,12.6,2.2,16,8.5c1.7-0.5,3.2-1.3,4.8-1.5
					c6.2-0.9,11.4,3.7,11.3,9.9c0,1.4,0.4,1.9,1.7,2.2c3.9,1.1,6.2,4.7,5.7,8.8c-0.5,3.9-3.7,6.9-7.7,6.9c-16.1,0.1-32.2,0.1-48.3,0
					c-6.2-0.1-10.8-5.5-10.2-11.6c0.6-6.2,6.1-10.6,12.3-9.7C40.8,129,41.4,129,42,129L42,129z"/>
				<path class="st3" d="M80.7,58.2c-1,0.6-1.9,1.2-3,1.6c-2.3,0.8-4.7,1.5-7,2.3c-2.1,0.8-2.3,1.7-0.9,3.4c1.7,2.2,3.7,4.1,5.4,6.3
					c0.5,0.6,0.5,1.4,0.8,2.2c-0.8,0.2-1.5,0.6-2.2,0.5c-2.5-0.4-5-0.9-7.4-1.5c-2.9-0.6-3.8,0.1-3.3,3c0.3,1.9,1.1,3.8,1.3,5.7
					c0.2,1.4-0.1,2.9-0.2,4.4c-1.2-0.6-2.5-1.1-3.6-1.9c-1.6-1.3-3-2.8-4.6-4.1c-2-1.7-3.2-1.4-4.2,1.2c-0.7,2-1.1,4.1-1.9,6.1
					c-0.4,1.1-1.3,2.1-2,3.2c-0.7-1-1.7-1.8-2.2-2.9c-0.9-2.1-1.4-4.3-2.2-6.5c-0.9-2.4-1.9-2.7-3.9-1c-1.9,1.6-3.8,3.4-5.7,5
					c-0.7,0.5-1.6,0.7-2.5,0.9c-0.2-0.9-0.6-1.9-0.4-2.8c0.4-2.4,1-4.8,1.5-7.3c0.6-2.7-0.4-3.6-3.2-3.1c-2.4,0.5-4.7,1-7.1,1.5
					c-0.5,0.1-0.9,0.1-1.4,0.1c-1.6-0.1-2-0.7-1.1-2c1.2-1.7,2.7-3.2,4.1-4.9c0.3-0.4,0.7-0.8,1.1-1.2c2.5-3,2.1-4.1-1.7-5.2
					c-2.3-0.7-4.6-1.5-6.8-2.3c-0.5-0.2-1.2-0.9-1.2-1.5c0-0.4,0.7-1.1,1.2-1.3c2.1-0.8,4.3-1.6,6.5-2.2c4.3-1.3,4.7-2.5,1.6-5.8
					c-1.6-1.7-3.1-3.4-4.5-5.2c-0.3-0.4-0.6-1.4-0.4-1.7c0.3-0.4,1.2-0.6,1.7-0.5c2.3,0.3,4.7,0.7,6.9,1.3c3.8,1.1,5.3,0.1,4.1-3.7
					c-0.6-2.1-1-4.4-1.4-6.6c-0.1-0.8,0.3-1.7,0.5-2.5c0.8,0.2,1.8,0.3,2.3,0.7c2,1.6,3.9,3.5,5.8,5.1c2.1,1.7,3.1,1.5,4-1.1
					c0.8-2.3,1.5-4.6,2.3-6.8c0.1-0.2,0.1-0.5,0.2-0.7c0.5-0.6,1.1-1.2,1.6-1.8c0.6,0.6,1.4,1.1,1.7,1.8c0.9,2.2,1.6,4.5,2.3,6.8
					c1,3.3,2.2,3.6,4.8,1.3c1.8-1.6,3.6-3.3,5.4-4.8c0.6-0.5,1.5-0.5,2.2-0.7c0.2,0.7,0.6,1.5,0.5,2.1c-0.3,2-0.8,4-1.2,6.1
					c-0.1,0.3-0.2,0.7-0.3,1c-0.8,3.7,0.2,4.6,3.8,3.7c2.4-0.6,4.8-1,7.3-1.4c0.6-0.1,1.6,0.2,1.7,0.5c0.2,0.5,0,1.4-0.4,1.9
					c-1.8,2.2-3.6,4.2-5.4,6.3c-1.7,2.1-1.6,2.9,0.9,3.9c2.2,0.9,4.5,1.4,6.7,2.2c1.1,0.4,2,1.1,3,1.7C80.6,57.7,80.7,58,80.7,58.2
					L80.7,58.2z M67.1,58.2c0.7-11.2-9.6-20-18.6-20C36.1,38.4,28.3,46.8,28,57.2c-0.3,12,8.4,20,19.2,20.2
					C58.5,77.6,67,69.7,67.1,58.2L67.1,58.2z"/>
				<path class="st4" d="M67.1,58.2c-0.1,11.4-8.6,19.3-20,19.2C36.4,77.2,27.7,69.2,28,57.2c0.2-10.4,8.1-18.8,20.5-18.9
					C57.5,38.2,67.8,47,67.1,58.2L67.1,58.2z"/>
			</g>
		</g>
		<circle class="st5" cx="78.2" cy="78" r="73.4"/>
	</g>
</g>
</svg>
