<?xml version="1.0" encoding="utf-8"?>
<!-- Generator: Adobe Illustrator 26.4.1, SVG Export Plug-In . SVG Version: 6.00 Build 0)  -->
<svg version="1.1" id="Layer_2_00000174582949556710392890000001331867355459506365_"
	 xmlns="http://www.w3.org/2000/svg" xmlns:xlink="http://www.w3.org/1999/xlink" x="0px" y="0px" viewBox="0 0 154.9 154.9"
	 style="enable-background:new 0 0 154.9 154.9;" xml:space="preserve">
<style type="text/css">
	.st0{clip-path:url(#SVGID_00000157291195617455188980000008845760775940056739_);}
	.st1{fill:#36A7DC;}
	.st2{fill:#90B29A;}
	.st3{fill:#A3A3A3;}
	.st4{fill:#FFFFFF;}
	.st5{fill:#FF0000;}
	.st6{fill:#F4AC74;}
	.st7{fill:none;stroke:#002A33;stroke-width:8;stroke-miterlimit:10;}
</style>
<g id="Layer_1-2">
	<g>
		<g>
			<defs>
				<circle id="SVGID_1_" cx="78.3" cy="77.1" r="71.2"/>
			</defs>
			<clipPath id="SVGID_00000055670884411455620670000000299420677814663589_">
				<use xlink:href="#SVGID_1_"  style="overflow:visible;"/>
			</clipPath>
			<g style="clip-path:url(#SVGID_00000055670884411455620670000000299420677814663589_);">
				<path class="st1" d="M149.6,156L149.6,156c2.7,0,5.4,0,8.1,0c1.5,0,2.6-0.7,3.1-2.2c0.4-1.5-0.4-2.4-1.5-3.3
					c-0.4-0.3-0.9-0.9-1-1.4c-0.6-2.2-2.1-3.3-4.3-2.9c-0.9,0.2-1.4,0.1-2.1-0.7c-2.9-3.3-7.6-2.4-9.2,1.8c-0.2,0.4-0.7,0.9-1.1,1
					c-2.7,0.4-4.2,1.8-4.1,3.9c0.1,2.3,1.8,3.7,4.5,3.7C144.6,156.1,147.1,156,149.6,156L149.6,156z"/>
				<rect x="-1" y="2.2" class="st2" width="154.4" height="149.2"/>
				<g>
					<path d="M77.2,20.5c5.3,0,10.5-0.1,15.8,0c1,0,2.3,0.4,3.1,1c7.6,6,15.1,12.1,22.6,18.2c0.8,0.7,1.4,2,1.4,3
						c0.1,8.5,0,16.9,0.1,25.4c0,1.5-0.4,2.5-1.6,3.5c-2.6,2-5.1,4.2-7.7,6.1c-1.3,1-1.7,2.1-1.7,3.7c0.1,7.1,0,14.2,0.1,21.2
						c0,1.6-0.5,2.6-1.8,3.6c-5.3,4.1-10.4,8.4-15.7,12.6c-0.9,0.7-2.3,1.2-3.5,1.2c-7.5,0.1-14.9,0.1-22.4,0
						c-1.1,0-2.4-0.4-3.3-1.1c-5.4-4.2-10.7-8.6-16-12.8c-1.2-0.9-1.5-1.9-1.5-3.3c0.1-7.2,0-14.3,0.1-21.5c0-1.6-0.5-2.7-1.8-3.6
						c-2.7-2-5.3-4.1-7.8-6.3c-0.7-0.7-1.3-1.9-1.3-2.8c-0.1-8.6-0.1-17.2,0-25.8c0-1,0.6-2.2,1.3-2.8c7.5-6.2,15.1-12.3,22.7-18.4
						c0.8-0.6,1.9-1,2.9-1C66.6,20.5,71.9,20.5,77.2,20.5L77.2,20.5z M65.2,25c-2.8-0.6-4.7,0-6.5,1.6C52.5,31.8,46.2,36.7,40,41.9
						c-0.8,0.7-1.4,2-1.4,3c-0.1,7.2,0,14.3-0.1,21.5c0,1.5,0.5,2.3,1.6,3.2c6,4.7,11.7,9.7,17.8,14.3c3.1,2.3,5.5,4.7,4.6,8.9
						c0,0.2,0.2,0.4,0.2,0.6h4v-4.6H71v4.6h4c0.1-1.6,0.1-3.1,0.2-4.6h4.3v4.6h4c0.1-1.7,0.2-3.2,0.2-4.7h4.2v4.7h4.1
						c0-1,0.1-1.8,0-2.6c-0.3-2.3,0.6-3.7,2.4-5.2c6.7-5.2,13.2-10.6,19.8-15.9c1.3-1,1.9-2.1,1.9-3.8c-0.1-6.8-0.1-13.6,0-20.3
						c0-2-0.5-3.2-2.1-4.4c-2.3-1.7-4.5-3.6-6.8-5.4c-4.3-3.5-8.6-7-13-10.5c-7.6,6.1-15.1,12.1-22.6,18.2c-1-1.2-1.8-2.2-2.7-3.3
						c6.3-5.1,12.5-10.1,18.9-15.4c-2.6-0.5-4.5-0.2-6.3,1.4c-3.3,2.9-6.8,5.6-10.3,8.4c-3.7,3-7.3,5.9-11,8.9
						c-1-1.2-1.8-2.2-2.7-3.3c6.3-5.1,12.5-10.1,19-15.4c-2.7-0.3-4.5-0.3-6.2,1.4c-1.8,1.8-4,3.3-6,4.9
						c-5.1,4.1-10.2,8.2-15.4,12.4c-0.9-1.1-1.7-2.1-2.7-3.3C52.6,35.2,58.8,30.2,65.2,25L65.2,25z M85.8,116.1
						c1.4-0.2,2.7-0.1,3.4-0.7c5-3.9,9.9-7.9,14.8-11.9c-1.8-2.2-3.4-4.3-5.1-6.4c1.2-0.9,2.2-1.7,3.2-2.6c0.9,1,1.7,1.8,2.4,2.7
						c0.2-4.6-3.7-6.4-5.4-9.7c-2.3,1-3.2,2.4-3.1,4.7c0.2,3.4,0.1,6.8,0.1,10.3h-4.2c-0.1-1.7-0.2-3.2-0.3-4.7h-3.9
						c-0.1,1.6-0.1,3.1-0.2,4.7h-4c-0.1-1.6-0.1-3.1-0.2-4.6h-4c-0.1,1.6-0.2,3.1-0.2,4.6h-4.1c-0.1-1.6-0.2-3.1-0.2-4.6h-4.2v4.6
						h-4c-0.1-1.7-0.2-3.2-0.2-4.7h-3.9c-0.1,1.6-0.2,3.2-0.3,4.7h-4.2c0-3.5-0.2-6.9,0-10.2c0.2-2.3-0.7-3.7-2.7-4.7
						c-4.1,3.5-6.3,7.1-5.7,9.6c0.8-0.9,1.6-1.8,2.4-2.7c1.1,0.9,2.1,1.7,3.2,2.6c-1.8,2.2-3.4,4.3-5,6.4c5,4,9.7,7.9,14.6,11.7
						c0.8,0.6,2.2,0.5,3.7,0.9v-6.8h4.3c0,1.7,0,3.3,0,4.9c-0.1,1.6,0.6,2,2.2,1.3v-6.2h4.2v6.4c1.6,0.4,2.2,0.1,2.2-1.4
						c-0.1-1.6,0-3.3,0-4.9h4.3L85.8,116.1L85.8,116.1z M49.5,82.7v5.2c1-1.3,1.7-2.2,2.5-3.2C51.2,84,50.5,83.5,49.5,82.7z
						 M104.9,82.6c-1,0.9-1.7,1.5-2.5,2.1c0.8,1,1.5,1.8,2.5,3.1V82.6z"/>
					<path class="st3" d="M65.2,25c-6.5,5.2-12.6,10.2-18.9,15.3c1,1.2,1.8,2.1,2.7,3.3c5.2-4.2,10.3-8.3,15.4-12.4
						c2-1.6,4.2-3.1,6-4.9c1.7-1.6,3.6-1.6,6.2-1.4c-6.6,5.3-12.7,10.3-19,15.4c0.9,1.1,1.7,2.1,2.7,3.3c3.7-3,7.4-6,11.1-8.9
						c3.4-2.8,6.9-5.5,10.3-8.4c1.8-1.6,3.7-1.8,6.3-1.4c-6.5,5.2-12.6,10.2-19,15.4c0.9,1.1,1.7,2.1,2.7,3.3
						c7.5-6.1,15-12.1,22.6-18.2c4.3,3.5,8.7,7,13,10.5c2.2,1.8,4.4,3.8,6.8,5.4c1.6,1.1,2.2,2.4,2.1,4.4c-0.1,6.8-0.1,13.6,0,20.3
						c0,1.7-0.6,2.8-1.9,3.8C107.4,75,101,80.5,94.3,85.7c-1.8,1.4-2.7,2.9-2.4,5.2c0.1,0.8,0,1.6,0,2.6h-4.1v-4.7h-4.2
						c-0.1,1.5-0.2,3.1-0.2,4.7h-4v-4.6h-4.3c-0.1,1.6-0.1,3-0.2,4.6h-4v-4.6h-4.2v4.6h-4c-0.1-0.2-0.3-0.4-0.2-0.6
						c0.8-4.2-1.5-6.6-4.6-8.9C51.8,79.3,46,74.3,40,69.6c-1.1-0.9-1.7-1.7-1.6-3.2c0.1-7.2,0-14.3,0.1-21.5c0-1,0.7-2.3,1.4-3
						c6.2-5.2,12.6-10.1,18.8-15.3C60.6,25,62.4,24.4,65.2,25L65.2,25z M109.2,55.6c0-7-5.8-12.7-12.7-12.6
						c-7,0.1-12.6,5.8-12.5,12.8c0.1,6.9,5.7,12.4,12.6,12.5C103.6,68.3,109.2,62.6,109.2,55.6L109.2,55.6z M85,77.3
						c-2.6-5.9-5.1-11.5-7.8-17.7c-2.7,6.2-5.2,11.8-7.8,17.7H85z M64.4,55.7c0-3.7-3-6.7-6.6-6.7c-3.7,0-6.7,3-6.6,6.7
						c0,3.6,2.9,6.5,6.5,6.6C61.3,62.3,64.4,59.4,64.4,55.7L64.4,55.7z M54.2,64.4c-1.9-1.8-3.5-3.2-5-4.6c0.2-0.3,0.5-0.6,0.7-1
						c-1.2,0.5-2.4,1-3.7,1.6c1.5,3.2,3.6,5.4,6.8,6.8C53.5,66,53.9,64.9,54.2,64.4L54.2,64.4z M62.5,67.3c3.3-1.5,5.5-3.6,6.9-6.8
						c-1.4-0.6-2.6-1.1-3.8-1.5l0.7,1c-1.5,1.4-3.1,2.8-4.6,4.3c-0.2-0.2-0.5-0.3-0.7-0.5C61.5,64.8,62,66,62.5,67.3z M53.6,47.2
						c0.3,0.1,0.6,0.2,0.9,0.4c-0.5-1.2-1-2.3-1.5-3.6c-3.3,1.4-5.4,3.6-6.9,6.8c1.4,0.5,2.6,1,3.8,1.5c-0.2-0.3-0.4-0.6-0.6-1
						C50.7,50,52.2,48.6,53.6,47.2L53.6,47.2z M66.4,51.5c-0.2,0.3-0.4,0.6-0.7,0.9c1.2-0.5,2.4-1,3.7-1.5c-1.5-3.2-3.6-5.4-6.8-6.8
						c-0.6,1.3-1.1,2.5-1.5,3.7c0.2-0.2,0.5-0.3,0.8-0.5C63.4,48.6,64.9,50.1,66.4,51.5L66.4,51.5z"/>
					<path class="st3" d="M85.8,116.1v-6.7h-4.3c0,1.6-0.1,3.2,0,4.9c0.1,1.5-0.6,1.8-2.2,1.4v-6.4h-4.2v6.2
						c-1.6,0.7-2.3,0.3-2.2-1.3c0.1-1.6,0-3.2,0-4.9h-4.3v6.8c-1.5-0.3-2.9-0.2-3.7-0.9c-4.9-3.8-9.6-7.7-14.6-11.7
						c1.7-2.1,3.3-4.2,5-6.4c-1-0.8-2-1.7-3.2-2.6c-0.8,0.9-1.6,1.8-2.4,2.7c-0.6-2.4,1.6-6,5.7-9.6c2,0.9,2.9,2.3,2.7,4.7
						c-0.2,3.3,0,6.7,0,10.2h4.2c0.1-1.5,0.2-3,0.3-4.7h3.9c0.1,1.5,0.1,3,0.2,4.7h4v-4.6h4.2c0.1,1.5,0.2,3,0.2,4.6h4.1
						c0.1-1.5,0.2-3,0.2-4.6h4c0.1,1.5,0.1,3,0.2,4.6h4c0.1-1.6,0.1-3.1,0.2-4.7h3.9c0.1,1.5,0.2,3,0.3,4.7h4.2
						c0-3.5,0.2-6.9-0.1-10.3c-0.2-2.3,0.7-3.7,3.1-4.7c1.7,3.2,5.7,5.1,5.4,9.7c-0.8-0.9-1.6-1.7-2.4-2.7c-1.1,0.8-2,1.6-3.2,2.6
						c1.7,2.1,3.3,4.2,5.1,6.4c-5,4-9.9,8-14.8,11.9C88.5,115.9,87.2,115.8,85.8,116.1L85.8,116.1z"/>
					<path class="st2" d="M49.5,82.7c1,0.8,1.7,1.3,2.5,2c-0.8,1-1.5,1.9-2.5,3.2V82.7z"/>
					<path class="st2" d="M104.9,82.6v5.2c-1-1.2-1.7-2.1-2.5-3.1C103.1,84.1,103.8,83.5,104.9,82.6z"/>
					<path d="M109.2,55.6c0,7-5.7,12.7-12.6,12.6c-6.9,0-12.5-5.6-12.6-12.5c-0.1-7,5.5-12.7,12.5-12.8
						C103.4,42.9,109.2,48.6,109.2,55.6L109.2,55.6z M96.5,47.3c-4.7,0-8.4,3.9-8.3,8.5c0.1,4.5,3.9,8.2,8.4,8.2
						c4.7,0,8.4-3.9,8.3-8.5C104.9,50.9,101.1,47.3,96.5,47.3z"/>
					<path d="M84.9,77.3H69.4c2.6-5.9,5.1-11.5,7.8-17.7C79.9,65.7,82.3,71.3,84.9,77.3z"/>
					<path d="M64.4,55.7c0,3.7-3,6.6-6.8,6.5c-3.6-0.1-6.5-3-6.5-6.6c0-3.7,3-6.7,6.6-6.7C61.4,49,64.4,52,64.4,55.7L64.4,55.7z"/>
					<path d="M54.1,64.4c-0.2,0.5-0.7,1.6-1.2,2.8c-3.2-1.4-5.3-3.6-6.8-6.8c1.3-0.5,2.5-1.1,3.7-1.6c-0.2,0.3-0.5,0.6-0.7,1
						C50.7,61.2,52.2,62.6,54.1,64.4L54.1,64.4z"/>
					<path d="M62.5,67.3c-0.5-1.3-1-2.5-1.5-3.7c0.2,0.2,0.5,0.3,0.7,0.5c1.5-1.4,3.1-2.8,4.6-4.3l-0.7-1c1.2,0.5,2.3,1,3.8,1.5
						C68,63.7,65.8,65.9,62.5,67.3z"/>
					<path d="M53.6,47.2c-1.5,1.4-2.9,2.8-4.3,4.2c0.2,0.3,0.4,0.6,0.6,1c-1.2-0.5-2.4-1-3.8-1.5c1.5-3.2,3.6-5.4,6.9-6.8
						c0.5,1.3,1,2.4,1.5,3.6C54.2,47.4,53.9,47.3,53.6,47.2L53.6,47.2z"/>
					<path d="M66.3,51.5c-1.5-1.4-3-2.9-4.5-4.3c-0.2,0.2-0.5,0.3-0.8,0.5c0.5-1.2,1-2.3,1.5-3.7c3.2,1.3,5.3,3.5,6.8,6.8
						c-1.3,0.5-2.5,1-3.7,1.5C65.9,52,66.1,51.8,66.3,51.5L66.3,51.5z"/>
					<path class="st4" d="M96.6,47.3c4.6,0,8.3,3.6,8.4,8.2c0.1,4.6-3.7,8.5-8.3,8.5c-4.6,0-8.3-3.6-8.4-8.2
						C88.1,51.2,91.9,47.4,96.6,47.3z M96.6,49c-3.7,0-6.6,3.1-6.6,6.8c0.1,3.7,3.1,6.5,6.8,6.5c3.6-0.1,6.5-3,6.5-6.6
						C103.2,52,100.2,49,96.6,49L96.6,49z"/>
					<path class="st5" d="M96.5,49c3.7,0,6.7,3,6.7,6.6c0,3.6-2.9,6.5-6.5,6.6c-3.7,0.1-6.8-2.8-6.8-6.5C89.9,52.1,92.9,49,96.5,49
						L96.5,49z"/>
				</g>
				<rect x="70.6" y="118.3" width="12.5" height="17"/>
				<rect x="29.1" y="132.5" width="97" height="22.4"/>
				<path class="st6" d="M11.9,117.5c-0.2-0.1-0.5-0.3-0.8-0.4c0.3-0.1,0.6-0.2,0.8-0.3C11.9,117,11.9,117.3,11.9,117.5L11.9,117.5z
					"/>
			</g>
		</g>
		<circle class="st7" cx="77.4" cy="77.4" r="73.4"/>
	</g>
</g>
</svg>
