<?xml version="1.0" encoding="utf-8"?>
<!-- Generator: Adobe Illustrator 26.4.1, SVG Export Plug-In . SVG Version: 6.00 Build 0)  -->
<svg version="1.1" id="Layer_2_00000021803007000741716760000018009718944931254966_"
	 xmlns="http://www.w3.org/2000/svg" xmlns:xlink="http://www.w3.org/1999/xlink" x="0px" y="0px" viewBox="0 0 155.3 154.9"
	 style="enable-background:new 0 0 155.3 154.9;" xml:space="preserve">
<style type="text/css">
	.st0{clip-path:url(#SVGID_00000001656361503287016210000012430826680328030110_);}
	.st1{fill:#36A7DC;}
	.st2{fill:#F4AC74;}
	.st3{fill:#8E8E9C;}
	.st4{fill:#F6615C;}
	.st5{fill:#8B8B9B;}
	.st6{fill:#E4E4E5;}
	.st7{fill:#6A6A75;}
	.st8{fill:none;stroke:#002A33;stroke-width:8;stroke-miterlimit:10;}
</style>
<g id="Layer_1-2">
	<g>
		<g>
			<defs>
				<circle id="SVGID_1_" cx="78.4" cy="77.1" r="71.2"/>
			</defs>
			<clipPath id="SVGID_00000152266641879875122150000011568277229624110232_">
				<use xlink:href="#SVGID_1_"  style="overflow:visible;"/>
			</clipPath>
			<g style="clip-path:url(#SVGID_00000152266641879875122150000011568277229624110232_);">
				<path class="st1" d="M149.8,156L149.8,156c2.7,0,5.4,0,8.1,0c1.5,0,2.6-0.7,3.1-2.2c0.4-1.5-0.4-2.4-1.5-3.3
					c-0.4-0.3-0.9-0.9-1-1.4c-0.6-2.2-2.1-3.3-4.3-2.9c-0.9,0.2-1.4,0.1-2.1-0.7c-2.9-3.3-7.6-2.4-9.2,1.8c-0.2,0.4-0.7,0.9-1.1,1
					c-2.7,0.4-4.2,1.8-4.1,3.9c0.1,2.3,1.8,3.7,4.5,3.7C144.7,156.1,147.2,156,149.8,156L149.8,156z"/>
				<path class="st2" d="M12,117.5c-0.2-0.1-0.5-0.3-0.8-0.4c0.3-0.1,0.6-0.2,0.8-0.3C12,117,12,117.3,12,117.5L12,117.5z"/>
				<g>
					<rect x="-2.3" y="1.2" class="st1" width="158" height="152.5"/>
					<path class="st2" d="M8,122.5c-0.2-0.1-0.5-0.3-0.8-0.4c0.3-0.1,0.6-0.2,0.8-0.3C8,122.1,8,122.3,8,122.5L8,122.5z"/>
					<path class="st3" d="M177.9,99.8v5.8c-0.4,0-0.8,0.1-1.2,0.1c-0.1,0.3-0.1,0.6-0.2,0.8c-0.1-0.3-0.3-0.5-0.5-0.9
						c-0.3,0-0.6,0-1,0c-6.9,0-13.8,0-20.8,0c-1.7,0-1.7,0-1.7,1.7c0,2.3,0,4.7,0,7.1c-0.1,0.1-0.1,0.1-0.2,0.2c-3,0-6.1,0-9.1,0
						c0-0.9-0.1-1.9,0-2.9c0.1-0.8-0.2-1.1-1.1-1.1c-5,0-10,0-15,0c-0.3,0-0.6,0-1,0.1c0,1.3,0,2.5,0,3.7c-0.8,0.1-1.7,0.2-2.5,0.2
						c-8.5,0-17,0-25.6,0c-0.5,0-1-0.1-1.5-0.2c0-0.9-0.1-1.8,0-2.8c0-0.7-0.2-1-0.9-1c-5.1,0-10.2,0-15.2,0c-0.8,0-1,0.3-1,1
						c0,1.9,0,3.8,0,5.6c0,14.3,0,28.6,0,42.9c0,0.4,0.1,0.7,0.1,1.1c0,0.3,0,0.6,0,0.9c-0.9,0.2-1.8,0.4-2.7,0.5c0-2.4,0-4.8,0-7.2
						c0-0.5,0-1,0-1.5c0-1,0-2,0-3c0-1.5,0-3,0-4.5c0-1.6,0-3.1,0-4.7c0-0.7,0-1.3,0-2c0-0.5,0-1,0-1.4c0-1.6,0-3.2,0-4.8
						c0-1.2,0-2.4,0-3.6c0-0.6-0.1-1.3-0.2-1.9c0.1-0.1,0.1-0.2,0.2-0.3c0.7-1.6,0.2-2.4-1.5-2.4c-7.3,0-14.5,0-21.8,0
						c-0.9,0-1.3,0.4-1.3,1.3c0,12.1,0,24.3,0,36.4c-1-0.7-2.1-0.9-3.3-0.9c-5.5,0-11.1,0-16.6,0c0.1-0.3,0.2-0.6,0.2-1
						c0.2,0,0.5,0.1,0.7,0.1c5.3,0,10.5,0,15.8,0c0.2,0,0.4-0.1,0.7-0.1c0-0.4,0-0.9,0-1.3c0-13.4,0-26.8,0-40.2
						c0-0.4,0-0.7,0.1-1.1c0.1-0.5,0.3-1,0.3-1.5c0-0.7,0.3-0.8,0.9-0.8c0.5,0.1,1.1,0.1,1.6,0.1c4.2,0,8.3,0,12.5,0
						c4.4,0,8.8,0,13.2,0c0.3,0,0.7-0.1,0.9-0.2c0.5-0.8-0.1-1.7-1-1.7c-7.9,0-15.9,0-23.8,0c-0.7,0-1.3,0.2-2,0.1
						c-0.8,0-1.6-0.1-2.5-0.2c0-0.9-0.2-1.8-0.1-2.7c0-0.7-0.2-1-1-1c-1.8,0.1-3.7,0-5.5,0c-3.4,0-6.8,0-10.2-0.1c0-0.2,0-0.5,0-0.8
						c0.4,0,0.8-0.1,1.2-0.1c5.2,0,10.4,0,15.7,0c1.8,0,3.4-1.4,3.4-3.2c0.1-0.3,0.1-0.6,0.2-0.9c0.3,0,0.7-0.1,1-0.1
						c6.1,0,12.3,0,18.4,0c0.9,0,1.8,0,2.7,0.1c0,0.3,0,0.6,0,0.9c0.2,1.8,1.6,3.1,3.3,3.2c5.9,0,11.8,0,17.7,0
						c1.7,0,3.1-1.4,3.3-3.2c0-0.3,0-0.6,0-0.9c0.3,0,0.5-0.1,0.8-0.1c6.9,0,13.9,0,20.8,0c0.3,0,0.5,0,0.8,0.1
						c0.1,0.3,0.1,0.6,0.2,0.8c0,1.8,1.4,3.2,3.4,3.2c4.2,0,8.4,0,12.5,0c1.7,0,3.4,0,5.1,0c1.8,0,3.5-1.7,3.2-3.2
						c0.1-0.3,0.1-0.6,0.2-0.9c0.4,0,0.8-0.1,1.2,0c0.8,0.1,1-0.2,1-1c-0.1-1.6,0-3.2,0-4.7c0.4-0.1,0.8-0.2,1.1-0.2
						c8.3,0,16.6,0,24.8,0C176.1,99.8,177,99.8,177.9,99.8L177.9,99.8z"/>
					<path class="st3" d="M176.6,166.3c-8.1,0-16.1,0-24.2,0c0-0.6,0-1.2,0-1.8c0-16,0-32,0-48.1c8,0,16.1,0,24.1,0
						c0,0.2,0,0.4,0,0.5c-0.1,0.3-0.2,0.5-0.2,0.8c0,15.8,0,31.6,0,47.4c0,0.3,0.2,0.5,0.2,0.8C176.5,166.1,176.6,166.2,176.6,166.3
						L176.6,166.3z"/>
					<path class="st4" d="M88.4,43.6c0.4,0,0.8-0.1,1.2-0.1c8.7,0,17.4,0,26.1,0c0.6,0,1.3,0.2,1.8,0.5c8.5,4.9,17,9.9,25.5,14.9
						c7,4.1,13.9,8.1,20.9,12.2c5.4,3.2,10.9,6.3,16.3,9.5c0.2,0.2,0.5,0.3,0.7,0.5c-0.4,0.1-0.7,0.2-1.1,0.2c-6.9,0-13.9,0-20.8,0
						c-2.1,0-4.1,0-6.2,0c-1.2-0.6-2.4-1.2-3.5-1.8c-1.8-1-3.5-2.2-5.2-3.2c-3.5-2.1-7.1-4.1-10.6-6.1c-1.8-1-3.5-2.1-5.3-3.2
						c-3.4-1.9-6.8-3.9-10.2-5.8c-4.2-2.4-8.3-4.9-12.5-7.3c-2.1-1.2-4.1-2.4-6.2-3.7c-3.1-1.8-6.2-3.6-9.4-5.5
						C89.3,44.5,88.9,44,88.4,43.6L88.4,43.6z"/>
					<path class="st5" d="M88.4,43.6c0.5,0.4,0.9,0.9,1.4,1.2c3.1,1.8,6.2,3.6,9.4,5.5c2.1,1.2,4.1,2.4,6.2,3.7
						c4.2,2.4,8.3,4.9,12.5,7.3c3.4,2,6.8,3.9,10.2,5.8c1.8,1,3.5,2.1,5.3,3.2c3.5,2.1,7.1,4.1,10.6,6.1c1.8,1,3.5,2.2,5.2,3.2
						c1.1,0.7,2.4,1.2,3.5,1.8c-0.1,0.4-0.2,0.9-0.2,1.3c0,3.1,0,6.2,0,9.4c0,2-0.1,4-0.2,6c-0.4,0-0.8,0-1.3,0c-0.2,0-0.4,0-0.5,0
						c-0.4,0-0.8,0-1.2,0c-0.4,0-0.9,0-1.3,0c-41.4,0-82.8,0-124.2,0c-0.1-0.1-0.2-0.1-0.3-0.2c0-3.4,0-6.9,0-10.3
						c0-1.6,0.1-3.3,0-4.9c0-1,0.2-1.6,1.1-1.9c0.2-0.1,0.5-0.2,0.7-0.3c0.6,0.4,0.9,0.2,0.8-0.5c2.1-1.3,4.2-2.5,6.3-3.8
						c4.5-2.6,9-5.3,13.4-7.9c5.7-3.3,11.4-6.7,17-10.1c6.3-3.8,12.7-7.5,19-11.2c1.8-1,3.5-2.1,5.3-3.1
						C87.6,43.6,88,43.6,88.4,43.6L88.4,43.6z M35.1,78.8c0.2,0,0.3,0,0.5,0.1c0.5,0,0.9-0.1,1.3-0.1c29.6,0,59.3,0,88.9,0
						c5.6,0,11.2,0,16.8,0c0.1,0,0.2,0,0.3,0c-0.1-0.1-0.2-0.2-0.4-0.3c-1.5-0.9-3.1-1.7-4.6-2.6c-5.8-3.3-11.5-6.7-17.2-10
						c-4.5-2.6-8.9-5.3-13.4-7.9c-5.9-3.5-11.8-6.9-17.7-10.3c-0.3-0.2-0.8-0.3-1.2-0.4c-0.4-0.8-0.9-0.9-1.6-0.4
						c-1.2,0.8-2.4,1.5-3.6,2.2c-0.7,0.4-1.3,1-2.1,1.4c-1.3,0.7-2.8,1.3-4.1,2.1c-2.7,1.5-5.2,3.2-7.9,4.7c-2.6,1.5-5.3,3-7.9,4.6
						c-2.5,1.5-5.1,3-7.7,4.5c-2.6,1.6-5.2,3.2-7.8,4.7c-1.9,1.1-3.8,2.2-5.6,3.2c-0.7,0.4-1.5,0.8-2.2,1.2
						c-0.6,0.3-1.2,0.8-1.7,1.2c-1,0.7-2,1.3-3,2c0,0.1,0,0.1,0,0.2L35.1,78.8L35.1,78.8z M26,81.7c-0.3-0.1-0.3-1.1-0.9-0.5
						c-0.2,0.2-0.5,0.6-0.5,0.9c0.1,1.2-0.4,2.5,0.4,3.7c0.1,0.2,0.1,0.5,0.1,0.7c0.1,1.2-0.3,2.3-0.5,3.5c-0.2,2.1-0.1,4.3-0.1,6.4
						c0,0.8,0.4,0.8,1.1,0.6c0-0.6-0.8-1.3,0.4-1.5c0.6,0,1.1,0,1.7,0c0,0,0.1,0,0.1,0l0.1,0.3c0.1-0.1,0.1-0.1,0.2-0.2h0.9
						c0.4,0.1,0.7,0.3,1.1,0.3c23.5,0,47,0,70.4,0c16.2,0,32.3,0,48.5,0c0.9,0,1.2-0.2,1.2-1.1c-0.1-3.2,0-6.3,0-9.5
						c0-0.3-0.2-0.6-0.3-0.8c0-0.5,0-1-0.1-1.5c0-0.9-0.5-1.4-1.4-1.4c-0.3,0-0.5,0-0.8,0c-34.2,0-68.4,0-102.6,0
						c-2.8,0-5.5,0-8.3,0c-3.2,0-6.5,0-9.7,0C26.8,81.5,26.4,81.6,26,81.7L26,81.7z"/>
					<path class="st6" d="M122.5,105.8c-0.3,0-0.5-0.1-0.8-0.1c-6.9,0-13.9,0-20.8,0c-0.3,0-0.5,0-0.8,0.1c-0.3,0-0.7,0-1,0
						c-7.2,0-14.4,0-21.6,0c-0.6,0-1.2,0-1.8,0c-0.9,0-1.8-0.1-2.7-0.1c-6.1,0-12.3,0-18.4,0c-0.3,0-0.7,0-1,0.1
						c-0.2,0-0.3-0.1-0.5-0.1c-6.9,0-13.8,0-20.7,0c-1.1,0-2.2,0.1-3.3,0.2c-0.5-0.1-0.9-0.2-1.4-0.2c-0.6,0-0.8-0.2-0.8-0.8
						c0-1.7,0-3.3,0-5c0.3,0,0.7,0,1,0c40,0,79.9,0,119.9,0c0.4,0,0.8-0.1,1.2-0.1c0.1,0,0.1,0.1,0.2,0.1c0,1.6-0.1,3.2,0,4.7
						c0,0.8-0.2,1.1-1,1c-0.4,0-0.8,0-1.2,0c-0.2,0-0.4-0.1-0.5-0.1c-7.8,0-15.6,0-23.4,0C122.9,105.7,122.7,105.8,122.5,105.8z"/>
					<path class="st3" d="M152.4,98c0.1-2,0.1-4,0.2-6c0-3.1,0-6.2,0-9.4c0-0.4,0.1-0.9,0.2-1.3c2.1,0,4.1,0,6.2,0
						c6.9,0,13.9,0,20.8,0c0.4,0,0.7-0.1,1.1-0.2c0.2,0.3,0.6,0.5,0.6,0.8c0,5.3,0,10.6,0,15.9c0,0.1,0,0.1-0.1,0.2
						c-1.1,0.1-2.2,0.1-3.3,0.2c-1.6-0.1-3.2-0.2-4.8-0.2c-3.1,0-6.2,0.1-9.2,0.1c-1.7,0-3.5-0.1-5.2-0.2
						C156.6,98,154.5,98,152.4,98L152.4,98z"/>
					<path class="st3" d="M149,99.8c-0.4,0-0.8,0.1-1.2,0.1c-40,0-79.9,0-119.9,0c-0.3,0-0.7,0-1,0c-1.1-0.1-2.2-0.1-3.3-0.2
						c0-0.6,0-1.1,0-1.6c0.1-0.1,0.2-0.1,0.3-0.2c41.4,0,82.8,0,124.2,0c0.4,0,0.9,0,1.3,0C149.2,98.6,149.1,99.2,149,99.8L149,99.8
						z"/>
					<path class="st3" d="M152.6,114.5c0-2.3,0-4.7,0-7.1c0-1.7,0-1.7,1.7-1.7c6.9,0,13.8,0,20.8,0c0.4,0,0.7,0,1,0
						c0.2,0.4,0.3,0.6,0.5,0.9c0,1.4,0,2.7,0,4.1c0,0.6,0,1.2,0,1.8c0,0.3,0,0.6,0,0.9c-0.1,0.4-0.2,0.7-0.3,1.1
						C168.4,114.5,160.5,114.5,152.6,114.5L152.6,114.5z"/>
					<path class="st5" d="M32.7,161.2c-0.1,0.3-0.2,0.6-0.2,1c-1.1,0.2-2.1,0.6-2.7,1.6c-0.2,0.3-0.4,0.6-0.7,0.9
						c0-19.1,0-38.2,0-57.4c0.1,0.1,0.2,0.2,0.3,0.3c0.8,1.6,2.1,2.3,3.9,2.3c0,0.2,0,0.5,0,0.8c-0.2,0.5-0.5,0.9-0.5,1.4
						C32.7,128.5,32.7,144.8,32.7,161.2L32.7,161.2z"/>
					<path class="st6" d="M33.2,109.9c-1.7,0-3.1-0.7-3.9-2.3c-0.1-0.1-0.2-0.2-0.3-0.3c0-0.2,0-0.5,0-0.7c0.6,0,1.2,0,1.9,0
						c7.5,0,15,0,22.5,0c0,1.7-1.6,3.2-3.4,3.2c-5.2,0-10.4,0-15.7,0C33.9,109.8,33.5,109.9,33.2,109.9L33.2,109.9z"/>
					<path class="st7" d="M149,99.8c0.1-0.6,0.2-1.2,0.4-1.8c0.4,0,0.8,0,1.2,0c0.2,0,0.4,0,0.5,0c0.4,0,0.8,0,1.3,0
						c2.1,0,4.2,0,6.3,0c1.7,0,3.5,0.2,5.2,0.2c3.1,0,6.2-0.1,9.2-0.1c1.6,0,3.2,0.1,4.8,0.2c0,0.6-0.1,1.1-0.1,1.7
						c-0.9,0-1.9,0-2.8,0c-8.3,0-16.6,0-24.8,0c-0.4,0-0.8,0.1-1.1,0.2C149.1,99.9,149.1,99.9,149,99.8L149,99.8z"/>
					<path class="st7" d="M152.6,114.5c7.9,0,15.8,0,23.7,0c0.1,0,0.2,0,0.2,0c0,0.6,0,1.3,0,1.9c-8,0-16.1,0-24.1,0l0,0
						c0-0.6,0-1.2,0-1.8L152.6,114.5L152.6,114.5z"/>
					<path class="st3" d="M53.4,106.7c-7.5,0-15,0-22.5,0c-0.6,0-1.2,0-1.9,0c0-0.2,0-0.5,0-0.7c1.1-0.1,2.2-0.1,3.3-0.2
						c6.9,0,13.8,0,20.7,0c0.2,0,0.3,0,0.5,0.1C53.5,106.1,53.5,106.4,53.4,106.7z"/>
					<path class="st3" d="M26.2,79.9c0.1,0.7-0.2,0.9-0.8,0.5C25.6,80.2,25.9,80.1,26.2,79.9z"/>
					<path class="st3" d="M23.8,98c-0.1,0.1-0.2,0.1-0.3,0.2c0-0.1,0-0.2,0-0.4C23.7,97.9,23.7,98,23.8,98z"/>
					<path class="st5" d="M152.4,116.5c0,16,0,32,0,48.1c0,0.6,0,1.2,0,1.8c-1.8,0-3.6,0-5.4,0c0.1-2.2-0.8-3.4-3.2-4.1l-0.5-0.9
						c0-0.3,0-0.7,0-1c0-14.1,0-28.2,0-42.3c0-0.4,0-0.8,0-1.2c0.2-0.1,0.3-0.2,0.5-0.4c0.3,0,0.7-0.1,1-0.1
						C147.3,116.4,149.9,116.5,152.4,116.5C152.4,116.5,152.4,116.5,152.4,116.5z"/>
					<path class="st6" d="M143.3,116.8c0,0.4,0,0.8,0,1.2c0,14.1,0,28.2,0,42.3c0,0.3,0,0.7,0,1c-5.7,0-11.3,0-17,0
						c0-0.1,0-0.2-0.1-0.4c0-0.2,0-0.5,0-0.7c0-0.3,0-0.5,0-0.8c0-14.1,0-28.1,0-42.2c0-0.3,0-0.5,0-0.8c0-0.7,0-1.3,0-1.9v-3.7
						c0.4,0,0.7-0.1,1-0.1c5,0,10,0,15,0c0.9,0,1.1,0.3,1.1,1.1c-0.1,0.9,0,1.9,0,2.9c0,0.6,0,1.2,0,1.8
						C143.3,116.6,143.3,116.7,143.3,116.8L143.3,116.8z M130,112.8c-0.9,0.1-0.7,0.8-0.7,1.3c0,14.7,0,29.3,0,44
						c0,0.3-0.1,0.6,0,0.8c0.1,0.2,0.5,0.4,0.7,0.6c0.5,0.3,0.7,0,0.8-0.4c0.1-0.3,0.1-0.6,0.1-1c0-14.2,0-28.3,0-42.5
						c0-0.6,0-1.2,0-1.9C130.9,113.1,130.7,112.8,130,112.8z M134.7,159.6c1,0.1,0.9-0.6,0.9-1.2c0-14.8,0-29.5,0-44.2
						c0-0.2,0.1-0.5,0-0.6c-0.2-0.3-0.5-0.5-0.7-0.7c-1.1-0.1-0.9,0.8-0.9,1.4c0,14.7,0,29.4,0,44c0,0.2-0.1,0.5,0,0.7
						C134.1,159.1,134.4,159.3,134.7,159.6L134.7,159.6z M139.3,112.8c-0.8,0.1-0.7,0.7-0.7,1.3c0,9.1,0,18.1,0,27.2
						c0,5.7,0,11.4,0,17.1c0,0.5-0.2,1.1,0.6,1.2c0.8,0.1,1.1-0.1,1.1-1.2c0-9.5,0-19,0-28.5c0-5.3,0-10.6,0-15.9
						C140.2,113.3,140.2,112.7,139.3,112.8L139.3,112.8z"/>
					<path class="st6" d="M32.7,161.2c0-16.4,0-32.8,0-49.1c0-0.5,0.3-0.9,0.5-1.4c3.4,0,6.8,0,10.2,0.1c1.8,0,3.7,0,5.5,0
						c0.8,0,1,0.2,1,1c0,0.9,0.1,1.8,0.1,2.7c0,1.4,0,2.8-0.1,4.2c0,0.4-0.1,0.7-0.1,1.1c0,13.4,0,26.8,0,40.2c0,0.4,0,0.8,0,1.3
						c-0.3,0-0.5,0.1-0.7,0.1c-5.3,0-10.5,0-15.8,0C33.1,161.3,32.9,161.2,32.7,161.2L32.7,161.2z M42,159.1c0-0.4,0.2-0.7,0.2-1.1
						c0-14.6,0-29.2,0-43.8c0-0.3-0.1-0.6-0.2-0.9c-0.3-0.2-0.7-0.5-1-0.4c-0.2,0.1-0.5,0.5-0.6,0.9c-0.1,0.2,0,0.5,0,0.7
						c0,14.6,0,29.1,0,43.7c0,0.2,0,0.4,0,0.6c0.1,0.3,0.3,0.8,0.5,0.8C41.2,159.5,41.6,159.3,42,159.1L42,159.1z M46.5,113.1
						c-0.1-0.1-0.3-0.2-0.4-0.3c-1-0.1-1.1,0.6-1.1,1.3c0,11,0,22,0,33.1c0,3.8,0,7.6,0,11.4c0,0.7,0.2,1.3,1.1,1.1
						c0.1-0.1,0.3-0.2,0.4-0.3c0.1-0.4,0.2-0.7,0.2-1.1c0-10.3,0-20.6,0-30.9c0-4.5,0-9.1,0.1-13.6
						C46.7,113.5,46.6,113.3,46.5,113.1z M37.5,136.2c0-7.4,0-14.8,0-22.2c0-0.6-0.1-1.3-0.9-1.3c-0.8,0-0.9,0.6-0.9,1.3
						c0,14.8,0,29.7,0,44.5c0,0.7,0.2,1.2,0.9,1.2c0.7,0,0.9-0.6,0.9-1.2c0-0.2,0-0.4,0-0.6C37.5,150.7,37.5,143.4,37.5,136.2
						L37.5,136.2z"/>
					<path class="st6" d="M79.6,161.3c-0.1-0.4-0.1-0.7-0.1-1.1c0-14.3,0-28.6,0-42.9c0-1.9,0-3.8,0-5.6c0-0.7,0.2-1,1-1
						c5.1,0,10.2,0,15.2,0c0.8,0,1,0.3,0.9,1c0,0.9,0,1.8,0,2.8c0,0.7,0,1.3,0,2c0,0.3,0,0.7,0,1c0,14.2,0,28.4,0,42.7
						c0,0.8-0.4,1.2-1.1,1.2C90.2,161.3,84.9,161.3,79.6,161.3L79.6,161.3z M83.9,114c0-0.1-0.1-0.2-0.1-0.4
						c-0.2-0.2-0.4-0.5-0.6-0.8c-0.9-0.1-1.1,0.1-1.1,1.4c0,14.7,0,29.3,0,44c0,0.2,0,0.4,0,0.5c0.1,0.6,0.3,1,1,0.9
						c0.2-0.2,0.4-0.5,0.6-0.7c0-0.4,0.1-0.8,0.1-1.2c0-13.9,0-27.8,0-41.6c0-0.4,0-0.7,0-1.1C83.8,114.7,83.8,114.3,83.9,114
						L83.9,114z M88.5,155.4c0-0.7,0-1.4,0-2.2V148c0-0.7,0-1.4,0-2.2c0-1.8,0.1-3.5,0-5.3c0-3.6,0-7.2,0-10.9c0-0.7,0-1.4,0-2.2
						c0-1.7,0-3.5,0-5.2v-2.2c0-0.5,0-1.1,0-1.6c0-0.7,0-1.4,0-2.2c0-0.9,0.1-1.7,0-2.6c0-0.5,0.1-1.1-0.8-1.1c-0.7,0-1,0.4-1,1.1
						c0,0.1,0,0.2,0,0.3c0,14.6,0,29.2,0,43.8c0,0.3-0.1,0.6,0,0.8c0.2,0.3,0.5,0.6,0.8,0.9c0.3-0.3,0.7-0.6,0.9-0.9
						c0.2-0.4,0-0.8,0-1.2c0-0.1,0-0.2,0-0.4V155.4L88.5,155.4z M91.5,136.2c0,6.1,0,12.3,0,18.4c0,1.3,0,2.7,0,4
						c0,0.6,0.3,1,0.8,0.9c0.3-0.1,0.7-0.5,0.9-0.9c0.1-0.2,0-0.5,0-0.8c0-14.5,0-29.1,0-43.6c0-0.3,0.1-0.7-0.1-0.9
						c-0.2-0.3-0.6-0.6-0.9-0.6c-0.2,0-0.5,0.5-0.7,0.8c-0.1,0.1,0,0.3,0,0.5C91.5,121.5,91.5,128.8,91.5,136.2L91.5,136.2z"/>
					<path class="st5" d="M79.6,161.3c5.3,0,10.6,0,15.9,0c0.8,0,1.1-0.4,1.1-1.2c0-14.2,0-28.4,0-42.7c0-0.3,0-0.7,0-1
						c9.8,0,19.7,0,29.6,0c0,0.3,0,0.5,0,0.8c0,14.1,0,28.1,0,42.1c0,0.3,0,0.5,0,0.8c-0.2,0.2-0.3,0.3-0.5,0.5
						c0.2,0.1,0.3,0.2,0.5,0.2c0,0.1,0,0.2,0.1,0.4c-0.1,0.3-0.2,0.5-0.4,0.8c-0.7,0.3-1.4,0.7-2.2,1c0-2.5,0-5,0-7.5
						c0-0.5,0-1,0-1.5c0-1.2,0-2.5,0-3.7c0-1.6,0-3.1,0-4.7c0-1.9,0-3.8,0.1-5.7c0-0.5,0-1,0-1.4c0-3.5,0-6.9,0-10.4
						c0-0.5,0-1,0-1.5c0-0.8-0.4-1.2-1.1-1.2c-7.3,0-14.7,0-22,0c-0.9,0-1.4,0.5-1.4,1.4c0,11.7,0,23.5,0,35.2c0,0.4,0,0.8,0,1.2
						c-1.1-0.9-2.3-1.1-3.7-1.1c-5.2,0.1-10.5,0-15.8,0C79.6,161.9,79.6,161.6,79.6,161.3L79.6,161.3z"/>
					<path class="st3" d="M53.4,166.3c0.2-1.3-0.2-2.3-1.1-3.2c0-12.1,0-24.2,0-36.4c0-0.9,0.4-1.3,1.3-1.3c7.3,0,14.5,0,21.8,0
						c1.7,0,2.2,0.8,1.5,2.4c-0.1,0.1-0.1,0.2-0.2,0.3c-1.2,0-2.4,0.1-3.6,0.1c-1,0-2-0.1-3.1-0.1c-0.7,0-1.4-0.1-2.1,0
						c-0.2,0-0.6,0.3-0.6,0.5c0,1,0,2,0,3.1c0,1.5,0,3,0,4.5c0,0.6-0.1,1.2-0.1,1.8c0,0.2,0.4,0.4,0.6,0.5c1.8,0,3.5,0,5.3,0
						c1.2,0,2.5,0,3.8,0c0,0.5,0,1,0,1.4c-1.8,0-3.6,0-5.4,0c-1.2,0-2.3,0-3.5,0c-0.5,0-0.7,0.2-0.7,0.7c0,1.5,0,2.9,0,4.4
						c0,2.8,0,5.6,0,8.4c-0.1,0.5,0.1,0.7,0.6,0.7c1,0,2,0,3,0c1.1,0,2.3,0,3.4,0c0.8,0,1.7,0,2.5,0c0,0.5,0,1,0,1.5
						c-1.4,0-2.8,0-4.1,0c-0.1,0-0.2-0.1-0.3-0.1c-0.9,0-1.8,0-2.7,0c-0.1,0-0.2,0.1-0.3,0.1c-2.3-0.1-2.4,0-2,2.3c0,0,0,0.1,0,0.1
						c0,1.4-0.1,2.9-0.1,4.3c0,1.4,0,2.8-0.1,4.1c-0.9-0.1-1.7-0.1-2.6-0.2c0-1.2-0.1-2.5-0.1-3.7c0-1.6,0-3.1,0-4.7
						c0.3-1.9,0.2-2.1-1.1-2.2c-0.8,0-1.6,0-2.4,0c-0.1,0-0.2,0-0.3,0c-0.3,0-0.6,0-0.9,0c-0.2,0-0.3,0.1-0.5,0.1
						c-1.2,0-2.4,0-3.6,0c-0.6,0-0.8,0.2-0.8,0.8c0,1.6,0,3.2,0,4.8c0,1.7,0,3.5,0,5.2C54.5,166.3,54,166.3,53.4,166.3L53.4,166.3z
						 M64.6,136c0-1.7,0-3.5,0-5.2c0-0.4,0-0.7,0-1.1c0-0.3,0-0.6-0.1-0.9c0.1-0.5-0.1-0.7-0.6-0.7c-1.4,0-2.7,0-4.1,0.1H55v10.3
						h3.8c1.3,0,2.5,0,3.8,0h1.9c0.1-0.6,0.1-1.1,0.2-1.7C64.7,136.5,64.6,136.3,64.6,136L64.6,136z M55,142.8c0,1.6,0,3.1,0,4.7
						c0,1.3,0,2.6,0,3.9c0,0.7,0,1.4,0,2.1c0,0.2,0.3,0.5,0.4,0.5c1.8,0,3.7-0.1,5.5-0.1c0.9,0,1.9,0,2.9,0.1
						c0.7,0.1,0.9-0.2,0.9-0.8c0-1.3,0-2.6-0.1-3.8c0-3.1,0.1-6.1,0.1-9.2c0-0.1-0.2-0.2-0.3-0.4c-1.1,0-2.3,0-3.4,0
						c-1.2,0-2.5,0-3.8,0c-0.5,0-1,0-1.5,0c-0.6-0.1-0.7,0.2-0.7,0.7C55.1,141.4,55,142.1,55,142.8L55,142.8z"/>
					<path class="st6" d="M146.8,106.7c0.2,1.5-1.4,3.2-3.2,3.2c-1.7,0-3.4,0-5.1,0c-4.2,0-8.4,0-12.5,0c-1.9,0-3.3-1.4-3.3-3.2
						C130.7,106.6,138.8,106.6,146.8,106.7L146.8,106.7z"/>
					<path class="st6" d="M100,106.7c-0.2,1.7-1.6,3.2-3.3,3.2c-5.9,0-11.8,0-17.7,0c-1.7,0-3.1-1.4-3.3-3.2c1.2,0,2.3,0,3.5,0
						C86.1,106.6,93.1,106.7,100,106.7L100,106.7z"/>
					<path class="st3" d="M49.9,118.6c0-1.4,0-2.8,0.1-4.2c0.8,0.1,1.6,0.2,2.5,0.2c0.7,0,1.3-0.1,2-0.1c8,0,15.9,0,23.8,0
						c0.9,0,1.5,0.9,1,1.7c-0.1,0.2-0.6,0.2-0.9,0.2c-4.4,0-8.8,0-13.2,0c-4.1,0-8.3,0-12.5,0c-0.5,0-1.1-0.1-1.6-0.1
						c-0.6-0.1-0.9,0.1-0.9,0.8C50.2,117.6,50,118.1,49.9,118.6L49.9,118.6z"/>
					<path class="st3" d="M126.2,116.5c-9.8,0-19.7,0-29.6,0c0-0.7,0-1.3,0-2c0.5,0.1,1,0.2,1.5,0.2c8.5,0,17,0,25.6,0
						c0.8,0,1.7-0.1,2.5-0.2C126.2,115.2,126.2,115.8,126.2,116.5L126.2,116.5z"/>
					<path class="st3" d="M146.8,106.7c-8.1,0-16.1,0-24.2,0c-0.1-0.3-0.1-0.6-0.2-0.8c0.2,0,0.4-0.1,0.6-0.1c7.8,0,15.6,0,23.4,0
						c0.2,0,0.4,0,0.5,0.1C146.9,106.1,146.9,106.4,146.8,106.7L146.8,106.7z"/>
					<path class="st3" d="M100,106.7c-7,0-13.9,0-20.9,0c-1.2,0-2.3,0-3.5,0c0-0.3,0-0.6,0-0.9c0.6,0,1.2,0,1.8,0
						c7.2,0,14.4,0,21.6,0c0.3,0,0.7,0,1,0C100,106.1,100,106.4,100,106.7L100,106.7z"/>
					<path class="st3" d="M143.3,116.5c0-0.6,0-1.2,0-1.8c3,0,6.1,0,9.1,0c0,0.6,0,1.2,0,1.8c-2.5,0-5.1,0-7.6,0c-0.3,0-0.7,0-1,0.1
						C143.6,116.5,143.5,116.5,143.3,116.5z"/>
					<path class="st6" d="M149.9,82.9c0,0.5,0,1,0.1,1.5c0,3.7,0,7.4,0,11.1c-0.6,0-1,0-1.4,0c-39.4,0-78.8,0-118.2,0
						c-0.4,0-0.8,0-1.2,0.1c-0.3,0-0.6,0-0.9,0c-0.1,0-0.2,0-0.4-0.1c0,0-0.1,0-0.1,0c0-3.8,0-7.7,0-11.5c0-0.9,0.2-1.2,1.1-1.2
						c28.9,0,57.8,0,86.7,0C127,82.9,138.4,82.9,149.9,82.9L149.9,82.9z"/>
					<path class="st6" d="M142.7,78.8c-5.6,0-11.2,0-16.8,0c-29.6,0-59.3,0-88.9,0c-0.5,0-0.9,0-1.3,0.1c0-0.1,0-0.3,0-0.4
						c3.3-1.9,6.6-3.9,9.9-5.8c5.9-3.5,11.9-7,17.8-10.5c6.2-3.7,12.4-7.3,18.7-11c2.2-1.3,4.3-2.6,6.5-3.9c0.4,0.1,0.8,0.2,1.2,0.4
						c5.9,3.4,11.8,6.9,17.7,10.3c4.5,2.6,8.9,5.3,13.4,7.9c5.7,3.3,11.5,6.7,17.2,10c1.5,0.9,3.1,1.7,4.6,2.6
						C142.7,78.6,142.7,78.7,142.7,78.8L142.7,78.8z M89.3,56.4c-0.9,0-1.7,0-2.6,0c-4.4,0.1-8.3,4-8.5,8.5c-0.3,5.2,4,10,9.7,9.5
						c0.1,0,0.2,0.1,0.3,0.1c4.4,0.3,8.5-2.7,9.5-7C99,61.7,94.7,56.5,89.3,56.4L89.3,56.4z"/>
					<path class="st3" d="M149.9,82.9c-11.5,0-22.9,0-34.4,0c-28.9,0-57.8,0-86.7,0c-0.9,0-1.1,0.2-1.1,1.2c0.1,3.8,0,7.6,0,11.5
						c-0.6,0-1.1,0-1.7,0c0-4.6,0-9.2,0-13.8c0.4-0.1,0.8-0.2,1.1-0.2c3.2,0,6.5,0,9.7,0c2.8,0,5.5,0,8.3,0c34.2,0,68.4,0,102.6,0
						c0.3,0,0.5,0,0.8,0C149.4,81.5,149.9,82,149.9,82.9L149.9,82.9z"/>
					<path class="st3" d="M88.6,47.3c-2.2,1.3-4.3,2.6-6.5,3.9c-6.2,3.7-12.4,7.3-18.7,11c-5.9,3.5-11.9,7-17.8,10.5
						c-3.3,1.9-6.6,3.9-9.9,5.8c-0.2,0.1-0.4,0.2-0.5,0.3h-1.8c0-0.1,0-0.1,0-0.2c1-0.7,2-1.3,3-2c0.6-0.4,1.1-0.8,1.7-1.2
						c0.7-0.4,1.5-0.8,2.2-1.2c1.9-1.1,3.8-2.1,5.6-3.2c2.6-1.6,5.2-3.2,7.8-4.7c2.5-1.5,5.1-3,7.7-4.5c2.6-1.5,5.3-3,7.9-4.6
						c2.6-1.6,5.2-3.2,7.9-4.7c1.3-0.8,2.7-1.4,4.1-2.1c0.7-0.4,1.4-0.9,2.1-1.4c1.2-0.8,2.4-1.5,3.6-2.2
						C87.6,46.4,88.1,46.5,88.6,47.3z"/>
					<path class="st3" d="M29,95.6c0.4,0,0.8-0.1,1.3-0.1c39.4,0,78.8,0,118.2,0c0.4,0,0.8,0,1.4,0c0-3.8,0-7.4,0-11.1
						c0.1,0.3,0.3,0.6,0.3,0.8c0,3.2,0,6.3,0,9.5c0,0.9-0.3,1.1-1.2,1.1c-16.2,0-32.3,0-48.5,0c-23.5,0-47,0-70.4,0
						C29.8,95.8,29.4,95.7,29,95.6L29,95.6z"/>
					<path class="st3" d="M26,81.7c0,4.6,0,9.2,0,13.8c-1.1,0.2-0.4,0.9-0.4,1.5c-0.6,0.2-1.1,0.2-1.1-0.6c0-2.2-0.2-4.3,0.1-6.4
						c0.1-1.1,0.5-2.3,0.5-3.5c0-0.2,0-0.5-0.1-0.7c-0.8-1.1-0.4-2.4-0.4-3.7c0-0.3,0.2-0.7,0.5-0.9C25.7,80.6,25.6,81.6,26,81.7
						L26,81.7z"/>
					<path class="st3" d="M35.1,78.8c0.2-0.1,0.4-0.2,0.5-0.3c0,0.1,0,0.3,0,0.4C35.5,78.9,35.3,78.8,35.1,78.8z"/>
					<path class="st3" d="M151.1,98c-0.2,0-0.4,0-0.5,0C150.8,98,151,98,151.1,98z"/>
					<path class="st3" d="M142.7,78.8c0-0.1,0-0.2,0-0.4c0.1,0.1,0.2,0.2,0.4,0.3C142.9,78.8,142.8,78.8,142.7,78.8L142.7,78.8z"/>
					<path class="st3" d="M27.8,95.5c0.1,0,0.2,0,0.4,0.1c-0.1,0.1-0.1,0.1-0.2,0.2C27.9,95.8,27.8,95.5,27.8,95.5z"/>
					<path class="st3" d="M143.3,116.5c0.2,0,0.3,0,0.5,0c-0.2,0.1-0.3,0.2-0.5,0.4C143.3,116.7,143.3,116.6,143.3,116.5z"/>
					<path class="st5" d="M139.3,112.8c0.9-0.1,0.9,0.5,0.9,1.2c0,5.3,0,10.6,0,15.9c0,9.5,0,19,0,28.5c0,1.1-0.2,1.4-1.1,1.2
						c0-0.4,0-0.8,0-1.2c0-14.4,0-28.8,0-43.2C139.1,114.4,139.2,113.6,139.3,112.8L139.3,112.8z"/>
					<path class="st5" d="M134.8,112.8c0.2,0.2,0.5,0.4,0.7,0.7c0.1,0.1,0,0.4,0,0.6c0,14.8,0,29.5,0,44.3c0,0.6,0.1,1.3-0.9,1.2
						c-0.1-0.5-0.2-1-0.2-1.5c0-14.4,0-28.8,0-43.1C134.5,114.2,134.7,113.5,134.8,112.8L134.8,112.8z"/>
					<path class="st3" d="M130,112.8c0.7-0.1,0.9,0.3,0.9,0.9c0,0.6,0,1.2,0,1.9c0,14.2,0,28.3,0,42.5c0,0.3,0,0.7-0.1,1
						c-0.1,0.4-0.3,0.8-0.8,0.4c0-0.3,0-0.6,0-0.9c0-15,0-29.9,0-44.9C130,113.4,130,113.1,130,112.8L130,112.8z"/>
					<path class="st3" d="M130,112.8c0,0.3,0,0.6,0,0.9c0,15,0,29.9,0,44.9c0,0.3,0,0.6,0,0.9c-0.2-0.2-0.6-0.4-0.7-0.6
						c-0.1-0.2,0-0.5,0-0.8c0-14.7,0-29.3,0-44C129.3,113.6,129.1,112.9,130,112.8L130,112.8z"/>
					<path class="st3" d="M134.8,112.8c-0.1,0.7-0.3,1.4-0.3,2.2c0,14.4,0,28.8,0,43.1c0,0.5,0.1,1,0.2,1.5
						c-0.2-0.2-0.6-0.4-0.7-0.7c-0.1-0.2,0-0.5,0-0.7c0-14.7,0-29.4,0-44C133.9,113.5,133.7,112.7,134.8,112.8L134.8,112.8z"/>
					<path class="st3" d="M139.3,112.8c-0.1,0.8-0.2,1.6-0.2,2.4c0,14.4,0,28.8,0,43.2c0,0.4,0,0.8,0,1.2c-0.8-0.1-0.6-0.7-0.6-1.2
						c0-5.7,0-11.4,0-17.1c0-9.1,0-18.1,0-27.2C138.6,113.5,138.5,112.9,139.3,112.8L139.3,112.8z"/>
					<path class="st5" d="M37.5,136.2c0,7.2,0,14.4,0,21.7c0,0.2,0,0.4,0,0.6c0,0.6-0.2,1.2-0.9,1.2c-0.7,0-0.9-0.6-0.9-1.2
						c0-14.8,0-29.7,0-44.5c0-0.6,0-1.3,0.9-1.3c0.8,0,0.9,0.7,0.9,1.3C37.5,121.4,37.5,128.8,37.5,136.2L37.5,136.2z"/>
					<path class="st5" d="M46.1,159.6c-0.9,0.1-1.1-0.4-1.1-1.1c0-3.8,0-7.6,0-11.4c0-11,0-22.1,0-33.1c0-0.8,0-1.4,1.1-1.3
						c0.1,0.1,0.3,0.2,0.4,0.3c0.1,0.2,0.3,0.4,0.3,0.6c0,4.5-0.1,9.1-0.1,13.6c0,10.3,0,20.6,0,30.9c0,0.4-0.1,0.7-0.2,1.1
						C46.3,159.4,46.2,159.6,46.1,159.6z"/>
					<path class="st3" d="M41.9,113.2c0,0.3,0.2,0.6,0.2,0.9c0,14.6,0,29.2,0,43.8c0,0.4-0.1,0.7-0.2,1.1c-0.2-0.3-0.5-0.6-0.7-0.8
						c-0.1,0-0.1,0.1-0.2,0.1c0-0.4,0-0.7,0-1.1c0-11,0-21.9,0-32.9c0-1.5-0.8-3.2,0.7-4.6c-0.3-1.1,0.7-2.5-0.6-3.4
						c-0.1-0.1,0-0.3-0.1-0.5C40.8,114.9,41.9,114.3,41.9,113.2L41.9,113.2z"/>
					<path class="st5" d="M41.9,113.2c0,1-1.2,1.6-0.9,2.7c0,0.2,0,0.4,0.1,0.5c1.3,0.9,0.3,2.3,0.6,3.4c-1.5,1.3-0.6,3-0.7,4.6
						c-0.1,11,0,21.9,0,32.9c0,0.4,0,0.7,0,1.1c0.1,0,0.1-0.1,0.2-0.1c0.2,0.3,0.5,0.6,0.7,0.8c-0.4,0.1-0.8,0.4-1.1,0.4
						c-0.2,0-0.4-0.5-0.5-0.8c-0.1-0.2,0-0.4,0-0.6c0-14.6,0-29.1,0-43.7c0-0.2-0.1-0.5,0-0.7c0.1-0.3,0.3-0.8,0.6-0.9
						C41.3,112.7,41.6,113.1,41.9,113.2L41.9,113.2z"/>
					<path class="st3" d="M46.5,113.1c-0.1-0.1-0.3-0.2-0.4-0.3C46.2,112.9,46.3,113,46.5,113.1z"/>
					<path class="st5" d="M91.5,136.2c0-7.4,0-14.8,0-22.1c0-0.2-0.1-0.4,0-0.5c0.2-0.3,0.4-0.8,0.7-0.8c0.3,0,0.7,0.3,0.9,0.6
						c0.2,0.2,0.1,0.6,0.1,0.9c0,14.5,0,29.1,0,43.6c0,0.3,0.1,0.6,0,0.8c-0.2,0.4-0.6,0.8-0.9,0.9c-0.5,0.1-0.8-0.4-0.8-0.9
						c0-1.3,0-2.7,0-4C91.4,148.5,91.4,142.3,91.5,136.2L91.5,136.2z M92.7,144.7c-0.1-0.1-0.2-0.2-0.3-0.2c-0.1,0-0.2,0.1-0.2,0.2
						c0.1,0.1,0.2,0.2,0.3,0.2C92.5,144.9,92.6,144.8,92.7,144.7L92.7,144.7z M93,130.1c-0.4-0.2-0.5-0.3-0.6-0.3
						c-0.1,0-0.2,0.1-0.2,0.2c0.1,0.1,0.2,0.2,0.3,0.2C92.6,130.2,92.7,130.2,93,130.1L93,130.1z M92.7,152
						c-0.1-0.1-0.2-0.2-0.3-0.2c-0.1,0-0.2,0.1-0.2,0.2c0.1,0.1,0.2,0.2,0.3,0.2C92.5,152.3,92.6,152.1,92.7,152L92.7,152z
						 M92.4,137c-0.1,0.2-0.2,0.3-0.2,0.3c0,0.1,0.1,0.1,0.2,0.2c0.1-0.1,0.2-0.2,0.2-0.3C92.6,137.3,92.5,137.2,92.4,137L92.4,137z
						"/>
					<path class="st5" d="M83.9,115c0,0.4,0,0.7,0,1.1c0,13.9,0,27.8,0,41.6c0,0.4-0.1,0.8-0.1,1.2c-0.6-0.1-0.6,0.3-0.6,0.7
						c-0.7,0.1-1-0.3-1-0.9c0-0.2,0-0.4,0-0.5c0-14.7,0-29.3,0-44c0-1.3,0.2-1.5,1.1-1.4c-0.5,0.7-0.5,1.4-0.3,2.2L83.9,115
						L83.9,115z"/>
					<path class="st5" d="M88.5,157.5c0,0.4,0.2,0.9,0,1.2c-0.2,0.4-0.6,0.6-0.9,0.9c-0.3-0.3-0.6-0.6-0.8-0.9c-0.1-0.2,0-0.5,0-0.8
						c0-14.6,0-29.2,0-43.8c0-0.1,0-0.2,0-0.3c-0.1-0.7,0.3-1,1-1.1c0.8,0,0.7,0.6,0.8,1.1c0,0.9,0,1.7,0,2.6
						c-0.6,0-0.5-0.4-0.5-0.8c0-0.6,0-1.2,0-1.8c-0.1,0-0.2,0-0.3,0v44.3C88.1,158,88.3,157.8,88.5,157.5L88.5,157.5z"/>
					<path class="st3" d="M88.5,157.5c-0.2,0.2-0.5,0.4-0.8,0.6v-44.3c0.1,0,0.2,0,0.3,0c0,0.6,0,1.2,0,1.8c0,0.3-0.1,0.8,0.5,0.8
						c0,0.7,0,1.4,0,2.2c-0.7,0.3-0.7,1.1,0,1.6c0,0.7,0,1.4,0,2.2c-0.2,0.2-0.4,0.4-0.4,0.6c0,1.3-0.1,2.6,0,3.9
						c0,0.2,0.3,0.5,0.4,0.7c0,0.7,0,1.4,0,2.2c-0.2,0.2-0.4,0.4-0.5,0.6c0,5,0,10,0,15c0,0.2,0.3,0.4,0.5,0.6c0,0.7,0,1.4,0,2.2
						c-0.2,0.2-0.4,0.5-0.4,0.7c-0.1,1.3,0,2.6,0,3.9c0,0.2,0.3,0.4,0.4,0.6c0,0.7,0,1.4,0,2.2c-0.7,0.5-0.7,1.3,0,1.8
						C88.5,157.3,88.5,157.4,88.5,157.5L88.5,157.5z"/>
					<path class="st5" d="M88.5,145.9c-0.2-0.2-0.4-0.4-0.5-0.6c0-5,0-10,0-15c0-0.2,0.3-0.4,0.5-0.6c0,3.6,0,7.2,0,10.9
						C88.5,142.4,88.5,144.1,88.5,145.9L88.5,145.9z"/>
					<path class="st5" d="M88.5,127.6c-0.2-0.2-0.4-0.5-0.4-0.7c-0.1-1.3,0-2.6,0-3.9c0-0.2,0.3-0.4,0.4-0.6
						C88.5,124.1,88.5,125.9,88.5,127.6z"/>
					<path class="st3" d="M83.9,115h-0.9c-0.2-0.8-0.3-1.6,0.3-2.2c0.2,0.2,0.4,0.5,0.6,0.8c0,0.1,0.1,0.2,0.1,0.4
						C83.9,114.3,83.9,114.7,83.9,115z"/>
					<path class="st5" d="M88.5,120.2c-0.7-0.5-0.7-1.3,0-1.6C88.5,119.2,88.5,119.7,88.5,120.2z"/>
					<path class="st5" d="M83.9,114c0-0.1-0.1-0.2-0.1-0.4C83.8,113.7,83.8,113.8,83.9,114z"/>
					<path class="st5" d="M87.8,74.4c-5.6,0.5-10-4.3-9.7-9.5c0.2-4.5,4.1-8.3,8.5-8.5c0.9,0,1.7,0,2.6,0c0.2,0.2,0.4,0.4,0.7,0.5
						c2.1,0.5,3.8,1.9,4.8,3.7c1.8,2.9,2,6,0.3,9.1c-0.7,1.2-1.5,2.3-2.6,3c-1.3,0.8-2.7,1.7-4.4,1.5C88,74.2,87.9,74.3,87.8,74.4z"
						/>
					<path class="st3" d="M87.8,74.4c0.1-0.1,0.2-0.2,0.3-0.2c1.7,0.2,3.1-0.7,4.4-1.5c1.2-0.7,2-1.8,2.6-3c1.7-3.1,1.4-6.2-0.3-9.1
						c-1.1-1.8-2.7-3.1-4.8-3.7c-0.2-0.1-0.4-0.3-0.7-0.5c5.3,0.1,9.7,5.3,8.4,11.1c-1,4.3-5.1,7.3-9.5,7
						C88.1,74.5,87.9,74.4,87.8,74.4L87.8,74.4z"/>
					<path class="st3" d="M92.7,144.7c-0.1,0.1-0.2,0.2-0.3,0.2c-0.1-0.1-0.2-0.2-0.3-0.2c0.1-0.1,0.2-0.2,0.2-0.2
						C92.5,144.5,92.6,144.6,92.7,144.7L92.7,144.7z"/>
					<path class="st3" d="M93,130.1c-0.3,0.1-0.4,0.1-0.5,0.1c-0.1,0-0.2-0.1-0.3-0.2c0.1-0.1,0.1-0.2,0.2-0.2
						C92.5,129.8,92.6,129.9,93,130.1L93,130.1z"/>
					<path class="st3" d="M92.4,137c0.1,0.1,0.3,0.2,0.3,0.2c0,0.1-0.1,0.2-0.2,0.3c-0.1-0.1-0.2-0.1-0.2-0.2
						C92.2,137.3,92.3,137.2,92.4,137L92.4,137z"/>
					<rect x="97.8" y="123.4" class="st5" width="27.4" height="33.9"/>
					<rect x="53.4" y="126.7" class="st3" width="23.9" height="33.9"/>
				</g>
			</g>
		</g>
		<circle class="st8" cx="77.6" cy="77.4" r="73.4"/>
	</g>
</g>
</svg>
