<?xml version="1.0" encoding="UTF-8"?><svg id="Layer_2" xmlns="http://www.w3.org/2000/svg" viewBox="0 0 254.15 68.42"><defs><style>.cls-1{fill:#023039;}.cls-2{fill:#fff;}</style></defs><g id="Layer_1-2"><polygon class="cls-1" points="242.93 68.42 0 68.42 11.22 0 254.15 0 242.93 68.42"/><g><path class="cls-2" d="M34.15,41.75c-2.05-.03-3.69-.35-4.92-.96-1.24-.61-2.11-1.4-2.61-2.36-.51-.97-.67-1.99-.5-3.07,.03-.17,.13-.32,.29-.45,.16-.13,.33-.2,.52-.2l3.87,.05c.29,0,.5,.06,.63,.16s.24,.24,.33,.41c.1,.31,.27,.62,.51,.91,.24,.3,.58,.54,1.03,.72,.45,.18,1.03,.28,1.75,.29,1.19,.02,2.12-.16,2.8-.53,.68-.37,1.08-.87,1.21-1.52,.09-.46,0-.84-.26-1.15-.27-.31-.74-.58-1.42-.83-.68-.25-1.6-.51-2.76-.77-1.49-.35-2.73-.8-3.72-1.35-.99-.55-1.69-1.25-2.09-2.12-.4-.87-.48-1.95-.22-3.24,.25-1.27,.83-2.4,1.73-3.39,.9-.99,2.05-1.76,3.43-2.3,1.38-.55,2.94-.81,4.68-.78,1.41,.02,2.62,.22,3.62,.61,1,.39,1.81,.9,2.42,1.53,.61,.63,1.04,1.3,1.28,2,.24,.7,.31,1.39,.19,2.05-.03,.17-.12,.32-.27,.45-.15,.13-.32,.2-.5,.2l-4.05-.05c-.23,0-.41-.05-.56-.13-.15-.09-.26-.22-.35-.41-.03-.46-.28-.86-.73-1.21-.46-.35-1.1-.53-1.94-.54-.9-.01-1.63,.14-2.2,.46-.57,.32-.92,.8-1.05,1.47-.08,.42-.02,.78,.2,1.1,.21,.32,.62,.59,1.22,.83s1.44,.49,2.52,.75c1.79,.38,3.21,.84,4.25,1.39,1.04,.54,1.75,1.24,2.11,2.09,.37,.85,.42,1.91,.17,3.18-.28,1.41-.92,2.63-1.91,3.65-.99,1.02-2.24,1.79-3.74,2.31-1.5,.52-3.15,.77-4.95,.75Z"/><path class="cls-2" d="M55.28,42.02c-1.95-.03-3.55-.37-4.8-1.03-1.25-.66-2.14-1.62-2.66-2.88-.52-1.26-.64-2.81-.35-4.67,.15-.85,.32-1.77,.51-2.75,.19-.98,.39-1.91,.59-2.81,.44-1.81,1.17-3.34,2.2-4.58,1.03-1.25,2.3-2.19,3.82-2.83,1.52-.64,3.24-.94,5.14-.92,1.35,.02,2.57,.21,3.65,.57,1.08,.36,1.98,.87,2.71,1.54,.73,.67,1.25,1.47,1.54,2.4,.3,.93,.34,1.98,.13,3.14-.02,.19-.1,.34-.26,.47-.16,.12-.33,.18-.51,.18l-4.15-.06c-.27,0-.46-.06-.58-.18-.12-.12-.2-.33-.24-.64-.07-1.11-.38-1.87-.95-2.28-.57-.41-1.32-.63-2.26-.64-1.13-.01-2.08,.29-2.86,.92-.78,.63-1.35,1.68-1.7,3.15-.4,1.71-.75,3.45-1.04,5.24-.23,1.48-.08,2.54,.45,3.18,.53,.64,1.36,.97,2.48,.99,.94,.01,1.78-.18,2.52-.59,.74-.41,1.35-1.15,1.83-2.23,.14-.31,.3-.52,.48-.63,.18-.11,.4-.17,.66-.16l4.15,.06c.18,0,.33,.07,.44,.19,.11,.13,.13,.28,.08,.47-.25,1.17-.71,2.21-1.37,3.13-.67,.92-1.49,1.7-2.48,2.35s-2.09,1.13-3.31,1.46c-1.21,.33-2.5,.48-3.85,.47Z"/><path class="cls-2" d="M68.86,41.89c-.23,0-.39-.08-.51-.23-.11-.15-.15-.33-.1-.56l4.02-20.28c.04-.23,.15-.42,.33-.56,.17-.14,.37-.21,.6-.21l14.34,.19c.23,0,.4,.08,.51,.23s.15,.34,.1,.56l-.58,2.93c-.04,.23-.15,.42-.33,.56-.17,.14-.37,.21-.6,.21l-9.8-.13-.83,4.21,9.12,.12c.23,0,.39,.08,.51,.24s.15,.35,.1,.58l-.54,2.71c-.04,.21-.15,.39-.32,.54-.17,.15-.37,.23-.6,.23l-9.12-.12-.86,4.34,10.04,.13c.23,0,.39,.08,.51,.23,.12,.15,.15,.33,.1,.56l-.58,2.93c-.04,.23-.15,.42-.33,.56-.17,.14-.37,.21-.6,.21l-14.59-.19Z"/><path class="cls-2" d="M88.49,42.15c-.23,0-.39-.08-.51-.23-.11-.15-.15-.33-.1-.56l4.02-20.28c.04-.23,.15-.42,.33-.56,.17-.14,.37-.21,.6-.21l3.26,.04c.35,0,.58,.08,.71,.24,.12,.16,.2,.28,.22,.36l5.12,12.11,2.34-11.83c.04-.23,.16-.42,.33-.56s.37-.21,.6-.21l3.69,.05c.22,0,.4,.08,.51,.22s.15,.34,.1,.56l-4.02,20.28c-.04,.21-.15,.39-.32,.54-.17,.15-.37,.23-.6,.23l-3.29-.04c-.33,0-.55-.09-.67-.26-.12-.17-.2-.28-.22-.35l-5.21-11.65-2.25,11.36c-.04,.23-.15,.42-.33,.56s-.37,.21-.6,.21l-3.69-.05Z"/><path class="cls-2" d="M108.58,42.42c-.16,0-.3-.07-.41-.21s-.14-.29-.11-.46c.02-.1,.05-.2,.09-.28l11.19-19.94c.11-.23,.28-.43,.5-.6,.23-.17,.52-.26,.87-.25l4.55,.06c.35,0,.6,.1,.76,.28,.16,.18,.25,.38,.26,.61l3.22,20.13c.02,.08,.03,.18,0,.28-.03,.17-.13,.32-.29,.45-.16,.13-.33,.2-.52,.2l-3.78-.05c-.31,0-.52-.09-.64-.24-.12-.16-.19-.3-.21-.42l-.57-3.2-8.2-.11-1.8,3.17c-.07,.12-.19,.26-.36,.42-.17,.15-.44,.23-.78,.22l-3.78-.05Zm8.87-8.24l5.71,.08-1.26-8.28-4.46,8.2Z"/><path class="cls-2" d="M132.57,42.73c-.23,0-.39-.08-.51-.23-.11-.15-.15-.33-.1-.56l4.02-20.28c.04-.23,.15-.42,.33-.56,.17-.14,.37-.21,.6-.21l8.36,.11c2.64,.04,4.6,.68,5.88,1.94,1.28,1.26,1.7,3.02,1.25,5.29-.29,1.48-.89,2.72-1.8,3.73-.91,1.01-1.99,1.77-3.24,2.27l2.72,7.73c.04,.12,.04,.24,.02,.34-.03,.17-.13,.32-.29,.45-.16,.13-.33,.2-.52,.2l-4.05-.05c-.39,0-.66-.11-.8-.31-.14-.2-.24-.38-.29-.55l-2.14-6.91-3.16-.04-1.37,6.93c-.04,.23-.15,.42-.33,.56s-.37,.21-.6,.21l-3.96-.05Zm7.13-12.04l3.56,.05c.96,.01,1.73-.22,2.31-.69,.58-.47,.95-1.12,1.11-1.96,.16-.81,.06-1.47-.3-1.97-.36-.5-1.05-.76-2.05-.78l-3.56-.05-1.07,5.4Z"/><path class="cls-2" d="M153.79,43.01c-.23,0-.39-.08-.51-.23-.11-.15-.15-.33-.1-.56l4.02-20.28c.04-.23,.15-.42,.33-.56,.17-.14,.37-.21,.6-.21l4.12,.05c.22,0,.4,.08,.51,.23,.12,.15,.15,.34,.1,.56l-4.02,20.28c-.04,.23-.15,.42-.33,.56-.17,.14-.37,.21-.6,.21l-4.12-.05Z"/><path class="cls-2" d="M171.7,43.56c-1.88-.02-3.46-.36-4.73-1-1.27-.64-2.17-1.6-2.7-2.87-.53-1.27-.65-2.85-.35-4.74,.16-.9,.32-1.79,.5-2.68s.37-1.8,.57-2.71c.45-1.87,1.2-3.44,2.24-4.71,1.04-1.27,2.32-2.22,3.84-2.84s3.21-.93,5.08-.9c1.84,.02,3.4,.37,4.68,1.03,1.28,.66,2.18,1.64,2.73,2.93,.54,1.29,.66,2.87,.35,4.74-.14,.92-.3,1.82-.48,2.72s-.38,1.79-.59,2.68c-.46,1.89-1.2,3.46-2.23,4.71-1.03,1.25-2.3,2.18-3.82,2.78-1.52,.61-3.22,.9-5.1,.87Zm.89-4.49c1.08,.01,2.04-.31,2.86-.96,.82-.66,1.39-1.71,1.72-3.17,.22-.91,.41-1.78,.57-2.59s.31-1.65,.44-2.53c.15-.98,.13-1.78-.07-2.39-.2-.62-.54-1.08-1.04-1.38-.49-.3-1.1-.45-1.82-.46-.7,0-1.35,.13-1.96,.41-.61,.28-1.14,.73-1.59,1.34-.45,.61-.79,1.4-1.03,2.38-.19,.87-.37,1.71-.53,2.53s-.32,1.67-.48,2.59c-.23,1.46-.07,2.52,.48,3.2s1.36,1.02,2.44,1.03Z"/><path class="cls-2" d="M197.75,43.59c-.21,0-.37-.08-.5-.23-.12-.15-.16-.33-.12-.56l2.94-14.85-4.86,3.22c-.21,.14-.41,.19-.6,.15s-.33-.16-.44-.35l-1.34-2.43c-.09-.19-.09-.39-.02-.61,.07-.22,.23-.39,.46-.51l8.17-5.46c.14-.08,.27-.14,.39-.17,.12-.03,.25-.04,.39-.04l3.84,.05c.21,0,.37,.08,.5,.22,.12,.15,.16,.34,.12,.56l-4.02,20.28c-.04,.23-.16,.42-.34,.56-.18,.14-.38,.21-.58,.21l-3.99-.05Z"/><path class="cls-2" d="M214.86,44.13c-1.47-.02-2.71-.25-3.71-.69-1-.44-1.78-1.04-2.34-1.8-.56-.76-.92-1.64-1.09-2.64-.17-1-.17-2.08,0-3.22,.09-.56,.2-1.2,.33-1.92,.13-.72,.28-1.45,.43-2.18,.16-.74,.3-1.4,.44-1.98,.29-1.14,.72-2.21,1.29-3.19,.57-.98,1.3-1.84,2.17-2.57,.87-.73,1.89-1.29,3.05-1.7,1.16-.4,2.45-.59,3.89-.57,1.45,.02,2.67,.25,3.66,.67,.98,.43,1.76,1.02,2.34,1.77,.58,.75,.97,1.62,1.16,2.61,.19,1,.2,2.06,.01,3.21-.07,.58-.18,1.24-.32,1.98-.14,.74-.28,1.47-.43,2.18-.15,.72-.3,1.36-.46,1.92-.27,1.14-.69,2.21-1.27,3.21-.58,.99-1.29,1.86-2.15,2.6-.86,.74-1.86,1.32-3.02,1.73-1.16,.41-2.49,.61-3.98,.59Zm.9-4.52c1.06,.01,1.91-.32,2.53-1.02,.62-.69,1.06-1.63,1.31-2.81,.16-.6,.31-1.24,.45-1.9,.14-.67,.27-1.33,.4-2,.12-.67,.22-1.28,.29-1.84,.21-1.14,.14-2.07-.2-2.79-.34-.71-1.04-1.09-2.1-1.12-1.07,0-1.91,.36-2.52,1.06-.61,.7-1.05,1.62-1.32,2.77-.13,.56-.27,1.17-.41,1.84-.14,.67-.27,1.33-.4,2-.12,.67-.23,1.3-.33,1.9-.19,1.18-.11,2.13,.24,2.83,.35,.7,1.04,1.06,2.07,1.08Z"/></g></g></svg>