<?xml version="1.0" encoding="UTF-8"?><svg id="Layer_2" xmlns="http://www.w3.org/2000/svg" viewBox="0 0 254.15 68.42"><defs><style>.cls-1{fill:#023039;}.cls-2{fill:#fff;}</style></defs><g id="Layer_1-2"><polygon class="cls-1" points="242.93 68.42 0 68.42 11.22 0 254.15 0 242.93 68.42"/><g><path class="cls-2" d="M40.93,44.48c-2.05,0-3.69-.28-4.94-.87-1.25-.59-2.13-1.36-2.65-2.32s-.71-1.98-.55-3.06c.03-.17,.12-.32,.28-.46,.16-.13,.33-.2,.51-.2l3.87-.02c.29,0,.5,.05,.63,.15,.14,.1,.25,.24,.34,.4,.11,.31,.28,.62,.53,.91,.24,.29,.59,.53,1.04,.7s1.03,.26,1.75,.26c1.19,0,2.12-.2,2.79-.57s1.07-.89,1.18-1.54c.08-.46-.01-.84-.28-1.14-.27-.3-.75-.57-1.44-.81-.68-.24-1.61-.48-2.77-.72-1.5-.33-2.74-.76-3.74-1.29-1-.53-1.71-1.22-2.12-2.09-.42-.86-.51-1.94-.27-3.24,.23-1.27,.79-2.41,1.68-3.42,.89-1,2.02-1.79,3.39-2.36,1.37-.57,2.93-.86,4.67-.86,1.41,0,2.62,.18,3.63,.55,1.01,.37,1.82,.87,2.45,1.49,.62,.62,1.06,1.29,1.32,1.98,.25,.7,.33,1.38,.23,2.05-.03,.17-.12,.32-.27,.45-.15,.14-.31,.21-.5,.21l-4.05,.02c-.23,0-.41-.04-.56-.12-.15-.08-.27-.22-.36-.41-.04-.46-.29-.86-.75-1.2s-1.11-.51-1.95-.51c-.9,0-1.63,.17-2.19,.49-.56,.32-.9,.82-1.02,1.49-.08,.42,0,.78,.22,1.1s.63,.58,1.24,.81c.6,.23,1.45,.46,2.53,.71,1.8,.35,3.22,.79,4.28,1.31,1.05,.53,1.77,1.21,2.14,2.06,.38,.84,.46,1.9,.22,3.17-.26,1.42-.87,2.65-1.85,3.68-.97,1.04-2.21,1.83-3.7,2.38-1.49,.55-3.14,.82-4.94,.83Z"/><path class="cls-2" d="M62.06,44.41c-1.95,0-3.55-.31-4.82-.95s-2.17-1.59-2.71-2.84c-.54-1.25-.69-2.8-.43-4.66,.13-.86,.29-1.77,.47-2.75,.18-.98,.36-1.92,.54-2.82,.41-1.82,1.12-3.36,2.12-4.62,1.01-1.26,2.27-2.23,3.78-2.89s3.22-1,5.12-1c1.35,0,2.57,.16,3.65,.5,1.08,.34,2,.84,2.74,1.49,.74,.65,1.27,1.45,1.58,2.37,.31,.93,.37,1.97,.18,3.14-.01,.19-.1,.35-.25,.47-.16,.12-.33,.19-.51,.19h-4.15c-.27,.02-.46-.04-.58-.16-.12-.11-.21-.33-.25-.64-.09-1.11-.42-1.86-.99-2.26-.57-.41-1.33-.61-2.27-.6-1.13,0-2.07,.33-2.84,.96s-1.32,1.7-1.65,3.18c-.37,1.71-.69,3.46-.95,5.26-.21,1.48-.04,2.54,.5,3.17,.54,.63,1.37,.95,2.5,.94,.94,0,1.78-.21,2.51-.63,.73-.42,1.33-1.17,1.79-2.26,.14-.31,.29-.53,.47-.64,.17-.11,.39-.17,.66-.17h4.15c.18-.02,.33,.05,.44,.17,.11,.12,.14,.28,.08,.47-.23,1.17-.67,2.22-1.32,3.15-.65,.93-1.46,1.73-2.44,2.39-.98,.66-2.07,1.17-3.28,1.51-1.21,.35-2.49,.53-3.84,.53Z"/><path class="cls-2" d="M75.63,44.05c-.23,0-.4-.07-.51-.22-.12-.14-.15-.33-.11-.56l3.68-20.35c.04-.23,.15-.42,.32-.56s.37-.22,.59-.22l14.35-.05c.23,0,.4,.07,.51,.22,.12,.14,.15,.33,.11,.56l-.53,2.94c-.04,.23-.15,.42-.32,.56-.17,.15-.37,.22-.59,.22l-9.8,.04-.76,4.23,9.12-.03c.23,0,.4,.08,.51,.23,.12,.16,.15,.35,.11,.58l-.49,2.72c-.04,.21-.14,.39-.32,.55-.17,.16-.37,.24-.59,.24l-9.12,.03-.79,4.35,10.05-.04c.23,0,.4,.07,.51,.22s.16,.33,.11,.56l-.53,2.94c-.04,.23-.15,.42-.32,.56-.17,.15-.37,.22-.59,.22l-14.59,.05Z"/><path class="cls-2" d="M95.26,43.98c-.23,0-.4-.07-.51-.22-.12-.14-.15-.33-.11-.56l3.68-20.35c.04-.23,.15-.42,.32-.56s.37-.22,.59-.22h3.26c.35-.01,.58,.06,.71,.22,.12,.16,.2,.28,.23,.36l5.32,12.02,2.14-11.86c.04-.23,.15-.42,.32-.56,.17-.15,.37-.22,.59-.22h3.69c.22-.01,.4,.06,.51,.21,.12,.14,.15,.33,.11,.56l-3.68,20.35c-.04,.21-.14,.39-.31,.55-.17,.16-.37,.23-.59,.24h-3.29c-.33,.01-.55-.07-.68-.24-.12-.17-.2-.28-.23-.34l-5.4-11.55-2.06,11.39c-.04,.23-.15,.42-.32,.56-.17,.15-.37,.22-.59,.22h-3.69Z"/><path class="cls-2" d="M115.35,43.9c-.16,0-.3-.07-.41-.2-.11-.13-.15-.29-.12-.45,.02-.1,.05-.2,.08-.28l10.85-20.12c.1-.23,.27-.43,.49-.61,.23-.18,.51-.27,.86-.27l4.55-.02c.35,0,.6,.09,.77,.26,.16,.18,.25,.38,.27,.61l3.56,20.07c.03,.08,.03,.18,.01,.28-.03,.17-.12,.32-.28,.45-.16,.14-.33,.21-.51,.21h-3.78c-.31,.01-.52-.06-.65-.22-.13-.16-.2-.3-.22-.42l-.62-3.19-8.2,.03-1.75,3.2c-.06,.12-.18,.27-.35,.42-.17,.16-.43,.24-.78,.24h-3.78Zm8.73-8.37l5.71-.02-1.39-8.25-4.32,8.27Z"/><path class="cls-2" d="M139.35,43.82c-.23,0-.4-.07-.51-.22-.12-.14-.15-.33-.11-.56l3.68-20.35c.04-.23,.15-.42,.32-.56s.37-.22,.59-.22l8.36-.03c2.64,0,4.61,.6,5.92,1.84,1.3,1.24,1.75,2.99,1.33,5.27-.27,1.48-.85,2.73-1.74,3.76s-1.96,1.8-3.2,2.33l2.85,7.69c.04,.12,.05,.24,.03,.34-.03,.17-.12,.32-.28,.45-.16,.14-.33,.21-.51,.21h-4.06c-.39,.02-.66-.08-.81-.28-.15-.2-.25-.38-.3-.55l-2.26-6.88h-3.16s-1.26,6.96-1.26,6.96c-.04,.23-.15,.42-.32,.56-.17,.15-.37,.22-.59,.22l-3.96,.02Zm6.93-12.16h3.56c.96-.02,1.73-.26,2.3-.74,.57-.48,.93-1.14,1.08-1.97,.15-.81,.04-1.47-.33-1.97-.37-.5-1.06-.75-2.06-.74h-3.56s-.98,5.43-.98,5.43Z"/><path class="cls-2" d="M160.58,43.74c-.23,0-.4-.07-.51-.22-.12-.14-.15-.33-.11-.56l3.68-20.35c.04-.23,.15-.42,.32-.56s.37-.22,.59-.22h4.12c.22-.01,.4,.06,.51,.2,.12,.15,.15,.33,.11,.56l-3.68,20.35c-.04,.23-.15,.42-.32,.56-.17,.15-.37,.22-.59,.22h-4.12Z"/><path class="cls-2" d="M178.49,43.99c-1.88,0-3.47-.3-4.75-.92-1.28-.62-2.2-1.56-2.75-2.82-.55-1.26-.69-2.84-.43-4.74,.14-.9,.29-1.79,.46-2.69,.16-.9,.34-1.8,.52-2.72,.42-1.88,1.14-3.46,2.16-4.75,1.02-1.28,2.29-2.25,3.79-2.91s3.2-.98,5.06-.99c1.84,0,3.41,.31,4.69,.95,1.29,.64,2.21,1.6,2.78,2.88,.57,1.28,.71,2.86,.43,4.74-.12,.92-.27,1.82-.43,2.72-.16,.9-.34,1.8-.55,2.69-.42,1.9-1.14,3.48-2.15,4.75-1.01,1.27-2.26,2.21-3.77,2.85-1.51,.63-3.2,.95-5.08,.96Zm.81-4.51c1.08,0,2.03-.34,2.84-1.01,.81-.67,1.36-1.73,1.67-3.2,.21-.92,.38-1.79,.53-2.6,.15-.81,.28-1.66,.4-2.54,.14-.98,.1-1.78-.11-2.39-.21-.62-.56-1.07-1.06-1.36-.5-.29-1.11-.43-1.83-.43-.7,0-1.35,.15-1.95,.45s-1.13,.75-1.57,1.37c-.44,.62-.77,1.41-.99,2.4-.18,.88-.34,1.72-.49,2.54-.15,.81-.29,1.68-.44,2.6-.2,1.46-.03,2.52,.53,3.19,.56,.67,1.38,.99,2.46,.99Z"/><path class="cls-2" d="M207.98,43.57c-.21,0-.37-.07-.5-.22-.13-.14-.17-.33-.13-.56l.64-3.54-9.55,.03c-.21,0-.37-.07-.5-.22-.13-.14-.17-.33-.13-.56l.54-2.97c.03-.19,.1-.36,.2-.52,.1-.16,.2-.31,.31-.46l11.17-12.37c.33-.36,.74-.53,1.23-.54l4.45-.02c.23,0,.4,.07,.53,.22,.13,.14,.17,.33,.13,.56l-2.2,12.15h2.7c.25,0,.43,.07,.54,.22s.15,.34,.12,.55l-.56,3.1c-.04,.23-.15,.42-.33,.56-.18,.15-.37,.22-.58,.22h-2.73s-.64,3.55-.64,3.55c-.04,.23-.15,.42-.33,.56-.18,.15-.38,.22-.61,.22h-3.78Zm-4.22-8.73l5.16-.02,1.33-7.39-6.5,7.41Z"/></g></g></svg>