<?xml version="1.0" encoding="utf-8"?>
<!-- Generator: Adobe Illustrator 26.4.1, SVG Export Plug-In . SVG Version: 6.00 Build 0)  -->
<svg version="1.1" id="Layer_2_00000138557663982082525330000005032898673185546673_"
	 xmlns="http://www.w3.org/2000/svg" xmlns:xlink="http://www.w3.org/1999/xlink" x="0px" y="0px" viewBox="0 0 155.6 155.6"
	 style="enable-background:new 0 0 155.6 155.6;" xml:space="preserve">
<style type="text/css">
	.st0{clip-path:url(#SVGID_00000023968193860353749090000013009402847269041547_);}
	.st1{fill:#50A2CA;}
	.st2{fill:#36A7DC;}
	.st3{fill:#F4AC74;}
	.st4{fill:#809750;}
	.st5{fill:#485431;}
	.st6{fill:#BFD781;}
	.st7{fill:#627041;}
	.st8{fill:#CDD6BB;}
	.st9{fill:#738945;}
	.st10{fill:none;stroke:#002A33;stroke-width:8;stroke-miterlimit:10;}
</style>
<g id="Layer_1-2">
	<g>
		<g>
			<defs>
				<circle id="SVGID_1_" cx="78.8" cy="77.4" r="71.2"/>
			</defs>
			<clipPath id="SVGID_00000073680675150636286770000018145187960338251165_">
				<use xlink:href="#SVGID_1_"  style="overflow:visible;"/>
			</clipPath>
			<g style="clip-path:url(#SVGID_00000073680675150636286770000018145187960338251165_);">
				<rect x="4.4" y="6.8" class="st1" width="149.1" height="148.1"/>
				<path class="st2" d="M150.2,156.3L150.2,156.3c2.7,0,5.4,0,8.1,0c1.5,0,2.6-0.7,3.1-2.2c0.4-1.5-0.4-2.4-1.5-3.3
					c-0.4-0.3-0.9-0.9-1-1.4c-0.6-2.2-2.1-3.3-4.3-2.9c-0.9,0.2-1.4,0.1-2.1-0.7c-2.9-3.3-7.6-2.4-9.2,1.8c-0.2,0.4-0.7,0.9-1.1,1
					c-2.7,0.4-4.2,1.8-4.1,3.9c0.1,2.3,1.8,3.7,4.5,3.7C145.1,156.3,147.6,156.3,150.2,156.3L150.2,156.3z"/>
				<path class="st3" d="M12.4,117.8c-0.2-0.1-0.5-0.3-0.8-0.4c0.3-0.1,0.5-0.2,0.8-0.3C12.4,117.3,12.4,117.5,12.4,117.8
					L12.4,117.8z"/>
				<g>
					<path class="st4" d="M-19.5,40.2c0.1-1,0.1-2.1,0.2-3.2c0.3-3.3,0.4-6.5,0.2-9.8c-0.3-4.4-0.8-8.8-1.2-13.2c0-0.1,0-0.1,0-0.1
						c0.2,0.1,0.4,0.2,0.5,0.3c1.3,1.2,2.6,2.4,3.9,3.6c1.8,1.7,3.7,3.4,5.5,5.1c1.3,1.2,2.5,2.4,3.8,3.6c0.6,0.6,1.3,1.2,1.9,1.8
						c1.1,1,2.2,2,3.4,3.1c1.5,1.4,3,2.9,4.5,4.3c0.7,0.7,1.4,1.3,2,1.9c1.1,1.1,2.3,2.2,3.4,3.2c1,0.9,1.9,1.8,2.9,2.7
						c0.8,0.7,1.5,1.5,2.3,2.2c0,0,0.1,0.1,0.1,0.1c0,0,0,0,0.1,0.1c0.1,0.1,0.1,0.1,0.2,0.2l0,0c0,0.1,0.1,0.1,0.1,0.2l0,0
						c0,0.1,0,0.1,0.1,0.2c0.8,1,1.6,2,2.4,3c1.7,2,3.3,4,4.9,6.1c1.6,2,3.2,4,4.8,6c2,2.6,4.1,5.3,6,7.9c1.6,2.2,3.2,4.5,4.8,6.7
						c1,1.4,2,2.8,3,4.3c1.1,1.6,2.2,3.2,3.3,4.9c0.2,0.3,0.4,0.3,0.7,0.2c1.1-0.3,2.1-0.6,3.2-0.9c1.9-0.4,3.8-0.7,5.6-1
						c0.2,0.2,0.4,0.4,0.7,0.6c0.6,0.6,1.2,1.1,1.8,1.7c0.1,1.5,0.2,3.1,0.3,4.6c0.1,2.4,0.1,4.8,0,7.2c0,2.2-0.2,4.3-0.3,6.5
						c-0.1,1.5-0.2,3.1-0.4,4.6c-0.3,2.2-0.6,4.4-0.9,6.6c0,0.1,0.1,0.2,0.2,0.3c-0.1,0.3-0.2,0.2-0.4,0c-0.6-0.7-1.2-1.4-1.8-2.1
						c-1.9-2.2-3.8-4.3-5.7-6.5c-1.4-1.6-2.9-3.2-4.3-4.8c-0.4-0.5-0.9-1-1.3-1.5c-3.8-4.1-7.6-8.2-11.5-12.3
						c-1.3-1.4-2.7-2.9-4.1-4.3c-0.8-0.9-1.7-1.8-2.5-2.7c-2.4-2.4-4.8-4.9-7.2-7.3c-0.2-0.2-0.3-0.3-0.4-0.5
						c-0.1-0.1-0.3-0.3-0.4-0.4c-0.1-0.1-0.2-0.2-0.2-0.2c-0.2-0.2-0.4-0.4-0.6-0.7c-0.8-0.8-1.6-1.7-2.4-2.5
						c-1.5-1.5-2.9-2.9-4.4-4.4s-2.9-2.9-4.4-4.4c-1.7-1.7-3.4-3.4-5.2-5c-0.3-0.3-0.6-0.6-1-0.9c-1.3-1.3-2.6-2.6-4-3.9
						c-1.8-1.8-3.7-3.5-5.5-5.2c-1.6-1.5-3.3-3-4.9-4.6C-18.3,41.2-18.9,40.7-19.5,40.2L-19.5,40.2z"/>
					<path class="st5" d="M54.6,115.9c-0.1-0.1-0.2-0.2-0.2-0.3c0.3-2.2,0.7-4.4,0.9-6.6c0.2-1.5,0.3-3.1,0.4-4.6
						c0.1-2.2,0.3-4.3,0.3-6.5c0.1-2.4,0-4.8,0-7.2c0-1.5-0.2-3.1-0.3-4.6c1-0.2,2.1-0.5,3.1-0.7c1.2-0.3,2.5-0.6,3.7-0.9
						c1.5-0.4,3-0.7,4.5-1.1c0.8-0.2,1.6-0.4,2.4-0.6c1-0.2,1.9-0.5,2.9-0.8c2.3-0.6,4.7-1.2,7-1.8c0.9-0.2,1.7-0.5,2.6-0.7
						c1.5-0.4,3-0.8,4.4-1.1c0.8-0.1,1.7-0.3,2.5-0.4c2.4-0.4,4.7-0.8,7.1-1.2c2.9-0.4,5.8-0.9,8.7-1.3c2.9-0.4,5.8-0.9,8.7-1.3
						c2.8-0.4,5.5-0.8,8.3-1.2c0.8-0.1,1.6-0.2,2.5-0.4c-0.1-0.2-0.1-0.3-0.2-0.4c-0.4-0.5-0.7-1.1-1.1-1.6c-1-1.1-2-2.2-3-3.3
						c0-0.1,0.1-0.2,0.1-0.2c0.8-0.3,1.6-0.6,2.4-0.9c1.7-0.7,3.5-1.4,5.2-2.1c0.5-0.2,1.1-0.3,1.7-0.5c-1,4-1.9,8.1-2.4,12.2
						c-0.5,4.3-0.9,8.6-1.4,12.9c-0.1,0.9-0.1,1.8-0.2,2.7c-0.2,0-0.3,0.1-0.5,0.1c-6.7,1.9-13.4,3.9-20.1,5.8
						c-0.6,0.2-1.1,0.4-1.7,0.6c-0.9,0.3-1.7,0.6-2.6,0.8c-0.1,0-0.3,0.1-0.4,0.1c-0.1,0-0.2,0.1-0.2,0.1c-0.2,0.1-0.4,0.2-0.6,0.3
						l-0.4,0.1c0,0-0.1,0-0.1,0c-0.5,0.1-0.9,0.2-1.4,0.4c-0.3,0.1-0.7,0.3-1,0.4c-0.2,0.1-0.5,0.1-0.7,0.2c-0.7,0.2-1.4,0.4-2,0.7
						c-0.7,0.3-1.5,0.6-2.2,0.8c-0.5,0.2-1,0.3-1.4,0.5l-1.3,0.4c-0.1,0-0.2,0.1-0.3,0.1c-0.3,0.1-0.6,0.2-1,0.4c-0.1,0-0.2,0-0.2,0
						c-4.5,1.7-8.9,3.3-13.4,4.9c-0.2,0.1-0.4,0.1-0.6,0.2c-0.4,0-0.9-0.1-1.3-0.1c-0.9,0-0.9,0-0.9,0.9c0,0,0,0.1,0,0.1
						c-0.1,0-0.1,0-0.2,0c-2.2,0.8-4.3,1.7-6.4,2.6C61.2,113.2,57.9,114.5,54.6,115.9L54.6,115.9z"/>
					<path class="st6" d="M-20.2,13.7c-0.1-0.2-0.2-0.4-0.3-0.6c0.8-0.1,1.6-0.3,2.4-0.4c1.4-0.2,2.7-0.4,4.1-0.6
						c2.5-0.4,5-0.8,7.5-1.2c3.7-0.6,7.4-1.3,11.1-2.1s7.4-1.5,11-2.4c4-1,8.1-2,12-3.2c3.3-1,6.6-2.1,9.8-3.2
						c1.8-0.6,3.5-1.3,5.2-1.9c0.3-0.1,0.5,0,0.7,0.1c2.2,1.6,4.4,3.2,6.6,4.8c3.1,2.2,6.2,4.3,9.3,6.5c2.2,1.5,4.3,3.1,6.5,4.5
						c3,2.1,6,4.1,9,6.1c3.4,2.3,6.8,4.6,10.3,6.9c3.3,2.2,6.6,4.4,9.9,6.5c2.5,1.6,4.9,3.2,7.4,4.8c2.2,1.4,4.4,2.9,6.7,4.3
						c2.6,1.6,5.2,3.3,7.7,4.9c2.9,1.8,5.9,3.7,8.8,5.5c1.6,1,3.3,2,4.9,3c0.1,0.1,0.3,0.2,0.4,0.3c-0.9,0.5-1.7,0.9-2.5,1.4
						c-1.1,0.6-2.3,1.2-3.4,1.8c-0.1,0.1-0.2,0.2-0.4,0.2c-0.1,0-0.2,0-0.3,0.1c-2.3,1.1-4.6,2.3-6.9,3.3c-4.6,2-9.3,3.9-14,5.7
						c-4.1,1.5-8.3,2.9-12.4,4.2c-4.8,1.5-9.6,2.9-14.5,4.2C70.7,78.7,65,80,59.4,81.4c-0.6,0.1-0.9,0-1.3-0.4
						c-1.8-1.7-3.7-3.3-5.5-5c-3.2-2.8-6.3-5.7-9.5-8.5c-2-1.8-3.9-3.5-5.9-5.3c-3.1-2.7-6.2-5.5-9.2-8.2c-2.3-2-4.6-4.1-7-6.1
						c-3.8-3.3-7.5-6.5-11.3-9.8c-2.7-2.3-5.4-4.6-8.1-6.9c-3.4-2.9-6.9-5.7-10.4-8.5c-3.6-3-7.3-6-10.9-8.9
						C-19.9,13.7-20.1,13.7-20.2,13.7L-20.2,13.7z M120.8,56.5c-0.2-0.2-0.4-0.3-0.6-0.4c-2.1-1.4-4.3-2.8-6.4-4.2
						c-3.8-2.5-7.7-5-11.5-7.6c-5.2-3.5-10.4-6.9-15.6-10.4c-3.3-2.2-6.7-4.5-10-6.8c-2.6-1.8-5.2-3.6-7.9-5.4
						c-3.3-2.3-6.6-4.5-9.8-6.8c-3.7-2.6-7.3-5.2-11-7.9c-2.1-1.5-4.2-3-6.2-4.5c-0.3-0.2-0.5-0.4-1-0.3c-1.5,0.6-3.1,1.1-4.6,1.6
						c-3.5,1.1-7,2.2-10.6,3.2c-4.4,1.2-8.9,2.2-13.4,3.2C8.1,11.1,4,11.9-0.2,12.6c-2.9,0.5-5.8,1-8.7,1.5
						c-0.6,0.1-1.2,0.2-1.8,0.3c0.1,0.1,0.1,0.2,0.2,0.2c1.6,1.3,3.2,2.6,4.8,3.9c2.6,2.1,5.1,4.1,7.7,6.2c3.1,2.6,6.2,5.1,9.4,7.7
						s6.2,5.2,9.3,7.8c2.7,2.3,5.4,4.5,8,6.8c2.9,2.5,5.8,4.9,8.7,7.4c2.5,2.2,5,4.3,7.5,6.5c3.1,2.7,6.2,5.4,9.4,8.1
						c2.5,2.1,4.9,4.3,7.4,6.4c0.3,0.2,0.5,0.3,0.8,0.2c2.8-0.7,5.6-1.3,8.4-2c2.9-0.7,5.8-1.4,8.7-2.2c4.2-1.2,8.5-2.3,12.7-3.6
						c3.5-1.1,6.9-2.2,10.3-3.5c3.1-1.1,6.1-2.3,9.1-3.6c2.2-0.9,4.4-2,6.6-3C119.1,57.4,119.9,57,120.8,56.5L120.8,56.5z"/>
					<path class="st7" d="M-20.2,13.7c0.2,0.1,0.4,0.1,0.5,0.2c3.6,3,7.3,5.9,10.9,8.9c3.5,2.8,6.9,5.7,10.4,8.6
						c2.7,2.3,5.4,4.6,8.1,6.9c3.8,3.2,7.6,6.5,11.3,9.8c2.3,2,4.6,4.1,7,6.1c3.1,2.7,6.2,5.5,9.2,8.2c2,1.8,3.9,3.5,5.9,5.3
						c3.2,2.8,6.3,5.7,9.5,8.5c1.8,1.7,3.7,3.3,5.5,5c0.4,0.4,0.8,0.5,1.3,0.4c5.6-1.4,11.3-2.8,16.9-4.3c4.8-1.3,9.7-2.7,14.5-4.2
						c4.2-1.3,8.3-2.7,12.4-4.2c4.7-1.8,9.4-3.8,14-5.7c2.4-1,4.6-2.2,6.9-3.3c0.1,0,0.2-0.1,0.3-0.1c1.5,1.1,3,2.2,4.5,3.4
						c0.1,0.1,0.2,0.3,0.3,0.4c-0.6,0.2-1.1,0.3-1.7,0.5c-1.7,0.7-3.5,1.4-5.2,2.1c-0.8,0.3-1.6,0.6-2.4,0.9c-0.1,0-0.1,0.1-0.1,0.2
						c-0.2,0.1-0.5,0.1-0.7,0.1c-2.5,0.9-4.9,1.8-7.4,2.7c-2.1,0.8-4.2,1.5-6.3,2.2c-3,1-6,1.9-8.9,2.9c-1.5,0.5-2.9,0.9-4.4,1.4
						c-1.8,0.6-3.7,1.1-5.5,1.6c-0.1,0-0.2,0.1-0.3,0.2c-1.5,0.4-3,0.7-4.4,1.1c-0.9,0.2-1.7,0.5-2.6,0.7c-2.3,0.6-4.7,1.2-7,1.8
						c-1,0.3-1.9,0.5-2.9,0.8c-0.8,0.2-1.6,0.4-2.4,0.6c-1.5,0.4-3,0.7-4.5,1.1c-1.2,0.3-2.5,0.6-3.7,0.9c-1,0.2-2.1,0.5-3.1,0.7
						c-0.6-0.6-1.2-1.2-1.8-1.7c-0.2-0.2-0.4-0.4-0.7-0.6c-0.2-0.2-0.3-0.3-0.5-0.5c-3.1-3-6.2-6-9.3-9c-3-2.9-6-5.8-9-8.7
						c-3.6-3.5-7.2-6.9-10.8-10.4c-2.9-2.8-5.8-5.6-8.8-8.4c-0.1-0.1-0.3-0.2-0.5-0.3l0,0c0-0.1-0.1-0.1-0.1-0.2l0,0
						c-0.1-0.1-0.1-0.1-0.2-0.2c0,0,0,0-0.1-0.1c0,0-0.1-0.1-0.1-0.1c-0.8-0.7-1.5-1.5-2.3-2.2c-1-0.9-1.9-1.8-2.9-2.7
						c-1.1-1.1-2.3-2.2-3.4-3.2c-0.7-0.6-1.4-1.3-2-1.9c-1.5-1.4-3-2.9-4.5-4.3c-1.1-1-2.2-2-3.4-3.1c-0.6-0.6-1.3-1.2-1.9-1.8
						c-1.3-1.2-2.5-2.4-3.8-3.6c-1.8-1.7-3.7-3.4-5.5-5.1c-1.3-1.2-2.6-2.4-3.9-3.6c-0.1-0.1-0.3-0.2-0.5-0.3
						C-20.2,13.8-20.3,13.8-20.2,13.7L-20.2,13.7z"/>
					<path class="st6" d="M14.5,46.4c0.2,0.1,0.3,0.2,0.5,0.3c2.9,2.8,5.9,5.6,8.8,8.4c3.6,3.5,7.2,6.9,10.8,10.4c3,2.9,6,5.8,9,8.7
						c3.1,3,6.2,6,9.3,9c0.2,0.2,0.3,0.3,0.5,0.5c-1.9,0.3-3.8,0.7-5.6,1c-1.1,0.2-2.1,0.6-3.2,0.9c-0.3,0.1-0.5,0.1-0.7-0.2
						c-1.1-1.6-2.2-3.3-3.3-4.9c-1-1.4-2-2.9-3-4.3c-1.6-2.2-3.2-4.5-4.8-6.7c-2-2.7-4-5.3-6-7.9c-1.6-2-3.2-4-4.8-6
						c-1.6-2-3.3-4-4.9-6.1c-0.8-1-1.6-2-2.4-3C14.5,46.6,14.5,46.5,14.5,46.4z"/>
					<path class="st8" d="M15.8,74.4c-0.3,0-0.4-0.2-0.4-0.5C15.5,74.1,15.6,74.3,15.8,74.4z"/>
					<path class="st8" d="M15,73.6c-0.1,0-0.2,0-0.3,0c0-0.1,0.1-0.2,0.1-0.3C14.8,73.4,14.9,73.5,15,73.6z"/>
					<path class="st6" d="M14.2,46c0.1,0.1,0.1,0.1,0.2,0.2C14.3,46.2,14.2,46.1,14.2,46z"/>
					<path class="st6" d="M14.4,46.2c0,0.1,0.1,0.1,0.1,0.2C14.4,46.4,14.4,46.3,14.4,46.2z"/>
					<path class="st6" d="M14,45.8c0,0,0.1,0.1,0.1,0.1C14.1,45.9,14,45.9,14,45.8z"/>
					<path class="st4" d="M86.4,78.3c0.1-0.1,0.2-0.2,0.3-0.2c1.8-0.6,3.7-1.1,5.5-1.6c1.5-0.4,2.9-0.9,4.4-1.4c3-0.9,6-1.9,8.9-2.9
						c2.1-0.7,4.2-1.4,6.3-2.2c2.5-0.9,4.9-1.8,7.4-2.7c0.2-0.1,0.4-0.1,0.7-0.1c1,1.1,2,2.2,3,3.3c0.4,0.5,0.8,1,1.1,1.6
						c0.1,0.1,0.1,0.2,0.2,0.4c-0.9,0.1-1.7,0.2-2.5,0.4c-2.8,0.4-5.5,0.8-8.3,1.2c-2.9,0.4-5.8,0.9-8.7,1.3
						c-2.9,0.4-5.8,0.9-8.7,1.3c-2.4,0.4-4.7,0.8-7.1,1.2C88,78,87.2,78.1,86.4,78.3L86.4,78.3z"/>
					<path class="st9" d="M120.8,56.5c-0.9,0.4-1.7,0.9-2.5,1.2c-2.2,1-4.4,2.1-6.6,3c-3,1.3-6.1,2.5-9.1,3.6
						c-3.4,1.2-6.9,2.4-10.3,3.5c-4.2,1.3-8.5,2.4-12.7,3.6c-2.9,0.8-5.8,1.5-8.7,2.2c-2.8,0.7-5.6,1.3-8.4,2
						c-0.3,0.1-0.6,0-0.8-0.2c-2.5-2.2-4.9-4.3-7.4-6.4c-3.1-2.7-6.2-5.4-9.4-8.1c-2.5-2.2-5-4.3-7.5-6.5c-2.9-2.5-5.8-4.9-8.7-7.4
						c-2.7-2.3-5.4-4.6-8-6.8c-3.1-2.6-6.2-5.2-9.3-7.8c-3.1-2.6-6.2-5.2-9.4-7.7c-2.5-2.1-5.1-4.2-7.7-6.2
						c-1.6-1.3-3.2-2.6-4.8-3.9c-0.1,0-0.1-0.1-0.2-0.2c0.7-0.1,1.2-0.2,1.8-0.3c2.9-0.5,5.8-0.9,8.7-1.5c4.1-0.8,8.3-1.5,12.4-2.4
						c4.5-1,9-2,13.4-3.2c3.6-0.9,7.1-2.1,10.6-3.2c1.6-0.5,3.1-1,4.6-1.6c0.5-0.2,0.7,0.1,1,0.3c2.1,1.5,4.2,3,6.2,4.5
						c3.7,2.6,7.3,5.3,11,7.9c3.3,2.3,6.6,4.6,9.8,6.8c2.6,1.8,5.2,3.6,7.9,5.4c3.3,2.3,6.7,4.5,10,6.8c5.2,3.5,10.4,7,15.6,10.4
						c3.8,2.5,7.6,5,11.5,7.6c2.1,1.4,4.3,2.8,6.4,4.2C120.4,56.2,120.6,56.3,120.8,56.5L120.8,56.5z M106.4,49.9
						C97.7,43.9,89,38,80.3,32.1c-0.1,0.8-0.2,1.5-0.4,2.2c-0.7,2.2-2.2,3.9-4,5.3c-2.5,2-5.3,3.3-8.3,4.3
						c-3.6,1.3-7.3,2.2-11.1,2.6c-2.4,0.3-4.7,0.6-7.1,0.7c-3.3,0.1-6.7,0.2-10-0.2c-2-0.2-4-0.5-6.1-0.9c-0.9-0.1-1.8-0.4-2.7-0.6
						c0.1,0.1,0.1,0.2,0.2,0.2c2.6,2.2,5.2,4.4,7.8,6.6c2.5,2.2,5.1,4.3,7.6,6.5c2.7,2.3,5.3,4.5,8,6.8c0.2,0.1,0.5,0.2,0.7,0.2
						c2.3-0.4,4.6-0.7,6.9-0.7c1.1,0,2.2,0,3.4,0.1c2,0.2,4,0.4,6,0.8c2.6,0.5,5.1,1.3,7.3,2.8c0.8,0.5,1.5,0.7,2.4,0.4
						c6.9-1.9,13.8-4,20.6-6.4c0.5-0.2,0.9-0.3,1.2-0.4c-0.4-0.5-0.9-1.1-1.4-1.7c-1.4-1.6-1.8-3.8-0.9-5.7c0.8-1.6,2-2.7,3.4-3.6
						C104.7,50.8,105.6,50.3,106.4,49.9L106.4,49.9z M8.3,12.3c0,0.1,0,0.1-0.1,0.1c0.2,0.2,0.4,0.3,0.6,0.5c0.9,1,1.1,2.3,0.2,3.4
						c-0.5,0.6-1,1.1-1.6,1.5c-1.9,1.3-4.1,1.9-6.4,2.3c-0.3,0.1-0.5,0.1-0.9,0.2C7,26,13.8,31.6,20.6,37.2c0.1-0.1,0.1-0.2,0.2-0.3
						c0.3-0.9,1-1.7,1.7-2.3c2-1.9,4.5-3.1,7-4.2c3.8-1.6,7.7-2.8,11.7-3.7c3.2-0.7,6.5-1.3,9.7-1.8c2.7-0.4,5.5-0.6,8.2-0.8
						c1.4-0.1,2.7,0,4.1,0c1.1,0,2.3,0.1,3.4,0.2c0.9,0.1,1.8,0.2,2.7,0.3c-0.1-0.1-0.1-0.1-0.2-0.2c-1.6-1.1-3.2-2.3-4.8-3.4
						c-2.9-2.1-5.9-4.1-8.8-6.2c-2.6-1.9-5.2-3.8-7.8-5.6C47.6,9,47.3,9,47.1,9c-2.2,0.7-4.6,1.1-6.9,1.1c-1.6,0-3.2-0.1-4.8-0.3
						C33.1,9.6,30.9,9,29,7.7c-0.2-0.1-0.4-0.2-0.6-0.1c-3.2,0.8-6.5,1.7-9.7,2.5c-2.2,0.5-4.4,1-6.6,1.4C10.8,11.8,9.5,12,8.3,12.3
						L8.3,12.3z M59.6,37.6c0.4-0.1,0.7-0.1,1-0.2c1.6-0.3,3.2-0.8,4.5-1.8c1.1-0.8,1.5-2,0.5-3.1c-0.3-0.4-0.7-0.7-1.1-0.9
						c-1.3-0.8-2.9-1.2-4.4-1.3c-2.7-0.2-5.3,0.2-7.7,1.3c-0.1,0.1-0.3,0.1-0.5,0c-0.6-0.3-1.2-0.2-1.8,0.1
						c-0.8,0.3-1.5,0.6-2.3,0.9c-0.2,0.1-0.5,0.2-0.7,0.3c-0.3,0.2-0.4,0.4,0,0.6c-0.6,0.3-1.3,0.5-1.8,0.9
						c-0.8,0.6-1.6,0.6-2.4,0.3c-2.6-0.8-5.2-1.6-7.8-2.5c-1.9-0.7-1.9-0.7-3.8,0.1c-0.1,0-0.1,0-0.2,0.1c-1.8,0.9-3.5,1.8-4.9,3.3
						c-1.7,1.8-1.6,3.8,0.3,5.4c1.2,1,2.5,1.6,3.9,2.1c4,1.4,8.1,1.9,12.3,2.1c2,0.1,4.1,0,6.1,0c0.4,0,0.9-0.1,1.4-0.1
						c-0.1-0.3-0.2-0.5-0.2-0.7c-0.3-1.4-0.6-2.8-0.9-4.2c-0.1-0.8,0.3-1.2,1.1-1.2c1.1-0.1,2.2-0.2,3.3-0.2c0.2,0,0.3,0,0.4,0.1
						c0.2,0.1,0.4,0.2,0.6,0.2c1.7-0.2,3.3-0.5,4.9-0.7C59.8,38.2,60,37.9,59.6,37.6L59.6,37.6z"/>
					<path class="st6" d="M106.4,49.9c-0.9,0.5-1.7,1-2.6,1.5c-1.4,0.9-2.7,2.1-3.4,3.6c-0.9,1.9-0.6,4.2,0.9,5.7
						c0.5,0.5,0.9,1.1,1.4,1.7c-0.2,0.1-0.7,0.3-1.2,0.4c-6.8,2.4-13.7,4.5-20.6,6.4c-1,0.3-1.6,0.1-2.4-0.4
						c-2.2-1.5-4.7-2.3-7.3-2.8c-2-0.4-4-0.6-6-0.8C64,65,62.9,65,61.8,65c-2.3,0-4.6,0.3-6.9,0.7c-0.2,0-0.5,0-0.7-0.2
						c-2.7-2.3-5.3-4.5-8-6.8c-2.5-2.2-5.1-4.3-7.6-6.5c-2.6-2.2-5.2-4.4-7.8-6.6c0,0-0.1-0.1-0.2-0.2c1,0.2,1.8,0.5,2.7,0.6
						c2,0.3,4,0.6,6.1,0.9c3.3,0.4,6.7,0.4,10,0.2c2.4-0.1,4.7-0.4,7.1-0.7c3.8-0.5,7.5-1.3,11.1-2.6c2.9-1.1,5.8-2.4,8.3-4.3
						c1.8-1.4,3.3-3.1,4-5.3c0.2-0.7,0.3-1.4,0.4-2.2C89,38.1,97.7,44,106.4,49.9L106.4,49.9z M73.6,48.1c-1.8,0-3.9,0.3-5.9,1
						c-1.1,0.4-2.2,1-3,1.9c-0.7,0.9-0.8,1.9-0.2,2.9c0.6,0.8,1.3,1.3,2.2,1.8c2.1,1.1,4.4,1.4,6.7,1.5c2.3,0.1,4.6-0.2,6.8-1.1
						c1-0.4,1.8-0.9,2.5-1.7c0.9-1,1-2.3,0.1-3.3c-0.5-0.6-1.1-1.1-1.8-1.5C78.9,48.4,76.5,48.1,73.6,48.1L73.6,48.1z"/>
					<path class="st6" d="M8.3,12.3c1.3-0.3,2.5-0.5,3.8-0.8c2.2-0.5,4.4-0.9,6.6-1.4c3.2-0.8,6.5-1.7,9.7-2.5
						c0.2-0.1,0.5,0,0.6,0.1c2,1.3,4.1,1.9,6.4,2.2c1.6,0.2,3.2,0.3,4.8,0.3c2.3,0,4.7-0.4,6.9-1.1c0.2-0.1,0.5,0,0.7,0.1
						c2.6,1.9,5.2,3.8,7.8,5.6c2.9,2.1,5.8,4.1,8.8,6.2c1.6,1.1,3.2,2.3,4.8,3.4c0.1,0,0.1,0.1,0.2,0.2c-0.9-0.1-1.8-0.2-2.7-0.3
						c-1.1-0.1-2.3-0.2-3.4-0.2c-1.4,0-2.7-0.1-4.1,0c-2.8,0.2-5.5,0.4-8.2,0.8c-3.3,0.5-6.5,1.1-9.7,1.8c-4,0.9-7.9,2.1-11.7,3.7
						c-2.5,1.1-5,2.3-7,4.2c-0.7,0.7-1.3,1.4-1.7,2.3c0,0.1-0.1,0.2-0.2,0.3C13.8,31.6,7,26,0.1,20.3c0.4-0.1,0.6-0.1,0.9-0.2
						c2.2-0.5,4.5-1,6.4-2.3C8,17.4,8.5,16.9,9,16.4C9.8,15.3,9.7,14,8.8,13c-0.2-0.2-0.4-0.4-0.6-0.5C8.2,12.4,8.2,12.4,8.3,12.3
						L8.3,12.3z M31.8,24.1c1.9,0,3.7-0.2,5.5-0.8c1.1-0.4,2.2-0.9,2.9-1.9c0.5-0.8,0.5-1.8-0.2-2.4c-0.4-0.4-0.9-0.7-1.4-1
						c-1.3-0.7-2.8-1-4.3-1.1c-2.9-0.3-5.8,0-8.5,1.2c-0.7,0.3-1.3,0.7-1.8,1.2C23.1,20,23,21,23.7,21.6c0.5,0.5,1.1,1,1.7,1.3
						C27.5,23.8,29.6,24.1,31.8,24.1L31.8,24.1z"/>
					<path class="st6" d="M59.6,37.6c0.3,0.4,0.2,0.6-0.2,0.7c-1.6,0.3-3.3,0.5-4.9,0.7c-0.2,0-0.4-0.1-0.6-0.2
						c-0.2,0-0.3-0.1-0.4-0.1c-1.1,0.1-2.2,0.2-3.3,0.2c-0.8,0-1.2,0.4-1.1,1.2c0.2,1.4,0.6,2.8,0.9,4.2c0.1,0.2,0.1,0.5,0.2,0.7
						c-0.5,0-0.9,0.1-1.4,0.1c-2,0-4.1,0.1-6.1,0c-4.2-0.2-8.3-0.7-12.3-2.1C29,42.7,27.6,42,26.5,41c-1.9-1.6-2-3.6-0.3-5.4
						c1.4-1.5,3.1-2.4,4.9-3.3c0.1,0,0.1,0,0.2-0.1c1.8-0.8,1.8-0.7,3.8-0.1c2.6,0.9,5.2,1.7,7.8,2.5c0.8,0.2,1.6,0.2,2.4-0.3
						c0.5-0.4,1.2-0.6,1.8-0.9c-0.4-0.2-0.3-0.4,0-0.6c0.2-0.1,0.4-0.2,0.7-0.3c0.8-0.3,1.6-0.6,2.3-0.9c0.6-0.2,1.2-0.3,1.8-0.1
						c0.1,0.1,0.3,0,0.5,0c2.5-1.1,5.1-1.5,7.7-1.3c1.6,0.1,3.1,0.4,4.4,1.3c0.4,0.3,0.8,0.6,1.1,0.9c0.9,1,0.5,2.2-0.5,3.1
						c-1.3,1-2.9,1.5-4.5,1.8C60.3,37.5,60,37.5,59.6,37.6L59.6,37.6z"/>
					<path class="st9" d="M73.6,48.1c2.9,0,5.3,0.3,7.5,1.5c0.7,0.4,1.3,0.9,1.8,1.5c0.9,1,0.8,2.3-0.1,3.3
						c-0.7,0.8-1.6,1.3-2.5,1.7c-2.2,0.8-4.5,1.2-6.8,1.1c-2.3-0.1-4.6-0.5-6.7-1.5c-0.8-0.4-1.6-0.9-2.2-1.8c-0.6-1-0.6-2,0.2-2.9
						c0.8-0.9,1.8-1.5,3-1.9C69.7,48.4,71.8,48.1,73.6,48.1L73.6,48.1z"/>
					<path class="st9" d="M31.8,24.1c-2.2,0-4.4-0.3-6.4-1.2c-0.6-0.3-1.2-0.8-1.7-1.3C23,21,23.1,20,23.9,19.2
						c0.5-0.5,1.2-0.9,1.8-1.2c2.7-1.2,5.6-1.4,8.5-1.2c1.5,0.1,3,0.4,4.3,1.1c0.5,0.3,1,0.6,1.4,1c0.7,0.6,0.8,1.6,0.2,2.4
						c-0.7,1-1.8,1.5-2.9,1.9C35.5,23.9,33.7,24.1,31.8,24.1L31.8,24.1z"/>
				</g>
			</g>
		</g>
		<circle class="st10" cx="78" cy="77.7" r="73.4"/>
	</g>
</g>
</svg>
