<?xml version="1.0" encoding="utf-8"?>
<!-- Generator: Adobe Illustrator 26.4.1, SVG Export Plug-In . SVG Version: 6.00 Build 0)  -->
<svg version="1.1" id="Layer_2_00000052817602058813191690000001839684807727445671_"
	 xmlns="http://www.w3.org/2000/svg" xmlns:xlink="http://www.w3.org/1999/xlink" x="0px" y="0px" viewBox="0 0 155.7 155.6"
	 style="enable-background:new 0 0 155.7 155.6;" xml:space="preserve">
<style type="text/css">
	.st0{clip-path:url(#SVGID_00000051346816000435926150000016024184948649436072_);}
	.st1{fill:#36A7DC;}
	.st2{fill:#F40808;}
	.st3{fill:#3A3D54;}
	.st4{fill:#3C3F55;}
	.st5{fill:#F4AC74;}
	.st6{fill:#FCFCFC;}
	.st7{fill:none;stroke:#002A33;stroke-width:8;stroke-miterlimit:10;}
</style>
<g id="Layer_1-2">
	<g>
		<g>
			<defs>
				<circle id="SVGID_1_" cx="78.7" cy="77.6" r="71.2"/>
			</defs>
			<clipPath id="SVGID_00000158006649257886313850000010529219402709593243_">
				<use xlink:href="#SVGID_1_"  style="overflow:visible;"/>
			</clipPath>
			<g style="clip-path:url(#SVGID_00000158006649257886313850000010529219402709593243_);">
				<path class="st1" d="M150,156.5L150,156.5c2.7,0,5.4,0,8.1,0c1.5,0,2.6-0.7,3.1-2.2c0.4-1.5-0.4-2.4-1.5-3.3
					c-0.4-0.3-0.9-0.9-1-1.4c-0.6-2.2-2.1-3.3-4.3-2.9c-0.9,0.2-1.4,0.1-2.1-0.7c-2.9-3.3-7.6-2.4-9.2,1.8c-0.2,0.4-0.7,0.9-1.1,1
					c-2.7,0.4-4.2,1.8-4.1,3.9c0.1,2.3,1.8,3.7,4.5,3.7C145,156.5,147.5,156.5,150,156.5L150,156.5z"/>
				<path class="st2" d="M7.7,88.1V-2.4c48.3,0,96.6,0,144.9,0c0,48.3,0,96.6,0,144.9c-0.7-0.2-1.5-0.3-2.2-0.6
					c-10.4-4.1-20.7-8.3-31.1-12.3c-5.2-2-10.3-4.7-16.3-4.3c-3.7,0.3-7.5-0.3-11.2-0.6c0-3.4,0-6.7-0.1-10.1
					c-0.1-1.9,0.6-2.8,2.4-3.7c12.4-6,17.8-16.3,18-29.2c0.7-7.2,1.7-14.4,1.9-21.6c0.2-7.8,0.2-15.6-0.6-23.4
					c-0.6-6.7-2.8-8.8-9.5-9.6c-9.3-1.2-18.6-1.9-27.9-2.7c-9.9-0.9-20-1.2-29.2-6.7c-2.6,4.5-4.1,9.2-4.7,14.2
					c-0.9,7.9,1.4,12.6,7.9,16c-0.8,2.5-1.6,5.1-2.4,7.6c-1.2-0.1-2.5-0.4-3.7-0.2c-0.8,0.1-1.7,0.9-2.1,1.6
					c-0.2,0.4,0.3,1.8,0.7,1.9c3.1,0.7,2.4,3.2,2.6,5.2c0.3,3-0.7,6.2,1.7,8.8c-0.1,3.2-0.3,6.3-0.2,9.4
					c0.1,12.9,5.8,22.5,17.4,28.4c1.1,0.6,2.5,1.8,2.5,2.8c0.2,3.8-0.1,7.6-0.2,11.4c-1.3,0.1-2.7,0.3-4,0.2
					c-7.2-0.6-13.2,1.9-18.1,7.2c-0.6,0.6-1.3,1.1-2.1,1.5c-10,4.7-20.1,9.4-30.1,14c-0.6,0.3-1.2,0.4-2.3,0.6
					c0.7-7.7,1.3-14.9,1.9-22.2c0-0.3,0-0.6,0.1-0.9c0.2-2.5,0.3-4.9,0.5-7.4c0-0.2,0-0.5,0.1-0.7l0-0.9c0.5-5.4,1.1-10.7,1.6-16.2
					c1.9,0.8,3.1,1.7,4.2,1.6c1.6-0.2,3.7-0.6,4.6-1.7c1.8-2.2,0.8-5-1.9-6.6c-2.7-1.6-5.2-3.3-8-4.6C11.3,88.1,9.4,88.3,7.7,88.1
					L7.7,88.1z"/>
				<rect x="-27.9" y="45.3" class="st2" width="52.5" height="91.9"/>
				<path class="st3" d="M150.5,142c-10.4-4.1-20.7-8.3-31.1-12.3c-5.2-2-10.3-4.7-16.3-4.3c-3.7,0.3-7.5-0.3-11.2-0.6
					c-8.5,0.1-17,0.1-25.5,0.2c-1.3,0.1-2.7,0.3-4,0.2c-7.2-0.6-13.2,1.9-18.1,7.2c-0.6,0.6-1.3,1.1-2.1,1.5
					c-9.2,4.3-18.4,8.6-27.6,12.8c-1.5,3.3-3.2,6.6-4.8,9.8h142.8v-13.9C151.9,142.4,151.2,142.2,150.5,142L150.5,142z"/>
				<path class="st4" d="M50.2,47.9c-6.6-3.4-8.9-8.2-7.9-16c0.6-5,2.1-9.7,4.7-14.2c9.1,5.5,19.2,5.8,29.2,6.7
					c9.3,0.9,18.6,1.5,27.9,2.7c6.7,0.9,8.9,2.9,9.5,9.6c0.8,7.7,0.8,15.6,0.6,23.4c-0.2,7.2-1.2,14.4-1.9,21.6
					c-0.7,0.2-1.7,0.8-2.2,0.5c-4.8-2.8-7.9-6.7-8.4-12.4c-0.1-0.8-0.4-1.6-0.6-2.5c-1.3,2.3-2,4.6-2.5,6.9c-0.7,2.7-2.2,4.2-5.1,4
					c-5-0.4-10-0.8-15-1.4c-3.3-0.4-4.8-2.6-4.3-5.9c0.2-2,0.6-4,0.6-6c0-1-0.8-1.9-1.2-2.9c2.2,0.1,4.9,2.2,6.1-1.8
					c0.2,0.7,0.3,1.4,0.4,2.1c5.2,1.3,10.3,2.9,15.1-0.6c-0.3-0.3-0.7-0.7-1-1.1c1.1,0,2.1-0.1,3.1,0c1.2,0.1,2.8,1.1,3.2-1.1
					c0.5-3.2-0.4-5-2.7-5.1c-4.4-0.2-8.8-0.3-13.2-0.6C72.9,52.9,61.3,51.8,50.2,47.9L50.2,47.9z"/>
				<path class="st5" d="M73.6,62.1c0.4,1,1.2,1.9,1.2,2.9c0,2-0.3,4-0.6,6c-0.4,3.3,1,5.5,4.3,5.9c5,0.6,10,0.9,15,1.4
					c2.9,0.2,4.4-1.3,5.1-4c0.6-2.3,1.2-4.6,2.5-6.9c0.2,0.8,0.5,1.6,0.6,2.5c0.5,5.7,3.6,9.6,8.4,12.4c0.5,0.3,1.4-0.3,2.2-0.5
					C112,94.7,106.6,105,94.2,111c-1.8,0.9-2.5,1.8-2.4,3.7c0.1,3.4,0.1,6.7,0.1,10.1c-8.5,0.1-17,0.1-25.5,0.2
					c0.1-3.8,0.4-7.6,0.2-11.4c-0.1-1-1.5-2.2-2.5-2.8c-11.6-5.9-17.3-15.5-17.4-28.4c0-3.2,0.2-6.3,0.2-9.4
					c6.2,0.9,12.5,1.9,18.7,2.5c2.4,0.2,3.9-1.7,4.2-4.3c0.3-2.9,0.8-5.9,1.2-8.8C71.9,62.2,72.7,62.2,73.6,62.1L73.6,62.1z
					 M87,85.7c-8.8,0-16.9,0-25.1,0.1c-0.4,0-1.3,1.5-1.2,1.9c3.1,7.6,10.4,13.1,18.7,8.5C83.4,94.1,85.5,90.5,87,85.7z"/>
				<path class="st4" d="M71,62.3c-0.4,2.9-0.8,5.9-1.2,8.8c-0.3,2.6-1.8,4.5-4.2,4.3c-6.3-0.6-12.5-1.6-18.7-2.5
					c-2.3-2.6-1.4-5.8-1.7-8.8c-0.2-2.1,0.6-4.5-2.6-5.2c-0.4-0.1-0.9-1.5-0.7-1.9c0.4-0.7,1.3-1.4,2.1-1.6c1.2-0.2,2.5,0.1,3.7,0.2
					c9.9,1,19.7,2,29.6,3.1c4.6,0.5,9.2,1.2,13.7,1.8c-0.7,0.2-1.5,0.5-2.2,0.4c-4.3-0.4-8.6-1.1-12.8-1.4c-3.4-0.2-6.8,0-10.6,0
					c0.7,2.1,1.2,3.8,1.7,5.6c1.2-1,1.5-1.9,2.1-2.6C69.6,62.1,70.5,62.3,71,62.3L71,62.3z"/>
				<path class="st5" d="M91.1,60.4c-4.6-0.6-9.2-1.3-13.7-1.8c-9.9-1.1-19.7-2-29.6-3.1c0.8-2.5,1.6-5.1,2.4-7.6
					c11.1,3.9,22.6,5,34.2,5.9c4.4,0.3,8.8,0.4,13.2,0.6c2.3,0.1,3.2,1.9,2.7,5.1c-0.4,2.2-1.9,1.2-3.2,1.1c-1,0-2.1,0-3.1,0
					C93.1,60.6,92.1,60.5,91.1,60.4L91.1,60.4z"/>
				<path class="st5" d="M12.2,118c-0.2-0.1-0.5-0.3-0.8-0.4c0.3-0.1,0.5-0.2,0.8-0.3C12.3,117.5,12.3,117.8,12.2,118L12.2,118z"/>
				<path class="st3" d="M91.1,60.4c1,0.1,2,0.2,3,0.2c0.4,0.4,0.7,0.8,1,1.1c-4.8,3.6-9.9,1.9-15.1,0.6c-0.1-0.7-0.3-1.4-0.4-2.1
					c-1.2,4-3.9,1.9-6.1,1.8c-0.8,0.1-1.7,0.1-2.5,0.2c-0.6,0-1.4-0.2-1.7,0.1c-0.6,0.7-0.9,1.6-2.1,2.6c-0.5-1.7-1.1-3.5-1.7-5.6
					c3.8,0,7.2-0.2,10.6,0c4.3,0.3,8.6,1,12.8,1.4C89.7,60.9,90.4,60.5,91.1,60.4L91.1,60.4z"/>
				<path class="st6" d="M87,85.7c-1.4,4.8-3.5,8.4-7.5,10.5c-8.3,4.5-15.7-0.9-18.7-8.5c-0.2-0.4,0.7-1.9,1.2-1.9
					C70,85.7,78.2,85.7,87,85.7z"/>
			</g>
		</g>
		<circle class="st7" cx="77.8" cy="77.9" r="73.4"/>
	</g>
</g>
</svg>
