<?xml version="1.0" encoding="utf-8"?>
<!-- Generator: Adobe Illustrator 26.4.1, SVG Export Plug-In . SVG Version: 6.00 Build 0)  -->
<svg version="1.1" id="Layer_2_00000067194417397961090650000008162925493339893161_"
	 xmlns="http://www.w3.org/2000/svg" xmlns:xlink="http://www.w3.org/1999/xlink" x="0px" y="0px" viewBox="0 0 155.3 155.1"
	 style="enable-background:new 0 0 155.3 155.1;" xml:space="preserve">
<style type="text/css">
	.st0{clip-path:url(#SVGID_00000015351930560273224440000004389872313332767621_);}
	.st1{fill:#36A7DC;}
	.st2{fill:#FB1F20;}
	.st3{fill:#F4AC74;}
	.st4{fill:#231F20;}
	.st5{fill:none;stroke:#002A33;stroke-width:8;stroke-miterlimit:10;}
</style>
<g id="Layer_1-2">
	<g>
		<g>
			<defs>
				<circle id="SVGID_1_" cx="78.6" cy="77.1" r="71.2"/>
			</defs>
			<clipPath id="SVGID_00000001627628844098967460000010935362104861120137_">
				<use xlink:href="#SVGID_1_"  style="overflow:visible;"/>
			</clipPath>
			<g style="clip-path:url(#SVGID_00000001627628844098967460000010935362104861120137_);">
				<rect x="-16.7" y="-4.3" class="st1" width="185.1" height="162.9"/>
				<polygon class="st2" points="63.2,61.9 94.7,63.9 92.7,72.4 67.3,76.3 62.3,65.8 				"/>
				<path class="st1" d="M149.9,156.1L149.9,156.1c2.7,0,5.4,0,8.1,0c1.5,0,2.6-0.7,3.1-2.2c0.4-1.5-0.4-2.4-1.5-3.3
					c-0.4-0.3-0.9-0.9-1-1.4c-0.6-2.2-2.1-3.3-4.3-2.9c-0.9,0.2-1.4,0.1-2.1-0.7c-2.9-3.3-7.6-2.4-9.2,1.8c-0.2,0.4-0.7,0.9-1.1,1
					c-2.7,0.4-4.2,1.8-4.1,3.9c0.1,2.3,1.8,3.7,4.5,3.7C144.9,156.1,147.4,156.1,149.9,156.1L149.9,156.1z"/>
				<path class="st3" d="M12.1,117.5c-0.2-0.1-0.5-0.3-0.8-0.4c0.3-0.1,0.5-0.2,0.8-0.3C12.2,117.1,12.2,117.3,12.1,117.5
					L12.1,117.5z"/>
				<path class="st4" d="M89.4,123c2.3-1.3,3-2.7,2.5-4.5c-0.6-1.7-2.3-2.9-4-2.8c-2.1,0.2-3.9,1.9-4.1,3.8
					c-0.3,2.3,0.9,4.6,3.1,5.6c2.2,1,5.4,0.4,6.9-1.7c0.8-1.1,1.5-2.7,1.6-4.1c0.5-5.8-1.7-10.7-4.9-15.3c-1.9-2.7-3.6-5.4-5.4-8
					c-0.4,0.7-0.8,1.8-1.4,2.8c-0.4,0.5-1.1,0.7-1.7,1.1c-0.3-0.5-0.8-1.1-0.9-1.6c-0.2-0.9-0.3-1.9-0.8-2.9
					c-0.2,0.5-0.4,1.1-0.8,1.5c-0.4,0.5-0.9,1.1-1.4,1.2c-0.4,0-0.9-0.7-1.3-1.1c-0.3-0.4-0.5-1-1.1-1.6c-0.2,1-0.2,2-0.5,3
					c-0.1,0.5-0.6,1.4-0.9,1.4c-0.6,0-1.3-0.4-1.6-0.8c-0.7-1-1.1-2.1-1.6-3c-2.6,4.1-5.4,8.2-7.9,12.5c-2,3.5-2.7,7.4-2.4,11.4
					c0.2,2.7,2.1,4.9,4.9,5.6c2.4,0.6,4.7-0.2,6.1-2.4c1.8-2.8,0.4-6.4-2.8-7.2c-2-0.5-3.9,0.6-4.6,2.4c-0.7,1.8,0,3.3,1.9,4.4
					c0.1,0.1,0.2,0.2,0.4,0.3c-2.7,0.1-4.4-2.7-3.4-5.5c1.3-3.6,5.5-4.9,9-2.8c3.5,2.2,4.5,7,2.2,10.7c-3.3,5.5-10.9,6.3-15.9,1.7
					c-2.8-2.5-3.9-5.8-4.2-9.4c-0.5-7.5,2.1-14.1,6-20.3c1.9-3.2,3.7-6.5,5.1-9.9c1.5-3.5,0.9-7-0.9-10.4c-2.1-3.9-4-8-5.6-12.1
					c-3.4-8.8-3.6-17.8-1.4-26.9c0.8-3.1,3-4.9,5.5-6.4c3.6-2.2,7.5-3.6,11.6-4.7c2.6-0.6,5.1-0.5,7.7,0.2c4.3,1.2,8.6,2.8,12.3,5.4
					c2.2,1.5,3.5,3.5,4.2,6.1c2.3,10.1,1.4,19.9-2.8,29.3c-1.2,2.7-2.3,5.4-3.8,7.8c-3.6,5.8-2.3,11.2,0.7,16.7
					c2.4,4.4,5.2,8.7,7.1,13.4c2.2,5.3,2.7,11,0.8,16.6c-2.3,6.7-10.9,9.6-16.5,5.7c-4.8-3.4-5.1-10.6-0.4-13.6
					c2.1-1.3,4.4-1.6,6.6-0.3c1.9,1.1,2.8,2.9,2.6,5.1C92.9,121.6,91.5,122.9,89.4,123L89.4,123z M84.2,71.3
					c0.5,0.3,1.1,0.8,1.8,0.9c2,0.4,3.6-0.3,5-1.8c1.4-1.6,1.6-3.4,1-5.3c-0.1-0.3-0.8-0.7-1.1-0.7c-2.2,0.2-3.9,1.2-4.8,3.3
					C85.5,68.8,84.9,69.9,84.2,71.3z M71.9,71.1c-0.6-1.1-0.9-1.9-1.5-2.7c-0.8-1.1-1.6-2.4-2.7-3.2c-0.9-0.6-2.2-0.5-3.3-0.7
					c-0.2,1.2-0.6,2.3-0.4,3.4c0.3,2.2,1.8,3.5,3.9,4.1C69.4,72.6,70.9,72.4,71.9,71.1z"/>
				<path class="st4" d="M94,89.8c-1.1-2.6-2.1-5-1.9-7.7c0.1-0.6,0.6-1.5,1-1.6c3.7-0.6,5.9-3.1,7.7-6c2.9-4.6,4.1-9.8,5-15.1
					C107.6,49,105,39.6,99,31c-3.1-4.4-6-8.9-8.7-13.6c-1.6-2.9-2.3-6.1-1.4-9.5c1-4.1,4.6-6.9,9.8-7.6c3.2-0.4,6.4-0.6,9.6-0.9
					c1.1-0.1,2.2-0.5,3.2-1c2-1,2.9-3.7,2.1-6.1c-0.7-2-2.7-3.3-4.9-3c-1.7,0.2-3,1.6-3.2,3.3c-0.2,1.6,0.7,2.9,2.3,3.5
					c1.6,0.6,2.7-0.1,4-2.3c-0.1,1.6-0.8,2.5-2,3c-1.6,0.7-3.1,0.4-4.4-0.7c-2.9-2.5-1.8-7.7,2.1-9.1c3.4-1.3,7.6,0.4,9.2,3.7
					c2.6,5.5,0.4,11-5.5,12.9c-2.2,0.8-4.6,1.2-6.9,1.8c-1.4,0.4-2.8,0.8-4.1,1.4c-2.1,1-2.9,2.7-2.6,5c0.3,2.8,2,4.8,3.9,6.8
					c2.9,3.1,6.1,6.1,8.8,9.4c6.3,7.7,9.4,16.9,10.4,26.7c0.6,6.1,0.6,12.2,0.7,18.3c0.1,5.5-3,8.9-7.7,10.9
					c-2.7,1.1-5.7,1.6-8.6,2.1C101.3,86.7,97.3,87.1,94,89.8L94,89.8z"/>
				<path class="st4" d="M44.5-6C46-3.5,48-3,49.7-4.7c1-1,1.2-2.2,0.8-3.4c-0.5-1.3-1.3-2.3-2.8-2.6c-2.2-0.4-4.3,0.8-5.1,2.9
					c-0.8,2.4-0.1,5.2,2,6.1c1.7,0.7,3.7,1.1,5.5,1.3c3.4,0.5,6.8,0.6,10.1,1.4c5.3,1.4,8,6,7.1,11.4c-0.7,4.4-3.1,8.1-5.5,11.7
					c-2.7,4-5.4,7.8-7.8,11.9c-4.4,7.5-5.1,15.7-3.7,24.2c0.8,5.1,2.1,9.9,4.9,14.3c1.8,2.9,4.1,5.2,7.6,5.9c0.4,0.1,1,1,1.1,1.5
					c0.3,2.7-0.7,5.2-1.8,7.7c-4.2-3.3-9.4-3.2-14.2-4.4c-2.8-0.7-5.6-1.6-8-3c-3.2-1.9-5-4.9-5.1-8.9c-0.2-8.2,0-16.3,1.6-24.4
					c2.2-11,7.5-20.2,15.6-27.8c1.8-1.7,3.4-3.7,5.1-5.6c0.5-0.6,0.9-1.5,1.2-2.4c1-3.3,0-5.6-3.3-6.8c-2.6-0.9-5.3-1.4-7.9-2.2
					c-1.5-0.4-3-0.9-4.3-1.6c-5.6-3-5.8-11.7-0.4-15c3.6-2.2,8.1-1,9.6,2.6c1.5,3.5-0.8,7.1-4.3,6.9C45.7-3,44.6-4.2,44.5-6L44.5-6z
					"/>
				<path class="st4" d="M147.2,58.8c-1.4-2.1-2.9-2.7-4.4-1.8c-1.4,0.7-2.1,2.4-1.6,3.9c0.6,1.8,2.4,3,4.2,2.7
					c2.1-0.4,3.7-2.1,3.9-4.3c0.3-4.4-2.4-7.7-6.7-8.1c-4.7-0.5-8.2,2.2-8.7,7c-0.2,1.9,0.1,3.8,0.4,5.7c1.6,7.8,2,15.6-0.5,23.3
					c-2.1,6.6-6.2,11.8-11.9,15.6c-0.5,0.3-1.5,0.4-2.1,0.3c-3.9-1-7.1-3.2-10.3-5.5c-3.1-2.3-6.1-4.6-9.4-7
					c0.8-0.2,1.6-0.6,2.4-0.7c2.2-0.3,4.4-0.7,6.6-0.9c8-0.9,13.1-5.5,16.1-12.8c1.2-2.9,1.3-5.9,1.3-9c0-4.5,0.2-9,1.8-13.3
					c1.3-3.4,3.3-6.3,6.9-7.5c4.6-1.6,9.1-1.3,13.3,1.3c4.3,2.7,6.2,9.4,4.2,14.1c-1.2,2.8-3.3,4.3-6.3,4.7c-2.4,0.3-4.5-0.5-6-2.6
					c-2.2-3.1-0.8-7.4,2.7-8C145,55.4,146.7,56.5,147.2,58.8L147.2,58.8z"/>
				<path class="st4" d="M56.2,90.5c-3.9,2.9-7.5,5.8-11.4,8.3c-2.6,1.7-5.5,2.9-8.4,4.2c-0.6,0.3-1.7,0.1-2.2-0.3
					c-8.4-5.6-12.6-13.6-13.4-23.5c-0.5-5.3,0-10.5,1.2-15.7c0.8-3.6,0.7-7.1-1.9-10.1c-2.2-2.5-6.2-3-9.6-1.2
					c-2.7,1.4-4.3,4.9-3.5,8.1c0.6,2.6,3.7,4.1,6,3c1.4-0.7,2.4-2.4,2.1-3.8c-0.3-1.4-1.1-2.3-2.5-2.7c-1.7-0.4-2.8,0.4-3.5,1.9
					c0-1.8,1.9-3.2,3.9-2.9c1.8,0.3,3.3,1.7,3.8,3.5c0.5,2.2-0.4,4.7-2.3,6c-4.1,2.8-9.8,0.4-11.2-4.7c-1.9-6.7,2.5-13.7,9.4-14.8
					c7.4-1.3,12.5,1.1,15.1,7.4c1,2.3,1.5,4.8,1.8,7.2c0.4,3.3,0.3,6.6,0.5,9.9C30.3,80,37.3,87.6,47,88.9c2.2,0.3,4.5,0.6,6.8,0.9
					C54.5,90,55.3,90.3,56.2,90.5L56.2,90.5z"/>
				<path class="st4" d="M95.7,92.1c1.4,0.9,2.8,1.8,4.2,2.8c2.7,2.1,5,4.8,7.9,6.4c4,2.3,8.5,3.8,12.7,5.6c3.3,1.4,6.6,2.8,9.7,4.4
					c2.9,1.6,5,4.1,5.8,7.5c1,4.7-0.7,8.5-5.1,10.5c-2.7,1.2-5.5,2-8.3,3c-2.4,0.9-4.8,1.7-7,2.8c-2.2,1.1-3.2,3.2-2.9,5.7
					c0.2,2,1.9,3.5,3.9,3.6c1.8,0,3.3-1.3,3.4-3.1c0.2-1.8-0.8-2.8-2.5-3.6c2.2,0.2,3.4,1.3,3.7,3.2c0.2,2.1-0.5,3.8-2.2,5
					c-2,1.3-4.1,1.2-6.2,0.2c-4-2.1-5.2-7.7-2.5-11.9c1.8-2.7,4.5-4.3,7.2-5.7c2.3-1.1,4.7-2.2,6.9-3.5c1.7-0.9,3.1-2.2,2.9-4.4
					c-0.2-2.1-1.4-3.4-3.7-3.8c-2.3-0.4-4.7-0.5-7.1-0.7c-3.1-0.2-6.3-0.4-9.2-1.9c-1.9-1-3-2.3-3.3-4.6c-0.7-5.5-3.4-10.1-6.5-14.6
					c-0.6-0.9-1.3-1.8-2-2.7C95.6,92.3,95.6,92.2,95.7,92.1L95.7,92.1z"/>
				<path class="st4" d="M38.4,137.8c-1.4,0.7-2.3,1.7-2.2,3.4c0.1,1.8,1.5,3.2,3.3,3.3c1.9,0.1,3.8-1.5,4-3.4
					c0.3-2.5-0.6-4.6-2.8-5.8c-2.3-1.2-4.9-2-7.3-2.9c-2.4-0.9-4.9-1.5-7.3-2.6c-7-3-8.3-10.9-2.9-16.3c2.5-2.5,5.5-3.9,8.8-5.2
					c3.3-1.3,6.7-2.5,10-3.8c4.1-1.5,7.7-3.8,10.9-6.8c1.8-1.7,3.8-3.1,5.7-4.6c0.6-0.5,1.4-0.8,2.1-1.1c-2,3.3-4.1,6.4-5.7,9.8
					c-1.3,2.8-1.8,5.9-2.8,8.8c-0.2,0.8-0.6,1.7-1.2,2.2c-2.1,1.9-4.7,2.6-7.4,2.8c-2.8,0.3-5.7,0.4-8.5,0.6
					c-1.1,0.1-2.2,0.2-3.2,0.6c-3.2,1.2-3.9,5-1.2,7c1.5,1.1,3.3,2,5,2.8c3.2,1.6,6.6,2.9,9.1,5.5c2.7,2.9,3.5,6.3,2.1,10
					c-1.2,3.2-4.8,5-8,4.1c-2.6-0.7-4.2-3.2-3.7-5.8C35.3,139.1,36.4,138.1,38.4,137.8L38.4,137.8z"/>
			</g>
		</g>
		<circle class="st5" cx="77.7" cy="77.5" r="73.4"/>
	</g>
</g>
</svg>
