<?xml version="1.0" encoding="utf-8"?>
<!-- Generator: Adobe Illustrator 25.0.0, SVG Export Plug-In . SVG Version: 6.00 Build 0)  -->
<svg version="1.1" id="Layer_1" xmlns="http://www.w3.org/2000/svg" xmlns:xlink="http://www.w3.org/1999/xlink" x="0px" y="0px"
	 viewBox="0 0 1256.6 139.8" style="enable-background:new 0 0 1256.6 139.8;" xml:space="preserve">
<style type="text/css">
	.st0{fill:#FFFFFF;}
</style>
<path class="st0" d="M586.8,72.8c-1.5-10.8,5.4-17.4,10.4-23.4c1,0.4,1.2-1.3,2.2-1.5c0.7-1.4,2.3-1.8,3-3.1
	c1.6-0.4,2.2-1.8,3.7-2.3v-0.7c1.8-0.8,2.3-1.7,3.4-3.2c0.8,0,1.5-0.1,2.3-0.2c0.5-1.1,1.4-2,2.4-2.6c1.2,0.6,2.7,0.5,3.7,1.5
	c0.1,1.9,2.3,1.8,2.6,3.5c0.3,0,0.4-0.2,0.7-0.2c0.3,1.3,0.7,1.3,1.1,2.6c-0.4,1-0.5,2.2-1.5,2.6c-0.1,0.6,0.7,0.4,0.7,0.9
	c0.1,0.3,0,0.7-0.2,0.9c2.3,3.7,3.8,8.1,6.1,11.7c-0.2,2.3,1.4,4.2,1.7,6.3c0.4,2.7-0.7,6.5-2.8,7.8c-1.2,1.6-3.5,2.3-5,3.7
	c-0.1-0.1-0.2-0.2-0.2-0.4c-0.9,1.2-2.2,1.2-3.5,1.5c-2.1,1.2-6,2.6-8.4,2.4c-2.8,1.2-5.9,1.4-8.9,0.7
	C593.4,82.5,588.9,77.9,586.8,72.8z M596.2,70c3.2,2.6,9,0.5,12.8,0.5c0-0.4,0.1-0.5,0.5-0.5c3.3-0.3,6-2.2,9.1-3.8
	c0.4-1,1.3-1.5,1.3-2.8c-0.4-0.6-0.5-1.3-0.4-2c-2.1-2.9-3.4-6.5-5.3-9.5c-0.2,0.4-0.7,1-1.3,0.5c-0.4,1.5-2,1-3.1,0.3
	c-2.7,2.2-5.6,4.1-7.8,6.9c-0.4,0.2-0.3-0.1-0.8,0.1C599.6,63.4,596.4,65.3,596.2,70z"/>
<path class="st0" d="M632,74.7h0.6c-1-3.5,1.7-5.7,0.7-8.6c0.7,0.5,0.8-2.1,0.6-2.9c2-4.9,2.1-10.7,4-14.9c1.1-0.2,2.2,0.2,2.9,1
	c5-3.8,6.8-11.9,14.1-12.6c1.9,1.3,4.6,2.7,6.1,5.1c0.6,0.4,1.2,0.8,1.9,1.2v0.9c2.3,2.1,2.7,5.9,4.2,8.7c-0.4,1,0.3,1.2,0.2,2.5
	c-0.5,8.5-10.9,9.5-17.2,12.2c0,0.4,0.5,0.2,0.4,0.6c4.6,2.9,4.5,3.2,9.4,4.3s4.8,1.3,9.1,1.6c1.8,1.8,2.4,5,1.3,6.3
	c0.1,0.3,0.5,0.2,0.9,0.2c-1.2,0.8-1.3,2.6-2.9,2.7c-2.9,1.1-7.2,0-14-2.7s-7.9-3.7-11.5-6.8c-0.3,0-0.2,0.4-0.4,0.4
	c-0.2,2.5-1.2,5-2.7,7c-1.2-0.2-1.5,0.5-2.1,0.9c-1.6,0.3-1.2-0.9-3-0.9c-0.2-0.7-0.2-1.6-1.2-1.5c0.4-1.5-0.6-1.8-0.2-3.2
	C632.6,76.2,632.4,75.3,632,74.7z M646.8,57.8c3.3-0.4,7.2-2.2,10.4-3.6c-0.2-2.4-1.8-4.5-4.1-5.3C651,52,647.4,53.5,646.8,57.8z"/>
<path class="st0" d="M597.5,97.3c6.3-0.4,12.7-0.7,19-1l9.5-0.4l9.5-0.3c3.2-0.1,6.3-0.3,9.5-0.5c3.2-0.2,6.3-0.2,9.5,0
	c3.2,0.1,6.3,0.4,9.5,0.7c3.2,0.3,6.4,0.8,9.5,1.5v0.5c-3.1,0.7-6.3,1.2-9.5,1.5c-3.2,0.3-6.3,0.6-9.5,0.7s-6.3,0.1-9.5,0
	s-6.3-0.3-9.5-0.5l-9.5-0.3l-9.5-0.4c-6.3-0.3-12.7-0.6-19-1V97.3z"/>
<g>
	<path class="st0" d="M25.1,56.7c0-0.2-0.3-0.1-0.2-0.3c5.3-1,10.4-4.3,16.7-2.4c0.4,1.2,1.6,2.1,1.7,3.1c0.6,0.5,1,1.1,0.8,2.1
		c-0.5,0.4-1.1,0.8-1.7,1.1c-2.1-0.5-4.4-0.2-6.2,0c-1.1-1.1-3,0.4-4.3,0.2c-0.6,0.5-1.5,0.6-2.4,0.7c0,0.3,0.2,0.3,0.1,0.6
		c0.7,0.8,2.5,0.4,2.8,1.6c1.7,0,2.6,1.8,2.5,2.9c0.2,0.4,0.4,0.1,0.7,0.4c0.2,0.8,1.1,1.6,1.5,2.4c0.1,1.4,0.3,2.5-0.2,3.6
		c-1.7,4.3-6.5,6.6-10.7,7.9c-0.2,0-0.6,0.1-0.4-0.2c-0.8,0.8-2.4,0.2-3.5,0.4c-0.4-0.4-0.8-0.7-0.9-1.2c-0.2,0-0.1-0.4-0.3-0.5
		c0-0.1,0-0.2,0.1-0.3c0.4-0.3-0.3-0.3-0.2-0.6c0.5-0.9-0.7-2.6,0.7-3.3c4,0.4,6.9-1.8,9.7-3.1c0.3-1,1.4-1.2,1.6-2.3
		c0.1-0.4-0.4-0.3-0.3-0.7c-0.3-0.1-0.5-0.1-0.5-0.1c-1.1-0.6-2.7-1-3.6-1.5c-0.6,0.4-1.1,0-2-0.1c-2-0.1-3.8-0.4-5.5-1.1
		c-0.1-0.3-0.2-0.6-0.7-0.5c-0.3-0.4-0.7-0.8-1-1.4c0.1-0.7,0.3-1.1-0.1-1.6c0.2-0.8,0.4-1.1,0.3-1.8C20.3,58.2,23.1,57.3,25.1,56.7
		z"/>
	<path class="st0" d="M57.3,80.5c-0.5-0.3-0.8-0.7-1.4-0.8c0-0.1,0-0.2,0-0.3c0,0,0.1,0,0.2,0c0-0.2-0.2-0.1-0.2,0
		c-0.7-1-1.6-2-1.6-3.4c0-0.1,0.4-2.8,0.5-2.9c-2.7,0.3-6.1,2.2-7.5,3.1c0,0.3-1,3.1-1.8,3c0,0.2,0.2,0.3,0.2,0.6
		c-1.6,0.5-2.4,1.8-4.7,0.7c0-0.7-1.3-1-1.2-1.2c-0.3,0-0.2-0.8,0.1-0.5c-0.6-0.8-0.5-1.3-1.1-2.2c0.3-0.3,0.2-1.3,0.6-0.9
		c-0.2-1,0.6-1.3,0.2-2c0.9-1.2,1.1-2.8,1.2-4.1c0.9-0.8,1.3-3.1,0.9-4c0-0.2,0.2-0.2,0.4-0.1c0.8-3.9,0-10.2,3.6-11.1
		c0.6,2.4,2.4,3.5,3.5,5.7C49.1,62,48.4,66,47.9,68c0.1,0.3,0.5,0.1,0.3,0.6c2.8-0.7,6.1-1,8.6-2.3c0.3-2.3,1-4.5,0.6-6.8
		c0.3-0.3,0.4-0.7,0.8-0.8c-0.5-2.2,0.1-5.2,2.3-5.6c1.3,1.8,1.7,4.5,3.4,5.9c0.1,1.6,0.3,3.5,0.3,5.3c-0.4,2.1-1.1,4.2-1.3,6.4
		c-0.8,0.9-0.9,2.5-1.8,3.3c0.2,0.7-0.1,1.2,0.3,2C61.6,78.9,59.3,79.8,57.3,80.5z"/>
	<path class="st0" d="M69.9,80.6c-1.2-1.6-1.9-5.1-2.4-7c0.6-1.5,0.3-3.6,0.5-5.4c0.4-2.4,1.3-4.5,1.8-6.9c0.1-0.5-0.2-1-0.1-1.4
		c0.1-0.2,0.5-0.3,0.5-0.5c0.2-0.7-0.1-1,0.2-1.6c0.3-0.4,0.9-1.4,0.8-2.4c1.1-0.8,1.6-2,3.4-2c0.9,1.1,0.4,3,1.7,3.7
		c0,0.9-0.2,2.9,0.8,3.3c-2,5.5-3.8,10.9-2.8,16.6C74.9,80.6,72,80.9,69.9,80.6z"/>
	<path class="st0" d="M83.9,80.7l-0.2,0c-0.4,0-0.8-0.2-1.2-0.3c-0.2-0.1-0.4-0.2-0.7-0.2l-0.3-0.1l-0.1-0.3
		c-0.1-0.3-0.3-0.6-0.5-0.8c-0.2-0.3-0.5-0.7-0.7-1.1L80,77.8c-0.2-1.5,0.1-2.5,0.4-3.6c0.1-0.4,0.2-0.7,0.3-1.1
		c-1.5-0.8-2.2-2.5-2.4-4c0.4-1.9,2-2.5,3.2-2.8l0.3-0.1l0.2,0.3c0.2,0.2,0.5,0.4,0.8,0.6c0,0,0.1,0.1,0.2,0.1
		c0.2-0.4,0.3-0.8,0.4-1.2c0.1-0.5,0.3-1.1,0.6-1.6c0-0.4,0-0.8,0.1-1.1c-0.2-0.1-0.3-0.2-0.5-0.2c-0.1,0-0.3,0-0.4-0.1L83.1,63
		c-0.3-0.4-0.5-0.7-0.8-1.1c-0.2-0.4-0.4-0.7-0.7-0.9l-0.4-0.3l0.2-0.4c0.1-0.1,0.1-0.3-0.1-0.6l0-0.3c0-0.2,0-0.4,0-0.4l-0.1-0.3
		l0.2-0.2c0,0,0.1-0.1,0.1-0.2c0.1-0.1,0.2-0.2,0.2-0.4l0.1-0.3l0.3-0.1c1.2-0.3,2.3-0.7,3.4-1.1c1.1-0.4,2.3-0.8,3.4-1.1
		c0.4-0.3,0.9-0.4,1.3-0.4c0.4,0,0.7,0,0.9-0.3l0.2,0c0.2,0,0.5-0.1,0.9-0.2c1.4-0.4,3.9-1,6.8-1.2h0.8c0.3,0,0.6,0,0.9,0
		c1.2,0,2.1,0.4,2.5,1.2c0.5,0.2,0.9,0.7,1.2,1c0.2,0.2,0.4,0.4,0.6,0.5l0.2,0.1l0.1,0.2c0.3,0.5,0.3,1.1,0.1,1.8
		c-0.2,0.4-0.6,0.4-0.9,0.5c-0.1,0-0.3,0-0.3,0.1l-0.2,0.2l-0.3,0c-0.3,0-0.6,0-1,0c-2.9,0-8,0.8-10.7,1.8c-0.3,0.2-0.5,0.3-0.8,0.4
		c-0.1,0.1-0.2,0.1-0.3,0.2c0,0.4,0,0.8-0.1,1.1c0,0.3-0.1,0.5-0.1,0.8v0.2l-0.1,0.1c-0.4,0.4-0.6,1-0.6,1.8l0,0.2l-0.2,0.1
		c-0.2,0.2-0.4,0.6-0.3,1l0.1,0.4c0.9,0,1.9-0.2,2.9-0.4c1.3-0.2,2.8-0.4,4.2-0.4h1.4l-0.3,0.3l0.4,0l0,0.6c0.1,0.1,0.3,0.2,0.4,0.3
		l0.2,0.2l0,0.2c0.2,0.1,0.5,0.4,0.5,1v0.2l-0.1,0.2l-1.7,2.2l-0.2,0.3L97,71.4c0,0-0.1,0-0.3,0c-0.3,0-0.7,0.1-1,0.2
		c-0.4,0.1-0.9,0.3-1.3,0.3c-0.1,0-0.2,0-0.3,0c-0.8,0.2-1.6,0.4-2.4,0.4c-1.1,0.2-2,0.3-2.9,0.7l-0.2,0l-0.2,0c-0.1,0-0.2,0-0.3,0
		c-0.4,0-1,0.2-1.5,0.3c-0.2,0.2-0.3,0.5-0.4,0.8c-0.1,0.3-0.2,0.7-0.5,1c0,0.1,0,0.1,0,0.3v0.4l-0.4,0.1c0,0.4-0.1,0.8-0.3,1
		c0,0.2-0.1,0.4-0.1,0.5c0.2,0.4,0.3,1,0.2,1.5C85.2,79.6,84.7,80.4,83.9,80.7z"/>
	<path class="st0" d="M119.4,59.8c-1.2,0.2-2.2,0.3-3.2,0.4c-0.4,1.2-0.8,2.1-1.2,3c-0.4,1-0.8,2-1.2,3.3c-0.4,0.7-0.9,1.5-1.1,2.4
		l0,0.2l-0.1,0.1c-0.5,0.4-0.8,1.6-1,2.3c0,0.1,0,0.2-0.1,0.3l0,0.2l-0.2,0.2c0,0.1-0.1,0.4-0.3,0.5c0,0.4-0.2,0.7-0.3,1
		c-0.1,0.2-0.2,0.5-0.2,0.7v0.2c0,0.1,0,0.3-0.2,0.4c0,0.3-0.1,0.6-0.1,0.9c0,0.3-0.1,0.6,0,0.9c0.1,0.1,0.3,0.3,0.4,0.6
		c0.2,0,0.3,0.1,0.4,0.2c0.2,0.1,0.4,0.2,0.5,0.3l0.3,0.1l0,0.3c0.2,0.8,0,1.5-0.4,2c-0.4,0.5-1.2,0.8-2.2,0.8c-0.1,0-0.2,0-0.3,0
		l-0.2,0l-0.2-0.2c0,0-0.1-0.1-0.3-0.2c-0.3,0-0.6-0.2-0.8-0.5c-0.1,0-0.2-0.1-0.4-0.1c-0.2-0.1-0.4-0.1-0.6-0.3l-0.4-0.2l0.1-0.3
		c0-0.1,0-0.2,0-0.2c-0.4-0.5-0.6-1.2-0.8-1.8c-0.1-0.5-0.2-1-0.5-1.5v-0.2c0-2.9,0.9-5.1,1.8-7.3c0.4-1.1,0.9-2.3,1.2-3.6l0.1-0.3
		l0.3-0.1c0,0,0.1,0,0.2-0.1c0,0,0.1-0.1,0.2-0.1c0-0.6,0.3-1.2,0.6-1.8c0.2-0.4,0.4-0.8,0.4-1.1c-0.3,0-0.6,0-0.9,0.1
		c-0.3,0-0.5,0.1-0.8,0.1c-0.2,0-0.3,0-0.5,0c-0.4,0.2-0.7,0.2-1,0.2c-0.1,0-0.3,0-0.4,0c-0.1,0-0.3,0-0.4,0c-0.3,0-0.5,0-0.7,0.1
		l-0.2,0.1l-0.2,0c-0.2,0-0.4,0-0.6,0c-0.1,0-0.3,0-0.4,0c-0.1,0-0.3,0-0.4,0c-0.4,0-0.9,0-1.5-0.4l-0.1-0.2
		c-0.2-0.3-0.3-0.4-0.4-0.4l-0.4-0.1V60c0-0.4-0.2-0.7-0.3-1.1c-0.3-0.5-0.5-1.2-0.5-2.2c0-0.4,0.3-0.6,0.5-0.8l0-0.5h0.5
		c0.4,0,0.8,0,1.2,0c1.9,0,3.8-0.2,5.8-0.4c1.2-0.1,2.4-0.2,3.6-0.3c0,0,0.1-0.2,0.1-0.3c0.1-0.1,0.1-0.3,0.3-0.5l0.1-0.2h0.3
		c0.1,0,0.2,0,0.3,0c0.7,0,1.1,0.4,1.4,0.7c1.2-0.1,2.6-0.3,3.9-0.5c1.9-0.3,3.9-0.5,5.8-0.5c0.8,0,1.6,0,2.2,0.2l0.3,0l0.1,0.2
		c0.2,0.4,0.5,0.6,0.9,0.9c0.7,0.6,1.6,1.3,1.4,3V58l-0.1,0.1c-0.1,0.1-0.3,0.2-0.4,0.3c0,0-0.2,0.1-0.2,0.2l-0.2,0.3h-0.4
		c-0.4,0-0.6,0.1-0.9,0.2c-0.2,0.1-0.4,0.2-0.8,0.2l-0.2,0c-0.3,0-0.6,0-0.9,0C122.8,59.3,121,59.6,119.4,59.8z"/>
	<path class="st0" d="M157,59.8c-1.2,0.2-2.2,0.3-3.2,0.4c-0.4,1.2-0.8,2.1-1.2,3c-0.4,1-0.8,2-1.2,3.3c-0.4,0.7-0.9,1.5-1.1,2.4
		l0,0.2l-0.1,0.1c-0.5,0.4-0.8,1.6-1,2.3c0,0.1,0,0.2-0.1,0.3l0,0.2l-0.2,0.2c0,0.1-0.1,0.4-0.3,0.5c0,0.4-0.2,0.7-0.3,1
		c-0.1,0.2-0.2,0.5-0.2,0.7v0.2c0,0.1,0,0.3-0.2,0.4c0,0.3-0.1,0.6-0.1,0.9c0,0.3-0.1,0.6,0,0.9c0.1,0.1,0.3,0.3,0.4,0.6
		c0.2,0,0.3,0.1,0.4,0.2c0.2,0.1,0.4,0.2,0.5,0.3l0.3,0.1l0,0.3c0.2,0.8,0,1.5-0.4,2c-0.4,0.5-1.2,0.8-2.2,0.8c-0.1,0-0.2,0-0.3,0
		l-0.2,0L146,81c0,0-0.1-0.1-0.3-0.2c-0.3,0-0.6-0.2-0.8-0.5c-0.1,0-0.2-0.1-0.4-0.1c-0.2-0.1-0.4-0.1-0.6-0.3l-0.4-0.2l0.1-0.3
		c0-0.1,0-0.2,0-0.2c-0.4-0.5-0.6-1.2-0.8-1.8c-0.1-0.5-0.2-1-0.5-1.5v-0.2c0-2.9,0.9-5.1,1.8-7.3c0.4-1.1,0.9-2.3,1.2-3.6l0.1-0.3
		l0.3-0.1c0,0,0.1,0,0.2-0.1c0,0,0.1-0.1,0.2-0.1c0-0.6,0.3-1.2,0.6-1.8c0.2-0.4,0.4-0.8,0.4-1.1c-0.3,0-0.6,0-0.9,0.1
		c-0.3,0-0.5,0.1-0.8,0.1c-0.2,0-0.3,0-0.5,0c-0.4,0.2-0.7,0.2-1,0.2c-0.1,0-0.3,0-0.4,0c-0.1,0-0.3,0-0.4,0c-0.3,0-0.5,0-0.7,0.1
		l-0.2,0.1l-0.2,0c-0.2,0-0.4,0-0.6,0c-0.1,0-0.3,0-0.4,0c-0.1,0-0.3,0-0.4,0c-0.4,0-0.9,0-1.5-0.4l-0.1-0.2
		c-0.2-0.3-0.3-0.4-0.4-0.4l-0.4-0.1V60c0-0.4-0.2-0.7-0.3-1.1c-0.3-0.5-0.5-1.2-0.5-2.2c0-0.4,0.3-0.6,0.5-0.8l0-0.5h0.5
		c0.4,0,0.8,0,1.2,0c1.9,0,3.8-0.2,5.8-0.4c1.2-0.1,2.4-0.2,3.6-0.3c0,0,0.1-0.2,0.1-0.3c0.1-0.1,0.1-0.3,0.3-0.5l0.1-0.2h0.3
		c0.1,0,0.2,0,0.3,0c0.7,0,1.1,0.4,1.4,0.7c1.2-0.1,2.6-0.3,3.9-0.5c1.9-0.3,3.9-0.5,5.8-0.5c0.8,0,1.6,0,2.2,0.2l0.3,0l0.1,0.2
		c0.2,0.4,0.5,0.6,0.9,0.9c0.7,0.6,1.6,1.3,1.4,3V58l-0.1,0.1c-0.1,0.1-0.3,0.2-0.4,0.3c0,0-0.2,0.1-0.2,0.2l-0.2,0.3h-0.4
		c-0.4,0-0.6,0.1-0.9,0.2c-0.2,0.1-0.4,0.2-0.8,0.2l-0.2,0c-0.3,0-0.6,0-0.9,0C160.4,59.3,158.6,59.6,157,59.8z"/>
	<path class="st0" d="M176.5,80.5c-0.5-0.3-0.8-0.7-1.4-0.8c0-0.1,0-0.2,0-0.3c0,0,0.1,0,0.2,0c0-0.2-0.2-0.1-0.2,0
		c-0.7-1-1.6-2-1.6-3.4c0-0.1,0.4-2.8,0.5-2.9c-2.7,0.3-6.1,2.2-7.5,3.1c0,0.3-1,3.1-1.8,3c0,0.2,0.2,0.3,0.2,0.6
		c-1.6,0.5-2.4,1.8-4.7,0.7c0-0.7-1.3-1-1.2-1.2c-0.3,0-0.2-0.8,0.1-0.5c-0.6-0.8-0.5-1.3-1.1-2.2c0.3-0.3,0.2-1.3,0.6-0.9
		c-0.2-1,0.6-1.3,0.2-2c0.9-1.2,1.1-2.8,1.2-4.1c0.9-0.8,1.3-3.1,0.9-4c0-0.2,0.2-0.2,0.4-0.1c0.8-3.9,0-10.2,3.6-11.1
		c0.6,2.4,2.4,3.5,3.5,5.7c-0.1,2.2-0.8,6.1-1.2,8.1c0.1,0.3,0.5,0.1,0.3,0.6c2.8-0.7,6.1-1,8.6-2.3c0.3-2.3,1-4.5,0.6-6.8
		c0.3-0.3,0.4-0.7,0.8-0.8c-0.5-2.2,0.1-5.2,2.3-5.6c1.3,1.8,1.7,4.5,3.4,5.9c0.1,1.6,0.3,3.5,0.3,5.3c-0.4,2.1-1.1,4.2-1.3,6.4
		c-0.8,0.9-0.9,2.5-1.8,3.3c0.2,0.7-0.1,1.2,0.3,2C180.8,78.9,178.5,79.8,176.5,80.5z"/>
	<path class="st0" d="M208.5,57.2c-2.4,3.9-6.7,2.1-10.4,4.4c-0.8-0.3-1.2,0.3-2.4,0.1c-0.4,0.3-0.9,0.4-1.5,0.6
		c0.3,0.5,0.1,1.1,0.3,1.5c2,0.2,4.7-0.2,7-0.3c0,0.2-0.1,0.3-0.1,0.5c0.9,0.5,1.5,2,2.6,1.9c0.3,0.4,0.4,1,0.2,1.6
		c-1.9,1.2-3.6,2.8-6.3,2.7c-0.3,0-0.4,0-0.6-0.1c-0.5,0.2-1.5,0-2,0.2c-0.7-0.2-1.6-0.1-2.4-0.4c-0.9,1.2-1.7,2.6-2.3,4.2
		c3.9,0.6,4.7-0.4,8.4-0.3c1.2-0.6,2.9-0.6,4.3-1.1c0.9,0.4,1.2,1.9,2.2,1.7c0.5,0.4,0.1,1.5,0.9,1.4c-1.8,3.7-4.4,3.6-8.8,4.4
		c-0.5,0.1-0.8-0.1-1.2-0.1c-2.7,0.5-7.9,1.2-10.1-1c-0.4-0.4-0.4-1.1-1-1.4c-0.2-1.5-0.9-3.9-0.6-5.5c0.1-0.9,1-1.6,0.8-2.4
		c0.3,0,0.2-0.4,0.6-0.4c0.7-2.1,1.7-3.5,2.5-5.6c-1.6-1.6-1.2-3.5-1.8-5.4c1.2-1.8,3.3-2,5.9-2.6c4.6-1.5,6.9-1.4,11.8-2.2
		c0,0.1,0.2,0.1,0.4,0.1c0,0.2,0.2,0.3,0.4,0.3c0,0.1,0.2,0.1,0.3,0.1c0-0.1-0.1-0.1-0.3-0.1c0-0.1,0-0.3,0-0.4
		c0.2,0,0.7,0.4,0.6-0.1c0.6,1,1.5,1.6,2.6,2.1C208.6,56.6,208.2,56.5,208.5,57.2z"/>
	<path class="st0" d="M224.5,73.4c0.2-0.8,0.7-1.1,0.7-2.1c0.6-1.8,1.2-3.5,1.4-5.3c0.1-0.3,0.3-0.4,0.6-0.5c0.4-3.3,0-6.9-0.8-9.9
		c0-0.7,0.3-0.9,0.1-1.1c-0.1-0.5,0.5-0.4,1-0.4c0-1-0.4-2-0.8-3.3c0.5-1.1,0.5-2.1,1-2.9c3.7,1.2,7.1,3.2,10.4,4
		c5,3.6,11,6.6,11.4,14c-0.1,0.8-0.3,0.7-0.3,1.8c-4.1,7.2-13.3,9.4-21,13C224.8,79.8,224.8,76.6,224.5,73.4z M231.8,56.2
		c1.4,5.2,1.3,9.1,0.3,14.7c1.5-0.1,2.2-1.1,4-1.2c0.2-0.4,0.7-0.6,0.9-0.9c2.9-1.2,5.8-2.4,7-5.2c-0.9-1.7-2.9-2.3-3.7-4.1
		c-1.8-0.3-2.5-1.7-4.5-1.8c0-0.2-0.2-0.2-0.1-0.4c-1.3-0.3-2.7-0.5-3.3-1.1C232.1,56.1,231.9,56.1,231.8,56.2z"/>
	<path class="st0" d="M250.8,77.1c-0.2-1.8-1.1-4.7-0.7-6.6c0.2-1.1,1.2-1.9,1-2.8c0.4,0,0.3-0.5,0.7-0.4c0.8-2.6,2-4.2,3-6.8
		c-2-1.9-1.5-4.2-2.1-6.5c1.4-2.1,3.9-2.4,7-3.1c5.6-1.8,8.3-1.7,14.1-2.7c0,0.2,0.2,0.2,0.4,0.1c0,0.2,0.2,0.3,0.4,0.3
		c0,0.1,0.2,0.1,0.3,0.1c0-0.1-0.2-0.1-0.3-0.1c0-0.1,0-0.3,0-0.4c0.3,0,0.8,0.4,0.7-0.1c0.7,1.2,1.8,1.9,3.2,2.5
		c0.2,1-0.3,0.8,0,1.8c-2.8,4.7-7.9,2.5-12.5,5.3c-0.9-0.4-1.4,0.4-2.8,0.2c-0.4,0.4-1.2,0.5-1.8,0.7c0.3,0.7,0.1,1.3,0.3,1.8
		c2.4,0.2,5.5-0.2,8.4-0.3c0,0.3-0.1,0.4-0.1,0.6c1.1,0.6,1.8,2.4,3.2,2.2c0.3,0.6,0.4,1.2,0.2,1.9c-2.3,1.5-4.3,3.3-7.6,3.2
		c-0.3,0-0.5,0-0.8-0.1c-0.6,0.3-1.8,0-2.4,0.3c-0.8-0.3-2-0.2-2.8-0.4c-1.1,1.5-2,3.1-2.7,5c4.7,0.7,5.7-0.5,10-0.3
		c1.4-0.7,3.5-0.8,5.1-1.3c1.1,0.4,1.5,2.2,2.7,2c0.5,0.5,0.1,1.7,1,1.6c-2.1,4.5-5.3,4.3-10.5,5.3c-0.6,0.1-1-0.1-1.5-0.1
		c-3.2,0.6-9.4,1.4-12.1-1.2C251.5,78.2,251.5,77.5,250.8,77.1z"/>
	<path class="st0" d="M279.9,80.6c-1.9-2-3.1-7.3-1.9-10.3c0.1-0.1,5.4-13.1,7.5-16.3c0.5-0.8,1-1.6,1.4-2.2
		c1.2-2.1,2.1-3.5,4.3-4.3c0.7,0.3,1.2,0.6,1.6,1.1l0.2,0.6c0.1,0.4,0.4,0.5,0.6,0.5c0.1,0,0.1,0,0.2,0c0.5,0.2,1,0.4,1.6,0.5
		c0.2,0.3,0.4,0.6,0.7,1c1.2,1.7,2.1,3.1,1.4,5l-0.1,0.2l0.1,0.3c0.3,0.4,0.2,0.7,0.1,1.3c0,0.4-0.1,1,0,1.6l0,0.3l0.2,0.1
		c0.5,0.2,0.9,0.4,1.4,0.4c1.1,0,2-0.7,2.9-1.2c0.6-0.4,1.2-0.8,1.6-0.8l0.3-0.1c0.9-1,2-1.9,3-2.8c2.1-1.7,4.2-3.5,5.4-6.3
		c0.3-0.2,0.7-0.3,1.1-0.3c0.8,0,1.6,0.4,2.4,0.8c0.2,0.1,0.3,0.2,0.5,0.2c0,0.3,0.1,0.6,0.5,1c0.1,0,0.2,0.1,0.4,0.2
		c0.5,0.3,0.8,0.5,1,0.8c0.3,0.8,0.7,1.4,1.3,1.8c-0.1,0.7,0.1,1.3,0.4,1.9c0.1,0.2,0.2,0.4,0.2,0.7c-0.1,0.1-0.1,0.2-0.2,0.3
		l-0.8-0.4l0.1,1c0.2,0.9-0.3,2.4-0.6,3l-0.1,0.3c0.3,2.8,0,3.9-0.7,5.6l0,0.3c0.3,4.1-1.3,7.7-2.8,10.9c-0.2,0.4-0.3,0.7-0.5,1.1
		c-0.6,0.2-1.1,0.4-1.6,0.7c-0.7,0.4-1.3,0.7-2,0.7c0,0-0.1,0-0.2,0c-2.4-2-2.5-7.1-0.3-14.7c0.2-0.1,0.3-0.3,0.3-0.7v-0.4l-0.5-0.1
		c-0.1,0-0.5,0-0.6,0.4c-3.6,2.7-8.8,6.1-13.4,6.1c-2.9,0-5.1-1.4-6.5-4.4l-0.4-0.8l-0.4,0.7c-0.3,0.5-2,3.8-1.8,5.5
		c-0.6,0.6-1.4,1.4-1.7,2.4c-0.1,0.3,0,0.6,0.1,0.8c0,0,0,0.1,0,0.2c-0.1,0.2-0.3,0.4-0.5,0.5c-0.3,0.3-0.6,0.6-0.8,1
		c-0.2,0.4-0.2,0.7-0.3,1.1c0,0.3,0,0.5-0.1,0.7c-1.2,2.4-1.6,2.8-2.8,2.8C280.9,80.7,280.5,80.7,279.9,80.6z"/>
	<path class="st0" d="M319.4,76l0.6-0.4l-0.3,0l0.4-0.8c1.4-3.5,2.9-6.7,4.6-10.1c0.5-1.1,1.1-2.2,1.6-3.3c0-0.2-0.1-0.4,0-0.8
		l0.1-0.2c0.6-0.9,1.1-1.8,1.6-2.8c0.5-1.2,1.1-2.3,2-3.4l0.4-0.4h0.5c0.1,0,0.4-0.2,0.8-0.2c0.1,0,0.2,0,0.3,0l0.4,0.1l0.1,0.4
		c1.8-1.3,3.2-2.9,4.7-5.2l0.5-0.8l0.7,0.4c0.3,0.2,1,0.4,1.7,0.5c1.2,0.3,2.4,0.6,3.1,1.3l0.2,0.2l0,0.2c0.1,0.6,0.2,1.2,0.3,1.6
		c0.2,1.2,0.4,2.3,0.5,3.8c0.3,1.1,0.6,2.3,0.8,3.5c0.3,1.6,0.6,3.2,1.3,4.6c0.2,0,0.3,0,0.4,0c0.4-0.1,0.8-0.2,1.2-0.2l0.6,0
		l0.2,0.5c0.1,0.2,0.3,0.3,0.5,0.5c0,0,0,0,0.2,0c0.7,0,1.1,0.4,1.4,0.7c0.1,0.1,0.3,0.3,0.4,0.4l0.8,0.3l-0.4,0.8
		c-0.6,1.2-2,2.4-3.6,3.2c0,0.4,0.1,0.8,0.2,1.2c0.2,1.2,0.4,2.4,0.3,3.8l-0.1,0.2c-0.9,2.4-3.3,5-6.2,5.1l-0.3,0
		c-0.4-0.1-0.8-0.4-1.1-0.6c-0.2-0.1-0.4-0.2-0.5-0.3l-0.6-0.3l0.2-0.7c0.1-0.5,0-0.8-0.7-1.3c-0.2-0.2-0.4-0.4-0.6-0.6l-0.9-1
		l1.4-0.4c1.7-0.4,2.2-1,2.1-2.8c-0.1-0.1-0.1-0.2-0.2-0.3c-1.1,0.1-2,0.4-3,0.6c-1.3,0.4-2.5,0.6-4,0.6c-0.5,0-1,0-1.6-0.1l-0.5,0
		l-0.1-0.5c0-0.1-0.2-0.3-0.3-0.4c-0.3-0.3-0.9-0.9-0.7-1.8c-0.1-0.3-0.3-0.6-0.3-1c-0.2,0.4-0.4,0.9-0.5,1.3l-0.2,0.5l-0.5,0.1
		c-0.1,0-0.2,0.4-0.2,0.5l0.1,0.5l-0.4,0.4c-0.1,0.1-0.3,0.3-0.4,0.4c-0.2,0.6-0.4,1.2-0.6,1.8c-0.3,0.9-0.6,1.8-0.6,2.6v0.3
		l-0.2,0.3c-0.3,0.4-0.8,0.6-1.2,0.8c-0.2,0.1-0.5,0.2-0.6,0.3l-0.2,0.6l-0.6,0.1c-0.1,0-0.2,0-0.4,0c-0.3,0.1-0.6,0.2-1,0.2
		c-0.1,0-0.2,0-0.3,0h-0.3l-0.2-0.2c-0.4-0.4-0.9-0.8-1.4-1.1l-0.2-0.1l-0.1-0.2c-0.2-0.4-0.3-0.8-0.4-1.2c0-0.4-0.1-0.7-0.3-0.8
		L319.4,76z M332.1,66.6c0.4,0,0.8,0,1.2-0.1c2-0.1,3.6-0.2,5.6-0.7c-0.4-2.1-1-4.3-1.6-6.6c0,0.1-0.1,0.2-0.2,0.3l-0.1,0.2
		c-1.3,1.4-2.8,3.4-3.7,5.1C332.9,65.3,332.5,66,332.1,66.6z"/>
	<path class="st0" d="M357.2,79.3c-0.2,0.3,0,0.2,0.1,0.7c-0.8-0.2-1,0.2-1.6,0.3c-2.6-0.9-3.4-4.6-4.4-6.6c0-0.2,0.3-0.1,0.4-0.1
		c-0.3-0.6-0.4-1.4-0.8-1.9c3.4-7.2,7.7-15.8,11.3-23.7c3.2,1.2,6.4,3.1,7,6.5c-0.2,0.4-0.3,0-0.4,0.3c0.6,0.6-0.1,0.5,0.4,1.3
		c-0.3,0-0.3,0.2-0.6,0.1c0.6,1.6-0.8,1.6-0.3,3.1c-0.4,0-0.3,0.5-0.7,0.4c0.4,3-0.4,6,0.4,9.7c5-2.9,5.6-9.5,6.6-16.2
		c1.3-1.2,1.2-3.8,2.1-5.5c2.2,0.3,2.6,2.4,4.7,2.7c0.8,1.1,1.6,2.2,1.8,3.5c-0.7,1.2-0.5,2.9-1.8,3.7c-0.4,3.5-1.5,5.7-1.4,9.4
		c-0.5,1.7-1.3,3.6-1.6,5.1c-1.1,0.8-1.6,2.2-2.3,3.5c-0.3,0.3-0.2,0-0.7,0c0.1,0.5-0.4,0.4-0.1,1.1c-2,0.9-2.6,3.6-6.4,2.2
		c-2.8-2-5.1-4.7-6.4-8.4c-1.2,0.3-1,2.7-2,2.7c-0.2,1.1-1.6,1.7-1,3C358.4,77,359.4,79.4,357.2,79.3z"/>
	<path class="st0" d="M382.7,73.4c0.2-0.8,0.7-1.1,0.7-2.1c0.6-1.8,1.2-3.5,1.4-5.3c0.1-0.3,0.3-0.4,0.6-0.5c0.4-3.3,0-6.9-0.8-9.9
		c0-0.7,0.3-0.9,0.1-1.1c-0.1-0.5,0.5-0.4,1-0.4c0-1-0.4-2-0.8-3.3c0.5-1.1,0.5-2.1,1-2.9c3.7,1.2,7.1,3.2,10.4,4
		c5,3.6,11,6.6,11.4,14c-0.1,0.8-0.3,0.7-0.3,1.8c-4.1,7.2-13.3,9.4-21,13C383,79.8,383.1,76.6,382.7,73.4z M390,56.2
		c1.4,5.2,1.3,9.1,0.3,14.7c1.5-0.1,2.2-1.1,4-1.2c0.2-0.4,0.7-0.6,0.9-0.9c2.9-1.2,5.8-2.4,7-5.2c-0.9-1.7-2.9-2.3-3.7-4.1
		c-1.8-0.3-2.5-1.7-4.5-1.8c0-0.2-0.2-0.2-0.1-0.4c-1.3-0.3-2.7-0.5-3.3-1.1C390.3,56.1,390.2,56.1,390,56.2z"/>
	<path class="st0" d="M439.1,80.5c-3-0.1-6.4-0.8-9.1-1.8c-0.6-0.6-1.1-1.2-2-1.5c-2.8-2.2-3.5-6.6-3.4-10c0.9-2.6,2.7-4.3,4.3-6.2
		c0.2,0,0.3,0.1,0.4,0.1c0.4-1.1,1.6-1.4,2.3-2.3c2.4-0.5,3.5-2.4,5.9-2.9c0.9-1,2.7-1.1,3.5-2.3c0.3,0.4,0.9,0.2,1.3,0
		c0.5-0.1,0.8,0.9,1.1,0.3c0.3,0,0,0.4,0,0.5c0.4-0.1,0.7,0.4,1.3,0.4c0.2,0.3,0,0.3,0,0.7c3.5,1.1,1.4,5.1-1.2,5.7
		c-2.6,0.8-5.2,1.5-6.8,3.2c-2.7,0.8-4.2,2.8-6,4.6c0,0.8-0.4,1.2-0.7,1.6c0.1,0.9,0.4,1.5,0.8,2.1c3.8,1.2,8.3,1.3,12.6,1.3
		c0.8,1.2,2.4,1.8,2.1,3.7c-0.8,0.8-1.8,1.6-2.8,2.3C441.8,80.3,440.2,80,439.1,80.5z"/>
	<path class="st0" d="M472.5,58.5c0.3,0.8,0.6,1.5,0.7,2.6c-0.5,1.5-0.6,2.7-0.8,4.1l0,0.4c-0.9,1.5-1.8,3.2-2.4,4.3
		c-0.3,0.4-0.5,0.8-0.7,1.1c0,0.2-0.3,0.6-0.4,0.7l-0.8-0.3l-0.2,0l0,0.2v1c0,0.1,0,0.2-0.1,0.3l-0.6,0l-0.3,0.4
		c-2.2,3.9-4.8,5-9.7,7c-1-0.1-1.6-0.1-2.3-0.2c-0.7,0-1.2,0-2.1-0.1c-0.2-0.4-0.6-0.6-1-0.6c-0.8-0.5-1.2-1.4-1.7-2.4
		c-0.3-0.6-0.5-1.2-0.8-1.7l0.7-0.2l0.2-0.1l-0.2-0.1l-1-0.8c-0.2-0.1-0.3-0.3-0.5-0.4v-0.7c-0.2-3.9-0.3-7.4,0.5-9.9l0.1-0.3l0-0.2
		c0-0.1-0.1-0.2-0.1-0.3c0.4-0.8,0.5-1.7,0.6-2.5c0.1-0.7,0.2-1.2,0.4-1.8c0.8-0.1,1.2-0.8,1.5-1.2c0.8,0,0.9,0.3,1.2,0.9
		c0.3,0.5,0.6,1.2,1.5,1.6c0.1,0.5,0.4,1,0.6,1.5c0.4,1,0.9,2.2,0.9,3.1c-1.2,2.2-1.2,6.1-0.5,7.9l0.4,0.7l0.6-0.1
		c3.5-0.9,5.4-2.1,7.8-4.8c2.4-2.7,3.6-7.1,3.7-10.3c0.5-0.2,0.8-0.6,0.8-1.1v-0.3l-0.1-0.2c-0.1-0.2-0.1-0.4,0-0.7
		c0.2-0.5,0.7-1,1.2-1.2c0.8,0.6,1.6,1.3,2.3,2C471.8,56.8,472.1,57.7,472.5,58.5z"/>
	<path class="st0" d="M478.8,75.9c-0.3,1.9-0.7,2.9-1.6,4.2c-0.8-0.2-0.9,0.3-1.3,0.5c-1,0.2-0.7-0.6-1.8-0.5
		c-0.1-0.4-0.1-1-0.8-0.9c0.3-0.9-0.4-1.1-0.1-1.9c-0.2,0-0.4-0.5-0.6-0.9c0.1,0,0.3,0,0.4,0c-0.7-2.1,1-3.5,0.4-5.2
		c0.4,0.3,0.5-1.3,0.4-1.8c1.2-3,1.2-6.5,2.4-9.1c0.7-0.1,1.6,0.3,1.8,0.7c3-2.3,4.1-7.2,8.6-7.7c1.1,0.8,2.8,1.6,3.7,3.1
		c0.4,0.2,0.8,0.5,1.2,0.8c0,0.2,0,0.4,0,0.5c1.4,1.2,1.6,3.5,2.6,5.2c-0.2,0.6,0.2,0.8,0.1,1.5c-0.4,5.1-6.7,5.8-10.5,7.4
		c0,0.2,0.3,0.1,0.2,0.4c2.8,1.7,2.8,2,5.7,2.6c3,0.7,2.9,0.8,5.5,1c1.1,1.1,1.4,3,0.8,3.8c0,0.2,0.3,0.1,0.5,0.1
		c-0.7,0.4-0.8,1.5-1.8,1.6c-1.7,0.7-4.3,0-8.5-1.6c-4.2-1.6-4.8-2.3-7-4.2C478.9,75.7,478.9,75.9,478.8,75.9z M481.5,66.2
		c2-0.2,4.3-1.3,6.3-2.2c-0.2-1.8-1.4-2.8-2.5-3.2C484,62.6,481.9,63.6,481.5,66.2z"/>
	<path class="st0" d="M506.7,76.5c0.2,0.7-0.1,0.9,0,1.7c-0.9,2.3-2.9,3.2-4.5,2.1c-0.7-0.4-1-1.4-1.7-1.6c0.1-1-0.3-2.2-0.7-2.3
		c-0.4-2.4-1.5-5.7-1.3-8c0-0.6-0.4-1-0.4-1.6c-0.2-1.3,0-2.8,0-4.2c0-2.6-0.8-6.1-0.2-7.4c0,0.1,0,0.1,0,0.2c0.2,0,0.1-0.1,0-0.2
		c0.4-0.7,1-1,1.6-1.5c1.2,0.1,2.1,1.2,2,2c3.6,2.2,2.6,9.2,3.5,12.4c4.3-6.2,5.1-9.1,11-14.7c1.2,0.1,1.2,0.8,2.5,0.5
		c0.5,1.1,0.3,0.8,0.9,2.4c0.3,0.4-0.3,1.4,0.3,1.1c-0.2,0.8-0.8,1.4-0.8,2.3c-2.6,3.5-6.7,7.3-8.7,12.1c-0.6,0-0.5,0.8-1,0.8
		C509.1,74.1,507.8,75.5,506.7,76.5z"/>
	<path class="st0" d="M540.5,57.2c-2.4,3.9-6.7,2.1-10.4,4.4c-0.8-0.3-1.2,0.3-2.4,0.1c-0.4,0.3-0.9,0.4-1.5,0.6
		c0.3,0.5,0.1,1.1,0.3,1.5c2,0.2,4.7-0.2,7-0.3c0,0.2-0.1,0.3-0.1,0.5c0.9,0.5,1.5,2,2.6,1.9c0.3,0.4,0.4,1,0.2,1.6
		c-1.9,1.2-3.6,2.8-6.3,2.7c-0.3,0-0.4,0-0.6-0.1c-0.5,0.2-1.5,0-2,0.2c-0.7-0.2-1.6-0.1-2.4-0.4c-0.9,1.2-1.7,2.6-2.3,4.2
		c3.9,0.6,4.7-0.4,8.4-0.3c1.2-0.6,2.9-0.6,4.3-1.1c0.9,0.4,1.2,1.9,2.2,1.7c0.5,0.4,0.1,1.5,0.9,1.4c-1.8,3.7-4.4,3.6-8.8,4.4
		c-0.5,0.1-0.8-0.1-1.2-0.1c-2.7,0.5-7.9,1.2-10.1-1c-0.4-0.4-0.4-1.1-1-1.4c-0.2-1.5-0.9-3.9-0.6-5.5c0.1-0.9,1-1.6,0.8-2.4
		c0.3,0,0.2-0.4,0.6-0.4c0.7-2.1,1.7-3.5,2.5-5.6c-1.6-1.6-1.2-3.5-1.8-5.4c1.2-1.8,3.3-2,5.9-2.6c4.6-1.5,6.9-1.4,11.8-2.2
		c0,0.1,0.2,0.1,0.4,0.1c0,0.2,0.2,0.3,0.4,0.3c0,0.1,0.2,0.1,0.3,0.1c0-0.1-0.1-0.1-0.3-0.1c0-0.1,0-0.3,0-0.4
		c0.2,0,0.7,0.4,0.6-0.1c0.6,1,1.5,1.6,2.6,2.1C540.7,56.6,540.3,56.5,540.5,57.2z"/>
</g>
<g>
	<path class="st0" d="M728.7,55.6c0-0.2-0.3-0.1-0.2-0.3c5.3-1,10.4-4.3,16.7-2.4c0.4,1.2,1.6,2.1,1.7,3.1c0.6,0.5,1,1.1,0.8,2.1
		c-0.5,0.4-1.1,0.8-1.7,1.1c-2.1-0.5-4.4-0.2-6.2,0c-1.1-1.1-3,0.4-4.3,0.2c-0.6,0.5-1.5,0.6-2.4,0.7c0,0.3,0.2,0.3,0.1,0.6
		c0.7,0.8,2.5,0.4,2.8,1.6c1.7,0,2.6,1.8,2.5,2.9c0.2,0.4,0.4,0.1,0.7,0.4c0.2,0.8,1.1,1.6,1.5,2.4c0.1,1.4,0.3,2.5-0.2,3.6
		c-1.7,4.3-6.5,6.6-10.7,7.9c-0.2,0-0.6,0.1-0.4-0.2c-0.8,0.8-2.4,0.2-3.5,0.4c-0.4-0.4-0.8-0.7-0.9-1.2c-0.2,0-0.1-0.4-0.3-0.5
		c0-0.1,0-0.2,0.1-0.3c0.4-0.3-0.3-0.3-0.2-0.6c0.5-0.9-0.7-2.6,0.7-3.3c4,0.4,6.9-1.8,9.7-3.1c0.3-1,1.4-1.2,1.6-2.3
		c0.1-0.4-0.4-0.3-0.3-0.7c-0.3-0.1-0.5-0.1-0.5-0.1c-1.1-0.6-2.7-1-3.6-1.5c-0.6,0.4-1.1,0-2-0.1c-2-0.1-3.8-0.4-5.5-1.1
		c-0.1-0.3-0.2-0.6-0.7-0.5c-0.3-0.4-0.7-0.8-1-1.4c0.1-0.7,0.3-1.1-0.1-1.6c0.2-0.8,0.4-1.1,0.3-1.8
		C723.8,57.1,726.7,56.2,728.7,55.6z"/>
	<path class="st0" d="M760.9,79.4c-0.5-0.3-0.8-0.7-1.4-0.8c0-0.1,0-0.2,0-0.3c0,0,0.1,0,0.2,0c0-0.2-0.2-0.1-0.2,0
		c-0.7-1-1.6-2-1.6-3.4c0-0.1,0.4-2.8,0.5-2.9c-2.7,0.3-6.1,2.2-7.5,3.1c0,0.3-1,3.1-1.8,3c0,0.2,0.2,0.3,0.2,0.6
		c-1.6,0.5-2.4,1.8-4.7,0.7c0-0.7-1.3-1-1.2-1.2c-0.3,0-0.2-0.8,0.1-0.5c-0.6-0.8-0.5-1.3-1.1-2.2c0.3-0.3,0.2-1.3,0.6-0.9
		c-0.2-1,0.6-1.3,0.2-2c0.9-1.2,1.1-2.8,1.2-4.1c0.9-0.8,1.3-3.1,0.9-4c0-0.2,0.2-0.2,0.4-0.1c0.8-3.9,0-10.2,3.6-11.1
		c0.6,2.4,2.4,3.5,3.5,5.7c-0.1,2.2-0.8,6.1-1.2,8.1c0.1,0.3,0.5,0.1,0.3,0.6c2.8-0.7,6.1-1,8.6-2.3c0.3-2.3,1-4.5,0.6-6.8
		c0.3-0.3,0.4-0.7,0.8-0.8c-0.5-2.2,0.1-5.2,2.3-5.6c1.3,1.8,1.7,4.5,3.4,5.9c0.1,1.6,0.3,3.5,0.3,5.3c-0.4,2.1-1.1,4.2-1.3,6.4
		c-0.8,0.9-0.9,2.5-1.8,3.3c0.2,0.7-0.1,1.2,0.3,2C765.2,77.8,762.9,78.7,760.9,79.4z"/>
	<path class="st0" d="M773.5,79.5c-1.2-1.6-1.9-5.1-2.4-7c0.6-1.5,0.3-3.6,0.5-5.4c0.4-2.4,1.3-4.5,1.8-6.9c0.1-0.5-0.2-1-0.1-1.4
		c0.1-0.2,0.5-0.3,0.5-0.5c0.2-0.7-0.1-1,0.2-1.6c0.3-0.4,0.9-1.4,0.8-2.4c1.1-0.8,1.6-2,3.4-2c0.9,1.1,0.4,3,1.7,3.7
		c0,0.9-0.2,2.9,0.8,3.3c-2,5.5-3.8,10.9-2.8,16.6C778.5,79.5,775.5,79.8,773.5,79.5z"/>
	<path class="st0" d="M787.5,79.7l-0.2,0c-0.4,0-0.8-0.2-1.2-0.3c-0.2-0.1-0.4-0.2-0.7-0.2l-0.3-0.1l-0.1-0.3
		c-0.1-0.3-0.3-0.6-0.5-0.8c-0.2-0.3-0.5-0.7-0.7-1.1l-0.1-0.2c-0.2-1.5,0.1-2.5,0.4-3.6c0.1-0.4,0.2-0.7,0.3-1.1
		c-1.5-0.8-2.2-2.5-2.4-4c0.4-1.9,2-2.5,3.2-2.8l0.3-0.1l0.2,0.3c0.2,0.2,0.5,0.4,0.8,0.6c0,0,0.1,0.1,0.2,0.1
		c0.2-0.4,0.3-0.8,0.4-1.2c0.1-0.5,0.3-1.1,0.6-1.6c0-0.4,0-0.8,0.1-1.1c-0.2-0.1-0.3-0.2-0.5-0.2c-0.1,0-0.3,0-0.4-0.1l-0.3-0.1
		c-0.3-0.4-0.5-0.7-0.8-1.1s-0.4-0.7-0.7-0.9l-0.4-0.3l0.2-0.4c0.1-0.1,0.1-0.3-0.1-0.6l0-0.3c0-0.2,0-0.4,0-0.4l-0.1-0.3l0.2-0.2
		c0,0,0.1-0.1,0.1-0.2c0.1-0.1,0.2-0.2,0.2-0.4l0.1-0.3l0.3-0.1c1.2-0.3,2.3-0.7,3.4-1.1c1.1-0.4,2.3-0.8,3.4-1.1
		c0.4-0.3,0.9-0.4,1.3-0.4c0.4,0,0.7,0,0.9-0.3l0.2,0c0.2,0,0.5-0.1,0.9-0.2c1.4-0.4,3.9-1,6.8-1.2h0.8c0.3,0,0.6,0,0.9,0
		c1.2,0,2.1,0.4,2.5,1.2c0.5,0.2,0.9,0.7,1.2,1c0.2,0.2,0.4,0.4,0.6,0.5l0.2,0.1l0.1,0.2c0.3,0.5,0.3,1.1,0.1,1.8
		c-0.2,0.4-0.6,0.4-0.9,0.5c-0.1,0-0.3,0-0.3,0.1l-0.2,0.2l-0.3,0c-0.3,0-0.6,0-1,0c-2.9,0-8,0.8-10.7,1.8c-0.3,0.2-0.5,0.3-0.8,0.4
		c-0.1,0.1-0.2,0.1-0.3,0.2c0,0.4,0,0.8-0.1,1.1c0,0.3-0.1,0.5-0.1,0.8v0.2l-0.1,0.1c-0.4,0.4-0.6,1-0.6,1.8l0,0.2l-0.2,0.1
		c-0.2,0.2-0.4,0.6-0.3,1l0.1,0.4c0.9,0,1.9-0.2,2.9-0.4c1.3-0.2,2.8-0.4,4.2-0.4h1.4l-0.3,0.3l0.4,0l0,0.6c0.1,0.1,0.3,0.2,0.4,0.3
		l0.2,0.2l0,0.2c0.2,0.1,0.5,0.4,0.5,1v0.2l-0.1,0.2l-1.7,2.2l-0.2,0.3l-0.4-0.1c0,0-0.1,0-0.3,0c-0.3,0-0.7,0.1-1,0.2
		c-0.4,0.1-0.9,0.3-1.3,0.3c-0.1,0-0.2,0-0.3,0c-0.8,0.2-1.6,0.4-2.4,0.4c-1.1,0.2-2,0.3-2.9,0.7l-0.2,0l-0.2,0c-0.1,0-0.2,0-0.3,0
		c-0.4,0-1,0.2-1.5,0.3c-0.2,0.2-0.3,0.5-0.4,0.8c-0.1,0.3-0.2,0.7-0.5,1c0,0.1,0,0.1,0,0.3v0.4l-0.4,0.1c0,0.4-0.1,0.8-0.3,1
		c0,0.2-0.1,0.4-0.1,0.5c0.2,0.4,0.3,1,0.2,1.5C788.8,78.5,788.2,79.3,787.5,79.7z"/>
	<path class="st0" d="M822.9,58.7c-1.2,0.2-2.2,0.3-3.2,0.4c-0.4,1.2-0.8,2.1-1.2,3c-0.4,1-0.8,2-1.2,3.3c-0.4,0.7-0.9,1.5-1.1,2.4
		l0,0.2l-0.1,0.1c-0.5,0.4-0.8,1.6-1,2.3c0,0.1,0,0.2-0.1,0.3l0,0.2l-0.2,0.2c0,0.1-0.1,0.4-0.3,0.5c0,0.4-0.2,0.7-0.3,1
		c-0.1,0.2-0.2,0.5-0.2,0.7v0.2c0,0.1,0,0.3-0.2,0.4c0,0.3-0.1,0.6-0.1,0.9c0,0.3-0.1,0.6,0,0.9c0.1,0.1,0.3,0.3,0.4,0.6
		c0.2,0,0.3,0.1,0.4,0.2c0.2,0.1,0.4,0.2,0.5,0.3l0.3,0.1l0,0.3c0.2,0.8,0,1.5-0.4,2c-0.4,0.5-1.2,0.8-2.2,0.8c-0.1,0-0.2,0-0.3,0
		l-0.2,0l-0.2-0.2c0,0-0.1-0.1-0.3-0.2c-0.3,0-0.6-0.2-0.8-0.5c-0.1,0-0.2-0.1-0.4-0.1c-0.2-0.1-0.4-0.1-0.6-0.3l-0.4-0.2l0.1-0.3
		c0-0.1,0-0.2,0-0.2c-0.4-0.5-0.6-1.2-0.8-1.8c-0.1-0.5-0.2-1-0.5-1.5v-0.2c0-2.9,0.9-5.1,1.8-7.3c0.4-1.1,0.9-2.3,1.2-3.6l0.1-0.3
		l0.3-0.1c0,0,0.1,0,0.2-0.1c0,0,0.1-0.1,0.2-0.1c0-0.6,0.3-1.2,0.6-1.8c0.2-0.4,0.4-0.8,0.4-1.1c-0.3,0-0.6,0-0.9,0.1
		c-0.3,0-0.5,0.1-0.8,0.1c-0.2,0-0.3,0-0.5,0c-0.4,0.2-0.7,0.2-1,0.2c-0.1,0-0.3,0-0.4,0c-0.1,0-0.3,0-0.4,0c-0.3,0-0.5,0-0.7,0.1
		l-0.2,0.1l-0.2,0c-0.2,0-0.4,0-0.6,0c-0.1,0-0.3,0-0.4,0c-0.1,0-0.3,0-0.4,0c-0.4,0-0.9,0-1.5-0.4l-0.1-0.2
		c-0.2-0.3-0.3-0.4-0.4-0.4l-0.4-0.1v-0.4c0-0.4-0.2-0.7-0.3-1.1c-0.3-0.5-0.5-1.2-0.5-2.2c0-0.4,0.3-0.6,0.5-0.8l0-0.5h0.5
		c0.4,0,0.8,0,1.2,0c1.9,0,3.8-0.2,5.8-0.4c1.2-0.1,2.4-0.2,3.6-0.3c0,0,0.1-0.2,0.1-0.3c0.1-0.1,0.1-0.3,0.3-0.5l0.1-0.2h0.3
		c0.1,0,0.2,0,0.3,0c0.7,0,1.1,0.4,1.4,0.7c1.2-0.1,2.6-0.3,3.9-0.5c1.9-0.3,3.9-0.5,5.8-0.5c0.8,0,1.6,0,2.2,0.2l0.3,0l0.1,0.2
		c0.2,0.4,0.5,0.6,0.9,0.9c0.7,0.6,1.6,1.3,1.4,3v0.2l-0.1,0.1c-0.1,0.1-0.3,0.2-0.4,0.3c0,0-0.2,0.1-0.2,0.2l-0.2,0.3h-0.4
		c-0.4,0-0.6,0.1-0.9,0.2c-0.2,0.1-0.4,0.2-0.8,0.2l-0.2,0c-0.3,0-0.6,0-0.9,0C826.4,58.3,824.5,58.5,822.9,58.7z"/>
	<path class="st0" d="M860.6,58.7c-1.2,0.2-2.2,0.3-3.2,0.4c-0.4,1.2-0.8,2.1-1.2,3c-0.4,1-0.8,2-1.2,3.3c-0.4,0.7-0.9,1.5-1.1,2.4
		l0,0.2l-0.1,0.1c-0.5,0.4-0.8,1.6-1,2.3c0,0.1,0,0.2-0.1,0.3l0,0.2l-0.2,0.2c0,0.1-0.1,0.4-0.3,0.5c0,0.4-0.2,0.7-0.3,1
		c-0.1,0.2-0.2,0.5-0.2,0.7v0.2c0,0.1,0,0.3-0.2,0.4c0,0.3-0.1,0.6-0.1,0.9c0,0.3-0.1,0.6,0,0.9c0.1,0.1,0.3,0.3,0.4,0.6
		c0.2,0,0.3,0.1,0.4,0.2c0.2,0.1,0.4,0.2,0.5,0.3l0.3,0.1l0,0.3c0.2,0.8,0,1.5-0.4,2c-0.4,0.5-1.2,0.8-2.2,0.8c-0.1,0-0.2,0-0.3,0
		l-0.2,0l-0.2-0.2c0,0-0.1-0.1-0.3-0.2c-0.3,0-0.6-0.2-0.8-0.5c-0.1,0-0.2-0.1-0.4-0.1c-0.2-0.1-0.4-0.1-0.6-0.3l-0.4-0.2l0.1-0.3
		c0-0.1,0-0.2,0-0.2c-0.4-0.5-0.6-1.2-0.8-1.8c-0.1-0.5-0.2-1-0.5-1.5v-0.2c0-2.9,0.9-5.1,1.8-7.3c0.4-1.1,0.9-2.3,1.2-3.6l0.1-0.3
		l0.3-0.1c0,0,0.1,0,0.2-0.1c0,0,0.1-0.1,0.2-0.1c0-0.6,0.3-1.2,0.6-1.8c0.2-0.4,0.4-0.8,0.4-1.1c-0.3,0-0.6,0-0.9,0.1
		c-0.3,0-0.5,0.1-0.8,0.1c-0.2,0-0.3,0-0.5,0c-0.4,0.2-0.7,0.2-1,0.2c-0.1,0-0.3,0-0.4,0c-0.1,0-0.3,0-0.4,0c-0.3,0-0.5,0-0.7,0.1
		l-0.2,0.1l-0.2,0c-0.2,0-0.4,0-0.6,0c-0.1,0-0.3,0-0.4,0c-0.1,0-0.3,0-0.4,0c-0.4,0-0.9,0-1.5-0.4l-0.1-0.2
		c-0.2-0.3-0.3-0.4-0.4-0.4l-0.4-0.1v-0.4c0-0.4-0.2-0.7-0.3-1.1c-0.3-0.5-0.5-1.2-0.5-2.2c0-0.4,0.3-0.6,0.5-0.8l0-0.5h0.5
		c0.4,0,0.8,0,1.2,0c1.9,0,3.8-0.2,5.8-0.4c1.2-0.1,2.4-0.2,3.6-0.3c0,0,0.1-0.2,0.1-0.3c0.1-0.1,0.1-0.3,0.3-0.5l0.1-0.2h0.3
		c0.1,0,0.2,0,0.3,0c0.7,0,1.1,0.4,1.4,0.7c1.2-0.1,2.6-0.3,3.9-0.5c1.9-0.3,3.9-0.5,5.8-0.5c0.8,0,1.6,0,2.2,0.2l0.3,0l0.1,0.2
		c0.2,0.4,0.5,0.6,0.9,0.9c0.7,0.6,1.6,1.3,1.4,3v0.2l-0.1,0.1c-0.1,0.1-0.3,0.2-0.4,0.3c0,0-0.2,0.1-0.2,0.2l-0.2,0.3h-0.4
		c-0.4,0-0.6,0.1-0.9,0.2c-0.2,0.1-0.4,0.2-0.8,0.2l-0.2,0c-0.3,0-0.6,0-0.9,0C864,58.3,862.2,58.5,860.6,58.7z"/>
	<path class="st0" d="M880.1,79.4c-0.5-0.3-0.8-0.7-1.4-0.8c0-0.1,0-0.2,0-0.3c0,0,0.1,0,0.2,0c0-0.2-0.2-0.1-0.2,0
		c-0.7-1-1.6-2-1.6-3.4c0-0.1,0.4-2.8,0.5-2.9c-2.7,0.3-6.1,2.2-7.5,3.1c0,0.3-1,3.1-1.8,3c0,0.2,0.2,0.3,0.2,0.6
		c-1.6,0.5-2.4,1.8-4.7,0.7c0-0.7-1.3-1-1.2-1.2c-0.3,0-0.2-0.8,0.1-0.5c-0.6-0.8-0.5-1.3-1.1-2.2c0.3-0.3,0.2-1.3,0.6-0.9
		c-0.2-1,0.6-1.3,0.2-2c0.9-1.2,1.1-2.8,1.2-4.1c0.9-0.8,1.3-3.1,0.9-4c0-0.2,0.2-0.2,0.4-0.1c0.8-3.9,0-10.2,3.6-11.1
		c0.6,2.4,2.4,3.5,3.5,5.7c-0.1,2.2-0.8,6.1-1.2,8.1c0.1,0.3,0.5,0.1,0.3,0.6c2.8-0.7,6.1-1,8.6-2.3c0.3-2.3,1-4.5,0.6-6.8
		c0.3-0.3,0.4-0.7,0.8-0.8c-0.5-2.2,0.1-5.2,2.3-5.6c1.3,1.8,1.7,4.5,3.4,5.9c0.1,1.6,0.3,3.5,0.3,5.3c-0.4,2.1-1.1,4.2-1.3,6.4
		c-0.8,0.9-0.9,2.5-1.8,3.3c0.2,0.7-0.1,1.2,0.3,2C884.4,77.8,882.1,78.7,880.1,79.4z"/>
	<path class="st0" d="M912.1,56.1c-2.4,3.9-6.7,2.1-10.4,4.4c-0.8-0.3-1.2,0.3-2.4,0.1c-0.4,0.3-0.9,0.4-1.5,0.6
		c0.3,0.5,0.1,1.1,0.3,1.5c2,0.2,4.7-0.2,7-0.3c0,0.2-0.1,0.3-0.1,0.5c0.9,0.5,1.5,2,2.6,1.9c0.3,0.4,0.4,1,0.2,1.6
		c-1.9,1.2-3.6,2.8-6.3,2.7c-0.3,0-0.4,0-0.6-0.1c-0.5,0.2-1.5,0-2,0.2c-0.7-0.2-1.6-0.1-2.4-0.4c-0.9,1.2-1.7,2.6-2.3,4.2
		c3.9,0.6,4.7-0.4,8.4-0.3c1.2-0.6,2.9-0.6,4.3-1.1c0.9,0.4,1.2,1.9,2.2,1.7c0.5,0.4,0.1,1.5,0.9,1.4c-1.8,3.7-4.4,3.6-8.8,4.4
		c-0.5,0.1-0.8-0.1-1.2-0.1c-2.7,0.5-7.9,1.2-10.1-1c-0.4-0.4-0.4-1.1-1-1.4c-0.2-1.5-0.9-3.9-0.6-5.5c0.1-0.9,1-1.6,0.8-2.4
		c0.3,0,0.2-0.4,0.6-0.4c0.7-2.1,1.7-3.5,2.5-5.6c-1.6-1.6-1.2-3.5-1.8-5.4c1.2-1.8,3.3-2,5.9-2.6c4.6-1.5,6.9-1.4,11.8-2.2
		c0,0.1,0.2,0.1,0.4,0.1c0,0.2,0.2,0.3,0.4,0.3c0,0.1,0.2,0.1,0.3,0.1c0-0.1-0.1-0.1-0.3-0.1c0-0.1,0-0.3,0-0.4
		c0.2,0,0.7,0.4,0.6-0.1c0.6,1,1.5,1.6,2.6,2.1C912.2,55.5,911.8,55.4,912.1,56.1z"/>
	<path class="st0" d="M927.8,57.6c0.2-0.9,0.4-1.3,0.3-2.2c1.1-3,4.4-4,6.9-4.7c0-0.2-0.4-0.1-0.3-0.4c6.3-1.2,12.5-5.1,20.1-2.8
		c0.4,1.4,1.9,2.5,2,3.7c0.7,0.6,1.2,1.2,0.9,2.5c-0.6,0.5-1.3,0.9-2,1.3c-2.6-0.6-5.3-0.2-7.4,0c-1.3-1.3-3.6,0.5-5.2,0.2
		c-0.7,0.6-1.8,0.7-2.9,0.8c0,0.4,0.3,0.3,0.1,0.7c0.8,1,3.1,0.5,3.4,2c2,0,3.1,2.2,3,3.4c0.2,0.6,0.5,0.2,0.8,0.6
		c0.2,0.8,1.3,1.8,1.8,2.9c0.1,1.7,0.4,3.1-0.2,4.4c-2,5.1-7.8,7.9-12.9,9.5c-0.2,0-0.7,0.1-0.5-0.3c-1,1-2.8,0.3-4.3,0.5
		c-0.4-0.4-0.8-0.9-1.1-1.5c-0.3,0-0.1-0.5-0.4-0.6c0-0.2,0-0.3,0.1-0.4c0.5-0.3-0.4-0.3-0.3-0.7c0.6-1.1-0.8-3.1,0.8-4
		c4.7,0.5,8.3-2.2,11.5-3.7c0.4-1.2,1.7-1.5,2-2.8c0.1-0.4-0.4-0.4-0.4-0.8c-0.4-0.2-0.5-0.1-0.5-0.1c-1.3-0.8-3.3-1.2-4.4-1.8
		c-0.7,0.4-1.3,0-2.3-0.2c-2.4-0.1-4.5-0.4-6.6-1.3c-0.1-0.3-0.3-0.7-0.8-0.6c-0.4-0.5-0.9-1-1.2-1.6
		C928.2,58.7,928.3,58.2,927.8,57.6z"/>
	<path class="st0" d="M956.1,57.5l0-0.3c0-0.1-0.1-0.2-0.1-0.3c0.4-1.1,0.5-2.1,0.7-3c0.1-0.8,0.3-1.5,0.5-2.1c1-0.2,1.4-1,1.7-1.5
		c0.9,0,1.1,0.4,1.5,1.1c0.3,0.6,0.8,1.5,1.8,1.9c0.2,0.6,0.4,1.2,0.7,1.8c0.5,1.2,1.1,2.6,1.1,3.7c-1.4,2.6-1.5,7.3-0.6,9.5
		l0.3,0.7l0.2,0.1l0.7-0.2c4.2-1.1,6.5-2.5,9.3-5.8c2.8-3.2,4.3-8.5,4.5-12.3c0.6-0.2,0.9-0.7,0.9-1.2l0-0.4l-0.1-0.2
		c-0.2-0.2-0.1-0.5,0-0.8c0.2-0.6,0.8-1.2,1.5-1.5c1.1,0.7,2,1.6,2.7,2.4c0,1.5,0.5,2.6,0.9,3.6c0.4,0.9,0.7,1.8,0.8,3.1
		c-0.6,1.8-0.8,3.2-1,4.9l0,0.4c-1.1,1.8-2.2,3.8-2.8,5.2c-0.4,0.4-0.6,0.9-0.8,1.3c-0.1,0.2-0.4,0.7-0.5,0.9l-1.1-0.4l-0.2-0.1v0.3
		v1.2c0,0.1,0,0.3-0.1,0.3l-0.6-0.1l-0.2,0.1l-0.3,0.5c-2.6,4.6-5.7,5.9-11.6,8.4c-1.2-0.2-2-0.2-2.7-0.2c-0.8,0-1.5,0-2.5-0.2
		c-0.2-0.5-0.7-0.7-1-0.7c-0.1,0-0.1,0-0.2,0c-0.9-0.6-1.5-1.7-2-3c-0.3-0.7-0.6-1.4-1.1-2l0.9-0.3l0.3-0.1l-0.2-0.2l-1.2-1
		c-0.2-0.1-0.4-0.3-0.6-0.5l0-0.8c-0.2-4.7-0.4-8.8,0.7-11.8L956.1,57.5z"/>
	<path class="st0" d="M986.3,66.7c-0.5-0.4-0.4-1.4-0.9-1.9c0.1-0.3,0.1-0.7,0.5-0.6c-0.4-2.6,1.2-4.3,2.4-6.3
		c0.5-0.1,0.4,0.3,0.8,0c0.9-0.6,1.2-1.4,1.2-2.4c1-3,2.8-6,5-7c1.6-1.5,5.3-2.4,7.8-1.7c0.4,0.1,0.3-0.3,0.5-0.3
		c2.8,0.4,5.1,1.2,6.7,2.6c2.3,3.4,4.3,8.1,2.4,12.8c-4,5-12,5.7-18.7,7.2c0.2,3.2-0.1,7.2-2.2,10.1c-1.2,0-2.5,0.4-3.5,0.6
		c-0.5-0.2-0.8-0.6-1.5-0.6c0.4-1.3-2.6-3.1-0.9-4.3c-0.3-0.2-0.4-0.5-0.4-0.9c0.1,0.1,0.2,0.1,0.4,0.1c-0.3-2.1,2.1-6.1-0.3-7.2
		C985.8,66.7,986.1,66.7,986.3,66.7z M996,59.6c0.1,0.4,0.6,0.4,0.7,0.8c1.6-0.8,3.2-0.6,4.9-1.4c1.7-0.8,3.9-0.9,5.3-2.2
		c-1.6-1.5-6.9-2.6-9.8-0.1C996.6,58,996.5,58.5,996,59.6z"/>
	<path class="st0" d="M1014.6,66.7c-0.5-0.4-0.4-1.4-0.9-1.9c0.1-0.3,0.1-0.7,0.5-0.6c-0.4-2.6,1.2-4.3,2.4-6.3
		c0.5-0.1,0.4,0.3,0.8,0c0.9-0.6,1.2-1.4,1.2-2.4c1-3,2.8-6,5-7c1.6-1.5,5.3-2.4,7.8-1.7c0.4,0.1,0.3-0.3,0.5-0.3
		c2.8,0.4,5.1,1.2,6.7,2.6c2.3,3.4,4.3,8.1,2.4,12.8c-4,5-12,5.7-18.7,7.2c0.2,3.2-0.1,7.2-2.2,10.1c-1.2,0-2.5,0.4-3.5,0.6
		c-0.5-0.2-0.8-0.6-1.5-0.6c0.4-1.3-2.6-3.1-0.9-4.3c-0.3-0.2-0.4-0.5-0.4-0.9c0.1,0.1,0.2,0.1,0.4,0.1c-0.3-2.1,2.1-6.1-0.3-7.2
		C1014.2,66.7,1014.5,66.7,1014.6,66.7z M1024.3,59.6c0.1,0.4,0.6,0.4,0.7,0.8c1.6-0.8,3.2-0.6,4.9-1.4c1.7-0.8,3.9-0.9,5.3-2.2
		c-1.6-1.5-6.9-2.6-9.8-0.1C1025,58,1024.8,58.5,1024.3,59.6z"/>
	<path class="st0" d="M1042.5,76.5c-1.7-2-1.8-5.3-1.2-7.7c0.1-0.3,0.1-0.6,0.2-0.9c0.2-1.1,0.5-2.3,1.1-3c-0.2-0.6,0.2-1.4,0.5-2.1
		c0.1-0.1,0.1-0.3,0.2-0.4c0.7-2,1.4-3.9,2-5.6c1.2-3.2,2.2-6.1,3.1-9.6l0.1-0.2h0.2c0.1,0,0.2,0,0.3-0.1c0.1-0.1,0.3-0.1,0.5-0.2
		l0.2,0.1c0.9,0.5,2.9,1.2,4,1.2h0.2l0.1,0.1c0.1,0.2,0.3,0.4,0.4,0.5c0.7,0.9,1.4,1.7,1.2,3.2l-0.2,0.3c-0.1,0.1-0.2,0.2-0.3,0.2
		c-0.4,1.4-0.8,2.3-1.2,3.2c-0.4,1-0.9,2-1.2,3.5l-0.1,0.2c-0.2,0.2-0.3,0.4-0.4,0.8c-0.1,0.4-0.3,0.8-0.5,1.1l0,0.3
		c-0.4,1.3-0.8,2.4-1.3,3.5c-0.8,2-1.6,3.9-1.7,6.4c0.3,0,0.7-0.1,0.9-0.1c0.4,0,0.7,0,1.1,0.1c2.1-1.1,4.7-1.1,7.1-1.2
		c1,0,2,0,2.8-0.1l0.3,0.1c0.2,0.2,0.3,0.2,0.7,0.2c0.2,0,0.4,0,0.6,0l0.2,0.1c0.5,0.6,1.3,0.9,2.2,1.2c0.7,0.3,1.5,0.5,2.2,1.1
		l0.1,0.3l0.3,2c0.1,0.1,0.2,0.2,0.3,0.3c0,0.1,0,0.2,0,0.3c0,0.4-0.1,0.5-0.2,0.6c0,0.1-0.1,0.1,0,0.2l0.1,0.4l-0.4,0
		c-0.6,0.1-0.9,0.4-1.2,0.8l-0.1,0.1l-0.2,0c-0.2,0-0.4,0-0.6,0c-0.6,0-1.2,0.1-1.8,0.3l-0.2,0c-0.8-0.3-1.6-0.4-2.7-0.4
		c-0.8,0-1.7,0.1-2.5,0.2c-0.8,0.1-1.7,0.2-2.6,0.2c-0.1,0-0.2,0-0.3,0c-0.3,0.1-0.6,0.2-0.9,0.3c-1.9,0.6-4.3,1.4-6.6,1.4
		c-1.7,0-3.1-0.4-4.1-1.3l-0.1-0.2c0-0.3-0.2-0.4-0.4-0.6C1042.8,77.3,1042.6,77,1042.5,76.5z"/>
	<path class="st0" d="M1069.1,76.5l0-0.3l0.1-0.3c0.1-0.4,0.3-0.7,0.4-1.2c0.3-0.9,0.5-2,1.3-2.8c0.2-0.5,0.6-1.4,1.7-3.5
		c0.9-1.7,1.5-2.6,1.8-3.2c-0.3-0.5-0.7-1-1.2-1.5l-0.1-0.1l-0.1-0.2c-0.6-1.3-1.4-3.1-1.7-4.4l0-0.2c0-0.6-0.1-1.2-0.3-1.9
		c-0.2-0.7-0.4-1.5-0.4-2.4c-0.1-0.2-0.2-0.4-0.3-0.7l0-0.3l0.1-0.3c0.2-0.4,0-1.3-0.2-2.2c-0.4-1.4-0.8-3.4,1-4.5l0.4-0.3l0.4,0.3
		c0.6,0.4,1.2,0.6,1.8,0.9c0.8,0.4,1.4,0.7,2.2,1.2l0.4,0.3l0,0.5c0,0.1,0.1,0.3,0.2,0.4l0.4,0.1l0,0.6c0,0.2,0,0.4,0,0.5
		c0,0.5,0,0.7,0.2,0.8l0.3,0.3v0.4c0,1,0.2,1.8,0.4,2.6c0.2,0.8,0.4,1.6,0.4,2.6c0.1-0.1,0.3-0.2,0.5-0.4c0.1-0.1,0.3-0.2,0.4-0.4
		l3-4.2l0-0.4l0.3-0.3c0.3-0.3,0.5-0.5,0.8-0.8c0.5-0.5,1.1-1,1.5-1.6l0.2-0.4h0.3c1.2-1.8,2.7-2.8,4.7-3.2l0.7-0.1l0.2,0.7
		c0.3,0.8,1.2,1.4,2.2,2l0.3,0.1l0.2,0.1l0.1,0.2c0.2,0.4,0.1,0.8,0.1,1c0,0.1,0,0.1,0,0.2l0.2,0.4l-0.1,0.4c-0.4,1.2-1.3,1.8-2,2.4
		c-0.6,0.5-1.2,1-1.5,1.6l-0.1,0.3l-0.3,0.1c-0.7,0.4-1.2,0.9-1.4,1.6l-0.1,0.6h-0.7c0,0-0.3,0.1-0.8,1.1l-0.1,0.2
		c-0.4,0.4-0.6,0.7-0.7,0.9c0,0.1-0.1,0.4-0.3,0.7l-0.1,0.2l-0.2,0.2c-0.5,0.4-0.7,0.8-1,1.4c-0.2,0.5-0.4,1.1-1,1.6l0.1,0.4
		l-0.4,0.3c-0.4,0.4-0.8,1-1.1,1.7c-0.4,0.7-0.8,1.4-1.3,2c-0.4,1-0.6,1.5-1.4,2.2c-0.4,1.4-1.2,2.9-2.4,4.5c0,0.7-0.4,1.2-0.8,1.8
		c-0.1,0.2-0.3,0.5-0.4,0.7l0,0.2l-0.2,0.3c-0.3,0.6-0.7,1-1.1,1.3c-0.1,0.1-0.3,0.3-0.4,0.4l-0.3,0.4l-0.4-0.1
		C1071.2,80.2,1069.7,78.9,1069.1,76.5z"/>
	<path class="st0" d="M1120,79.4c-3-0.1-6.4-0.8-9.1-1.8c-0.6-0.6-1.1-1.2-2-1.5c-2.8-2.2-3.5-6.6-3.4-10c0.9-2.6,2.7-4.3,4.3-6.2
		c0.2,0,0.3,0.1,0.4,0.1c0.4-1.1,1.6-1.4,2.3-2.3c2.4-0.5,3.5-2.4,5.9-2.9c0.9-1,2.7-1.1,3.5-2.3c0.3,0.4,0.9,0.2,1.3,0
		c0.5-0.1,0.8,0.9,1.1,0.3c0.3,0,0,0.4,0,0.5c0.4-0.1,0.7,0.4,1.3,0.4c0.2,0.3,0,0.3,0,0.7c3.5,1.1,1.4,5.1-1.2,5.7
		c-2.6,0.8-5.2,1.5-6.8,3.2c-2.7,0.8-4.2,2.8-6,4.6c0,0.8-0.4,1.2-0.7,1.6c0.1,0.9,0.4,1.5,0.8,2.1c3.8,1.2,8.3,1.3,12.6,1.3
		c0.8,1.2,2.4,1.8,2.1,3.7c-0.8,0.8-1.8,1.6-2.8,2.3C1122.8,79.2,1121.2,78.9,1120,79.4z"/>
	<path class="st0" d="M1153.5,57.4c0.3,0.8,0.6,1.5,0.7,2.6c-0.5,1.5-0.6,2.7-0.8,4.1l0,0.4c-0.9,1.5-1.8,3.2-2.4,4.3
		c-0.3,0.4-0.5,0.8-0.7,1.1c0,0.2-0.3,0.6-0.4,0.7l-0.8-0.3l-0.2,0l0,0.2v1c0,0.1,0,0.2-0.1,0.3l-0.6,0l-0.3,0.4
		c-2.2,3.9-4.8,5-9.7,7c-1-0.1-1.6-0.1-2.3-0.2c-0.7,0-1.2,0-2.1-0.1c-0.2-0.4-0.6-0.6-1-0.6c-0.8-0.5-1.2-1.4-1.7-2.4
		c-0.3-0.6-0.5-1.2-0.8-1.7l0.7-0.2l0.2-0.1l-0.2-0.1l-1-0.8c-0.2-0.1-0.3-0.3-0.5-0.4v-0.7c-0.2-3.9-0.3-7.4,0.5-9.9l0.1-0.3l0-0.2
		c0-0.1-0.1-0.2-0.1-0.3c0.4-0.8,0.5-1.7,0.6-2.5c0.1-0.7,0.2-1.2,0.4-1.8c0.8-0.1,1.2-0.8,1.5-1.2c0.8,0,0.9,0.3,1.2,0.9
		c0.3,0.5,0.6,1.2,1.5,1.6c0.1,0.5,0.4,1,0.6,1.5c0.4,1,0.9,2.2,0.9,3.1c-1.2,2.2-1.2,6.1-0.5,7.9l0.4,0.7l0.6-0.1
		c3.5-0.9,5.4-2.1,7.8-4.8c2.4-2.7,3.6-7.1,3.7-10.3c0.5-0.2,0.8-0.6,0.8-1.1v-0.3l-0.1-0.2c-0.1-0.2-0.1-0.4,0-0.7
		c0.2-0.5,0.7-1,1.2-1.2c0.8,0.6,1.6,1.3,2.3,2C1152.7,55.7,1153.1,56.6,1153.5,57.4z"/>
	<path class="st0" d="M1159.8,74.9c-0.3,1.9-0.7,2.9-1.6,4.2c-0.8-0.2-0.9,0.3-1.3,0.5c-1,0.2-0.7-0.6-1.8-0.5
		c-0.1-0.4-0.1-1-0.8-0.9c0.3-0.9-0.4-1.1-0.1-1.9c-0.2,0-0.4-0.5-0.6-0.9c0.1,0,0.3,0,0.4,0c-0.7-2.1,1-3.5,0.4-5.2
		c0.4,0.3,0.5-1.3,0.4-1.8c1.2-3,1.2-6.5,2.4-9.1c0.7-0.1,1.6,0.3,1.8,0.7c3-2.3,4.1-7.2,8.6-7.7c1.1,0.8,2.8,1.6,3.7,3.1
		c0.4,0.2,0.8,0.5,1.2,0.8c0,0.2,0,0.4,0,0.5c1.4,1.2,1.6,3.5,2.6,5.2c-0.2,0.6,0.2,0.8,0.1,1.5c-0.4,5.1-6.7,5.8-10.5,7.4
		c0,0.2,0.3,0.1,0.2,0.4c2.8,1.7,2.8,2,5.7,2.6c3,0.7,2.9,0.8,5.5,1c1.1,1.1,1.4,3,0.8,3.8c0,0.2,0.3,0.1,0.5,0.1
		c-0.7,0.4-0.8,1.5-1.8,1.6c-1.7,0.7-4.3,0-8.5-1.6c-4.2-1.6-4.8-2.3-7-4.2C1159.9,74.6,1159.9,74.8,1159.8,74.9z M1162.5,65.1
		c2-0.2,4.3-1.3,6.3-2.2c-0.2-1.8-1.4-2.8-2.5-3.2C1165,61.6,1162.9,62.5,1162.5,65.1z"/>
	<path class="st0" d="M1187.7,75.4c0.2,0.7-0.1,0.9,0,1.7c-0.9,2.3-2.9,3.2-4.5,2.1c-0.7-0.4-1-1.4-1.7-1.6c0.1-1-0.3-2.2-0.7-2.3
		c-0.4-2.4-1.5-5.7-1.3-8c0-0.6-0.4-1-0.4-1.6c-0.2-1.3,0-2.8,0-4.2c0-2.6-0.8-6.1-0.2-7.4c0,0.1,0,0.1,0,0.2c0.2,0,0.1-0.1,0-0.2
		c0.4-0.7,1-1,1.6-1.5c1.2,0.1,2.1,1.2,2,2c3.6,2.2,2.6,9.2,3.5,12.4c4.3-6.2,5.1-9.1,11-14.7c1.2,0.1,1.2,0.8,2.5,0.5
		c0.5,1.1,0.3,0.8,0.9,2.4c0.3,0.4-0.3,1.4,0.3,1.1c-0.2,0.8-0.8,1.4-0.8,2.3c-2.6,3.5-6.7,7.3-8.7,12.1c-0.6,0-0.5,0.8-1,0.8
		C1190.1,73,1188.7,74.5,1187.7,75.4z"/>
	<path class="st0" d="M1221.5,56.1c-2.4,3.9-6.7,2.1-10.4,4.4c-0.8-0.3-1.2,0.3-2.4,0.1c-0.4,0.3-0.9,0.4-1.5,0.6
		c0.3,0.5,0.1,1.1,0.3,1.5c2,0.2,4.7-0.2,7-0.3c0,0.2-0.1,0.3-0.1,0.5c0.9,0.5,1.5,2,2.6,1.9c0.3,0.4,0.4,1,0.2,1.6
		c-1.9,1.2-3.6,2.8-6.3,2.7c-0.3,0-0.4,0-0.6-0.1c-0.5,0.2-1.5,0-2,0.2c-0.7-0.2-1.6-0.1-2.4-0.4c-0.9,1.2-1.7,2.6-2.3,4.2
		c3.9,0.6,4.7-0.4,8.4-0.3c1.2-0.6,2.9-0.6,4.3-1.1c0.9,0.4,1.2,1.9,2.2,1.7c0.5,0.4,0.1,1.5,0.9,1.4c-1.8,3.7-4.4,3.6-8.8,4.4
		c-0.5,0.1-0.8-0.1-1.2-0.1c-2.7,0.5-7.9,1.2-10.1-1c-0.4-0.4-0.4-1.1-1-1.4c-0.2-1.5-0.9-3.9-0.6-5.5c0.1-0.9,1-1.6,0.8-2.4
		c0.3,0,0.2-0.4,0.6-0.4c0.7-2.1,1.7-3.5,2.5-5.6c-1.6-1.6-1.2-3.5-1.8-5.4c1.2-1.8,3.3-2,5.9-2.6c4.6-1.5,6.9-1.4,11.8-2.2
		c0,0.1,0.2,0.1,0.4,0.1c0,0.2,0.2,0.3,0.4,0.3c0,0.1,0.2,0.1,0.3,0.1c0-0.1-0.1-0.1-0.3-0.1c0-0.1,0-0.3,0-0.4
		c0.2,0,0.7,0.4,0.6-0.1c0.6,1,1.5,1.6,2.6,2.1C1221.7,55.5,1221.3,55.4,1221.5,56.1z"/>
</g>
</svg>
