<svg id="Layer_1" data-name="Layer 1" xmlns="http://www.w3.org/2000/svg" viewBox="0 0 622.97 379.38"><defs><style>.cls-1{fill:#003e4c;}</style></defs><path class="cls-1" d="M262.17,67.49q107.67,26.92,198.77,82.83L27,153.75v1.66a26.77,26.77,0,0,0-15.49,9.26c-5,5.79-11.88,14.69-11.5,22.77a21.05,21.05,0,0,0,1.11,5.85c.9,7.3,5.73,14.15,11.39,18.86,4.05,3.37,9.08,8,14.49,8.74v1.82l420.13-3.38c-81.44,30.37-164.27,62.12-245.71,92.49C160,327,175.2,389.12,219.37,378.08c103.53-27.61,205.68-56.6,296.79-111.82,27.6-9.66,53.83-20.7,81.44-30.36,22.08-8.28,35.89-38.65,15.18-58a60,60,0,0,1-9.66-8.28C599,160,590.7,151.7,579.65,148.93,491.31,78.54,390.54,27.46,280.11,1.24,237.32-9.81,219.37,56.45,262.17,67.49ZM18.56,198.43c.26.5.53,1,.82,1.45-.49-.29-1-.61-1.42-.94Z" transform="translate(0 0)"/></svg>