<svg id="Layer_1" data-name="Layer 1" xmlns="http://www.w3.org/2000/svg" viewBox="0 0 622.97 379.38"><defs><style>.cls-1{fill:#003e4c;}</style></defs><path class="cls-1" d="M342.85,1.24C232.42,27.46,131.66,78.54,43.31,148.93c-11,2.77-19.32,11-23.46,20.71a59.69,59.69,0,0,1-9.67,8.28c-20.7,19.33-6.9,49.7,15.19,58,27.61,9.66,53.83,20.7,81.44,30.36,91.1,55.22,193.25,84.21,296.78,111.82,44.17,11,59.36-51.08,17.94-66.26-81.44-30.37-164.26-62.12-245.7-92.49L596,222.71v-1.82c5.4-.77,10.44-5.37,14.48-8.74,5.66-4.71,10.5-11.56,11.4-18.86a21.42,21.42,0,0,0,1.11-5.85c.38-8.08-6.52-17-11.5-22.77A26.8,26.8,0,0,0,596,155.41v-1.66L162,150.32q91.1-55.9,198.77-82.83C403.59,56.45,385.64-9.81,342.85,1.24ZM605,198.94c-.47.33-.94.65-1.43.94.3-.47.57-.95.83-1.45Z"/></svg>