<?xml version="1.0" encoding="UTF-8"?>
<svg id="Layer_2" data-name="Layer 2" xmlns="http://www.w3.org/2000/svg" viewBox="0 0 237.61 363.81">
  <defs>
    <style>
      .cls-1 {
        stroke: #0b0f2b;
        stroke-miterlimit: 10;
        stroke-width: 4px;
      }

      .cls-1, .cls-2 {
        fill: #68e3f0;
      }

      .cls-3 {
        fill: #55bdd2;
      }

      .cls-3, .cls-4, .cls-5, .cls-6, .cls-7, .cls-8, .cls-2 {
        stroke-width: 0px;
      }

      .cls-4 {
        fill: #222d38;
      }

      .cls-5 {
        fill: #b1f2f8;
      }

      .cls-6 {
        fill: #acf9ba;
      }

      .cls-7 {
        fill: #fbfdfd;
      }

      .cls-8 {
        fill: #e7fcfd;
      }
    </style>
  </defs>
  <g id="Layer_1-2" data-name="Layer 1">
    <g>
      <g>
        <path class="cls-4" d="m226.35,260.19c-14.68.08-29.37.18-44.05.24-10.21.04-20.43.12-30.64.01-2.6-.03-5.18-.7-7.78-1.08-.97-.74-2.01-1.42-2.91-2.25-4.4-4.04-5.71-9.12-3.77-14.34,2-5.39,6.99-9.04,12.7-9.15,4.04-.08,8.08-.02,12.29-.02V97.94c-6.28,2.76-8.82,2.22-13.92-2.7-.68-.65-1.79-1.22-2.71-1.22-16.3-.06-32.6-.03-48.9-.02-4.84-.04-9.68-.2-14.52-.1-7.02.15-12.07,4.66-13.41,11.75-.05.88-.14,1.75-.14,2.63-.01,16.18-.02,32.36-.02,48.55-.67,2.33-2.01,4.1-4.28,5.07-.87.09-1.75.27-2.62.27-7.84,0-15.69-.01-23.53-.09-4.9-.05-7.4-2.25-7.4-6.97,0-19.39-.32-38.79.4-58.16.74-20.05,18.4-38.87,38.43-42.06,3.37-.54,6.84-.65,10.26-.66,21.06-.06,42.13-.06,63.19,0,2.02,0,3.28-.45,4.43-2.34,3.47-5.72,8.67-6.78,14.62-3.16.31-2.1.45-4.16.94-6.14,3.89-15.55,20.51-22.76,34.61-15.07.54.29,1.08.57,1.62.85,6.36,4.77,10.54,10.8,10.71,19.1,5.82-2.18,6.45-2.12,10.9.92.94,1.09,1.88,2.17,2.82,3.26,1.27,4.07,2.54,8.14,3.81,12.21.05,5.08.09,10.15.14,15.23-1.5,4.65-2.65,9.45-4.64,13.88-1.08,2.4-3.26,4.84-5.58,5.97-2.03,1-4.94.21-7.44.21v134.38h10.39c3.9-.1,7.64.53,11.1,2.41.6.51,1.2,1,1.79,1.52,6.01,5.24,5.79,15.16-.49,20.06-.93.73-2,1.29-3,1.93-1.13.25-2.27.5-3.4.75Z"/>
        <path class="cls-4" d="m54.23,149.31c-4.04-.07-8.09-.19-12.13-.21-6.38-.02-6.38,0-5.53,6.44.01.08.08.15.23.44h25.76v-6.67h-8.33Z"/>
        <path class="cls-4" d="m190.23,107.28h13.61v-10.08h-35.84c0,2.91.07,5.54-.03,8.16-.06,1.5.51,2.04,1.96,2.03,6.76-.06,13.53-.08,20.29-.11Z"/>
        <path class="cls-4" d="m54.24,129.64c-5.62-.04-11.25-.08-16.87-.11-.34.37-.97.74-.98,1.12-.07,3.76-.07,7.53.01,11.29,0,.39.63.76.97,1.14,5.63-.01,11.26-.03,16.89-.04h8.32v-13.4h-8.34Z"/>
        <path class="cls-4" d="m176.62,49.84c4.54-.08,9.07-.16,13.61-.24h14.56c-.47-2.73-.55-5.05-1.29-7.14-2.74-7.68-8.5-11.53-16.46-12.34-10.35-.54-18.81,6.79-19.08,16.51-.09,3.31.83,3.95,4.16,2.87,1.5.11,3,.22,4.51.33Z"/>
        <path class="cls-4" d="m190.84,239.01c-12.42,0-24.84-.03-37.25,0-1.75,0-3.54.1-5.24.49-3.79.88-5.86,3.33-5.9,6.63-.5,4.99,2.16,8.18,7.22,8.19,24.82.04,49.64,0,74.47-.06,4.47-.01,7.84-3.23,7.94-7.22.09-3.97-3.46-7.6-7.83-7.65-8.88-.08-17.75.04-26.63.02-2.26,0-4.51-.26-6.77-.4Z"/>
        <path class="cls-4" d="m149.6,74.19c0,1.58-.12,3.18.02,4.75.41,4.6,1.18,9.11,4.23,12.85,2.26,2.77,4.07,2.94,7.05.95,1.03-.69,2.34-1.35,3.52-1.36,14.19-.1,28.38-.09,42.57-.04,1.08,0,2.26.38,3.22.9,3.47,1.89,4.74,1.71,7.07-1.53,3.49-4.86,4.57-10.39,4.33-16.25-.08-3.86.14-7.75-.35-11.56-.31-2.43-1.31-4.95-2.62-7.05-2.01-3.23-5.35-3.42-8.34-1.11-.76.59-1.86,1.01-2.81,1.02-14.5.07-29.01.03-43.51.09-1.74,0-3.11-.32-3.95-1.93-1.59-2.45-4.16-3.31-6.1-1.55-1.46,1.33-2.99,3.3-3.22,5.14-.7,5.52-.79,11.11-1.11,16.68Z"/>
        <path class="cls-4" d="m48.99,123.57h13.8c0-5.57-.02-10.84,0-16.1.02-5.27,2.01-9.72,5.61-13.54,4.37-4.65,9.9-6.08,16.02-6.08,19.01,0,38.02-.02,57.02-.03,1.03,0,2.07,0,3.13,0-.32-4.72-.61-9.07-.91-13.43v-14.25c-.19-.02-.62-.08-1.04-.08-21.84-.01-43.69-.19-65.53.02-17.48.17-32.16,11-38.2,27.44-2.62,7.12-2.6,14.48-2.51,21.89.05,4.64,0,9.29,0,14.16h12.61Z"/>
        <path class="cls-4" d="m172.06,113.42c-1.25-.16-2.49-.31-3.94-.49-.09,1.34-.21,2.29-.21,3.24-.01,36.05-.02,72.09,0,108.14,0,1.49.15,2.98.24,4.48-.27,4.32-.12,4.68,2.54,4.69,6.51.03,13.01-.03,19.52-.05h13.66v-119.94h-13.07c-6.24-.02-12.49-.04-18.73-.07Z"/>
        <path class="cls-5" d="m229.75,259.44c.05.26.1.52.15.78-1.19,0-2.37-.02-3.56-.03,1.14-.25,2.27-.5,3.4-.75Z"/>
        <path class="cls-2" d="m190.2,233.43c-6.51.02-13.01.09-19.52.05-2.66-.01-2.81-.37-2.54-4.69,4.03,0,4.05,0,4.05-4.03-.01-30.39-.04-60.78-.05-91.16,0-3.87.09-7.74.13-11.62-.01-2.64-.02-5.27-.03-7.91-.06-.21-.12-.43-.17-.64,6.24.02,12.49.04,18.73.07-.17,7.47-.47,14.94-.49,22.41-.07,22.46-.02,44.93-.03,67.39,0,10.04-.04,20.08-.07,30.13Z"/>
        <path class="cls-3" d="m143.67,74.39c.3,4.36.59,8.72.91,13.43-1.06,0-2.09,0-3.13,0-19.01.01-38.02.04-57.02.03-6.13,0-11.66,1.43-16.02,6.08-3.59,3.82-5.59,8.27-5.61,13.54-.02,5.26,0,10.53,0,16.1h-13.8c.18-1.47.49-2.94.5-4.42.06-6.14.06-12.28,0-18.42,0-.89-.45-1.78-.69-2.67.58-1.54,1.21-3.07,1.74-4.63,1.67-5,4.09-9.6,8.36-12.77,3.06-2.27,6.56-3.94,9.87-5.88,2.98-.13,5.95-.35,8.93-.36,21.99-.04,43.98-.03,65.97-.04Z"/>
        <path class="cls-3" d="m190.2,233.43c.02-10.04.06-20.08.07-30.13.01-22.46-.04-44.93.03-67.39.02-7.47.32-14.94.49-22.41,4.29,0,8.59,0,13.07,0v119.94h-13.66Z"/>
        <path class="cls-2" d="m48.81,98.07c.24.89.68,1.78.69,2.67.06,6.14.06,12.28,0,18.42-.01,1.47-.33,2.95-.5,4.42h-12.61c0-4.88.04-9.52,0-14.16-.09-7.41-.1-14.77,2.51-21.89,6.04-16.45,20.73-27.27,38.2-27.44,21.84-.21,43.69-.03,65.53-.02.43,0,.86.06,1.04.08v14.25c-21.99,0-43.98,0-65.97.04-2.98,0-5.95.23-8.93.36.92-1.91,1.52-3.87-.18-5.63-1.77-1.83-3.85-1.24-5.89-.47-.25.09-.47.24-.71.35-9.93,4.6-16.34,12.26-19.64,22.62-.72,2.24-.64,4.35,1.05,6.17,1.7,1.83,3.59.64,5.42.25Z"/>
        <path class="cls-2" d="m160.03,53.91c.84,1.62,2.21,1.94,3.95,1.94,14.5-.06,29.01-.03,43.51-.09.95,0,2.05-.43,2.81-1.02,2.99-2.31,6.33-2.12,8.34,1.11,1.31,2.1,2.31,4.61,2.62,7.05.48,3.81.27,7.7.35,11.56-1.05-.01-2.11-.03-3.16-.03-21.79-.03-43.58-.06-65.36-.08.35-4.92.59-9.84,1.07-14.75.38-3.96,1.98-5.36,5.89-5.68Z"/>
        <path class="cls-3" d="m153.08,74.34c21.79.03,43.58.05,65.36.08,1.05,0,2.11.02,3.16.03.24,5.87-.84,11.4-4.33,16.25-2.33,3.24-3.59,3.42-7.07,1.53-.96-.52-2.14-.89-3.22-.9-14.19-.05-28.38-.06-42.57.04-1.19,0-2.49.67-3.52,1.36-2.98,1.99-4.79,1.82-7.05-.95-3.04-3.74-3.81-8.25-4.23-12.85-.14-1.57-.02-3.17-.02-4.75,1.16.05,2.32.1,3.48.15Z"/>
        <path class="cls-3" d="m190.84,239.01c2.26.14,4.51.4,6.77.4,8.88.03,17.75-.1,26.63-.02,4.38.04,7.93,3.68,7.83,7.65-.09,3.99-3.46,7.21-7.94,7.22-24.82.07-49.64.1-74.47.06-5.05,0-7.72-3.21-7.22-8.19,1.35-.09,3.58.27,3.89-.34,1.41-2.79,3.74-2.16,5.93-2.16,11.88,0,23.76-.03,35.64.06,2.34.02,3.24-.87,3.02-3.1-.05-.52-.07-1.05-.1-1.58Z"/>
        <path class="cls-8" d="m172.27,121.97c-.05,3.87-.14,7.74-.13,11.62,0,30.39.04,60.78.05,91.16,0,4.04-.02,4.04-4.05,4.03-.08-1.49-.24-2.98-.24-4.48-.01-36.05,0-72.09,0-108.14,0-.95.12-1.9.21-3.24,1.45.18,2.7.34,3.94.49.06.21.12.43.17.64.01,2.64.02,5.27.03,7.91Z"/>
        <path class="cls-2" d="m190.24,49.6c-4.54.08-9.07.16-13.61.24,1.04-3.33,2.23-6.63,3.03-10.02.27-1.13-.15-3.3-.83-3.58-1.2-.49-2.9-.08-4.27.34-.69.21-1.25,1.22-1.62,2-1.66,3.52-2.48,7.15-.82,10.93-3.33,1.08-4.25.44-4.16-2.87.27-9.73,8.74-17.05,19.08-16.51,1.06,6.49,2.13,12.98,3.19,19.47Z"/>
        <path class="cls-2" d="m54.26,143.04c-5.63.01-11.26.03-16.89.04,0-4.52,0-9.03,0-13.55,5.62.04,11.25.08,16.87.11,0,4.47.01,8.93.02,13.4Z"/>
        <path class="cls-3" d="m190.24,49.6c-1.06-6.49-2.13-12.98-3.19-19.47,7.96.81,13.72,4.66,16.46,12.34.74,2.09.82,4.41,1.29,7.14h-14.56Z"/>
        <path class="cls-8" d="m190.84,239.01c.03.53.05,1.05.1,1.58.21,2.23-.68,3.12-3.02,3.1-11.88-.1-23.76-.07-35.64-.06-2.19,0-4.52-.63-5.93,2.16-.31.61-2.54.25-3.89.34.04-3.31,2.1-5.76,5.9-6.63,1.69-.39,3.49-.49,5.24-.49,12.42-.03,24.84,0,37.25,0Z"/>
        <path class="cls-2" d="m190.23,107.28c-6.76.03-13.53.05-20.29.11-1.44.01-2.02-.53-1.96-2.03.1-2.62.03-5.25.03-8.16,7.55,0,14.89,0,22.22,0,0,3.36,0,6.72,0,10.08Z"/>
        <path class="cls-3" d="m190.23,107.28c0-3.36,0-6.72,0-10.08,4.47,0,8.95,0,13.62,0v10.08h-13.61Z"/>
        <path class="cls-2" d="m54.28,155.98h-17.48c-.15-.28-.22-.36-.23-.44-.85-6.43-.85-6.46,5.53-6.44,4.04.01,8.09.13,12.13.21.02,2.22.03,4.45.05,6.67Z"/>
        <path class="cls-3" d="m54.26,143.04c0-4.47-.01-8.93-.02-13.4,2.71,0,5.41,0,8.34,0v13.4h-8.32Z"/>
        <path class="cls-8" d="m153.08,74.34c-1.16-.05-2.32-.1-3.48-.15.33-5.57.41-11.16,1.11-16.68.23-1.84,1.76-3.81,3.22-5.14,1.94-1.76,4.51-.9,6.1,1.55-3.91.31-5.51,1.71-5.89,5.67-.47,4.91-.72,9.83-1.07,14.75Z"/>
        <path class="cls-8" d="m172.12,49.51c-1.66-3.79-.84-7.41.82-10.93.36-.77.93-1.78,1.62-2,1.37-.43,3.08-.83,4.27-.34.68.28,1.1,2.45.83,3.58-.8,3.39-1.99,6.69-3.03,10.02-1.5-.11-3-.22-4.51-.33Z"/>
        <path class="cls-3" d="m54.28,155.98c-.02-2.22-.03-4.45-.05-6.67,2.7,0,5.41,0,8.33,0v6.67h-8.28Z"/>
        <path class="cls-5" d="m68.73,105.66c.11.77.32,1.54.32,2.31.02,15.46.02,30.92,0,46.38,0,.83-.31,1.66-.47,2.49,0-16.18,0-32.37.02-48.55,0-.88.09-1.75.14-2.63Z"/>
        <path class="cls-5" d="m227.48,63.85c.07.05.21.1.21.15-.02,5.03-.04,10.06-.07,15.08-.05-5.08-.09-10.15-.14-15.23Z"/>
        <path class="cls-3" d="m37.38,129.53c0,4.52,0,9.03,0,13.55-.34-.38-.96-.75-.97-1.14-.08-3.76-.08-7.53-.01-11.29,0-.38.64-.75.98-1.12Z"/>
        <path class="cls-3" d="m172.27,121.97c-.01-2.64-.02-5.27-.03-7.91.01,2.64.02,5.27.03,7.91Z"/>
        <path class="cls-7" d="m48.81,98.07c-1.83.39-3.71,1.59-5.42-.25-1.68-1.81-1.76-3.93-1.05-6.17,3.31-10.35,9.71-18.01,19.64-22.62.24-.11.47-.25.71-.35,2.04-.77,4.12-1.36,5.89.47,1.7,1.76,1.1,3.72.18,5.63-3.3,1.94-6.81,3.61-9.87,5.88-4.27,3.17-6.69,7.78-8.36,12.77-.52,1.56-1.15,3.09-1.74,4.63Z"/>
      </g>
      <g>
        <path class="cls-4" d="m177.6,22.46h17.28c2.54,0,4.6,2.06,4.6,4.6v3.43h-26.48v-3.43c0-2.54,2.06-4.6,4.6-4.6Z"/>
        <rect class="cls-4" x="181.24" y="13" width="9.89" height="13.47"/>
        <path class="cls-1" d="m186.18,7.33l31.27-5.21c5.23-.87,9.99,3.16,9.99,8.47h0c0,5.4-4.92,9.45-10.22,8.43l-30.99-6.01-.06-5.67Z"/>
        <path class="cls-1" d="m186.24,7.33l-31.27-5.21c-5.23-.87-9.99,3.16-9.99,8.47h0c0,5.4,4.92,9.45,10.22,8.43l30.99-6.01.06-5.67Z"/>
        <circle class="cls-1" cx="186.06" cy="10.3" r="6.83"/>
      </g>
      <g>
        <g>
          <rect class="cls-6" x="40.27" y="184.43" width="51.96" height="26.24" transform="translate(228.5 66.82) rotate(69.68)"/>
          <path class="cls-4" d="m61.7,229.23l-19.54-52.76,28.64-10.6,19.54,52.76-28.64,10.6Zm-14.02-50.22l16.55,44.7,20.58-7.62-16.55-44.7-20.58,7.62Z"/>
        </g>
        <g>
          <polygon class="cls-4" points="66.82 179.13 65.88 176.59 63.99 177.28 62.5 173.26 68.41 171.07 70.85 177.63 66.82 179.13"/>
          <polygon class="cls-4" points="79.23 218.43 77.73 214.4 79.62 213.7 78.68 211.16 82.71 209.67 85.14 216.24 79.23 218.43"/>
          <polygon class="cls-4" points="64.09 224.03 61.66 217.46 65.69 215.97 66.63 218.51 68.51 217.81 70.01 221.84 64.09 224.03"/>
          <polygon class="cls-4" points="49.8 185.43 47.36 178.86 53.28 176.67 54.77 180.7 52.89 181.4 53.83 183.94 49.8 185.43"/>
        </g>
        <path class="cls-4" d="m63.9,205.08c-2.26-.71-4.17-2.41-5.06-4.79-1.51-4.08.58-8.64,4.66-10.15,1.98-.73,4.12-.65,6.04.23,1.92.88,3.38,2.46,4.11,4.43.73,1.98.65,4.12-.23,6.04-.88,1.92-2.46,3.38-4.43,4.11h0c-1.7.63-3.48.63-5.09.13Zm3.42-10.97c-.76-.24-1.56-.22-2.32.06-1.86.69-2.82,2.76-2.13,4.63.69,1.86,2.77,2.82,4.63,2.13h0c1.86-.69,2.82-2.76,2.13-4.63-.33-.9-1-1.62-1.87-2.02-.14-.07-.29-.12-.43-.17Z"/>
      </g>
      <g>
        <g>
          <rect class="cls-6" x="-6.46" y="244.2" width="51.96" height="26.24" transform="translate(276.69 278.72) rotate(99.1)"/>
          <path class="cls-4" d="m0,282.68l8.89-55.55,30.16,4.83-8.89,55.55-30.16-4.83Zm12.46-50.63l-7.54,47.07,21.67,3.47,7.54-47.07-21.67-3.47Z"/>
        </g>
        <g>
          <polygon class="cls-4" points="29.06 241.55 29.49 238.87 27.51 238.56 28.19 234.31 34.41 235.31 33.31 242.23 29.06 241.55"/>
          <polygon class="cls-4" points="20.57 281.88 21.25 277.63 23.24 277.95 23.66 275.28 27.91 275.96 26.8 282.87 20.57 281.88"/>
          <polygon class="cls-4" points="4.64 279.32 5.74 272.41 9.99 273.09 9.56 275.76 11.54 276.08 10.86 280.32 4.64 279.32"/>
          <polygon class="cls-4" points="11.14 238.68 12.25 231.76 18.48 232.76 17.8 237 15.81 236.68 15.39 239.36 11.14 238.68"/>
        </g>
        <path class="cls-4" d="m13.78,262.73c-1.62-1.72-2.45-4.15-2.05-6.66.69-4.3,4.75-7.24,9.05-6.55,2.08.33,3.91,1.46,5.15,3.17,1.24,1.71,1.73,3.8,1.4,5.88-.33,2.08-1.46,3.91-3.17,5.15-1.71,1.24-3.8,1.73-5.88,1.4h0c-1.79-.29-3.34-1.16-4.5-2.39Zm8.37-7.88c-.54-.58-1.26-.96-2.05-1.08-1.96-.31-3.81,1.03-4.12,2.99-.31,1.96,1.03,3.81,2.99,4.12h0c1.96.31,3.81-1.03,4.12-2.99.15-.95-.07-1.9-.64-2.68-.09-.13-.19-.25-.3-.36Z"/>
      </g>
      <g>
        <g>
          <rect class="cls-6" x="53.27" y="263.67" width="51.96" height="26.24" transform="translate(321.39 121.01) rotate(73.22)"/>
          <path class="cls-4" d="m72.76,308.13l-16.24-53.87,29.24-8.82,16.24,53.87-29.24,8.82Zm-10.89-50.99l13.76,45.64,21.01-6.34-13.76-45.64-21.01,6.34Z"/>
        </g>
        <g>
          <polygon class="cls-4" points="80.96 258.44 80.18 255.85 78.25 256.43 77.01 252.32 83.05 250.5 85.07 257.2 80.96 258.44"/>
          <polygon class="cls-4" points="90.92 298.43 89.67 294.32 91.6 293.74 90.82 291.15 94.93 289.91 96.95 296.61 90.92 298.43"/>
          <polygon class="cls-4" points="75.46 303.09 73.44 296.39 77.56 295.15 78.34 297.74 80.26 297.16 81.5 301.27 75.46 303.09"/>
          <polygon class="cls-4" points="63.58 263.68 61.56 256.97 67.6 255.15 68.84 259.27 66.91 259.85 67.69 262.44 63.58 263.68"/>
        </g>
        <path class="cls-4" d="m76.45,284.17c-2.21-.84-4.02-2.66-4.75-5.1-1.26-4.17,1.11-8.58,5.28-9.84,2.02-.61,4.15-.39,6.01.6,1.86,1,3.22,2.66,3.83,4.68.61,2.02.39,4.16-.6,6.01-1,1.86-2.66,3.22-4.68,3.83h0c-1.74.52-3.51.42-5.09-.18Zm4.09-10.74c-.74-.28-1.55-.31-2.32-.08-1.9.57-2.98,2.59-2.41,4.49.57,1.9,2.59,2.98,4.49,2.41h0c1.9-.57,2.98-2.59,2.41-4.49-.28-.92-.9-1.68-1.74-2.13-.14-.07-.28-.14-.42-.19Z"/>
      </g>
      <g>
        <g>
          <rect class="cls-6" x="10.81" y="319.53" width="51.96" height="26.24" transform="translate(367.41 384.64) rotate(105.25)"/>
          <path class="cls-4" d="m14.66,355.78l14.8-54.28,29.46,8.03-14.8,54.28-29.46-8.03Zm17.81-49l-12.54,45.99,21.17,5.77,12.54-45.99-21.17-5.77Z"/>
        </g>
        <g>
          <polygon class="cls-4" points="47.97 318 48.68 315.38 46.74 314.85 47.87 310.71 53.95 312.37 52.11 319.12 47.97 318"/>
          <polygon class="cls-4" points="35.2 357.18 36.33 353.04 38.27 353.56 38.98 350.95 43.13 352.08 41.29 358.84 35.2 357.18"/>
          <polygon class="cls-4" points="19.63 352.94 21.47 346.18 25.62 347.31 24.9 349.92 26.84 350.45 25.71 354.59 19.63 352.94"/>
          <polygon class="cls-4" points="30.45 313.22 32.3 306.46 38.38 308.12 37.25 312.27 35.31 311.74 34.6 314.35 30.45 313.22"/>
        </g>
        <path class="cls-4" d="m30.5,337.42c-1.42-1.89-1.99-4.39-1.32-6.84,1.15-4.2,5.49-6.69,9.7-5.54,2.04.55,3.73,1.87,4.78,3.7,1.05,1.83,1.32,3.96.76,6-.55,2.03-1.87,3.73-3.7,4.78-1.83,1.05-3.96,1.32-6,.76h0c-1.75-.48-3.2-1.51-4.22-2.86Zm9.16-6.94c-.48-.63-1.15-1.09-1.92-1.3-1.92-.52-3.9.61-4.42,2.53-.52,1.92.61,3.9,2.53,4.42h0c1.92.52,3.9-.61,4.42-2.53.25-.93.13-1.9-.35-2.73-.08-.14-.16-.27-.26-.39Z"/>
      </g>
    </g>
  </g>
</svg>