<?xml version="1.0" encoding="utf-8"?>
<!-- Generator: Adobe Illustrator 25.0.0, SVG Export Plug-In . SVG Version: 6.00 Build 0)  -->
<svg version="1.1" id="Layer_1" xmlns="http://www.w3.org/2000/svg" xmlns:xlink="http://www.w3.org/1999/xlink" x="0px" y="0px"
	 viewBox="0 0 1920 1080" style="enable-background:new 0 0 1920 1080;" xml:space="preserve">
<style type="text/css">
	.st0{fill:#2E8599;}
	.st1{fill:#003E4C;}
	.st2{fill:#00B1D9;}
	.st3{fill:#FFFFFF;}
</style>
<path class="st0" d="M1836.8,793c-0.6,0-1.2-0.1-1.7-0.2L87.3,311.5c-3.5-1-5.5-4.5-4.5-8c1-3.5,4.5-5.5,8-4.5l1747.7,481.3
	c3.5,1,5.5,4.5,4.5,8C1842.2,791.1,1839.6,793,1836.8,793z"/>
<path class="st0" d="M84,781.5c-2.9,0-5.5-1.9-6.3-4.8c-1-3.5,1.1-7,4.5-8L1830,287.5c3.5-1,7,1.1,8,4.5s-1.1,7-4.5,8L85.7,781.3
	C85.2,781.4,84.6,781.5,84,781.5z"/>
<g>
	<g>
		<path class="st1" d="M489.2,573.7c-3.9,0-7.2-0.8-9.9-2.3c-2.6-1.5-4.6-3.8-6-6.8c-1.4-3-2.1-6.6-2.3-10.9l10.3-2
			c0.1,2.5,0.4,4.8,0.9,6.7c0.5,1.9,1.3,3.4,2.3,4.5s2.4,1.6,4.2,1.6c1.9,0,3.3-0.6,4.1-1.7c0.8-1.2,1.2-2.6,1.2-4.4
			c0-2.9-0.6-5.2-1.9-7s-3-3.7-5.2-5.5l-8.3-7.3c-2.3-2-4.2-4.2-5.5-6.7c-1.4-2.5-2.1-5.5-2.1-9.1c0-5.2,1.5-9.2,4.5-12
			c3-2.8,7.2-4.2,12.4-4.2c3.1,0,5.6,0.5,7.7,1.4c2.1,0.9,3.7,2.3,4.9,3.9c1.2,1.7,2.1,3.6,2.7,5.7c0.6,2.1,1,4.4,1.1,6.8l-10.2,1.8
			c-0.1-2.1-0.3-3.9-0.7-5.5c-0.4-1.6-1-2.9-1.9-3.8c-0.9-0.9-2.2-1.4-3.9-1.4c-1.8,0-3.1,0.6-4.1,1.7c-0.9,1.2-1.4,2.6-1.4,4.3
			c0,2.2,0.5,4,1.4,5.5c0.9,1.4,2.2,2.9,4,4.4l8.2,7.2c2.7,2.3,5,4.9,6.9,8c1.9,3.1,2.9,6.7,2.9,11.1c0,3.1-0.7,5.9-2.1,8.3
			s-3.3,4.3-5.8,5.7C495.4,573,492.5,573.7,489.2,573.7z"/>
		<path class="st1" d="M530.7,573.7c-4.9,0-8.6-0.9-11.3-2.7c-2.7-1.8-4.6-4.3-5.6-7.6c-1-3.3-1.5-7.2-1.5-11.8v-44.4h11.7V553
			c0,2.1,0.1,4,0.4,5.8c0.3,1.8,0.9,3.3,1.9,4.4c1,1.1,2.5,1.7,4.5,1.7c2.1,0,3.6-0.6,4.6-1.7c0.9-1.1,1.6-2.6,1.9-4.4
			c0.3-1.8,0.4-3.7,0.4-5.8v-45.8h11.6v44.4c0,4.6-0.5,8.5-1.5,11.8c-1,3.3-2.9,5.8-5.5,7.6C539.4,572.8,535.6,573.7,530.7,573.7z"
			/>
		<path class="st1" d="M558.6,572.8v-65.6h19.3c3.9,0,7.1,0.7,9.6,2.2c2.5,1.5,4.3,3.6,5.4,6.4c1.2,2.8,1.7,6.1,1.7,10.1
			c0,4.3-0.7,7.7-2.2,10.3c-1.5,2.6-3.5,4.5-6.1,5.7c-2.6,1.2-5.7,1.8-9.3,1.8h-6.5v29.2H558.6z M570.6,535.2h4.5
			c2.2,0,3.8-0.3,5.1-0.9c1.2-0.6,2.1-1.6,2.5-3s0.7-3.2,0.7-5.5c0-2.4-0.2-4.3-0.5-5.8c-0.4-1.5-1.1-2.6-2.3-3.3
			c-1.2-0.7-3-1.1-5.5-1.1h-4.5V535.2z"/>
		<path class="st1" d="M600.9,572.8v-65.6h19.3c3.9,0,7.1,0.7,9.6,2.2c2.5,1.5,4.3,3.6,5.4,6.4c1.2,2.8,1.7,6.1,1.7,10.1
			c0,4.3-0.7,7.7-2.2,10.3c-1.5,2.6-3.5,4.5-6.1,5.7c-2.6,1.2-5.7,1.8-9.3,1.8h-6.5v29.2H600.9z M612.9,535.2h4.5
			c2.2,0,3.8-0.3,5.1-0.9c1.2-0.6,2.1-1.6,2.5-3s0.7-3.2,0.7-5.5c0-2.4-0.2-4.3-0.5-5.8c-0.4-1.5-1.1-2.6-2.3-3.3
			c-1.2-0.7-3-1.1-5.5-1.1h-4.5V535.2z"/>
		<path class="st1" d="M643.3,572.8v-65.6h12v57.3h15.9v8.3H643.3z"/>
		<path class="st1" d="M682.5,572.8v-25l-13.3-40.6h11.2l8.1,26l7.6-26H707l-13.1,40.6v25H682.5z"/>
		<path class="st1" d="M1165.2,572.8v-65.6h15.5c5.3,0,9.5,0.7,12.5,2.2s5.1,3.7,6.4,6.7c1.3,3,1.9,6.9,1.9,11.5v24
			c0,4.8-0.6,8.7-1.9,11.9c-1.3,3.2-3.4,5.5-6.3,7c-2.9,1.5-7,2.3-12.1,2.3H1165.2z M1177.2,564.5h3.6c2.8,0,4.7-0.5,5.9-1.5
			c1.2-1,1.9-2.4,2.2-4.3c0.3-1.9,0.4-4.1,0.4-6.8v-25.1c0-2.6-0.2-4.8-0.6-6.4c-0.4-1.6-1.2-2.8-2.3-3.6c-1.2-0.8-3.1-1.1-5.8-1.1
			h-3.5V564.5z"/>
		<path class="st1" d="M1210.3,572.8v-65.6h27.5v8.4h-15.6v18.9h12.2v8.3h-12.2v21.7h15.7v8.3H1210.3z"/>
		<path class="st1" d="M1244.8,572.8l1.1-65.6h12.4l9.3,45.4l9.7-45.4h12l1.2,65.6h-8.9l-1-45.6l-9.3,45.6h-7.2l-9.5-45.8l-0.9,45.8
			H1244.8z"/>
		<path class="st1" d="M1297,572.8l13.1-65.6h12.8l13.1,65.6h-11.1l-2.6-15.1h-11.4l-2.7,15.1H1297z M1312.1,550h8.9l-4.5-27.5
			L1312.1,550z"/>
		<path class="st1" d="M1342.2,572.8v-65.6h8.3l16,37.4v-37.4h9.9v65.6h-7.9l-16-39.2v39.2H1342.2z"/>
		<path class="st1" d="M1386.4,572.8v-65.6h15.5c5.3,0,9.5,0.7,12.5,2.2s5.1,3.7,6.4,6.7c1.3,3,1.9,6.9,1.9,11.5v24
			c0,4.8-0.6,8.7-1.9,11.9c-1.3,3.2-3.4,5.5-6.3,7c-2.9,1.5-7,2.3-12.1,2.3H1386.4z M1398.4,564.5h3.6c2.8,0,4.7-0.5,5.9-1.5
			c1.2-1,1.9-2.4,2.2-4.3c0.3-1.9,0.4-4.1,0.4-6.8v-25.1c0-2.6-0.2-4.8-0.6-6.4c-0.4-1.6-1.2-2.8-2.3-3.6c-1.2-0.8-3.1-1.1-5.8-1.1
			h-3.5V564.5z"/>
	</g>
</g>
<g>
	<circle class="st2" cx="944.9" cy="537.4" r="44.1"/>
	<path class="st1" d="M944.9,588c-27.9,0-50.6-22.7-50.6-50.6s22.7-50.6,50.6-50.6c27.9,0,50.6,22.7,50.6,50.6S972.8,588,944.9,588z
		 M944.9,499.8c-20.7,0-37.6,16.9-37.6,37.6c0,20.7,16.9,37.6,37.6,37.6s37.6-16.9,37.6-37.6C982.5,516.7,965.7,499.8,944.9,499.8z"
		/>
</g>
<g>
	<polyline class="st3" points="964.7,635.9 982.7,633.9 992.7,609.9 987.7,587.9 956.7,579.9 955.7,549.9 941.7,550.7 942.7,595.9 
		927.7,586.9 921.7,596.9 941.7,619.9 950.7,635.9 	"/>
	<path d="M988.3,615.1c0.2-0.5,0.3-1,0.3-1.4v-13.3c0-5.5-3.8-10.2-9.2-11.4l-26-5.8v-26.6c0-2.2-1.7-3.9-3.9-3.9s-3.9,1.7-3.9,3.9
		V605l-12.5-12.5c-1.7-1.7-4.5-1.7-6.2,0c-1.7,1.7-1.7,4.5,0,6.2l16.7,16.7c0.9,0.9,1.6,1.9,2.2,3l6.2,12.3H982L988.3,615.1z
		 M937.8,556.6c0-6.5,5.2-11.7,11.7-11.7s11.7,5.2,11.7,11.7v20.3l19.8,4.4c8.9,2,15.3,9.9,15.3,19.1v13.3c0,1.5-0.3,3-0.8,4.3
		l-8.2,20.6h-40.2l-8.3-16.6c-0.2-0.4-0.4-0.7-0.7-1l-16.7-16.7c-4.8-4.8-4.8-12.5,0-17.2c4.5-4.5,11.6-4.7,16.4-0.7V556.6z"/>
</g>
</svg>
