<svg id="Layer_1" data-name="Layer 1" xmlns="http://www.w3.org/2000/svg" viewBox="0 0 54.06 54.45"><defs><style>.cls-1{fill:#528918;}</style></defs><path class="cls-1" d="M13.56,44.09c-1.33.16,1.39,3.63,2.78,3.53a88.29,88.29,0,0,1,32.14,3.2c.21.1.48.27.69.37.69.27,2.13.64,1.87-.69C48.58,39.61,48.1,29,48.48,17.83c0-1.07-2.89-4.17-3.37-2.62a53.43,53.43,0,0,0-1.55,16.18c.06,2.61.22,5.23.54,7.9-2-2.14-4.38-4.17-6.46-6.14-3.31-3.2-6-6.89-9.34-10.09C21.57,16.55,14.52,10.46,7.9,3.84,5.29,1.23,1.29,5.23,3.79,8c6.36,6.89,13.3,13.08,20,19.65,3.26,3.25,6,6.94,9.29,10.14,2.24,2.13,4.32,4.75,6.72,6.94A74.68,74.68,0,0,0,13.56,44.09Z"/><path class="cls-1" d="M49.35,13.66a6.57,6.57,0,0,1,2.12,4.17v.1c-.42,12.56.35,22.4,2.49,31.91a3.73,3.73,0,0,1-1.15,3.75c-.82.69-2.31,1.33-4.72.4l-.27-.12-.45-.24h0a84.6,84.6,0,0,0-30.73-3c-3,.24-6.17-3.41-6.4-5.75a3.37,3.37,0,0,1,2.92-3.73,79.71,79.71,0,0,1,18.42-.64c-.17-.18-.38-.38-.58-.57-1.85-1.8-3.5-3.69-5.1-5.52-1.42-1.65-2.77-3.2-4.24-4.67-2.19-2.16-4.47-4.33-6.68-6.43C10.5,19,5.89,14.65,1.59,10A5.84,5.84,0,0,1,1.9,1.68a5.7,5.7,0,0,1,8.13,0C13.71,5.4,17.61,9,21.38,12.47c3,2.73,6,5.56,9,8.43,1.75,1.7,3.32,3.49,4.84,5.23s2.94,3.34,4.51,4.86l.84.8c0-.12,0-.23,0-.34a56.49,56.49,0,0,1,1.65-17l0-.12a3.52,3.52,0,0,1,3.94-2.49A6.13,6.13,0,0,1,49.35,13.66ZM35,34.77c-1.54-1.54-2.94-3.14-4.3-4.69-1.51-1.72-2.94-3.35-4.5-4.87-2.92-2.82-6-5.62-8.9-8.33-2.55-2.35-5.16-4.76-7.74-7.22,3.14,3.2,6.37,6.28,9.53,9.28,2.22,2.12,4.52,4.31,6.76,6.52,1.64,1.63,3.12,3.34,4.55,5C32,32.27,33.48,34,35.13,35.58c1.09,1,2.14,2.17,3.15,3.28s2.31,2.51,3.51,3.6l5.38,4.9.16,0c0-.14,0-.29-.08-.43l-5.33-5.62c-1.31-1.38-2.79-2.74-4.24-4.07l-2.11-2Z"/></svg>