<?xml version="1.0" encoding="UTF-8"?>
<svg id="Layer_2" data-name="Layer 2" xmlns="http://www.w3.org/2000/svg" viewBox="0 0 219.03 84.66">
  <defs>
    <style>
      .cls-1 {
        fill: #003e4c;
      }
    </style>
  </defs>
  <g id="Layer_1-2" data-name="Layer 1">
    <g>
      <path class="cls-1" d="m0,26.99c0-.78.43-1.03.77-1.42,2.71-.17,4.13-.69,6.54-.73.09-.04.17-.09.3-.09.43-1.59,1.25-3.23,1.89-4.74.73-2.8,2.28-4.61,2.5-7.06.69-1.94,1.21-3.36,1.55-5.64-2.2.3-3.4.65-3.96.9-2.24-.17-2.37-1.59-3.14-3.14.22-.52.13-1.72-.43-2.2.43-.09.73-.95.56-1.29,1.89-.56,4.39-.17,5.81-.99,2.88-.09,6.24-.26,8.95-.43,1.94.65,5.77-.34,6.59,2.41,1.68.17,1.38,1.46,1.33,2.63-1.81,1.33-5.64,1.59-9.04,1.68-.52,3.62-3.23,10.8-3.1,11.92-1.16,2.5-1.38,3.44-2.28,5.38,0,0,1.64-.04,2.88-.04.21,1.21,1.85.73,1.85,1.85,2.15.56.9,2.37.13,3.4-.52-.09-.99.34-1.33.82-1.59-.22-3.27.04-4.61.17-.22.04-.09.39-.26.47-3.44-1.16-7.23.99-11.28,1.16-1.51-1.08-1.81-3.23-2.24-5.04Z"/>
      <path class="cls-1" d="m29.05,30.65c-.17.26.04.17.13.65-.73-.17-.99.21-1.51.3-2.5-.86-3.31-4.48-4.3-6.37,0-.17.26-.09.43-.09-.3-.56-.34-1.38-.73-1.81,3.27-6.97,7.49-15.28,10.98-22.94,3.1,1.12,6.2,3.01,6.76,6.33-.17.34-.3.04-.43.26.56.6-.13.47.34,1.29-.26-.04-.3.17-.6.09.6,1.51-.73,1.55-.3,2.97-.39-.04-.26.47-.69.39.34,2.93-.43,5.85.39,9.38,4.82-2.84,5.42-9.21,6.41-15.71,1.25-1.21,1.21-3.7,2.07-5.29,2.11.26,2.5,2.32,4.52,2.58.77,1.08,1.55,2.11,1.76,3.36-.65,1.12-.52,2.8-1.76,3.62-.34,3.36-1.42,5.51-1.33,9.12-.52,1.64-1.25,3.49-1.55,4.91-1.03.82-1.55,2.15-2.2,3.36-.26.26-.21-.04-.65-.04.09.47-.39.39-.13,1.08-1.89.86-2.54,3.49-6.24,2.11-2.71-1.98-4.95-4.52-6.24-8.14-1.16.3-.95,2.63-1.89,2.63-.17,1.03-1.51,1.64-.95,2.93-1.12.82-.09,3.14-2.28,3.06Z"/>
      <path class="cls-1" d="m53.76,6.59c-.26-.69-.56-1.42-.56-2.54.09-.47.3-.69.56-.99l.09-.65.6.04h1.42c2.11,0,4.35-.22,6.67-.43,1.33-.13,2.71-.26,4.17-.39.04-.04.13-.21.17-.3.09-.17.13-.34.26-.56l.21-.21.26-.04c.13,0,.21-.04.3-.04.86,0,1.33.47,1.64.82,1.46-.13,2.97-.34,4.56-.56,2.24-.3,4.61-.65,6.76-.65.95,0,1.81.09,2.58.22l.34.04.17.3c.21.39.6.73.99,1.03.86.69,1.89,1.55,1.68,3.53l-.04.26-.17.13c-.13.17-.26.26-.43.34-.09.04-.21.13-.21.17l-.22.39h-.52c-.39,0-.69.09-1.03.26-.22.09-.52.22-.86.3h-.17c-.34-.04-.73-.04-1.12-.04-1.68,0-3.75.26-5.6.52-1.33.17-2.63.34-3.7.52-.39,1.33-.9,2.45-1.38,3.53-.52,1.16-.99,2.24-1.38,3.62l-.09.17c-.52.82-1.03,1.68-1.25,2.84l-.04.21-.17.17c-.56.47-.95,1.81-1.16,2.62-.04.13-.09.26-.13.34l-.09.26-.26.22c-.04.13-.09.39-.34.65-.04.39-.17.73-.3,1.08-.13.3-.26.6-.21.77v.22c-.04.17-.13.34-.26.47,0,.34-.09.69-.13,1.03-.09.34-.17.69-.04,1.08.09.09.34.3.43.65.13.09.3.17.43.26.22.13.39.26.6.34l.34.13.09.34c.17.99.04,1.76-.43,2.37-.52.6-1.42.95-2.54.95h-.6l-.22-.22s-.09-.13-.13-.21l-.17-.09c-.3-.04-.65-.17-.9-.56-.13-.09-.3-.13-.43-.22-.21-.09-.43-.17-.65-.26l-.47-.26.09-.34c-.04-.09-.04-.17-.04-.26-.47-.6-.69-1.42-.86-2.11-.13-.6-.3-1.21-.65-1.72v-.21c0-3.4,1.08-5.98,2.07-8.44.52-1.33,1.08-2.71,1.46-4.22l.09-.34.34-.13s.13-.04.21-.13c.04-.04.13-.13.17-.17,0-.69.34-1.42.69-2.11.21-.47.43-.95.47-1.29-.34,0-.65.04-1.08.13-.3.04-.65.09-.99.09-.17,0-.34,0-.52-.04-.43.21-.86.26-1.21.26-.17,0-.34,0-.52-.04h-.47c-.34,0-.6.04-.82.13l-.22.09-.17-.04c-.26-.04-.47-.04-.73-.04h-.52c-.17,0-.34.04-.52.04-.47,0-1.03-.04-1.77-.47l-.17-.26c-.17-.3-.3-.47-.47-.52l-.43-.13-.04-.47c-.04-.39-.17-.77-.34-1.21Z"/>
      <path class="cls-1" d="m80.58,28.54c-.21-1.72-1.03-4.52-.69-6.41.17-1.03,1.16-1.81.95-2.71.34-.04.26-.52.69-.43.77-2.5,1.98-4.05,2.88-6.58-1.89-1.81-1.42-4.05-2.07-6.29,1.33-2.07,3.83-2.37,6.76-2.97,5.42-1.72,8.01-1.64,13.69-2.58.04.17.22.17.43.13.04.17.17.3.43.3,0,.13.17.09.3.13,0-.13-.17-.09-.3-.13v-.43c.26-.04.77.43.69-.13.69,1.12,1.76,1.85,3.06,2.41.21.95-.26.82.04,1.72-2.75,4.56-7.71,2.41-12.1,5.12-.86-.34-1.33.34-2.67.17-.43.39-1.12.47-1.72.69.3.65.13,1.29.3,1.72,2.33.22,5.38-.21,8.14-.3.04.3-.13.34-.13.6,1.03.6,1.72,2.28,3.06,2.11.26.56.39,1.21.17,1.85-2.24,1.46-4.22,3.23-7.36,3.14-.3,0-.47.04-.73-.13-.56.3-1.72,0-2.28.3-.78-.3-1.94-.22-2.71-.43-1.03,1.42-1.94,3.01-2.63,4.82,4.61.65,5.51-.47,9.73-.3,1.38-.65,3.4-.73,4.95-1.25,1.08.39,1.42,2.15,2.63,1.98.52.52.13,1.68.99,1.55-2.07,4.39-5.17,4.22-10.2,5.17-.6.13-.95-.09-1.42-.13-3.14.6-9.08,1.38-11.71-1.16-.47-.47-.47-1.16-1.16-1.55Z"/>
      <path class="cls-1" d="m106.36,26.86h.43c-.73-2.45,1.21-4.05.47-6.07.52.34.56-1.51.43-2.07,1.42-3.49,1.46-7.58,2.84-10.55.77-.13,1.85.26,2.07.73,3.53-2.67,4.78-8.39,9.94-8.91,1.33.95,3.27,1.89,4.3,3.57.47.26.86.6,1.33.86v.6c1.59,1.46,1.89,4.13,2.97,6.11-.26.69.21.86.13,1.76-.39,5.98-7.66,6.71-12.14,8.61,0,.26.34.13.3.43,3.27,2.02,3.14,2.28,6.63,3.06,3.49.82,3.36.9,6.41,1.16,1.25,1.25,1.68,3.53.9,4.48.04.22.34.13.6.13-.82.56-.9,1.81-2.07,1.94-2.07.78-5.08,0-9.9-1.89-4.82-1.85-5.55-2.63-8.09-4.82-.22,0-.13.26-.3.26-.3,2.28-.86,3.44-1.94,4.91-.86-.17-1.08.34-1.46.6-1.16.22-.86-.65-2.11-.6-.13-.52-.13-1.12-.86-1.03.3-1.03-.43-1.29-.17-2.24-.3.04-.47-.6-.73-1.03Zm10.37-11.88c2.32-.3,5.08-1.55,7.32-2.54-.21-2.07-1.64-3.31-2.93-3.75-1.38,2.15-3.87,3.23-4.39,6.28Z"/>
      <path class="cls-1" d="m134.98,28.54c-.21-1.72-1.03-4.52-.69-6.41.17-1.03,1.16-1.81.95-2.71.34-.04.26-.52.69-.43.78-2.5,1.98-4.05,2.88-6.58-1.89-1.81-1.42-4.05-2.07-6.29,1.33-2.07,3.83-2.37,6.76-2.97,5.42-1.72,8.01-1.64,13.69-2.58.04.17.21.17.43.13.04.17.17.3.43.3,0,.13.17.09.3.13,0-.13-.17-.09-.3-.13v-.43c.26-.04.78.43.69-.13.69,1.12,1.76,1.85,3.06,2.41.21.95-.26.82.04,1.72-2.75,4.56-7.71,2.41-12.1,5.12-.86-.34-1.33.34-2.67.17-.43.39-1.12.47-1.72.69.3.65.13,1.29.3,1.72,2.32.22,5.38-.21,8.14-.3.04.3-.13.34-.13.6,1.03.6,1.72,2.28,3.06,2.11.26.56.39,1.21.17,1.85-2.24,1.46-4.22,3.23-7.36,3.14-.3,0-.47.04-.73-.13-.56.3-1.72,0-2.28.3-.77-.3-1.94-.22-2.71-.43-1.03,1.42-1.94,3.01-2.62,4.82,4.61.65,5.51-.47,9.73-.3,1.38-.65,3.4-.73,4.95-1.25,1.08.39,1.42,2.15,2.63,1.98.52.52.13,1.68.99,1.55-2.07,4.39-5.17,4.22-10.2,5.17-.6.13-.95-.09-1.42-.13-3.14.6-9.08,1.38-11.71-1.16-.47-.47-.47-1.16-1.16-1.55Z"/>
      <path class="cls-1" d="m161.2,10.67c.21-.9.39-1.25.3-2.15,1.03-2.88,4.3-3.88,6.67-4.56,0-.21-.34-.13-.26-.43,6.11-1.16,12.1-4.95,19.46-2.75.43,1.33,1.85,2.41,1.94,3.62.69.6,1.16,1.21.9,2.41-.6.47-1.29.9-1.98,1.29-2.5-.6-5.17-.22-7.19-.04-1.29-1.29-3.49.47-5.04.21-.69.56-1.72.69-2.84.77-.04.34.26.3.13.69.78.95,2.97.52,3.31,1.89,1.98.04,2.97,2.11,2.93,3.31.17.56.47.17.77.56.22.82,1.29,1.76,1.72,2.8.09,1.68.34,2.97-.17,4.26-1.98,4.99-7.58,7.71-12.48,9.21-.21-.04-.65.13-.52-.26-.95.95-2.71.26-4.13.47-.43-.43-.82-.86-1.03-1.46-.3-.04-.13-.52-.39-.56,0-.17.04-.26.13-.39.47-.26-.39-.3-.26-.65.56-1.03-.77-3.01.82-3.87,4.61.52,8.01-2.11,11.19-3.62.39-1.16,1.64-1.46,1.89-2.67.13-.43-.39-.39-.39-.78-.34-.17-.52-.13-.52-.13-1.29-.73-3.19-1.16-4.26-1.76-.69.39-1.25.04-2.24-.17-2.28-.13-4.39-.39-6.37-1.25-.13-.3-.26-.65-.82-.56-.39-.52-.86-.99-1.16-1.59.17-.82.34-1.29-.13-1.85Z"/>
      <path class="cls-1" d="m186.12,6.59c-.26-.69-.56-1.42-.56-2.54.09-.47.3-.69.56-.99l.09-.65.6.04h1.42c2.11,0,4.35-.22,6.67-.43,1.33-.13,2.71-.26,4.18-.39.04-.04.13-.21.17-.3.09-.17.13-.34.26-.56l.21-.21.26-.04c.13,0,.22-.04.3-.04.86,0,1.33.47,1.64.82,1.46-.13,2.97-.34,4.56-.56,2.24-.3,4.61-.65,6.76-.65.95,0,1.81.09,2.58.22l.34.04.17.3c.21.39.6.73.99,1.03.86.69,1.89,1.55,1.68,3.53l-.04.26-.17.13c-.13.17-.26.26-.43.34-.09.04-.22.13-.22.17l-.21.39h-.52c-.39,0-.69.09-1.03.26-.21.09-.52.22-.86.3h-.17c-.34-.04-.73-.04-1.12-.04-1.68,0-3.75.26-5.6.52-1.33.17-2.63.34-3.7.52-.39,1.33-.9,2.45-1.38,3.53-.52,1.16-.99,2.24-1.38,3.62l-.09.17c-.52.82-1.03,1.68-1.25,2.84l-.04.21-.17.17c-.56.47-.95,1.81-1.16,2.62-.04.13-.09.26-.13.34l-.09.26-.26.22c-.04.13-.09.39-.34.65-.04.39-.17.73-.3,1.08-.13.3-.26.6-.21.77v.22c-.04.17-.13.34-.26.47,0,.34-.09.69-.13,1.03-.09.34-.17.69-.04,1.08.09.09.34.3.43.65.13.09.3.17.43.26.21.13.39.26.6.34l.34.13.09.34c.17.99.04,1.76-.43,2.37-.52.6-1.42.95-2.54.95h-.6l-.21-.22s-.09-.13-.13-.21l-.17-.09c-.3-.04-.65-.17-.9-.56-.13-.09-.3-.13-.43-.22-.22-.09-.43-.17-.65-.26l-.47-.26.09-.34c-.04-.09-.04-.17-.04-.26-.47-.6-.69-1.42-.86-2.11-.13-.6-.3-1.21-.65-1.72v-.21c0-3.4,1.08-5.98,2.07-8.44.52-1.33,1.08-2.71,1.46-4.22l.09-.34.34-.13s.13-.04.22-.13l.17-.17c0-.69.34-1.42.69-2.11.22-.47.43-.95.47-1.29-.34,0-.65.04-1.08.13-.3.04-.65.09-.99.09-.17,0-.34,0-.52-.04-.43.21-.86.26-1.21.26-.17,0-.34,0-.52-.04h-.47c-.34,0-.6.04-.82.13l-.21.09-.17-.04c-.26-.04-.47-.04-.73-.04h-.52c-.17,0-.34.04-.52.04-.47,0-1.03-.04-1.76-.47l-.17-.26c-.17-.3-.3-.47-.47-.52l-.43-.13-.04-.47c-.04-.39-.17-.77-.34-1.21Z"/>
      <path class="cls-1" d="m52.51,78.51h.43c-.73-2.45,1.21-4.05.47-6.07.52.34.56-1.51.43-2.07,1.42-3.49,1.46-7.58,2.84-10.55.77-.13,1.85.26,2.07.73,3.53-2.67,4.78-8.39,9.94-8.91,1.33.95,3.27,1.89,4.3,3.57.47.26.86.6,1.33.86v.6c1.59,1.46,1.89,4.13,2.97,6.11-.26.69.21.86.13,1.76-.39,5.98-7.66,6.71-12.14,8.61,0,.26.34.13.3.43,3.27,2.02,3.14,2.28,6.63,3.06,3.49.82,3.36.9,6.41,1.16,1.25,1.25,1.68,3.53.9,4.48.04.22.34.13.6.13-.82.56-.9,1.81-2.07,1.94-2.07.78-5.08,0-9.9-1.89-4.82-1.85-5.55-2.63-8.09-4.82-.22,0-.13.26-.3.26-.3,2.28-.86,3.44-1.94,4.91-.86-.17-1.08.34-1.46.6-1.16.22-.86-.65-2.11-.6-.13-.52-.13-1.12-.86-1.03.3-1.03-.43-1.29-.17-2.24-.3.04-.47-.6-.73-1.03Zm10.37-11.88c2.32-.3,5.08-1.55,7.32-2.54-.21-2.07-1.64-3.31-2.93-3.74-1.38,2.15-3.87,3.23-4.39,6.28Z"/>
      <path class="cls-1" d="m78.85,79.16l.56-.43-.3-.04.34-.82c1.33-3.4,2.84-6.5,4.48-9.77.52-1.03,1.03-2.15,1.55-3.23-.04-.17-.09-.43.04-.78l.13-.21c.6-.86,1.03-1.76,1.51-2.71.52-1.12,1.08-2.24,1.89-3.31l.34-.39h.52c.13-.04.39-.17.78-.17h.3l.43.09.09.34c1.72-1.29,3.1-2.8,4.56-5.04l.47-.73.69.43c.3.17.99.34,1.68.52,1.16.3,2.37.6,3.01,1.25l.17.17.04.21c.09.6.17,1.12.26,1.59.21,1.16.43,2.24.47,3.66.3,1.08.56,2.24.77,3.4.3,1.59.6,3.1,1.25,4.43.17,0,.3.04.39.04.34-.09.73-.17,1.16-.22l.56-.04.17.52c.09.17.26.3.52.47t.17.04c.65,0,1.03.39,1.33.69.13.13.3.3.39.34l.77.3-.43.77c-.6,1.21-1.98,2.37-3.49,3.1.04.39.09.73.17,1.12.21,1.16.39,2.37.26,3.66l-.09.22c-.9,2.28-3.19,4.82-6.03,4.91l-.26-.04c-.43-.13-.78-.39-1.08-.6-.17-.13-.34-.22-.52-.3l-.56-.26.17-.65c.13-.47-.04-.73-.65-1.29-.22-.17-.39-.34-.56-.56l-.86-.99,1.38-.34c1.68-.43,2.11-.99,2.02-2.75-.09-.09-.13-.17-.21-.3-1.08.13-1.98.34-2.88.56-1.25.34-2.41.6-3.87.6-.47,0-.99,0-1.51-.09l-.47-.04-.13-.47c-.04-.09-.17-.26-.3-.39-.3-.3-.86-.86-.65-1.72-.13-.3-.26-.6-.3-.95-.22.43-.34.86-.47,1.25l-.17.52-.52.13c-.09.04-.22.34-.17.47l.13.47-.39.39c-.13.13-.3.26-.43.39-.17.6-.34,1.16-.56,1.72-.3.9-.6,1.72-.56,2.54v.3l-.21.26c-.3.39-.73.6-1.12.82-.17.09-.47.22-.56.3l-.17.56-.6.09c-.09,0-.21.04-.34.04-.26.09-.56.17-.95.17-.09,0-.22,0-.3-.04h-.26l-.17-.17c-.43-.39-.86-.77-1.38-1.08l-.17-.13-.09-.22c-.21-.43-.26-.82-.34-1.16-.04-.39-.09-.65-.26-.77l-.6-.65Zm12.27-9.17c.39,0,.77-.04,1.12-.09,1.98-.13,3.49-.21,5.47-.65-.43-2.02-.99-4.22-1.59-6.41-.04.09-.13.22-.17.3l-.13.21c-1.29,1.38-2.67,3.31-3.57,4.91-.34.52-.73,1.12-1.12,1.72Z"/>
      <path class="cls-1" d="m108.55,58.24c-.26-.69-.56-1.42-.56-2.54.09-.47.3-.69.56-.99l.09-.65.6.04h1.42c2.11,0,4.35-.21,6.67-.43,1.33-.13,2.71-.26,4.17-.39.04-.04.13-.22.17-.3.09-.17.13-.34.26-.56l.21-.21.26-.04c.13,0,.21-.04.3-.04.86,0,1.33.47,1.64.82,1.46-.13,2.97-.34,4.56-.56,2.24-.3,4.61-.65,6.76-.65.95,0,1.81.09,2.58.21l.34.04.17.3c.21.39.6.73.99,1.03.86.69,1.89,1.55,1.68,3.53l-.04.26-.17.13c-.13.17-.26.26-.43.34-.09.04-.21.13-.21.17l-.22.39h-.52c-.39,0-.69.09-1.03.26-.22.09-.52.21-.86.3h-.17c-.34-.04-.73-.04-1.12-.04-1.68,0-3.75.26-5.6.52-1.33.17-2.63.34-3.7.52-.39,1.33-.9,2.45-1.38,3.53-.52,1.16-.99,2.24-1.38,3.62l-.09.17c-.52.82-1.03,1.68-1.25,2.84l-.04.21-.17.17c-.56.47-.95,1.81-1.16,2.62-.04.13-.09.26-.13.34l-.09.26-.26.22c-.04.13-.09.39-.34.65-.04.39-.17.73-.3,1.08-.13.3-.26.6-.21.77v.22c-.04.17-.13.34-.26.47,0,.34-.09.69-.13,1.03-.09.34-.17.69-.04,1.08.09.09.34.3.43.65.13.09.3.17.43.26.22.13.39.26.6.34l.34.13.09.34c.17.99.04,1.76-.43,2.37-.52.6-1.42.95-2.54.95h-.6l-.22-.22s-.09-.13-.13-.21l-.17-.09c-.3-.04-.65-.17-.9-.56-.13-.09-.3-.13-.43-.22-.21-.09-.43-.17-.65-.26l-.47-.26.09-.34c-.04-.09-.04-.17-.04-.26-.47-.6-.69-1.42-.86-2.11-.13-.6-.3-1.21-.65-1.72v-.21c0-3.4,1.08-5.98,2.07-8.44.52-1.33,1.08-2.71,1.46-4.22l.09-.34.34-.13s.13-.04.21-.13l.17-.17c0-.69.34-1.42.69-2.11.21-.47.43-.95.47-1.29-.34,0-.65.04-1.08.13-.3.04-.65.09-.99.09-.17,0-.34,0-.52-.04-.43.21-.86.26-1.21.26-.17,0-.34,0-.52-.04h-.47c-.34,0-.6.04-.82.13l-.22.09-.17-.04c-.26-.04-.47-.04-.73-.04h-.52c-.17,0-.34.04-.52.04-.47,0-1.03-.04-1.77-.47l-.17-.26c-.17-.3-.3-.47-.47-.52l-.43-.13-.04-.47c-.04-.39-.17-.77-.34-1.21Z"/>
      <path class="cls-1" d="m135.37,80.19c-.21-1.72-1.03-4.52-.69-6.41.17-1.03,1.16-1.81.95-2.71.34-.04.26-.52.69-.43.77-2.5,1.98-4.05,2.88-6.59-1.89-1.81-1.42-4.05-2.07-6.28,1.33-2.07,3.83-2.37,6.76-2.97,5.42-1.72,8.01-1.64,13.69-2.58.04.17.22.17.43.13.04.17.17.3.43.3,0,.13.17.09.3.13,0-.13-.17-.09-.3-.13v-.43c.26-.04.77.43.69-.13.69,1.12,1.76,1.85,3.06,2.41.21.95-.26.82.04,1.72-2.75,4.56-7.71,2.41-12.1,5.12-.86-.34-1.33.34-2.67.17-.43.39-1.12.47-1.72.69.3.65.13,1.29.3,1.72,2.33.21,5.38-.21,8.14-.3.04.3-.13.34-.13.6,1.03.6,1.72,2.28,3.06,2.11.26.56.39,1.21.17,1.85-2.24,1.46-4.22,3.23-7.36,3.14-.3,0-.47.04-.73-.13-.56.3-1.72,0-2.28.3-.78-.3-1.94-.22-2.71-.43-1.03,1.42-1.94,3.01-2.63,4.82,4.61.65,5.51-.47,9.73-.3,1.38-.65,3.4-.73,4.95-1.25,1.08.39,1.42,2.15,2.63,1.98.52.52.13,1.68.99,1.55-2.07,4.39-5.17,4.22-10.2,5.17-.6.13-.95-.09-1.42-.13-3.14.6-9.08,1.38-11.71-1.16-.47-.47-.47-1.16-1.16-1.55Z"/>
    </g>
  </g>
</svg>