<svg id="Layer_1" data-name="Layer 1" xmlns="http://www.w3.org/2000/svg" viewBox="0 0 72.71 50.91"><defs><style>.cls-1{fill:#528918;}</style></defs><path class="cls-1" d="M38.24,46.82c-.83,1.06,3.55,1.59,4.45.53a88.61,88.61,0,0,1,25-20.46l.75-.22c.68-.31,2-1.06.84-1.82C59.83,18.89,52,11.72,44.35,3.57c-.75-.76-5-.91-4.23.52A53.34,53.34,0,0,0,50.47,16.63a79,79,0,0,0,6,5.2c-2.94-.07-6,.16-8.91.23-4.6.08-9.13-.6-13.74-.53-9.36.15-18.64.83-28,.83-3.69,0-3.69,5.67,0,5.82,9.37.37,18.65-.15,28-.23,4.61,0,9.14.68,13.74.6,3.1-.07,6.42.31,9.67.15A74.53,74.53,0,0,0,38.24,46.82Z" transform="translate(0)"/><path class="cls-1" d="M42,0a6.59,6.59,0,0,1,4.45,1.44l.07.08c8.59,9.18,16.09,15.59,24.33,20.8a3.74,3.74,0,0,1,1.83,3.47c-.09,1.07-.69,2.57-3,3.62l-.27.1-.5.15h0A84.76,84.76,0,0,0,45,49.26c-2,2.3-6.77,2-8.59.46a3.36,3.36,0,0,1-.57-4.7A79.41,79.41,0,0,1,48.41,31.54c-.25,0-.54,0-.81,0-2.59,0-5.09-.13-7.51-.3-2.18-.16-4.23-.3-6.31-.3-3.07,0-6.22.1-9.26.17-6.16.15-12.53.31-18.87.05A5.82,5.82,0,0,1,0,25.08a5.7,5.7,0,0,1,5.77-5.72c5.21,0,10.51-.21,15.63-.42,4-.17,8.2-.34,12.33-.41,2.44,0,4.82.12,7.12.27s4.44.29,6.62.26l1.16,0-.24-.23A55.93,55.93,0,0,1,37.53,5.6l-.06-.11a3.51,3.51,0,0,1,1-4.55A6.21,6.21,0,0,1,42,0Zm4.79,25.07c-2.18,0-4.3-.14-6.36-.28-2.28-.15-4.44-.29-6.62-.26-4.06.07-8.19.24-12.19.4-3.46.14-7,.29-10.57.37,4.48,0,8.94-.07,13.3-.17,3.07-.08,6.24-.16,9.39-.18,2.31,0,4.57.16,6.75.31,2.4.17,4.67.33,7,.29,1.5,0,3.05,0,4.54.09,1.68.07,3.41.14,5,.07l7.26-.34.14-.09L64.09,25l-7.74-.2c-1.9,0-3.92,0-5.87.12-1,.05-1.94.09-2.88.11Z" transform="translate(0)"/></svg>