<svg id="Layer_1" data-name="Layer 1" xmlns="http://www.w3.org/2000/svg" viewBox="0 0 1256.59 139.83"><defs><style>.cls-1{fill:#fff;}</style></defs><path class="cls-1" d="M56.45,56.62a5.69,5.69,0,0,0,.4-2.5c1.2-3.4,5.1-4.6,7.9-5.4,0-.3-.4-.2-.3-.5,7.2-1.4,14.3-5.9,23-3.3.5,1.6,2.2,2.9,2.3,4.3a2.67,2.67,0,0,1,1.1,2.9,11.35,11.35,0,0,1-2.3,1.5c-3-.7-6.1-.3-8.5-.1-1.5-1.5-4.1.6-6,.3-.8.7-2,.8-3.4.9-.1.4.3.4.2.8.9,1.1,3.5.6,3.9,2.2,2.3.1,3.5,2.5,3.5,3.9.2.7.6.2.9.7.3,1,1.5,2.1,2,3.3.1,2,.4,3.5-.2,5-2.3,5.9-9,9.1-14.8,10.9-.3-.1-.8.2-.6-.3-1.1,1.1-3.2.3-4.9.6a4.07,4.07,0,0,1-1.2-1.7c-.4-.1-.2-.6-.5-.7,0-.2.1-.3.2-.5.6-.3-.5-.4-.3-.8.7-1.2-.9-3.6,1-4.6,5.5.6,9.5-2.5,13.3-4.3.5-1.4,1.9-1.7,2.2-3.2.2-.5-.5-.5-.5-.9a1.55,1.55,0,0,0-.6-.2c-1.5-.9-3.8-1.4-5-2.1-.8.5-1.5.1-2.7-.2a22.75,22.75,0,0,1-7.5-1.5c-.2-.4-.3-.8-1-.7a13.3,13.3,0,0,1-1.4-1.9C56.85,57.82,57.05,57.22,56.45,56.62Z"/><path class="cls-1" d="M86.35,78.92a22.33,22.33,0,0,1-1.5-3.1c.4-.4.3-1.8.9-1.3-.3-1.4.8-1.8.3-2.8a11.14,11.14,0,0,0,1.6-5.6,6.66,6.66,0,0,0,1.2-5.5c.1-.3.4-.3.7-.3,1-5.3.1-13.9,4.9-15.3.9,3.3,3.3,4.8,4.8,7.8a75.83,75.83,0,0,1-1.7,11.1c.1.4.7.2.4.9,3.9-1,8.4-1.5,11.8-3.2.5-3.2,1.4-6.2.9-9.4.4-.3.6-.9,1.1-1.1-.8-3.1.2-7.1,3.1-7.8,1.8,2.4,2.3,6.1,4.7,8,.2,2.3.4,4.8.4,7.4-.6,2.9-1.6,5.7-1.8,8.8-1.1,1.2-1.2,3.5-2.4,4.5.3.9-.2,1.6.4,2.8.3,4.1-2.9,5.3-5.7,6.2a5.93,5.93,0,0,0-1.9-1.1.6.6,0,0,0,.1-.4h.2c-.1-.3-.2-.1-.2,0-1-1.3-2.2-2.8-2.2-4.7,0-.2.7-3.8.7-4-3.7.4-8.3,3-10.4,4.2-.1.4-1.4,4.3-2.5,4.2.1.3.3.5.2.9-2.2.7-3.4,2.5-6.4,1,0-1-1.7-1.4-1.7-1.7C85.65,79.72,85.75,78.62,86.35,78.92Z"/><path class="cls-1" d="M119.05,75.92c0-.9.5-1.2.9-1.7,3.2-.2,4.9-.8,7.8-.9.1-.1.2-.1.4-.1a54.22,54.22,0,0,1,2.2-5.6c.9-3.3,2.7-5.5,3-8.4a32.8,32.8,0,0,0,1.8-6.7,21.26,21.26,0,0,0-4.7,1.1c-2.7-.2-2.8-1.9-3.7-3.7a2.56,2.56,0,0,0-.5-2.6,1.34,1.34,0,0,0,.7-1.5c2.2-.7,5.2-.2,6.9-1.2,3.4-.1,7.4-.3,10.6-.5,2.3.8,6.8-.4,7.8,2.9,2,.2,1.6,1.7,1.6,3.1-2.1,1.6-6.7,1.9-10.7,2-.6,4.3-3.8,12.8-3.7,14.1-1.4,3-1.6,4.1-2.7,6.4,0,0,1.9-.1,3.4-.1.3,1.4,2.2.9,2.2,2.2,2.5.7,1.1,2.8.2,4a1.82,1.82,0,0,0-1.6,1,24.63,24.63,0,0,0-5.5.2c-.3.1-.1.5-.3.6-4.1-1.4-8.6,1.2-13.4,1.4C120,80.62,119.55,78,119.05,75.92Z"/><path class="cls-1" d="M146.15,65.82v-.2c.5-2.6,2.8-3.4,4.4-3.8l.5-.1.3.4a10.63,10.63,0,0,0,1.1.9c.1.1.2.2.3.2a10.41,10.41,0,0,0,.6-1.6,9.49,9.49,0,0,1,.9-2.1,3.42,3.42,0,0,1,.2-1.5,1.91,1.91,0,0,0-.8-.3,6.37,6.37,0,0,0-.7-.2l-.2-.1-.2-.2a7.17,7.17,0,0,1-1.1-1.5,4.14,4.14,0,0,0-.9-1.2l-.6-.4.3-.6c.1-.2.2-.4-.2-.8l-.1-.3a3.54,3.54,0,0,1,.1-.6l-.1-.3.2-.3c.1-.1.2-.2.2-.3.2-.2.3-.3.3-.4l.1-.4.4-.1c1.5-.4,3.2-1,4.7-1.5s3.1-1.1,4.7-1.5a3.09,3.09,0,0,1,1.8-.5c.5-.1.9-.1,1.1-.3l.2-.2.2-.1a8.57,8.57,0,0,1,1.3-.3,45.79,45.79,0,0,1,9.4-1.7h1.1a4.87,4.87,0,0,1,1.2-.1c1.7,0,2.9.5,3.4,1.6a5.79,5.79,0,0,1,1.7,1.4,4.37,4.37,0,0,0,.8.7l.3.2.2.3a2.65,2.65,0,0,1,.2,2.3l-.1.2a1.89,1.89,0,0,1-1.3.7c-.2.1-.4.1-.5.2l-.2.2H181a5.72,5.72,0,0,0-1.4-.1c-4,0-11,1-14.8,2.5a10.91,10.91,0,0,1-1.1.6c-.2.1-.3.2-.5.2a6.62,6.62,0,0,1-.1,1.5,4.25,4.25,0,0,0-.2,1.1v.3l-.2.2a2.84,2.84,0,0,0-.8,2.5v.3l-.2.2a1.48,1.48,0,0,0-.4,1.3l.2.6c1.3-.1,2.6-.3,4-.5a35.57,35.57,0,0,1,5.8-.6h1.9l-.4.5.6.1-.3.8a.31.31,0,0,0,.2.1,2.09,2.09,0,0,1,.6.4l.3.2.1.3a1.51,1.51,0,0,1,.7,1.3l.1.3-.2.2-2.3,3-.3.4-.5-.2c-.1,0-.2-.1-.4-.1a8.87,8.87,0,0,0-1.4.3,5.66,5.66,0,0,1-1.8.3h-.3a19.09,19.09,0,0,1-3.3.6,16.7,16.7,0,0,0-4,.9l-.2.1-.3-.1c-.1-.1-.2-.1-.4-.1a8.35,8.35,0,0,0-2,.5,3.88,3.88,0,0,0-.6,1.1,4.59,4.59,0,0,1-.7,1.4c0,.1.1.2.1.3l-.1.6-.5.2a2.89,2.89,0,0,1-.4,1.4,2.54,2.54,0,0,0-.2.7,3.61,3.61,0,0,1,.3,2.1,4.22,4.22,0,0,1-2,2.8l-.3.1a3.77,3.77,0,0,1-1.6-.4,5.39,5.39,0,0,0-1-.3l-.4-.1-.2-.4c-.2-.4-.5-.8-.7-1.2a7.84,7.84,0,0,1-1-1.5l-.1-.3a9,9,0,0,1,.6-5,8.33,8.33,0,0,0,.4-1.5A8.22,8.22,0,0,1,146.15,65.82Z"/><path class="cls-1" d="M177.15,51.72a7.79,7.79,0,0,1-.7-3,2.4,2.4,0,0,1,.7-1.2l.1-.8.7.1h1.7c2.5,0,5.2-.3,7.9-.5,1.6-.2,3.2-.3,4.9-.5a.76.76,0,0,0,.2-.4,4.88,4.88,0,0,0,.3-.7l.3-.3.3-.1c.2,0,.3-.1.4-.1a2.34,2.34,0,0,1,1.9,1c1.7-.2,3.5-.4,5.4-.7a57,57,0,0,1,8-.8,15.53,15.53,0,0,1,3.1.3l.4.1.2.4a3.45,3.45,0,0,0,1.2,1.2,4.33,4.33,0,0,1,2,4.2l-.1.3-.2.2a1.76,1.76,0,0,1-.5.4,1.44,1.44,0,0,1-.3.2l-.3.5h-.6a2.38,2.38,0,0,0-1.2.3,10.37,10.37,0,0,1-1,.4h-.2a5.7,5.7,0,0,0-1.3-.1,52.18,52.18,0,0,0-6.6.6c-1.6.2-3.1.4-4.4.6-.5,1.6-1.1,2.9-1.6,4.2a27.32,27.32,0,0,0-1.6,4.3l-.1.2a10.62,10.62,0,0,0-1.5,3.4l-.1.3-.2.2c-.7.6-1.1,2.1-1.4,3.1-.1.2-.1.3-.2.4l-.1.3-.3.3a2,2,0,0,1-.4.8,5,5,0,0,1-.4,1.3,2.3,2.3,0,0,0-.3.9v.3l-.3.6a5,5,0,0,1-.2,1.2,2.77,2.77,0,0,0-.1,1.3,1.82,1.82,0,0,1,.5.8,2.19,2.19,0,0,1,.5.3,5.74,5.74,0,0,0,.7.4l.4.2.1.4a3.22,3.22,0,0,1-.5,2.8,3.92,3.92,0,0,1-3,1.1h-.7l-.3-.3c0-.1-.1-.2-.2-.3l-.2-.1a1.51,1.51,0,0,1-1.1-.7,2.19,2.19,0,0,1-.5-.3c-.3-.1-.5-.2-.8-.3l-.6-.3.1-.4a.37.37,0,0,1-.1-.3,6,6,0,0,1-1-2.5,7,7,0,0,0-.8-2v-.3c0-4,1.3-7.1,2.4-10a36.68,36.68,0,0,0,1.7-5l.1-.4.4-.2c.1,0,.2-.1.3-.2l.2-.2a6.09,6.09,0,0,1,.8-2.5,7.72,7.72,0,0,0,.6-1.5,6.88,6.88,0,0,0-1.3.2,4.87,4.87,0,0,1-1.2.1,1.27,1.27,0,0,1-.6-.1,2.54,2.54,0,0,1-1.4.3,1.27,1.27,0,0,1-.6-.1H184a3,3,0,0,0-1,.2l-.3.1-.2-.1a2.77,2.77,0,0,0-.9-.1H181c-.2,0-.4.1-.6.1a4,4,0,0,1-2.1-.6l-.2-.3q-.3-.6-.6-.6l-.5-.2-.1-.6C177.55,52.72,177.35,52.22,177.15,51.72Z"/><path class="cls-1" d="M227.05,51.72a7.79,7.79,0,0,1-.7-3,2.4,2.4,0,0,1,.7-1.2l.1-.8.7.1h1.7c2.5,0,5.2-.3,7.9-.5,1.6-.2,3.2-.3,4.9-.5a.76.76,0,0,0,.2-.4,4.88,4.88,0,0,0,.3-.7l.3-.3.3-.1c.2,0,.3-.1.4-.1a2.34,2.34,0,0,1,1.9,1c1.7-.2,3.5-.4,5.4-.7a57,57,0,0,1,8-.8,15.53,15.53,0,0,1,3.1.3l.4.1.2.4a3.45,3.45,0,0,0,1.2,1.2,4.33,4.33,0,0,1,2,4.2l-.1.3-.2.2a1.76,1.76,0,0,1-.5.4,1.44,1.44,0,0,1-.3.2l-.3.5h-.6a2.38,2.38,0,0,0-1.2.3,10.37,10.37,0,0,1-1,.4h-.2a5.7,5.7,0,0,0-1.3-.1,52.18,52.18,0,0,0-6.6.6c-1.6.2-3.1.4-4.4.6-.5,1.6-1.1,2.9-1.6,4.2a27.32,27.32,0,0,0-1.6,4.3l-.1.2a10.62,10.62,0,0,0-1.5,3.4l-.1.3-.2.2c-.7.6-1.1,2.1-1.4,3.1-.1.2-.1.3-.2.4l-.1.3-.3.3a2,2,0,0,1-.4.8,5,5,0,0,1-.4,1.3,2.3,2.3,0,0,0-.3.9v.3l-.3.6a5,5,0,0,1-.2,1.2,2.77,2.77,0,0,0-.1,1.3,1.82,1.82,0,0,1,.5.8,2.19,2.19,0,0,1,.5.3,5.74,5.74,0,0,0,.7.4l.4.2.1.4a3.22,3.22,0,0,1-.5,2.8,3.92,3.92,0,0,1-3,1.1h-.7l-.3-.3c0-.1-.1-.2-.2-.3l-.2-.1a1.51,1.51,0,0,1-1.1-.7,2.19,2.19,0,0,1-.5-.3c-.3-.1-.5-.2-.8-.3l-.6-.3.1-.4a.37.37,0,0,1-.1-.3,6,6,0,0,1-1-2.5,7,7,0,0,0-.8-2v-.3c0-4,1.3-7.1,2.4-10a36.68,36.68,0,0,0,1.7-5l.1-.4.4-.2c.1,0,.2-.1.3-.2l.2-.2a6.09,6.09,0,0,1,.8-2.5,7.72,7.72,0,0,0,.6-1.5,6.88,6.88,0,0,0-1.3.2,4.87,4.87,0,0,1-1.2.1,1.27,1.27,0,0,1-.6-.1,2.54,2.54,0,0,1-1.4.3,1.27,1.27,0,0,1-.6-.1h-.6a3,3,0,0,0-1,.2l-.3.1-.2-.1a2.77,2.77,0,0,0-.9-.1h-.6c-.2,0-.4.1-.6.1a4,4,0,0,1-2.1-.6l-.2-.3q-.3-.6-.6-.6l-.5-.2-.1-.6C227.45,52.72,227.25,52.22,227.05,51.72Z"/><path class="cls-1" d="M258.35,78.92a22.33,22.33,0,0,1-1.5-3.1c.4-.4.3-1.8.9-1.3-.3-1.4.8-1.8.3-2.8a11.14,11.14,0,0,0,1.6-5.6,6.66,6.66,0,0,0,1.2-5.5c.1-.3.4-.3.7-.3,1-5.3.1-13.9,4.9-15.3.9,3.3,3.3,4.8,4.8,7.8a75.83,75.83,0,0,1-1.7,11.1c.1.4.7.2.4.9,3.9-1,8.4-1.5,11.8-3.2.5-3.2,1.4-6.2.9-9.4.4-.3.6-.9,1.1-1.1-.8-3.1.2-7.1,3.1-7.8,1.8,2.4,2.3,6.1,4.7,8,.2,2.3.4,4.8.4,7.4-.6,2.9-1.6,5.7-1.8,8.8-1.1,1.2-1.2,3.5-2.4,4.5.3.9-.2,1.6.4,2.8.3,4.1-2.9,5.3-5.7,6.2a5.93,5.93,0,0,0-1.9-1.1.6.6,0,0,0,.1-.4h.2c-.1-.3-.2-.1-.2,0-1-1.3-2.2-2.8-2.2-4.7,0-.2.7-3.8.7-4-3.7.4-8.3,3-10.4,4.2-.1.4-1.4,4.3-2.5,4.2.1.3.3.5.2.9-2.2.7-3.4,2.5-6.4,1,0-1-1.7-1.4-1.7-1.7C257.75,79.72,257.85,78.62,258.35,78.92Z"/><path class="cls-1" d="M294.35,77.72c-.3-2-1.2-5.4-.8-7.6.2-1.2,1.4-2.1,1.1-3.2.4-.1.3-.6.8-.5.9-3,2.3-4.8,3.4-7.8-2.2-2.1-1.7-4.8-2.4-7.4,1.6-2.4,4.5-2.8,8-3.5,6.4-2,9.5-1.9,16.2-3.1.1.2.3.2.5.2.1.2.2.4.5.4,0,.2.2.1.4.2,0-.2-.2-.1-.4-.2v-.5c.3-.1.9.5.8-.2a8,8,0,0,0,3.6,2.9c.3,1.1-.3,1,.1,2-3.3,5.4-9.1,2.9-14.3,6.1-1-.4-1.6.4-3.2.2a4.45,4.45,0,0,1-2,.8c.4.8.2,1.5.4,2,2.8.3,6.4-.3,9.6-.4.1.4-.2.4-.2.7,1.2.7,2,2.7,3.6,2.5a2.79,2.79,0,0,1,.2,2.2c-2.7,1.7-5,3.8-8.7,3.7-.4,0-.6.1-.9-.2-.7.4-2,0-2.7.4a17.73,17.73,0,0,0-3.2-.5,26,26,0,0,0-3.1,5.7c5.5.8,6.5-.6,11.5-.4,1.6-.8,4-.9,5.9-1.5,1.3.5,1.7,2.5,3.1,2.3.6.6.2,2,1.2,1.8-2.4,5.2-6.1,5-12.1,6.1-.7.2-1.1-.1-1.7-.2-3.7.7-10.8,1.6-13.9-1.4C295.15,79,295.15,78.22,294.35,77.72Z"/><path class="cls-1" d="M343.75,63.12c1.2-3.6,3.7-5.9,5.9-8.5a1.07,1.07,0,0,1,.6.2c.6-1.5,2.2-1.9,3.1-3.2,3.3-.7,4.8-3.3,8.1-4,1.2-1.4,3.7-1.5,4.7-3.1.4.6,1.3.2,1.8,0,.8-.2,1.1,1.2,1.5.4.5.1.1.6,0,.7.7-.1.9.5,1.8.6.4.4.1.5,0,.9,4.8,1.5,2,7-1.6,7.9s-7.2,2-9.4,4.4c-3.7,1.1-5.8,3.9-8.3,6.2a3.44,3.44,0,0,1-.9,2.2,6.76,6.76,0,0,0,1.1,2.9c5.3,1.6,11.4,1.8,17.3,1.8,1.2,1.6,3.4,2.5,3,5.2a41.58,41.58,0,0,1-3.9,3.2c-1.2.1-3.4-.3-4.9.4a45.45,45.45,0,0,1-12.5-2.4,5.79,5.79,0,0,0-2.8-2C344.65,73.92,343.65,67.92,343.75,63.12Z"/><path class="cls-1" d="M377,56.42l-.1-.3c-.1-.1-.1-.3-.2-.4a15.94,15.94,0,0,0,.8-3.5,14,14,0,0,1,.6-2.4,3.47,3.47,0,0,0,2-1.7c1.1,0,1.3.4,1.7,1.3a4,4,0,0,0,2,2.1,18,18,0,0,0,.8,2.1,15,15,0,0,1,1.3,4.3,16,16,0,0,0-.7,10.9l.3.8.2.1.8-.2c4.8-1.2,7.4-2.9,10.7-6.6s4.9-9.7,5.2-14.1a1.73,1.73,0,0,0,1.1-1.4l-.1-.4-.1-.3a1,1,0,0,1,0-.9,3.51,3.51,0,0,1,1.7-1.7,16.7,16.7,0,0,1,3.1,2.8,11.11,11.11,0,0,0,1.1,4.1,15.51,15.51,0,0,1,1,3.6,29.59,29.59,0,0,0-1.2,5.6l-.1.5c-1.2,2.1-2.5,4.4-3.2,6a13,13,0,0,0-1,1.5,5.3,5.3,0,0,1-.6,1l-1.2-.5-.3-.1v1.6a.52.52,0,0,1-.2.4l-.7-.2-.2.1-.4.6c-3,5.3-6.6,6.8-13.3,9.6-1.3-.2-2.2-.2-3.1-.3s-1.7-.1-2.9-.2a1.34,1.34,0,0,0-1.2-.8h-.2a6.64,6.64,0,0,1-2.3-3.4,16.65,16.65,0,0,0-1.2-2.3l1-.3.3-.1-.3-.2-1.3-1.2a4.35,4.35,0,0,1-.7-.6l-.1-1c-.2-5.5-.4-10.1.8-13.6Z"/><path class="cls-1" d="M409.35,75.72h.5c-.9-2.9,1.4-4.8.6-7.2.6.4.7-1.8.5-2.4,1.7-4.1,1.7-9,3.4-12.5.9-.2,2.2.3,2.4.9,4.2-3.2,5.7-9.9,11.8-10.6,1.6,1.1,3.9,2.2,5.1,4.2.6.3,1,.7,1.6,1v.7c1.9,1.7,2.2,4.9,3.5,7.2-.3.8.3,1,.2,2.1-.5,7.1-9.1,8-14.4,10.2,0,.3.4.2.4.5,3.9,2.4,3.7,2.7,7.9,3.6s4,1.1,7.6,1.4c1.5,1.5,2,4.2,1.1,5.3.1.3.4.2.7.2-1,.7-1.1,2.1-2.4,2.3-2.4.9-6,0-11.7-2.2s-6.6-3.1-9.6-5.7c-.3,0-.2.3-.4.3a10.94,10.94,0,0,1-2.3,5.8c-1-.2-1.3.4-1.7.7-1.4.3-1-.8-2.5-.7-.2-.6-.2-1.3-1-1.2.4-1.2-.5-1.5-.2-2.7C409.85,77,409.65,76.22,409.35,75.72Zm12.3-14a35.93,35.93,0,0,0,8.7-3,5.17,5.17,0,0,0-3.5-4.4C425.25,56.82,422.25,58,421.65,61.72Z"/><path class="cls-1" d="M444.25,56.82c0-3.6-1.1-8.5-.3-10.2v.2c.3,0,.2-.2,0-.2.5-1,1.4-1.4,2.1-2.1,1.7.2,3,1.7,2.7,2.9,5,3,3.5,12.6,4.8,17,5.9-8.5,7.1-12.4,15.1-20.2,1.7.2,1.6,1,3.5.7a25.13,25.13,0,0,1,1.3,3.3c.5.5-.4,1.8.4,1.5-.3,1.1-1.1,1.9-1.1,3.1-3.5,4.8-9.1,10-11.9,16.6-.8,0-.7,1.1-1.4,1.1-.1,2.1-1.9,4.1-3.3,5.5.3,1-.1,1.3-.1,2.3-1.2,3.1-4,4.3-6.2,2.9-.9-.6-1.3-1.9-2.3-2.2.2-1.3-.4-3-1-3.1-.5-3.4-2-7.9-1.8-11.1.1-.8-.5-1.4-.6-2.2A55.14,55.14,0,0,1,444.25,56.82Z"/><path class="cls-1" d="M471.55,77.72c-.3-2-1.2-5.4-.8-7.6.2-1.2,1.4-2.1,1.1-3.2.4-.1.3-.6.8-.5.9-3,2.3-4.8,3.4-7.8-2.2-2.1-1.7-4.8-2.4-7.4,1.6-2.4,4.5-2.8,8-3.5,6.4-2,9.5-1.9,16.2-3.1.1.2.3.2.5.2.1.2.2.4.5.4,0,.2.2.1.4.2,0-.2-.2-.1-.4-.2v-.5c.3-.1.9.5.8-.2a8,8,0,0,0,3.6,2.9c.3,1.1-.3,1,.1,2-3.3,5.4-9.1,2.9-14.3,6.1-1-.4-1.6.4-3.2.2a4.45,4.45,0,0,1-2,.8c.4.8.2,1.5.4,2,2.8.3,6.4-.3,9.6-.4.1.4-.2.4-.2.7,1.2.7,2,2.7,3.6,2.5a2.79,2.79,0,0,1,.2,2.2c-2.7,1.7-5,3.8-8.7,3.7-.4,0-.6.1-.9-.2-.7.4-2,0-2.7.4a17.73,17.73,0,0,0-3.2-.5,26,26,0,0,0-3.1,5.7c5.5.8,6.5-.6,11.5-.4,1.6-.8,4-.9,5.9-1.5,1.3.5,1.7,2.5,3.1,2.3.6.6.2,2,1.2,1.8-2.4,5.2-6.1,5-12.1,6.1-.7.2-1.1-.1-1.7-.2-3.7.7-10.8,1.6-13.9-1.4C472.35,79,472.35,78.22,471.55,77.72Z"/><path class="cls-1" d="M731,83c-2.1-2.3-3.6-8.4-2.1-11.8.1-.2,6.2-15.1,8.6-18.8.6-.9,1.1-1.8,1.6-2.5,1.4-2.4,2.4-4,5-5a4.2,4.2,0,0,1,1.8,1.3l.2.7c.2.5.5.6.7.6s.2-.1.3-.1a5.31,5.31,0,0,0,1.9.6c.3.4.5.7.8,1.1,1.3,1.9,2.4,3.6,1.6,5.7l-.1.3.2.3a1.81,1.81,0,0,1,.2,1.5,3.17,3.17,0,0,0,.1,1.9l.1.3.3.1a3.43,3.43,0,0,0,1.6.4,6.52,6.52,0,0,0,3.3-1.4,5,5,0,0,1,1.9-1l.3-.2a27.17,27.17,0,0,1,3.5-3.2c2.4-1.9,4.8-4,6.2-7.3a1.92,1.92,0,0,1,1.2-.4,7.64,7.64,0,0,1,2.8.9l.6.3a1.93,1.93,0,0,0,.6,1.2c.2.1.3.2.4.2a2.18,2.18,0,0,1,1.1,1,4.08,4.08,0,0,0,1.5,2.1,3.61,3.61,0,0,0,.4,2.1c.1.3.2.5.3.8a.76.76,0,0,0-.2.4l-.9-.5.2,1.1a6.67,6.67,0,0,1-.7,3.5l-.1.4c.4,3.2.1,4.5-.8,6.5l-.1.3c.3,4.7-1.5,8.9-3.2,12.5l-.6,1.2a9.82,9.82,0,0,0-1.8.8,5.29,5.29,0,0,1-2.3.8h-.3c-2.8-2.3-2.9-8.2-.4-16.9.2-.1.3-.3.3-.8v-.5l-.6-.1c-.1,0-.6.1-.7.5-4.1,3.1-10.1,7-15.4,7-3.4,0-5.8-1.6-7.5-5l-.5-.9-.5.8c-.4.6-2.2,4.4-2.1,6.4a7.46,7.46,0,0,0-2,2.8,1.64,1.64,0,0,0,.1,1,.35.35,0,0,0,.1.2,1.7,1.7,0,0,1-.6.6,4.81,4.81,0,0,0-.9,1.1,2.66,2.66,0,0,0-.3,1.2c0,.3-.1.6-.1.8-1.4,2.8-1.8,3.3-3.2,3.3C732.15,83.12,731.55,83.12,731,83Z"/><path class="cls-1" d="M778.25,75.42c-1.2-9,4.5-14.5,8.7-19.6.9.3,1-1.1,1.8-1.3.6-1.2,1.9-1.5,2.5-2.6,1.4-.3,1.8-1.5,3.1-1.9v-.6a6.1,6.1,0,0,0,2.8-2.7,15.41,15.41,0,0,0,1.9-.2,5.32,5.32,0,0,1,2-2.2c1,.5,2.2.4,3.1,1.3.1,1.6,1.9,1.5,2.2,3,.3,0,.3-.2.6-.2.3,1.1.6,1.1.9,2.1-.4.8-.5,1.8-1.2,2.2-.1.5.6.3.6.8a.72.72,0,0,1-.2.8c1.9,3.1,3.2,6.7,5.1,9.8-.2,1.9,1.2,3.5,1.4,5.3.3,2.2-.6,5.5-2.3,6.5-1,1.4-2.9,1.9-4.2,3.1-.1-.1-.2-.2-.2-.3-.7,1-1.8,1-3,1.2-1.8,1-5,2.2-7,2a13,13,0,0,1-7.4.6C783.85,83.52,780,79.72,778.25,75.42Zm7.9-2.4c2.7,2.2,7.5.5,10.7.4,0-.3.1-.5.4-.4,2.8-.3,5-1.8,7.6-3.2.4-.8,1.1-1.2,1.1-2.3a2.73,2.73,0,0,1-.4-1.6c-1.7-2.4-2.8-5.5-4.4-7.9-.2.3-.6.8-1.1.4-.4,1.3-1.7.9-2.5.3-2.2,1.8-4.7,3.5-6.5,5.8-.3.2-.3-.1-.7.1C789,67.62,786.25,69.22,786.15,73Z"/><path class="cls-1" d="M817.85,58c0-3.6-1.1-8.5-.3-10.2V48c.3,0,.2-.2,0-.2.5-1,1.4-1.4,2.1-2.1,1.7.2,3,1.7,2.7,2.9,5,3,3.5,12.6,4.8,17,5.9-8.5,7.1-12.4,15.1-20.2,1.7.2,1.6,1,3.5.7a25.13,25.13,0,0,1,1.3,3.3c.5.5-.4,1.8.4,1.5-.3,1.1-1.1,1.9-1.1,3.1-3.5,4.8-9.1,10-11.9,16.6-.8,0-.7,1.1-1.4,1.1-.1,2.1-1.9,4.1-3.3,5.5.3,1-.1,1.3-.1,2.3-1.2,3.1-4,4.3-6.2,2.9-.9-.6-1.3-1.9-2.3-2.2.2-1.3-.4-3-1-3.1-.5-3.4-2-7.9-1.8-11.1.1-.8-.5-1.4-.6-2.2C817.65,61.92,817.85,59.82,817.85,58Z"/><path class="cls-1" d="M845.25,78.92c-.3-2-1.2-5.4-.8-7.6.2-1.2,1.4-2.1,1.1-3.2.4-.1.3-.6.8-.5.9-3,2.3-4.8,3.4-7.8-2.2-2.1-1.7-4.8-2.4-7.4,1.6-2.4,4.5-2.8,8-3.5,6.4-2,9.5-1.9,16.2-3.1.1.2.3.2.5.2.1.2.2.4.5.4,0,.2.2.1.4.2,0-.2-.2-.1-.4-.2v-.5c.3-.1.9.5.8-.2a8,8,0,0,0,3.6,2.9c.3,1.1-.3,1,.1,2-3.3,5.4-9.1,2.9-14.3,6.1-1-.4-1.6.4-3.2.2a4.45,4.45,0,0,1-2,.8c.4.8.2,1.5.4,2,2.8.3,6.4-.3,9.6-.4.1.4-.2.4-.2.7,1.2.7,2,2.7,3.6,2.5a2.79,2.79,0,0,1,.2,2.2c-2.7,1.7-5,3.8-8.7,3.7-.4,0-.6.1-.9-.2-.7.4-2,0-2.7.4a17.73,17.73,0,0,0-3.2-.5,26,26,0,0,0-3.1,5.7c5.5.8,6.5-.6,11.5-.4,1.6-.8,4-.9,5.9-1.5,1.3.5,1.7,2.5,3.1,2.3.6.6.2,2,1.2,1.8-2.4,5.2-6.1,5-12.1,6.1-.7.2-1.1-.1-1.7-.2-3.7.7-10.8,1.6-13.9-1.4C846.05,80.22,846.05,79.42,845.25,78.92Z"/><path class="cls-1" d="M895.35,52.92a7.79,7.79,0,0,1-.7-3,2.4,2.4,0,0,1,.7-1.2l.1-.8.7.1h1.7c2.5,0,5.2-.3,7.9-.5,1.6-.2,3.2-.3,4.9-.5a.76.76,0,0,0,.2-.4,4.88,4.88,0,0,0,.3-.7l.3-.3.3-.1c.2,0,.3-.1.4-.1a2.34,2.34,0,0,1,1.9,1c1.7-.2,3.5-.4,5.4-.7a57,57,0,0,1,8-.8,15.53,15.53,0,0,1,3.1.3l.4.1.2.4a3.45,3.45,0,0,0,1.2,1.2,4.33,4.33,0,0,1,2,4.2l-.1.3-.2.2a1.76,1.76,0,0,1-.5.4,1.44,1.44,0,0,1-.3.2l-.3.5h-.6a2.38,2.38,0,0,0-1.2.3,10.37,10.37,0,0,1-1,.4H930a5.7,5.7,0,0,0-1.3-.1,52.18,52.18,0,0,0-6.6.6c-1.6.2-3.1.4-4.4.6-.5,1.6-1.1,2.9-1.6,4.2a27.32,27.32,0,0,0-1.6,4.3l-.1.2a10.62,10.62,0,0,0-1.5,3.4l-.1.3-.2.2c-.7.6-1.1,2.1-1.4,3.1-.1.2-.1.3-.2.4l-.1.3-.3.3a2,2,0,0,1-.4.8,5,5,0,0,1-.4,1.3,2.3,2.3,0,0,0-.3.9v.3l-.3.6a5,5,0,0,1-.2,1.2,2.77,2.77,0,0,0-.1,1.3,1.82,1.82,0,0,1,.5.8,2.19,2.19,0,0,1,.5.3,5.74,5.74,0,0,0,.7.4l.4.2.1.4a3.22,3.22,0,0,1-.5,2.8,3.92,3.92,0,0,1-3,1.1h-.7l-.3-.3c0-.1-.1-.2-.2-.3l-.2-.1a1.51,1.51,0,0,1-1.1-.7,2.19,2.19,0,0,1-.5-.3c-.3-.1-.5-.2-.8-.3l-.6-.3.1-.4a.37.37,0,0,1-.1-.3,6,6,0,0,1-1-2.5,7,7,0,0,0-.8-2v-.3c0-4,1.3-7.1,2.4-10a36.68,36.68,0,0,0,1.7-5l.1-.4.4-.2c.1,0,.2-.1.3-.2l.2-.2a6.09,6.09,0,0,1,.8-2.5,7.72,7.72,0,0,0,.6-1.5,6.88,6.88,0,0,0-1.3.2,4.87,4.87,0,0,1-1.2.1,1.27,1.27,0,0,1-.6-.1,2.54,2.54,0,0,1-1.4.3,1.27,1.27,0,0,1-.6-.1h-.6a3,3,0,0,0-1,.2l-.3.1-.2-.1a2.77,2.77,0,0,0-.9-.1h-.6c-.2,0-.4.1-.6.1a4,4,0,0,1-2.1-.6l-.2-.3q-.3-.6-.6-.6l-.5-.2-.1-.6C895.65,53.92,895.55,53.52,895.35,52.92Z"/><path class="cls-1" d="M926.65,80.22a22.33,22.33,0,0,1-1.5-3.1c.4-.4.3-1.8.9-1.3-.3-1.4.8-1.8.3-2.8a11.14,11.14,0,0,0,1.6-5.6,6.66,6.66,0,0,0,1.2-5.5c.1-.3.4-.3.7-.3,1-5.3.1-13.9,4.9-15.3.9,3.3,3.3,4.8,4.8,7.8a75.83,75.83,0,0,1-1.7,11.1c.1.4.7.2.4.9,3.9-1,8.4-1.5,11.8-3.2.5-3.2,1.4-6.2.9-9.4.4-.3.6-.9,1.1-1.1-.8-3.1.2-7.1,3.1-7.8,1.8,2.4,2.3,6.1,4.7,8,.2,2.3.4,4.8.4,7.4-.6,2.9-1.6,5.7-1.8,8.8-1.1,1.2-1.2,3.5-2.4,4.5.3.9-.2,1.6.4,2.8.3,4.1-2.9,5.3-5.7,6.2a5.93,5.93,0,0,0-1.9-1.1.6.6,0,0,0,.1-.4h.2c-.1-.3-.2-.1-.2,0-1-1.3-2.2-2.8-2.2-4.7,0-.2.7-3.8.7-4-3.7.4-8.3,3-10.4,4.2-.1.4-1.4,4.3-2.5,4.2.1.3.3.5.2.9-2.2.7-3.4,2.5-6.4,1,0-1-1.7-1.4-1.7-1.7C926.05,80.92,926.15,79.82,926.65,80.22Z"/><path class="cls-1" d="M962.55,78.92c-.3-2-1.2-5.4-.8-7.6.2-1.2,1.4-2.1,1.1-3.2.4-.1.3-.6.8-.5.9-3,2.3-4.8,3.4-7.8-2.2-2.1-1.7-4.8-2.4-7.4,1.6-2.4,4.5-2.8,8-3.5,6.4-2,9.5-1.9,16.2-3.1.1.2.3.2.5.2.1.2.2.4.5.4,0,.2.2.1.4.2,0-.2-.2-.1-.4-.2v-.5c.3-.1.9.5.8-.2a8,8,0,0,0,3.6,2.9c.3,1.1-.3,1,.1,2-3.3,5.4-9.1,2.9-14.3,6.1-1-.4-1.6.4-3.2.2a4.45,4.45,0,0,1-2,.8c.4.8.2,1.5.4,2,2.8.3,6.4-.3,9.6-.4.1.4-.2.4-.2.7,1.2.7,2,2.7,3.6,2.5a2.79,2.79,0,0,1,.2,2.2c-2.7,1.7-5,3.8-8.7,3.7-.4,0-.6.1-.9-.2-.7.4-2,0-2.7.4a17.73,17.73,0,0,0-3.2-.5,26,26,0,0,0-3.1,5.7c5.5.8,6.5-.6,11.5-.4,1.6-.8,4-.9,5.9-1.5,1.3.5,1.7,2.5,3.1,2.3.6.6.2,2,1.2,1.8-2.4,5.2-6.1,5-12.1,6.1-.7.2-1.1-.1-1.7-.2-3.7.7-10.8,1.6-13.9-1.4C963.35,80.22,963.35,79.42,962.55,78.92Z"/><path class="cls-1" d="M1014.85,68.22c-.6-.5-.5-1.6-1-2.2.1-.4.2-.8.6-.7-.5-3,1.3-4.9,2.8-7.2.6-.1.5.4.9,0a2.87,2.87,0,0,0,1.4-2.7c1.2-3.4,3.2-6.9,5.8-8.1,1.8-1.7,6.1-2.7,9-1.9.4.1.3-.3.6-.4,3.2.4,5.9,1.3,7.8,3,2.6,3.9,4.9,9.3,2.8,14.7-4.6,5.7-13.8,6.6-21.5,8.3.2,3.7-.2,8.3-2.5,11.6a12.39,12.39,0,0,0-4,.7c-.6-.3-1-.7-1.7-.7.4-1.5-3-3.5-1.1-4.9a1.37,1.37,0,0,1-.4-1.1.76.76,0,0,0,.5.2c-.3-2.4,2.4-7-.4-8.3C1014.25,68.22,1014.55,68.22,1014.85,68.22ZM1026,60c.2.4.7.5.8.9,1.9-1,3.7-.7,5.6-1.6s4.5-1.1,6.1-2.5c-1.9-1.7-8-3-11.2-.1C1026.65,58.22,1026.45,58.82,1026,60Z"/><path class="cls-1" d="M1044.25,75.42c-1.2-9,4.5-14.5,8.7-19.6.9.3,1-1.1,1.8-1.3.6-1.2,1.9-1.5,2.5-2.6,1.4-.3,1.8-1.5,3.1-1.9v-.6a6.1,6.1,0,0,0,2.8-2.7,15.41,15.41,0,0,0,1.9-.2,5.32,5.32,0,0,1,2-2.2c1,.5,2.2.4,3.1,1.3.1,1.6,1.9,1.5,2.2,3,.3,0,.3-.2.6-.2.3,1.1.6,1.1.9,2.1-.4.8-.5,1.8-1.2,2.2-.1.5.6.3.6.8a.72.72,0,0,1-.2.8c1.9,3.1,3.2,6.7,5.1,9.8-.2,1.9,1.2,3.5,1.4,5.3.3,2.2-.6,5.5-2.3,6.5-1,1.4-2.9,1.9-4.2,3.1-.1-.1-.2-.2-.2-.3-.7,1-1.8,1-3,1.2-1.8,1-5,2.2-7,2a13,13,0,0,1-7.4.6C1049.75,83.52,1046,79.72,1044.25,75.42Zm7.8-2.4c2.7,2.2,7.5.5,10.7.4,0-.3.1-.5.4-.4,2.8-.3,5-1.8,7.6-3.2.4-.8,1.1-1.2,1.1-2.3a2.73,2.73,0,0,1-.4-1.6c-1.7-2.4-2.8-5.5-4.4-7.9-.2.3-.6.8-1.1.4-.4,1.3-1.7.9-2.5.3-2.2,1.8-4.7,3.5-6.5,5.8-.3.2-.3-.1-.7.1C1055,67.62,1052.25,69.22,1052.05,73Z"/><path class="cls-1" d="M1077.65,77.12c0-.9.5-1.2.9-1.7,3.2-.2,4.9-.8,7.8-.9.1-.1.2-.1.4-.1a54.22,54.22,0,0,1,2.2-5.6c.9-3.3,2.7-5.5,3-8.4a32.8,32.8,0,0,0,1.8-6.7,21.26,21.26,0,0,0-4.7,1.1c-2.7-.2-2.8-1.9-3.7-3.7a2.56,2.56,0,0,0-.5-2.6,1.34,1.34,0,0,0,.7-1.5c2.2-.7,5.2-.2,6.9-1.2,3.4-.1,7.4-.3,10.6-.5,2.3.8,6.8-.4,7.8,2.9,2,.2,1.6,1.7,1.6,3.1-2.1,1.6-6.7,1.9-10.7,2-.6,4.3-3.8,12.8-3.7,14.1-1.4,3-1.6,4.1-2.7,6.4,0,0,1.9-.1,3.4-.1.3,1.4,2.2.9,2.2,2.2,2.5.7,1.1,2.8.2,4a1.82,1.82,0,0,0-1.6,1,24.63,24.63,0,0,0-5.5.2c-.3.1-.1.5-.3.6-4.1-1.4-8.6,1.2-13.4,1.4C1078.55,81.82,1078.15,79.32,1077.65,77.12Z"/><path class="cls-1" d="M1112.15,81.42c-.2.3.1.2.2.8-.9-.2-1.2.3-1.8.4-3-1-3.9-5.3-5.1-7.5,0-.2.3-.1.5-.1-.4-.7-.4-1.6-.9-2.1,3.9-8.3,8.9-18.1,13-27.2,3.7,1.3,7.3,3.6,8,7.5-.2.4-.4.1-.5.3.7.7-.2.6.4,1.5-.3-.1-.4.2-.7.1.7,1.8-.9,1.8-.4,3.5-.5-.1-.3.6-.8.5.4,3.5-.5,6.9.5,11.1,5.7-3.4,6.4-10.9,7.6-18.6,1.5-1.4,1.4-4.4,2.4-6.3,2.5.3,3,2.8,5.4,3.1a11,11,0,0,1,2.1,4c-.8,1.3-.6,3.3-2.1,4.3-.4,4-1.7,6.5-1.6,10.8a54.08,54.08,0,0,0-1.8,5.8c-1.2,1-1.8,2.5-2.6,4-.3.3-.3-.1-.8-.1.1.6-.5.5-.2,1.3-2.2,1-3,4.1-7.4,2.5a20,20,0,0,1-7.4-9.6c-1.4.4-1.1,3.1-2.2,3.1-.2,1.2-1.8,1.9-1.1,3.5C1113.45,78.82,1114.75,81.62,1112.15,81.42Z"/><path class="cls-1" d="M1141.35,52.92a7.79,7.79,0,0,1-.7-3,2.4,2.4,0,0,1,.7-1.2l.1-.8.7.1h1.7c2.5,0,5.2-.3,7.9-.5,1.6-.2,3.2-.3,4.9-.5a.76.76,0,0,0,.2-.4,4.88,4.88,0,0,0,.3-.7l.3-.3.3-.1c.2,0,.3-.1.4-.1a2.34,2.34,0,0,1,1.9,1c1.7-.2,3.5-.4,5.4-.7a57,57,0,0,1,8-.8,15.53,15.53,0,0,1,3.1.3l.4.1.2.4a3.45,3.45,0,0,0,1.2,1.2,4.33,4.33,0,0,1,2,4.2l-.1.3-.2.2a1.76,1.76,0,0,1-.5.4,1.44,1.44,0,0,1-.3.2l-.3.5h-.6a2.38,2.38,0,0,0-1.2.3,10.37,10.37,0,0,1-1,.4h-.2a5.7,5.7,0,0,0-1.3-.1,52.18,52.18,0,0,0-6.6.6c-1.6.2-3.1.4-4.4.6-.5,1.6-1.1,2.9-1.6,4.2a27.32,27.32,0,0,0-1.6,4.3l-.1.2a10.62,10.62,0,0,0-1.5,3.4l-.1.3-.2.2c-.7.6-1.1,2.1-1.4,3.1-.1.2-.1.3-.2.4l-.1.3-.3.3a2,2,0,0,1-.4.8,5,5,0,0,1-.4,1.3,2.3,2.3,0,0,0-.3.9v.3l-.3.6a5,5,0,0,1-.2,1.2,2.77,2.77,0,0,0-.1,1.3,1.82,1.82,0,0,1,.5.8,2.19,2.19,0,0,1,.5.3,5.74,5.74,0,0,0,.7.4l.4.2.1.4a3.22,3.22,0,0,1-.5,2.8,3.92,3.92,0,0,1-3,1.1h-.7l-.3-.3c0-.1-.1-.2-.2-.3l-.2-.1a1.51,1.51,0,0,1-1.1-.7,2.19,2.19,0,0,1-.5-.3c-.3-.1-.5-.2-.8-.3l-.6-.3.1-.4a.37.37,0,0,1-.1-.3,6,6,0,0,1-1-2.5,7,7,0,0,0-.8-2v-.3c0-4,1.3-7.1,2.4-10a36.68,36.68,0,0,0,1.7-5l.1-.4.4-.2c.1,0,.2-.1.3-.2l.2-.2a6.09,6.09,0,0,1,.8-2.5,7.72,7.72,0,0,0,.6-1.5,6.88,6.88,0,0,0-1.3.2,4.87,4.87,0,0,1-1.2.1,1.27,1.27,0,0,1-.6-.1,2.54,2.54,0,0,1-1.4.3,1.27,1.27,0,0,1-.6-.1h-.6a3,3,0,0,0-1,.2l-.3.1-.2-.1a2.77,2.77,0,0,0-.9-.1h-.6c-.2,0-.4.1-.6.1a4,4,0,0,1-2.1-.6l-.2-.3q-.3-.6-.6-.6l-.5-.2-.1-.6C1141.75,53.92,1141.55,53.52,1141.35,52.92Z"/><path class="cls-1" d="M576.05,72.92c-1.5-10.8,5.4-17.4,10.4-23.4,1,.4,1.2-1.3,2.2-1.5.7-1.4,2.3-1.8,3-3.1,1.6-.4,2.2-1.8,3.7-2.3v-.7c1.8-.8,2.3-1.7,3.4-3.2a21.51,21.51,0,0,0,2.3-.2,6,6,0,0,1,2.4-2.6c1.2.6,2.7.5,3.7,1.5.1,1.9,2.3,1.8,2.6,3.5.3,0,.4-.2.7-.2.3,1.3.7,1.3,1.1,2.6-.4,1-.5,2.2-1.5,2.6-.1.6.7.4.7.9a.9.9,0,0,1-.2.9c2.3,3.7,3.8,8.1,6.1,11.7-.2,2.3,1.4,4.2,1.7,6.3.4,2.7-.7,6.5-2.8,7.8-1.2,1.6-3.5,2.3-5,3.7a.52.52,0,0,1-.2-.4c-.9,1.2-2.2,1.2-3.5,1.5-2.1,1.2-6,2.6-8.4,2.4a14.68,14.68,0,0,1-8.9.7C582.65,82.62,578.15,78,576.05,72.92Zm9.4-2.8c3.2,2.6,9,.5,12.8.5,0-.4.1-.5.5-.5,3.3-.3,6-2.2,9.1-3.8.4-1,1.3-1.5,1.3-2.8a3.14,3.14,0,0,1-.4-2c-2.1-2.9-3.4-6.5-5.3-9.5-.2.4-.7,1-1.3.5-.4,1.5-2,1-3.1.3-2.7,2.2-5.6,4.1-7.8,6.9-.4.2-.3-.1-.8.1C588.85,63.52,585.65,65.42,585.45,70.12Z"/><path class="cls-1" d="M621.25,74.82h.6c-1-3.5,1.7-5.7.7-8.6.7.5.8-2.1.6-2.9,2-4.9,2.1-10.7,4-14.9a3.23,3.23,0,0,1,2.9,1c5-3.8,6.8-11.9,14.1-12.6,1.9,1.3,4.6,2.7,6.1,5.1a19.92,19.92,0,0,0,1.9,1.2V44c2.3,2.1,2.7,5.9,4.2,8.7-.4,1,.3,1.2.2,2.5-.5,8.5-10.9,9.5-17.2,12.2,0,.4.5.2.4.6,4.6,2.9,4.5,3.2,9.4,4.3s4.8,1.3,9.1,1.6c1.8,1.8,2.4,5,1.3,6.3.1.3.5.2.9.2-1.2.8-1.3,2.6-2.9,2.7-2.9,1.1-7.2,0-14-2.7s-7.9-3.7-11.5-6.8c-.3,0-.2.4-.4.4a13.41,13.41,0,0,1-2.7,7c-1.2-.2-1.5.5-2.1.9-1.6.3-1.2-.9-3-.9-.2-.7-.2-1.6-1.2-1.5.4-1.5-.6-1.8-.2-3.2C621.85,76.32,621.65,75.42,621.25,74.82ZM636,57.92c3.3-.4,7.2-2.2,10.4-3.6a6.21,6.21,0,0,0-4.1-5.3C640.25,52.12,636.65,53.62,636,57.92Z"/><path class="cls-1" d="M586.75,97.42c6.3-.4,12.7-.7,19-1l9.5-.4,9.5-.3c3.2-.1,6.3-.3,9.5-.5a75.28,75.28,0,0,1,9.5,0c3.2.1,6.3.4,9.5.7a78.11,78.11,0,0,1,9.5,1.5v.5a78.11,78.11,0,0,1-9.5,1.5c-3.2.3-6.3.6-9.5.7s-6.3.1-9.5,0-6.3-.3-9.5-.5l-9.5-.3-9.5-.4c-6.3-.3-12.7-.6-19-1Z"/></svg>