<svg id="Layer_1" data-name="Layer 1" xmlns="http://www.w3.org/2000/svg" viewBox="0 0 54.06 54.45"><defs><style>.cls-1{fill:#528918;}</style></defs><path class="cls-1" d="M40.5,10.36c1.33-.16-1.39-3.63-2.78-3.52A88.67,88.67,0,0,1,5.59,3.64l-.7-.38C4.2,3,2.76,2.62,3,4,5.48,14.85,6,25.47,5.59,36.63c0,1.06,2.88,4.16,3.36,2.61A53.37,53.37,0,0,0,10.5,23.07c-.06-2.62-.22-5.23-.54-7.9,2,2.13,4.38,4.16,6.46,6.14,3.31,3.2,6,6.88,9.35,10.08C32.49,37.91,39.54,44,46.16,50.61c2.61,2.62,6.62-1.39,4.11-4.11C43.92,39.62,37,33.42,30.3,26.86c-3.25-3.26-6-6.94-9.29-10.15-2.24-2.13-4.32-4.75-6.72-6.93A74.44,74.44,0,0,0,40.5,10.36Z"/><path class="cls-1" d="M4.71,40.79a6.57,6.57,0,0,1-2.12-4.16v-.1C3,24,2.24,14.12.1,4.62A3.74,3.74,0,0,1,1.25.87C2.08.17,3.56-.46,6,.46l.27.12.45.25h0a84.59,84.59,0,0,0,30.73,3c3-.23,6.17,3.42,6.4,5.75a3.36,3.36,0,0,1-2.92,3.73A78.61,78.61,0,0,1,22.5,14c.17.19.39.39.58.57,1.86,1.8,3.5,3.69,5.1,5.53,1.43,1.64,2.78,3.2,4.24,4.67,2.19,2.15,4.48,4.32,6.68,6.43,4.46,4.24,9.07,8.64,13.37,13.3a5.83,5.83,0,0,1-.31,8.3,5.69,5.69,0,0,1-8.12,0C40.36,49.05,36.46,45.46,32.69,42c-3-2.74-6-5.56-9-8.44-1.75-1.7-3.32-3.49-4.84-5.22S15.9,25,14.34,23.46l-.85-.79c0,.11,0,.22,0,.34a56.2,56.2,0,0,1-1.65,17l0,.11a3.51,3.51,0,0,1-3.94,2.49A6.09,6.09,0,0,1,4.71,40.79ZM19.05,19.68c1.54,1.54,2.94,3.14,4.3,4.69,1.51,1.73,2.94,3.35,4.5,4.87,2.92,2.82,6,5.63,8.9,8.34,2.55,2.35,5.17,4.75,7.74,7.21-3.13-3.19-6.37-6.27-9.53-9.28C32.74,33.39,30.44,31.2,28.2,29c-1.64-1.64-3.12-3.35-4.55-5-1.58-1.82-3.07-3.54-4.72-5.13-1.08-1-2.13-2.17-3.15-3.27S13.47,13.09,12.27,12L6.89,7.1l-.16,0c0,.14,0,.28.08.43l5.33,5.61c1.31,1.38,2.8,2.75,4.24,4.07.72.66,1.43,1.31,2.11,2Z"/></svg>