<?xml version="1.0" encoding="utf-8"?>
<!-- Generator: Adobe Illustrator 25.0.0, SVG Export Plug-In . SVG Version: 6.00 Build 0)  -->
<svg version="1.1" id="Layer_1" xmlns="http://www.w3.org/2000/svg" xmlns:xlink="http://www.w3.org/1999/xlink" x="0px" y="0px"
	 viewBox="0 0 458.2 91.9" style="enable-background:new 0 0 458.2 91.9;" xml:space="preserve">
<style type="text/css">
	.st0{fill:#FFFFFF;}
</style>
<g>
	<g>
		<path class="st0" d="M77.3,64.3V64l0.1-0.3c0.1-0.4,0.3-0.8,0.4-1.2c0.3-1,0.6-2.2,1.4-3c0.2-0.5,0.6-1.5,1.9-3.8
			c1-1.9,1.6-2.8,1.9-3.4c-0.3-0.6-0.8-1.1-1.3-1.6l-0.1-0.1l-0.1-0.2C80.8,49,80,47,79.6,45.6v-0.2c0-0.7-0.1-1.3-0.3-2.1
			s-0.4-1.6-0.4-2.6c-0.1-0.2-0.2-0.4-0.3-0.7v-0.3l0.1-0.3c0.2-0.5,0-1.4-0.2-2.4c-0.4-1.5-0.9-3.7,1.1-4.9l0.5-0.3l0.4,0.3
			c0.7,0.4,1.3,0.7,1.9,1c0.8,0.4,1.5,0.8,2.4,1.3l0.5,0.3v0.5c0,0.1,0.1,0.3,0.2,0.5l0.5,0.1v0.6c0,0.2,0,0.4,0,0.6
			c0,0.6,0,0.7,0.2,0.9l0.3,0.3v0.4c0,1.1,0.2,2,0.5,2.8c0.2,0.9,0.5,1.8,0.4,2.8c0.1-0.1,0.3-0.2,0.5-0.4c0.1-0.1,0.3-0.2,0.4-0.4
			l3.3-4.6v-0.4l0.3-0.3c0.3-0.3,0.6-0.5,0.9-0.8c0.6-0.5,1.2-1.1,1.6-1.7l0.2-0.4h0.3c1.2-1.9,2.9-3.1,5.1-3.5l0.8-0.1l0.2,0.8
			c0.3,0.9,1.3,1.5,2.4,2.1l0.3,0.1l0.2,0.1l0.1,0.2c0.2,0.4,0.1,0.9,0.1,1.1c0,0.1,0,0.1,0,0.2l0.2,0.4l-0.1,0.4
			c-0.4,1.2-1.4,2-2.2,2.6c-0.7,0.6-1.3,1.1-1.6,1.8l-0.1,0.3l-0.3,0.1c-0.8,0.4-1.2,1-1.5,1.8l-0.1,0.7h-0.7c0,0-0.3,0.1-0.8,1.2
			l-0.1,0.2c-0.4,0.5-0.6,0.7-0.8,1c0,0.1-0.1,0.4-0.3,0.8l-0.1,0.2l-0.2,0.2c-0.6,0.4-0.8,0.9-1.1,1.5c-0.2,0.5-0.5,1.2-1.1,1.8
			l0.1,0.5L92.9,52c-0.5,0.5-0.8,1.1-1.2,1.8c-0.4,0.8-0.8,1.5-1.4,2.2c-0.4,1.1-0.7,1.6-1.5,2.4c-0.4,1.5-1.2,3.1-2.6,4.8
			c0,0.7-0.5,1.3-0.9,1.9c-0.1,0.2-0.3,0.5-0.4,0.7V66l-0.2,0.3c-0.3,0.6-0.8,1.1-1.2,1.4c-0.1,0.1-0.3,0.3-0.4,0.4l-0.3,0.4
			l-0.5-0.1C79.5,68.3,77.9,66.9,77.3,64.3z"/>
		<path class="st0" d="M98.1,60.4c-1.2-8.5,4.2-13.7,8.2-18.4c0.8,0.3,1-1,1.7-1.2c0.5-1.1,1.8-1.4,2.4-2.4c1.3-0.3,1.7-1.4,2.9-1.8
			c0-0.2,0-0.4,0-0.6c1.4-0.6,1.8-1.3,2.6-2.5c0.7,0,1,0,1.8-0.1c0.6-1,0.9-1.4,1.9-2.1c0.9,0.5,2.1,0.4,2.9,1.2
			c0.1,1.5,1.8,1.4,2.1,2.8c0.2,0,0.3-0.2,0.6-0.1c0.2,1.1,0.6,1.1,0.9,2c-0.3,0.8-0.4,1.7-1.2,2.1c0,0.5,0.5,0.3,0.6,0.7
			c0,0.3,0,0.6-0.1,0.7c1.8,2.9,3,6.3,4.8,9.2c-0.2,1.8,1.1,3.3,1.3,5c0.3,2.1-0.6,5.1-2.2,6.1c-1,1.3-2.7,1.8-3.9,2.9
			c-0.1,0-0.2-0.1-0.1-0.3c-0.7,0.9-1.7,1-2.8,1.2c-1.7,1-4.7,2.1-6.6,1.9c-2.3,0.8-4.2,1.2-7,0.6C103.4,68.1,99.8,64.5,98.1,60.4z
			 M105.5,58.2c2.5,2.1,7.1,0.4,10,0.4c0-0.3,0.1-0.4,0.4-0.4c2.6-0.2,4.8-1.7,7.2-3c0.3-0.8,1-1.2,1-2.2c-0.3-0.6-0.3-0.8-0.3-1.5
			c-1.6-2.3-2.6-5.1-4.2-7.4c-0.1,0.3-0.5,0.8-1,0.4c-0.3,1.2-1.6,0.8-2.4,0.2c-2.1,1.7-4.4,3.3-6.1,5.4c-0.3,0.1-0.2,0-0.6,0.1
			C108.2,53.1,105.7,54.6,105.5,58.2z"/>
		<path class="st0" d="M135.6,43.8v-0.3c0-0.1-0.1-0.2-0.1-0.3c0.4-1.2,0.6-2.3,0.7-3.3c0.1-0.9,0.3-1.6,0.5-2.3
			c1.1-0.2,1.5-1.1,1.9-1.6c1,0,1.2,0.4,1.6,1.2c0.3,0.7,0.8,1.6,1.9,2c0.2,0.6,0.5,1.3,0.8,2c0.6,1.3,1.2,2.8,1.2,4
			c-1.5,2.8-1.6,7.9-0.7,10.3l0.3,0.7l0.2,0.1l0.8-0.2c4.5-1.2,7-2.7,10.1-6.2s4.7-9.2,4.8-13.3c0.6-0.2,1-0.7,1-1.3v-0.4l-0.1-0.2
			c-0.2-0.2-0.1-0.6,0-0.8c0.2-0.7,0.9-1.2,1.6-1.6c1.2,0.8,2.1,1.7,2.9,2.6c0,1.6,0.5,2.8,1,3.9c0.4,1,0.8,2,0.9,3.4
			c-0.6,1.9-0.8,3.5-1.1,5.3V48c-1.2,2-2.4,4.1-3,5.6c-0.4,0.4-0.7,1-0.9,1.4c-0.1,0.2-0.4,0.8-0.5,1l-1.2-0.4l-0.2-0.1v0.3V57
			c0,0.1,0,0.3-0.1,0.3l-0.7-0.1l-0.2,0.1l-0.3,0.6c-2.8,5-6.2,6.4-12.5,9.1c-1.2-0.2-2.1-0.2-2.9-0.2c-0.9,0-1.6,0-2.7-0.2
			c-0.2-0.6-0.7-0.8-1.1-0.8c-0.1,0-0.1,0-0.2,0c-1-0.6-1.6-1.8-2.2-3.2c-0.3-0.7-0.7-1.5-1.2-2.2l1-0.3l0.3-0.1l-0.2-0.2l-1.2-1.1
			c-0.2-0.1-0.4-0.3-0.6-0.6v-0.9c-0.2-5.1-0.4-9.6,0.7-12.8L135.6,43.8z"/>
		<path class="st0" d="M183.4,50.1c1.2-3.4,3.5-5.6,5.6-8c0.2,0,0.4,0.1,0.5,0.2c0.5-1.4,2.1-1.8,2.9-3c3.1-0.7,4.5-3.1,7.6-3.8
			c1.2-1.3,3.5-1.4,4.5-2.9c0.4,0.5,1.2,0.2,1.7,0c0.7-0.1,1.1,1.2,1.4,0.3c0.4,0,0,0.6,0,0.7c0.6,0,0.9,0.5,1.7,0.5
			c0.3,0.3,0,0.4,0,0.9c4.6,1.4,1.9,6.6-1.5,7.4c-3.4,1-6.8,1.9-8.8,4.2c-3.5,1-5.5,3.6-7.8,5.9c0,1-0.5,1.5-0.9,2.1
			c0.1,1.2,0.6,1.9,1,2.7c4.9,1.5,10.8,1.7,16.3,1.7c1.1,1.5,3.2,2.4,2.8,4.8c-1.1,1.1-2.4,2-3.6,3c-1.2,0.1-3.2-0.3-4.7,0.3
			c-3.9-0.1-8.4-1.1-11.8-2.3c-0.7-0.8-1.4-1.6-2.6-1.9C184.3,60.2,183.3,54.5,183.4,50.1z"/>
		<path class="st0" d="M211.6,62.7l0.6-0.5h-0.3l0.4-0.9c1.5-3.8,3.2-7.2,5-10.9c0.6-1.2,1.2-2.4,1.7-3.6c0-0.2-0.1-0.5,0-0.9
			l0.1-0.2c0.7-1,1.2-2,1.7-3c0.6-1.2,1.2-2.5,2.1-3.7l0.4-0.4h0.6c0.1,0,0.4-0.2,0.9-0.2c0.1,0,0.2,0,0.3,0l0.5,0.1l0.1,0.4
			c1.9-1.4,3.5-3.1,5.1-5.6l0.5-0.8l0.8,0.5c0.3,0.2,1.1,0.4,1.9,0.6c1.3,0.3,2.6,0.7,3.4,1.4l0.2,0.2v0.2c0.1,0.7,0.2,1.2,0.3,1.8
			c0.2,1.3,0.5,2.5,0.5,4.1c0.3,1.2,0.6,2.5,0.9,3.8c0.3,1.8,0.7,3.5,1.4,4.9c0.2,0,0.3,0,0.4,0c0.4-0.1,0.8-0.2,1.3-0.2h0.6
			l0.2,0.6c0.1,0.2,0.3,0.3,0.6,0.5c0,0,0,0,0.2,0c0.7,0,1.2,0.4,1.5,0.8c0.1,0.1,0.3,0.3,0.4,0.4l0.9,0.3l-0.5,0.9
			c-0.7,1.3-2.2,2.6-3.9,3.5c0,0.4,0.1,0.8,0.2,1.2c0.2,1.3,0.4,2.6,0.3,4.1l-0.1,0.2c-1,2.5-3.6,5.4-6.7,5.5h-0.3
			c-0.5-0.1-0.9-0.4-1.2-0.7c-0.2-0.1-0.4-0.2-0.6-0.3l-0.6-0.3l0.2-0.7c0.1-0.5,0-0.8-0.7-1.4c-0.2-0.2-0.4-0.4-0.6-0.6l-1-1.1
			l1.5-0.4c1.9-0.5,2.4-1.1,2.3-3.1c-0.1-0.1-0.1-0.2-0.2-0.3c-1.2,0.1-2.2,0.4-3.2,0.6c-1.4,0.4-2.7,0.7-4.3,0.7
			c-0.5,0-1.1,0-1.7-0.1h-0.5l-0.1-0.5c0-0.1-0.2-0.3-0.3-0.4c-0.3-0.3-1-1-0.7-1.9c-0.1-0.3-0.3-0.7-0.3-1.1
			c-0.2,0.5-0.4,1-0.5,1.4l-0.2,0.6l-0.6,0.1c-0.1,0-0.2,0.4-0.2,0.5l0.1,0.5l-0.4,0.4c-0.1,0.1-0.3,0.3-0.5,0.4
			c-0.2,0.7-0.4,1.3-0.6,1.9c-0.3,1-0.7,1.9-0.6,2.8v0.3l-0.2,0.3c-0.3,0.4-0.8,0.7-1.2,0.9c-0.2,0.1-0.5,0.2-0.6,0.3l-0.2,0.6
			l-0.7,0.1c-0.1,0-0.2,0-0.4,0c-0.3,0.1-0.6,0.2-1.1,0.2c-0.1,0-0.2,0-0.3,0h-0.3l-0.2-0.2c-0.5-0.4-1-0.9-1.5-1.2l-0.2-0.1
			l-0.1-0.2c-0.2-0.5-0.3-0.9-0.4-1.3c0-0.4-0.1-0.7-0.3-0.9L211.6,62.7z M225.3,52.4c0.4,0,0.9,0,1.2-0.1c2.2-0.1,3.9-0.2,6.1-0.7
			c-0.5-2.3-1.1-4.7-1.8-7.2c0,0.1-0.1,0.2-0.2,0.3l-0.1,0.2c-1.4,1.5-3,3.7-4,5.5C226.1,51.1,225.7,51.8,225.3,52.4z"/>
		<path class="st0" d="M252.4,66.2c-0.2,0.3,0,0.2,0.1,0.7c-0.8-0.2-1.1,0.2-1.7,0.3c-2.8-1-3.7-5-4.8-7.1c0-0.2,0.3-0.1,0.5-0.1
			c-0.3-0.6-0.4-1.5-0.8-2c3.6-7.8,8.4-17,12.2-25.6c3.5,1.2,6.9,3.4,7.5,7.1c-0.2,0.4-0.3,0-0.5,0.3c0.6,0.7-0.1,0.5,0.4,1.4
			c-0.3,0-0.3,0.2-0.7,0.1c0.7,1.7-0.8,1.7-0.3,3.3c-0.4,0-0.3,0.5-0.8,0.4c0.4,3.3-0.5,6.5,0.4,10.5c5.4-3.2,6-10.3,7.2-17.5
			c1.4-1.3,1.3-4.1,2.3-5.9c2.4,0.3,2.8,2.6,5,2.9c0.9,1.2,1.7,2.4,2,3.7c-0.7,1.2-0.6,3.1-2,4c-0.4,3.7-1.6,6.1-1.5,10.2
			c-0.6,1.8-1.4,3.9-1.7,5.5c-1.2,0.9-1.7,2.4-2.4,3.7c-0.3,0.3-0.2,0-0.7,0c0.1,0.5-0.4,0.4-0.1,1.2c-2.1,1-2.8,3.9-7,2.4
			c-3-2.2-5.5-5-7-9.1c-1.3,0.3-1.1,2.9-2.1,2.9c-0.2,1.2-1.7,1.8-1.1,3.3C253.7,63.7,254.9,66.3,252.4,66.2z"/>
		<path class="st0" d="M286.2,61.5c0.1,0.5,0.1,1,0.2,1.4c-0.1,0.6-0.4,1.2-0.6,1.8c-0.3,0.9-0.2,0.2-0.1,1.1v0.3l-0.2,0.3
			c-0.3,0.4-0.8,0.6-1.2,0.8c-0.2,0.1-0.5,0.2-0.6,0.3l-0.1,0.5l-0.6,0.1c-0.1,0-0.2,0-0.4,0.1c-0.2,0-0.6,0.1-1,0.1
			c0,0-0.1,0-0.2,0H281l-0.2-0.2c-0.4-0.4-0.9-0.8-1.4-1.1l-0.2-0.1l-0.1-0.2c-0.2-0.4-0.2-0.9-0.3-1.2c-0.1-0.4-0.1-0.7-0.3-0.8
			l-0.6-0.7l0.6-0.4h-0.3l-0.3-0.8c1.5-1.2,1.2-0.7,2.5-2.6l0.4-0.7l0.6,0.4c0.2,0.1,1.3,0.3,1.9,0.5c1,0.2,2.1,0.3,2.6,0.8l0.1,0.1
			L286.2,61.5z"/>
		<path class="st0" d="M297.2,61.5c0.1,0.5,0.1,1,0.2,1.4c-0.1,0.6-0.4,1.2-0.6,1.8c-0.3,0.9-0.2,0.2-0.1,1.1v0.3l-0.2,0.3
			c-0.3,0.4-0.8,0.6-1.2,0.8c-0.2,0.1-0.5,0.2-0.6,0.3l-0.1,0.5l-0.6,0.1c-0.1,0-0.2,0-0.4,0.1c-0.2,0-0.6,0.1-1,0.1
			c0,0-0.1,0-0.2,0H292l-0.2-0.2c-0.4-0.4-0.9-0.8-1.4-1.1l-0.2-0.1l-0.1-0.2c-0.2-0.4-0.2-0.9-0.3-1.2c-0.1-0.4-0.1-0.7-0.3-0.8
			l-0.6-0.7l0.6-0.4h-0.3l-0.3-0.8c1.5-1.2,1.2-0.7,2.5-2.6l0.4-0.7l0.6,0.4c0.2,0.1,1.3,0.3,1.9,0.5c1,0.2,2.1,0.3,2.6,0.8l0.1,0.1
			L297.2,61.5z"/>
		<path class="st0" d="M308.1,61.5c0.1,0.5,0.1,1,0.2,1.4c-0.1,0.6-0.4,1.2-0.6,1.8c-0.3,0.9-0.2,0.2-0.1,1.1v0.3l-0.2,0.3
			c-0.3,0.4-0.8,0.6-1.2,0.8c-0.2,0.1-0.5,0.2-0.6,0.3l-0.1,0.5l-0.6,0.1c-0.1,0-0.2,0-0.4,0.1c-0.2,0-0.6,0.1-1,0.1
			c0,0-0.1,0-0.2,0H303l-0.2-0.2c-0.4-0.4-0.9-0.8-1.4-1.1l-0.2-0.1l-0.1-0.2c-0.2-0.4-0.2-0.9-0.3-1.2c-0.1-0.4-0.1-0.7-0.3-0.8
			l-0.6-0.7l0.6-0.4h-0.3l-0.3-0.8c1.5-1.2,1.2-0.7,2.5-2.6l0.4-0.7l0.6,0.4c0.2,0.1,1.3,0.3,1.9,0.5c1,0.2,2.1,0.3,2.6,0.8l0.1,0.1
			L308.1,61.5z"/>
	</g>
</g>
</svg>
