<svg xmlns="http://www.w3.org/2000/svg" viewBox="0 0 29.12 29.12"><defs><style>.cls-1{fill:#1db2d7;}</style></defs><g id="Layer_2" data-name="Layer 2"><g id="Layer_1-2" data-name="Layer 1"><path class="cls-1" d="M16.46,29.12H5.06A1.25,1.25,0,0,1,3.8,27.86V24.05a2.52,2.52,0,0,1,2.53-2.52H15.2a2.5,2.5,0,0,1,1.79.74l3.38-7.59a1.26,1.26,0,1,1,2.31,1L17.73,26.86v1A1.26,1.26,0,0,1,16.46,29.12ZM6.33,26.59h8.86V24.06H6.33Zm8.86-2.54h0Zm-4.43-2.52a4.44,4.44,0,1,1,4.43-4.44A4.44,4.44,0,0,1,10.76,21.53Zm0-6.34a1.9,1.9,0,1,0,1.9,1.9A1.91,1.91,0,0,0,10.76,15.19Zm17.1,5.07H22.79a1.27,1.27,0,0,1,0-2.53h3.8V2.53H2.53v15.2H5.06a1.27,1.27,0,1,1,0,2.53H1.27A1.27,1.27,0,0,1,0,19V1.27A1.27,1.27,0,0,1,1.27,0H27.86a1.26,1.26,0,0,1,1.26,1.27V19A1.26,1.26,0,0,1,27.86,20.26Z"/></g></g></svg>