<svg id="Layer_1" data-name="Layer 1" xmlns="http://www.w3.org/2000/svg" viewBox="0 0 379.38 622.97"><defs><style>.cls-1{fill:#003e4c;}</style></defs><path class="cls-1" d="M378.15,342.85c-26.23-110.43-77.3-211.19-147.7-299.54-2.76-11-11-19.32-20.71-23.46a59.69,59.69,0,0,1-8.28-9.67c-19.32-20.7-49.69-6.9-58,15.19C133.82,53,122.78,79.2,113.12,106.81,57.9,197.91,28.92,300.06,1.31,403.59c-11,44.17,51.07,59.36,66.26,17.94,30.37-81.44,62.11-164.26,92.48-245.7q-1.7,210-3.37,420.13h1.81c.77,5.4,5.38,10.44,8.75,14.48,4.71,5.66,11.56,10.5,18.85,11.4A21.42,21.42,0,0,0,192,623c8.07.38,17-6.52,22.76-11.5A26.69,26.69,0,0,0,224,596h1.66q1.73-216.83,3.44-433.93,55.9,91.1,82.82,198.77C322.93,403.59,389.19,385.64,378.15,342.85ZM180.44,605c-.33-.47-.64-.94-.94-1.43.47.3.95.57,1.45.83Z"/></svg>