<?xml version="1.0" encoding="utf-8"?>
<!-- Generator: Adobe Illustrator 25.0.0, SVG Export Plug-In . SVG Version: 6.00 Build 0)  -->
<svg version="1.1" id="Layer_1" xmlns="http://www.w3.org/2000/svg" xmlns:xlink="http://www.w3.org/1999/xlink" x="0px" y="0px"
	 viewBox="0 0 580 115" style="enable-background:new 0 0 580 115;" xml:space="preserve">
<style type="text/css">
	.st0{fill:#002A33;}
	.st1{fill:#FFFFFF;}
</style>
<g>
	<g>
		<polygon class="st0" points="39.72,-0.15 15.77,114.6 515.69,114.6 518.71,100.86 537.9,13.61 540.93,-0.15 		"/>
	</g>
	<g>
		<path class="st1" d="M92.75,52.03c1.16-1.54,1.96-3.37,2.41-5.5c0.75-3.77-0.13-6.64-2.66-8.63c-2.52-1.98-6.1-2.98-10.75-2.98
			H68.03l-8.45,42.24h15.64c4.99,0,8.95-0.99,11.88-2.97s4.84-5.16,5.73-9.53c0.45-2.2,0.29-4.15-0.45-5.83s-2.21-2.8-4.39-3.37
			C90,54.71,91.58,53.57,92.75,52.03z M83.2,64.61c-0.35,1.66-1.09,2.92-2.21,3.76c-1.12,0.84-2.54,1.26-4.26,1.26h-5.92l2.12-10.59
			h6.44c1.78,0,2.95,0.44,3.52,1.32C83.47,61.24,83.57,62.65,83.2,64.61z M85.23,47.63c-0.35,1.55-1.12,2.74-2.32,3.59
			c-1.2,0.84-2.72,1.28-4.56,1.32H74.2l2.03-10.07h4.01c2.09,0,3.53,0.38,4.34,1.15C85.38,44.38,85.6,45.72,85.23,47.63z"/>
		<path class="st1" d="M108.5,60.98l-3.22,16.19h-9.75l8.45-42.24h15.32c4.29,0,7.62,1.15,9.99,3.45s3.18,5.38,2.42,9.22
			c-0.48,2.36-1.41,4.3-2.77,5.82c-1.37,1.52-3.22,2.75-5.56,3.7c2.17,0.78,3.64,2.03,4.43,3.77c0.78,1.74,0.93,3.82,0.45,6.24
			l-0.52,2.67c-0.23,1.15-0.33,2.41-0.3,3.8s0.36,2.39,1,2.99l-0.12,0.58h-9.98c-0.6-0.6-0.86-1.64-0.78-3.12s0.25-2.91,0.52-4.31
			l0.52-2.55c0.42-2.15,0.29-3.72-0.41-4.72c-0.69-1-1.96-1.49-3.8-1.49C114.39,60.98,108.5,60.98,108.5,60.98z M110.01,53.44h5.69
			c1.53,0,2.86-0.46,4.02-1.38c1.15-0.91,1.89-2.2,2.22-3.84c0.35-1.84,0.17-3.26-0.53-4.25c-0.71-0.99-1.91-1.49-3.61-1.49h-5.57
			L110.01,53.44z"/>
		<path class="st1" d="M160.75,59.09h-15.12l-2.09,10.53h17.85l-1.51,7.54h-27.56l8.45-42.24h27.62l-1.51,7.54h-17.9l-1.83,9.08
			h15.12L160.75,59.09z"/>
		<path class="st1" d="M186.46,68.96H174.8l-3.8,8.21h-9.72l20.97-42.24h10.39l4.12,42.24h-9.75L186.46,68.96z M178.28,61.42h7.69
			l-0.93-14.13l-0.18-0.03L178.28,61.42z"/>
		<path class="st1" d="M215.79,60.4h-3.05l-3.33,16.77h-9.72l8.44-42.24h9.72l-3.34,16.71h2.99l9.69-16.71h12.79l-15.23,20.83
			l7.26,21.41h-11.17L215.79,60.4z"/>
		<path class="st1" d="M244.51,77.17h-9.66l8.44-42.24h9.66L244.51,77.17z"/>
		<path class="st1" d="M284.35,77.17h-9.69l-8.35-25.94l-0.18,0.03l-5.2,25.91h-9.72l8.45-42.24h9.72l8.35,25.94l0.18-0.03
			l5.19-25.91h9.69L284.35,77.17z"/>
		<path class="st1" d="M322.9,71.34c-1.72,1.72-3.98,3.22-6.77,4.51c-2.79,1.29-6.13,1.93-9.99,1.93c-4.57,0-8.13-1.63-10.69-4.89
			s-3.34-7.4-2.33-12.43l1.77-8.82c1.08-5.43,3.4-9.68,6.95-12.74c3.55-3.05,7.7-4.58,12.46-4.58c4.78,0,8.26,1.29,10.47,3.86
			s3.05,5.98,2.53,10.24l-0.06,0.14h-9.14c0.14-2.23-0.17-3.9-0.9-5.02c-0.73-1.12-2.1-1.68-4.09-1.68c-1.84,0-3.59,0.91-5.24,2.75
			c-1.65,1.83-2.76,4.16-3.32,6.96l-1.77,8.88c-0.64,3.14-0.53,5.55,0.3,7.24c0.84,1.69,2.36,2.53,4.57,2.53
			c1.45,0,2.67-0.14,3.65-0.43c0.99-0.29,1.8-0.67,2.44-1.16l1.34-6.67h-5.75l1.31-6.5h15.47L322.9,71.34z"/>
		<path class="st1" d="M374.49,77.17h-9.69l-8.35-25.94l-0.18,0.03l-5.2,25.91h-9.72l8.45-42.24h9.72l8.35,25.94l0.18-0.03
			l5.19-25.91h9.69L374.49,77.17z"/>
		<path class="st1" d="M409.05,59.09h-15.12l-2.09,10.53h17.85l-1.51,7.54h-27.56l8.45-42.24h27.62l-1.51,7.54h-17.9l-1.83,9.08
			h15.12L409.05,59.09z"/>
		<path class="st1" d="M446.87,61.24h0.17l9.05-26.31h9.34l-15.64,42.24h-9.11l-2.32-24.75h-0.18l-10.15,24.75h-9.11l-2.15-42.24
			h9.4l0.64,26.26l0.18,0.03l10.76-26.29h6.71L446.87,61.24z"/>
		<path class="st1" d="M484.53,66.64c0.33-1.76,0.09-3.04-0.72-3.85c-0.82-0.8-2.45-1.76-4.9-2.86c-4.62-1.64-8.04-3.6-10.26-5.86
			c-2.21-2.26-2.97-5.11-2.28-8.56c0.72-3.56,2.58-6.31,5.61-8.27c3.03-1.95,6.65-2.93,10.87-2.93c4.39,0,7.83,1.16,10.31,3.48
			c2.49,2.33,3.29,5.48,2.42,9.46l-0.09,0.18h-9.43c0.33-1.7,0.05-3.06-0.84-4.07c-0.89-1-2.19-1.5-3.89-1.5
			c-1.2,0-2.32,0.35-3.37,1.06c-1.04,0.71-1.66,1.55-1.86,2.53c-0.33,1.61-0.03,2.78,0.9,3.53c0.93,0.74,3,1.76,6.21,3.04
			c4.18,1.49,7.23,3.37,9.17,5.64c1.93,2.27,2.53,5.25,1.8,8.92c-0.75,3.71-2.61,6.51-5.57,8.39c-2.96,1.87-6.59,2.82-10.88,2.82
			c-4.25,0-7.87-1.06-10.84-3.18s-3.96-5.37-2.97-9.76l0.05-0.18h9.43c-0.44,2.13-0.05,3.59,1.18,4.39
			c1.23,0.79,2.78,1.18,4.66,1.18c1.16,0,2.28-0.34,3.35-1.02C483.68,68.52,484.32,67.67,484.53,66.64z"/>
	</g>
</g>
</svg>
