<?xml version="1.0" encoding="utf-8"?>
<!-- Generator: Adobe Illustrator 25.0.0, SVG Export Plug-In . SVG Version: 6.00 Build 0)  -->
<svg version="1.1" id="Layer_1" xmlns="http://www.w3.org/2000/svg" xmlns:xlink="http://www.w3.org/1999/xlink" x="0px" y="0px"
	 viewBox="0 0 447.65 114.6" style="enable-background:new 0 0 447.65 114.6;" xml:space="preserve">
<style type="text/css">
	.st0{fill:#002A33;}
	.st1{fill:#FFFFFF;}
	.st2{fill:#8FE513;}
</style>
<rect class="st0" width="447.65" height="114.6"/>
<g>
	<path class="st1" d="M61.49,81.86c-3.74,0-6.7-0.68-8.88-2.04c-2.18-1.36-3.71-3.27-4.61-5.73c-0.9-2.46-1.34-5.36-1.34-8.69V47.58
		c0-3.42,0.45-6.35,1.34-8.81c0.89-2.46,2.43-4.36,4.61-5.7c2.17-1.34,5.13-2.01,8.88-2.01c3.66,0,6.52,0.6,8.57,1.8
		c2.05,1.2,3.51,2.88,4.36,5.03c0.85,2.16,1.28,4.64,1.28,7.44v4.27H65.03v-4.94c0-0.98-0.05-1.91-0.15-2.81
		c-0.1-0.89-0.4-1.64-0.88-2.23c-0.49-0.59-1.32-0.88-2.5-0.88c-1.14,0-1.98,0.31-2.53,0.92s-0.89,1.37-1.04,2.29
		s-0.21,1.88-0.21,2.9v23.24c0,1.1,0.09,2.1,0.27,3.02c0.18,0.92,0.55,1.65,1.1,2.2s1.35,0.82,2.41,0.82c1.14,0,1.95-0.29,2.44-0.88
		c0.49-0.59,0.79-1.35,0.92-2.29c0.12-0.93,0.18-1.89,0.18-2.87v-5.18H75.7v4.27c0,2.81-0.42,5.32-1.25,7.53
		c-0.83,2.22-2.28,3.96-4.33,5.25C68.07,81.22,65.19,81.86,61.49,81.86z"/>
	<path class="st1" d="M95.83,81.86c-3.7,0-6.63-0.65-8.78-1.95c-2.16-1.3-3.7-3.17-4.64-5.61c-0.94-2.44-1.4-5.35-1.4-8.72V47.21
		c0-3.42,0.47-6.32,1.4-8.72c0.94-2.4,2.48-4.24,4.64-5.52c2.15-1.28,5.08-1.92,8.78-1.92c3.74,0,6.7,0.64,8.88,1.92
		c2.17,1.28,3.73,3.12,4.67,5.52c0.94,2.4,1.4,5.31,1.4,8.72v18.36c0,3.38-0.47,6.28-1.4,8.72c-0.94,2.44-2.49,4.31-4.67,5.61
		C102.53,81.21,99.57,81.86,95.83,81.86z M95.83,74.11c1.14,0,1.97-0.28,2.5-0.85c0.53-0.57,0.87-1.3,1.04-2.2s0.24-1.81,0.24-2.75
		V44.53c0-0.98-0.08-1.9-0.24-2.78c-0.16-0.87-0.51-1.6-1.04-2.17c-0.53-0.57-1.36-0.85-2.5-0.85c-1.06,0-1.85,0.29-2.38,0.85
		c-0.53,0.57-0.88,1.29-1.04,2.17c-0.16,0.88-0.24,1.8-0.24,2.78v23.79c0,0.94,0.07,1.85,0.21,2.75s0.47,1.63,0.98,2.2
		C93.87,73.83,94.69,74.11,95.83,74.11z"/>
	<path class="st1" d="M117.42,81.13V31.72h13.6c3.33,0,6.22,0.37,8.66,1.1c2.44,0.73,4.34,2.04,5.7,3.93
		c1.36,1.89,2.04,4.57,2.04,8.02c0,2.03-0.16,3.84-0.49,5.43c-0.33,1.59-0.92,2.96-1.8,4.12c-0.88,1.16-2.13,2.13-3.75,2.9
		l6.77,23.91h-11.29l-5.43-22.14h-3.11v22.14H117.42z M128.34,52.7h3.05c1.54,0,2.75-0.27,3.6-0.82c0.85-0.55,1.45-1.34,1.8-2.38
		c0.34-1.04,0.52-2.29,0.52-3.75c0-2.11-0.39-3.76-1.16-4.94c-0.77-1.18-2.2-1.77-4.27-1.77h-3.54V52.7z"/>
	<path class="st1" d="M153.78,81.13V31.72h13.6c3.33,0,6.22,0.37,8.66,1.1c2.44,0.73,4.34,2.04,5.7,3.93
		c1.36,1.89,2.04,4.57,2.04,8.02c0,2.03-0.16,3.84-0.49,5.43c-0.33,1.59-0.92,2.96-1.8,4.12c-0.88,1.16-2.13,2.13-3.75,2.9
		l6.77,23.91h-11.29l-5.43-22.14h-3.11v22.14H153.78z M164.7,52.7h3.05c1.54,0,2.75-0.27,3.6-0.82c0.85-0.55,1.45-1.34,1.8-2.38
		c0.34-1.04,0.52-2.29,0.52-3.75c0-2.11-0.39-3.76-1.16-4.94c-0.77-1.18-2.2-1.77-4.27-1.77h-3.54V52.7z"/>
	<path class="st1" d="M190.14,81.13V31.72h22.2v7.44h-11.29v12.26h8.6v7.56h-8.6v14.76h11.41v7.38H190.14z"/>
	<path class="st1" d="M231.55,81.86c-3.74,0-6.7-0.68-8.88-2.04c-2.18-1.36-3.71-3.27-4.61-5.73c-0.9-2.46-1.34-5.36-1.34-8.69
		V47.58c0-3.42,0.45-6.35,1.34-8.81c0.89-2.46,2.43-4.36,4.61-5.7c2.18-1.34,5.13-2.01,8.88-2.01c3.66,0,6.52,0.6,8.57,1.8
		c2.05,1.2,3.51,2.88,4.36,5.03c0.85,2.16,1.28,4.64,1.28,7.44v4.27h-10.68v-4.94c0-0.98-0.05-1.91-0.15-2.81
		c-0.1-0.89-0.4-1.64-0.88-2.23c-0.49-0.59-1.32-0.88-2.5-0.88c-1.14,0-1.98,0.31-2.53,0.92s-0.89,1.37-1.04,2.29
		s-0.21,1.88-0.21,2.9v23.24c0,1.1,0.09,2.1,0.27,3.02c0.18,0.92,0.55,1.65,1.1,2.2s1.35,0.82,2.41,0.82c1.14,0,1.95-0.29,2.44-0.88
		s0.79-1.35,0.92-2.29c0.12-0.93,0.18-1.89,0.18-2.87v-5.18h10.68v4.27c0,2.81-0.42,5.32-1.25,7.53c-0.83,2.22-2.28,3.96-4.33,5.25
		C238.13,81.22,235.26,81.86,231.55,81.86z"/>
	<path class="st1" d="M256.2,81.13v-41.3h-7.44v-8.11h25.8v8.11h-7.38v41.3H256.2z"/>
</g>
<g>
	<line class="st2" x1="318.47" y1="60.15" x2="332.02" y2="73.69"/>
	<path class="st2" d="M390.82,24.79c-2.73-2.73-7.17-2.73-9.9,0l-48.9,48.9L316.6,58.28c-2.73-2.73-7.17-2.73-9.9,0
		c-2.73,2.73-2.73,7.17,0,9.9l20.37,20.37c1.37,1.37,3.16,2.05,4.95,2.05s3.58-0.68,4.95-2.05l53.85-53.85
		C393.55,31.96,393.55,27.53,390.82,24.79z"/>
</g>
</svg>
