<svg id="Layer_1" data-name="Layer 1" xmlns="http://www.w3.org/2000/svg" viewBox="0 0 153.15 121.22"><defs><style>.cls-1{fill:#fff;}</style></defs><path class="cls-1" d="M9.66,19.37a2.72,2.72,0,0,1-.24-1.06.83.83,0,0,1,.24-.42l0-.27.26,0h.59c.88,0,1.82-.09,2.79-.18l1.75-.16a.76.76,0,0,0,.07-.13,2.29,2.29,0,0,1,.11-.23l.09-.09.11,0,.12,0a.89.89,0,0,1,.69.34c.61,0,1.24-.14,1.9-.23A21.47,21.47,0,0,1,21,16.65a6.92,6.92,0,0,1,1.08.09l.15,0,.07.12a1.55,1.55,0,0,0,.41.44,1.47,1.47,0,0,1,.7,1.47v.11l-.08.05a.38.38,0,0,1-.18.15s-.09,0-.09.07l-.09.16h-.21a.92.92,0,0,0-.43.11,2.85,2.85,0,0,1-.36.13h-.08a3.39,3.39,0,0,0-.46,0,19.88,19.88,0,0,0-2.35.21L17.53,20A12.36,12.36,0,0,1,17,21.46,10.57,10.57,0,0,0,16.37,23l0,.07a3.16,3.16,0,0,0-.52,1.19l0,.09-.07.07a2.52,2.52,0,0,0-.49,1.1l-.05.14,0,.11-.11.09a.63.63,0,0,1-.14.27,1.67,1.67,0,0,1-.13.45.71.71,0,0,0-.09.33V27a.37.37,0,0,1-.11.19,3.29,3.29,0,0,1-.05.44.76.76,0,0,0,0,.45.46.46,0,0,1,.18.27l.18.11c.09.05.16.1.25.14l.15.05,0,.15a1.16,1.16,0,0,1-.18,1,1.36,1.36,0,0,1-1.06.39H13.8l-.09-.09s0,0-.05-.09l-.08,0a.49.49,0,0,1-.37-.24,1.63,1.63,0,0,1-.19-.09l-.27-.1-.19-.11,0-.15a.18.18,0,0,1,0-.1,2.73,2.73,0,0,1-.36-.89,1.91,1.91,0,0,0-.27-.72v-.09a8.86,8.86,0,0,1,.87-3.53,15.75,15.75,0,0,0,.61-1.76l0-.14L13.6,22a.16.16,0,0,0,.09-.05l.07-.07a2.22,2.22,0,0,1,.29-.89,2.28,2.28,0,0,0,.2-.54,2,2,0,0,0-.45.06c-.13,0-.27,0-.42,0a.75.75,0,0,1-.21,0,1.11,1.11,0,0,1-.5.11.78.78,0,0,1-.22,0h-.2a.83.83,0,0,0-.34.06l-.09,0h-.07a1.62,1.62,0,0,0-.31,0h-.22l-.21,0a1.35,1.35,0,0,1-.74-.2l-.07-.11c-.07-.13-.13-.2-.2-.22l-.18-.05,0-.2A2.11,2.11,0,0,0,9.66,19.37Z"/><path class="cls-1" d="M20.06,27.29c-.43-3.19,1.59-5.13,3.08-6.91.31.1.36-.38.65-.45.2-.42.68-.53.88-.92.49-.11.65-.54,1.1-.67v-.21a2.31,2.31,0,0,0,1-.94,5.89,5.89,0,0,0,.67-.05,1.88,1.88,0,0,1,.7-.78c.34.18.79.15,1.1.45,0,.56.66.54.77,1.05.09,0,.11-.08.22-.06.09.4.21.4.32.76-.12.29-.16.65-.43.77,0,.18.2.11.21.27a.31.31,0,0,1-.05.27c.67,1.1,1.14,2.38,1.8,3.46-.07.67.42,1.24.51,1.87a2.64,2.64,0,0,1-.83,2.31c-.36.48-1,.68-1.48,1.09a.07.07,0,0,1-.05-.1,1.47,1.47,0,0,1-1,.43,5.38,5.38,0,0,1-2.46.72,4.59,4.59,0,0,1-2.63.22A3.75,3.75,0,0,1,20.06,27.29Zm2.77-.83c1,.78,2.67.16,3.77.15,0-.11,0-.17.14-.15a7.68,7.68,0,0,0,2.68-1.11c.13-.29.38-.44.38-.83a1,1,0,0,1-.12-.58c-.62-.84-1-1.92-1.57-2.79-.05.11-.2.29-.38.14-.12.45-.59.31-.9.1a13.88,13.88,0,0,0-2.3,2c-.11,0-.09,0-.24,0C23.84,24.54,22.89,25.09,22.83,26.46Z"/><path class="cls-1" d="M40.15,27c.07-.31.29-.45.27-.85A9.29,9.29,0,0,0,41,24a.34.34,0,0,1,.23-.21,10.75,10.75,0,0,0-.34-4c0-.27.13-.36.05-.45s.22-.16.4-.16A4.82,4.82,0,0,0,41,17.86a10.65,10.65,0,0,1,.39-1.17c1.52.46,2.9,1.29,4.23,1.62,2,1.45,4.45,2.66,4.61,5.67a2,2,0,0,0-.1.72c-1.66,2.93-5.39,3.82-8.52,5.29C40.26,29.63,40.27,28.37,40.15,27Zm3-7a12.11,12.11,0,0,1,.11,6c.59,0,.88-.45,1.62-.5.07-.17.27-.26.38-.38,1.19-.47,2.34-1,2.84-2.13-.36-.68-1.17-.93-1.51-1.65-.74-.13-1-.69-1.84-.74,0-.07-.07-.07-.05-.16A3.28,3.28,0,0,1,43.32,20,.38.38,0,0,0,43.1,20.07Z"/><path class="cls-1" d="M50.66,27.85h.18c-.31-1,.5-1.69.2-2.54.21.14.23-.63.18-.86.59-1.46.61-3.17,1.19-4.42a.94.94,0,0,1,.86.31c1.48-1.12,2-3.51,4.16-3.73a5.89,5.89,0,0,1,1.8,1.5c.2.11.36.25.56.36v.25c.67.61.79,1.73,1.24,2.56-.11.28.09.36,0,.74-.16,2.5-3.2,2.8-5.07,3.6,0,.1.14.05.12.18a6.19,6.19,0,0,0,2.78,1.27,12.14,12.14,0,0,0,2.68.49A1.66,1.66,0,0,1,62,29.43c0,.09.14.06.25.06-.34.23-.38.75-.86.81-.87.32-2.13,0-4.15-.79a8.45,8.45,0,0,1-3.38-2c-.09,0,0,.11-.13.11a3.82,3.82,0,0,1-.81,2c-.36-.07-.45.14-.61.25-.49.09-.36-.27-.88-.25-.06-.22-.06-.47-.36-.43.12-.44-.18-.54-.07-.94C50.84,28.3,50.77,28,50.66,27.85Zm4.34-5a12.79,12.79,0,0,0,3.06-1.06,1.82,1.82,0,0,0-1.22-1.57C56.26,21.15,55.22,21.6,55,22.88Z"/><path class="cls-1" d="M61.68,28.12l.23-.18-.13,0,.15-.34c.56-1.42,1.19-2.72,1.87-4.09.22-.43.43-.9.65-1.35a.46.46,0,0,1,0-.32l0-.09a9,9,0,0,0,.63-1.14,7.41,7.41,0,0,1,.79-1.38l.15-.17h.21a1.19,1.19,0,0,1,.33-.07h.12l.18,0,0,.14a7.85,7.85,0,0,0,1.91-2.1l.2-.31.28.18a4.76,4.76,0,0,0,.71.22,2.86,2.86,0,0,1,1.26.52l.07.07,0,.09c0,.25.07.47.11.67A8.41,8.41,0,0,1,71.72,20c.13.45.24.93.33,1.42a7.1,7.1,0,0,0,.52,1.85l.16,0c.15,0,.31-.07.49-.09l.23,0,.07.22a.62.62,0,0,0,.22.2s0,0,.07,0a.8.8,0,0,1,.56.28,1,1,0,0,0,.16.15l.33.12-.18.33a3.27,3.27,0,0,1-1.46,1.29,3.54,3.54,0,0,0,.07.47,5.5,5.5,0,0,1,.11,1.53l0,.09A3.11,3.11,0,0,1,70.84,30l-.11,0a1.76,1.76,0,0,1-.45-.25,1.2,1.2,0,0,0-.21-.13l-.24-.11.07-.27c.06-.2,0-.3-.27-.54a1.25,1.25,0,0,1-.23-.23L69,28l.58-.14c.7-.18.88-.41.84-1.15l-.09-.13a9.15,9.15,0,0,0-1.2.23,5.61,5.61,0,0,1-1.62.26,3.39,3.39,0,0,1-.63,0l-.2,0-.06-.2a.92.92,0,0,0-.12-.16.72.72,0,0,1-.27-.72,1.28,1.28,0,0,1-.13-.39,5,5,0,0,0-.2.52l-.07.21-.21.06a.26.26,0,0,0-.08.2l.06.19-.16.17-.19.16c-.07.25-.14.48-.23.72a3.07,3.07,0,0,0-.23,1.06V29l-.09.11a1.52,1.52,0,0,1-.47.34,1.2,1.2,0,0,0-.23.12l-.08.24-.25,0-.14,0a1.15,1.15,0,0,1-.4.07h-.23l-.08-.08a4.18,4.18,0,0,0-.57-.45l-.07-.05,0-.09a1.75,1.75,0,0,1-.14-.49c0-.16,0-.27-.11-.32Zm5.13-3.84a3.59,3.59,0,0,0,.47,0A14.91,14.91,0,0,0,69.56,24c-.18-.85-.41-1.77-.66-2.69l-.08.13,0,.09a11.63,11.63,0,0,0-1.49,2Z"/><path class="cls-1" d="M74.82,24.88a11.11,11.11,0,0,1,2.91-4c.4-.2.47-.74,1-.81,1.16-1.37,3.44-2.15,4.9-3.41.27.15.38,0,.56.06v.07h-.07c-.09,0,0,.05.07.05.41.58,1.48.56,1.8,1.43-.34,0,.22.55-.2.55,0,.17.25.09.25.26s-.1.18,0,.37c-1.12.74-2.83,1.3-4.36,2.42a16.43,16.43,0,0,0-4.14,4.39c.06.11.16.18.2.31a20.66,20.66,0,0,1,2.41.07c.07-.07.07-.22.18-.25a28.42,28.42,0,0,0,4.36-1,4.5,4.5,0,0,0-.58-.2c-.12-.14.11-.25.22-.36a1.21,1.21,0,0,1-.69-1.09.3.3,0,0,0,0-.47c-.23-.09,0,.21-.28.12,0-.25.16-.37.21-.61l1.44-1c.63.47,1.86,1,2.76,1.57.81.34,1.13,1.17,1.92,1.54,0,.36.09.53.06.87-1.32,2.41-4.59,2.37-7.31,3.47a13,13,0,0,0-1.73.18c-.13,0-.13.09-.2.13a6.56,6.56,0,0,1-1.1.05c-.34,0-.7.15-1,.13-2.1-.09-3.35-1.59-3.47-4,0-.12-.09-.12-.13-.19A3.47,3.47,0,0,0,74.82,24.88Z"/><path class="cls-1" d="M96.42,28.73A3.64,3.64,0,0,1,96,25.62c0-.13,0-.26.09-.38A3.1,3.1,0,0,1,96.47,24a1.22,1.22,0,0,1,.2-.84,1.22,1.22,0,0,0,.07-.17c.29-.83.56-1.56.83-2.28a33.42,33.42,0,0,0,1.24-3.89l0-.09h.09a.28.28,0,0,0,.12,0,1,1,0,0,1,.22-.07l.09,0a4.36,4.36,0,0,0,1.64.5h.07l0,0a1.9,1.9,0,0,0,.18.2,1.54,1.54,0,0,1,.49,1.3l-.07.11s-.07.09-.11.09a6.7,6.7,0,0,1-.49,1.31,5.47,5.47,0,0,0-.46,1.4l0,.08a.94.94,0,0,0-.16.3,1.11,1.11,0,0,1-.22.45l0,.13a12.5,12.5,0,0,1-.52,1.4A7.24,7.24,0,0,0,99,26.62l.38,0a2.37,2.37,0,0,1,.44.05,6.7,6.7,0,0,1,2.88-.47,10.11,10.11,0,0,0,1.13-.05l.13.05c.07.08.12.09.27.09h.25l.09.06a1.76,1.76,0,0,0,.88.48,3,3,0,0,1,.88.44l.06.11.11.79a.63.63,0,0,1,.1.12s0,.08,0,.13a.27.27,0,0,1-.07.25c0,.05,0,.05,0,.09l.06.16-.15,0a.84.84,0,0,0-.5.31l0,.05-.08,0-.25,0a2.74,2.74,0,0,0-.72.13l-.09,0a3,3,0,0,0-1.08-.18c-.34,0-.68,0-1,.07a8.76,8.76,0,0,1-1,.08h-.13l-.36.12a8.69,8.69,0,0,1-2.68.58,2.46,2.46,0,0,1-1.66-.54l0-.07a.44.44,0,0,0-.15-.25A.87.87,0,0,1,96.42,28.73Z"/><path class="cls-1" d="M106.39,27.9c0-.32.18-.43.32-.59,1.14-.07,1.73-.29,2.74-.31a.21.21,0,0,1,.12,0,15.46,15.46,0,0,1,.8-2c.3-1.17.95-1.93,1-3a10.85,10.85,0,0,0,.65-2.36,6.71,6.71,0,0,0-1.66.38c-.93-.07-1-.66-1.31-1.31a1,1,0,0,0-.18-.92c.18,0,.3-.4.23-.54.79-.23,1.84-.07,2.43-.41,1.21,0,2.61-.11,3.75-.18.81.27,2.41-.15,2.75,1,.71.08.58.62.56,1.1-.75.56-2.36.67-3.78.7-.22,1.52-1.35,4.52-1.3,5-.48,1.05-.57,1.44-1,2.25l1.21,0c.09.51.77.31.77.78.9.23.38,1,0,1.42-.21,0-.41.15-.55.34a8.07,8.07,0,0,0-1.93.08c-.09,0,0,.16-.11.19-1.44-.48-3,.42-4.72.49C106.69,29.56,106.57,28.66,106.39,27.9Z"/><path class="cls-1" d="M118.54,29.43c-.07.11,0,.08,0,.27-.3-.07-.41.09-.63.13-1-.36-1.38-1.87-1.8-2.67,0-.07.11,0,.18,0-.12-.23-.14-.58-.3-.76,1.36-2.91,3.13-6.39,4.59-9.59,1.29.46,2.59,1.26,2.82,2.64-.07.15-.12,0-.18.11.24.25,0,.2.15.54-.11,0-.13.07-.25,0,.25.63-.31.64-.13,1.24-.16,0-.11.2-.29.16.15,1.23-.18,2.45.16,3.93,2-1.19,2.27-3.86,2.69-6.58.52-.5.5-1.54.86-2.21.88.11,1,1,1.89,1.08a3.58,3.58,0,0,1,.74,1.4c-.27.47-.22,1.17-.74,1.52a26.87,26.87,0,0,0-.56,3.81c-.21.69-.52,1.46-.65,2.06a4.24,4.24,0,0,0-.91,1.4c-.11.11-.09,0-.27,0,0,.2-.17.16-.06.45-.79.36-1.06,1.46-2.61.88a7,7,0,0,1-2.61-3.4c-.49.13-.4,1.1-.79,1.1-.07.43-.63.68-.4,1.22C119,28.5,119.46,29.47,118.54,29.43Z"/><path class="cls-1" d="M129.14,28.55a10.3,10.3,0,0,1-.29-2.68c.07-.43.49-.76.4-1.14.14,0,.11-.21.29-.18.32-1,.82-1.69,1.2-2.75-.79-.76-.59-1.69-.86-2.63.56-.86,1.6-1,2.83-1.24a32.66,32.66,0,0,1,5.72-1.08c0,.07.09.07.18,0a.17.17,0,0,0,.18.13s.07,0,.13,0-.08,0-.13,0v-.18c.11,0,.32.18.29-.06a2.64,2.64,0,0,0,1.28,1c.09.4-.11.34,0,.72-1.16,1.91-3.23,1-5.06,2.14-.36-.14-.56.15-1.12.08a2,2,0,0,1-.72.28c.13.27.05.54.13.72a31.19,31.19,0,0,0,3.4-.12c0,.12-.06.14-.06.25.44.25.72,1,1.28.88a1.05,1.05,0,0,1,.07.78,5.11,5.11,0,0,1-3.07,1.31.47.47,0,0,1-.31-.05c-.23.12-.72,0-1,.12-.32-.12-.8-.09-1.13-.18a8.87,8.87,0,0,0-1.1,2c1.93.27,2.31-.2,4.07-.13.58-.27,1.42-.3,2.07-.52.45.16.6.9,1.1.83.22.22.05.7.41.65-.86,1.84-2.16,1.76-4.26,2.16a1.9,1.9,0,0,1-.6,0c-1.31.25-3.8.57-4.89-.49C129.43,29,129.43,28.71,129.14,28.55Z"/><path class="cls-1" d="M9.42,45a9.09,9.09,0,0,1,2.09-3,.36.36,0,0,1,.2.07c.2-.54.79-.66,1.1-1.11,1.17-.25,1.69-1.15,2.86-1.42.43-.49,1.32-.54,1.68-1.1.14.2.45.07.64,0s.4.43.53.12c.16,0,0,.22,0,.26.23,0,.32.18.64.19.13.13,0,.17,0,.33,1.72.52.71,2.46-.57,2.79a6.86,6.86,0,0,0-3.31,1.56,7.12,7.12,0,0,0-2.92,2.2,1.23,1.23,0,0,1-.33.79,2.57,2.57,0,0,0,.38,1,21.83,21.83,0,0,0,6.11.65c.41.57,1.19.88,1,1.82a13.54,13.54,0,0,1-1.37,1.11,5.33,5.33,0,0,0-1.74.13A15.76,15.76,0,0,1,12,50.58a2,2,0,0,0-1-.72C9.73,48.8,9.37,46.68,9.42,45Z"/><path class="cls-1" d="M21.21,50.33a3.63,3.63,0,0,1-.46-3.11c0-.13.05-.26.09-.38a3,3,0,0,1,.43-1.21,1.26,1.26,0,0,1,.2-.85.77.77,0,0,0,.07-.16c.29-.83.56-1.56.83-2.28a35.44,35.44,0,0,0,1.24-3.89l0-.09h.09a.28.28,0,0,0,.13,0,.63.63,0,0,1,.22-.07l.09,0a4.2,4.2,0,0,0,1.64.51h.07l.05.05a1.9,1.9,0,0,0,.18.2,1.54,1.54,0,0,1,.49,1.3l-.07.11s-.08.09-.11.09a7.41,7.41,0,0,1-.49,1.31,5.87,5.87,0,0,0-.47,1.4l0,.08a1.19,1.19,0,0,0-.17.3,1,1,0,0,1-.21.45l0,.13a12.46,12.46,0,0,1-.53,1.4,7.24,7.24,0,0,0-.7,2.61l.38,0a2.18,2.18,0,0,1,.43.05,6.72,6.72,0,0,1,2.88-.47,10.18,10.18,0,0,0,1.14-.05l.12.05a.3.3,0,0,0,.27.09h.26l.09.06a1.76,1.76,0,0,0,.88.48,3,3,0,0,1,.88.44l0,.1.11.8a.43.43,0,0,1,.11.12s0,.08,0,.13a.27.27,0,0,1-.07.25s0,0,0,.09l.06.16-.15,0a.84.84,0,0,0-.5.31l-.06,0-.07,0-.25,0a2.67,2.67,0,0,0-.72.13l-.09,0a3.06,3.06,0,0,0-1.08-.18c-.34,0-.69,0-1,.07a8.76,8.76,0,0,1-1,.08h-.13L26,51a9.12,9.12,0,0,1-2.68.58,2.44,2.44,0,0,1-1.66-.54L21.56,51a.57.57,0,0,0-.15-.26A.92.92,0,0,1,21.21,50.33Z"/><path class="cls-1" d="M31.19,49.5c0-.32.18-.43.32-.59,1.13-.07,1.73-.29,2.74-.31a.21.21,0,0,1,.12,0,14.13,14.13,0,0,1,.8-2c.3-1.17.95-1.93,1-3a11.45,11.45,0,0,0,.65-2.36,6.58,6.58,0,0,0-1.66.38c-.94-.07-1-.66-1.31-1.31a1,1,0,0,0-.18-.92c.18,0,.3-.4.23-.54.79-.23,1.84-.07,2.43-.41,1.21,0,2.61-.11,3.75-.19.81.28,2.41-.14,2.75,1,.7.08.58.62.56,1.1-.76.56-2.36.67-3.78.7-.22,1.52-1.35,4.52-1.3,5-.48,1.05-.57,1.44-1,2.25l1.2,0c.09.51.78.31.78.78.9.23.38,1,0,1.42a.67.67,0,0,0-.56.34,8,8,0,0,0-1.92.08c-.09,0,0,.16-.11.19-1.44-.48-3,.42-4.72.49C31.49,51.16,31.37,50.26,31.19,49.5Z"/><path class="cls-1" d="M41.1,45a9.09,9.09,0,0,1,2.09-3,.36.36,0,0,1,.2.07c.2-.54.79-.66,1.1-1.11,1.17-.25,1.69-1.15,2.86-1.42.43-.49,1.32-.54,1.68-1.1.14.2.45.07.64,0s.4.43.53.12c.16,0,0,.22,0,.26.23,0,.32.18.64.19.13.13,0,.17,0,.33,1.71.52.71,2.46-.57,2.79A6.86,6.86,0,0,0,47,43.7,7.12,7.12,0,0,0,44,45.9a1.23,1.23,0,0,1-.33.79,2.57,2.57,0,0,0,.38,1,21.79,21.79,0,0,0,6.11.65c.41.57,1.18.88,1,1.82a13.54,13.54,0,0,1-1.37,1.11,5.4,5.4,0,0,0-1.75.13,15.76,15.76,0,0,1-4.41-.85,2,2,0,0,0-1-.72C41.41,48.8,41.05,46.68,41.1,45Z"/><path class="cls-1" d="M52.35,48.33c.08,0,0-.12.11-.16,0,.13.06.13.15.11s-.08-.11-.15-.11.06-.11,0-.18.1-.2.21-.23c.25-2.79,1.59-4.52,2.16-7.12.61-.61.63-1.78,1.59-2.28.41,0,.65.29,1.08.27.11.12.16.3.27.41l.32,0c.6.48,1.06,1.69.22,2.12.07.27-.16.24,0,.45a2.9,2.9,0,0,0-.86,1.91,26.38,26.38,0,0,1,2.38-1.84c0,.06.07.08.14.06a11.27,11.27,0,0,1,2.56-1.95.55.55,0,0,1,.47.06c0-.16-.15-.11-.13-.31a7.75,7.75,0,0,0,1-.43c.26.25.44.61.83.65.27.61.9.45.94,1.28a4.52,4.52,0,0,0-.34.72c-1.12,1-2.31,1.44-3.59,2.43-.28.41-.9.59-1.13,1l-.25,0c-.07.2-.33.27-.38.47.86,1.81,2.74,1.72,4.86,1.72.11,0,0-.16.18-.16.67.25.92.69,1.42,1.08a2.4,2.4,0,0,1-1.67,2.18,7.5,7.5,0,0,1-3.28-.43s-.11-.2-.16-.24-.45,0-.61-.1A9.67,9.67,0,0,1,59.52,49a6.14,6.14,0,0,1-1.31-1.22c-.08-.11-.24-.07-.35-.15-1.65,1-2,3.28-3.72,4-.51,0-.71-.44-1.14-.53,0-.68-.67-1.13-.32-1.58a1.46,1.46,0,0,0-.38-.27C52.64,48.93,52.1,48.67,52.35,48.33Z"/><path class="cls-1" d="M73.07,50.58a8.3,8.3,0,0,1-.52-1.08c.12-.12.11-.63.31-.45-.11-.5.28-.63.09-1a3.61,3.61,0,0,0,.55-2,2.26,2.26,0,0,0,.42-1.94c0-.09.12-.09.23-.09.36-1.86,0-4.92,1.73-5.4.31,1.17,1.15,1.71,1.69,2.75A26.91,26.91,0,0,1,77,45.33c0,.12.23.07.14.32a22.12,22.12,0,0,0,4.18-1.13,11.08,11.08,0,0,0,.31-3.34c.14-.1.19-.32.39-.37-.27-1.08.07-2.53,1.1-2.74.63.86.83,2.16,1.66,2.83.07.82.12,1.69.14,2.61a23.45,23.45,0,0,0-.65,3.11c-.37.43-.41,1.23-.84,1.6.1.33-.08.58.14,1,.09,1.44-1,1.88-2,2.2a2.47,2.47,0,0,0-.68-.39.34.34,0,0,0,0-.15h.07c0-.09-.07,0-.07,0a2.7,2.7,0,0,1-.78-1.66c0-.05.24-1.35.24-1.42a10.14,10.14,0,0,0-3.66,1.5c0,.14-.48,1.53-.88,1.47,0,.11.11.17.07.31-.79.25-1.19.88-2.27.34,0-.34-.61-.48-.59-.61C72.86,50.83,72.89,50.46,73.07,50.58Z"/><path class="cls-1" d="M85.76,50.15a10.3,10.3,0,0,1-.29-2.68c.07-.43.49-.76.4-1.14.14,0,.11-.21.29-.18.32-1,.83-1.69,1.2-2.75-.79-.76-.59-1.69-.86-2.63.56-.86,1.6-1,2.83-1.24a32.83,32.83,0,0,1,5.72-1.08c0,.07.09.07.18,0a.17.17,0,0,0,.18.13s.07,0,.13,0-.07,0-.13,0v-.18c.11,0,.33.18.29-.06a2.64,2.64,0,0,0,1.28,1c.09.4-.11.34,0,.72-1.16,1.91-3.23,1-5.06,2.14-.36-.14-.56.15-1.12.08a2.21,2.21,0,0,1-.72.28c.13.27.05.54.13.72a31.19,31.19,0,0,0,3.4-.12c0,.12,0,.14,0,.25.43.25.72,1,1.27.88a1.05,1.05,0,0,1,.08.78,5.16,5.16,0,0,1-3.08,1.31.47.47,0,0,1-.31,0c-.23.12-.72,0-1,.12-.33-.12-.81-.09-1.14-.18a8.87,8.87,0,0,0-1.1,2c1.93.27,2.31-.2,4.07-.13.58-.27,1.43-.3,2.07-.52.45.16.6.9,1.1.83.22.22.06.7.42.65-.87,1.84-2.16,1.76-4.27,2.16a1.63,1.63,0,0,1-.6-.06c-1.31.26-3.79.58-4.89-.48C86.05,50.6,86.05,50.31,85.76,50.15Z"/><path class="cls-1" d="M96.54,49.45h.18c-.3-1,.51-1.69.2-2.54.22.14.24-.63.18-.86.6-1.46.61-3.17,1.19-4.42a.94.94,0,0,1,.86.31c1.48-1.12,2-3.51,4.16-3.73a5.89,5.89,0,0,1,1.8,1.5c.2.11.36.25.56.36v.25c.67.61.79,1.73,1.25,2.56-.11.28.08.36,0,.73-.16,2.51-3.21,2.81-5.08,3.61,0,.1.15.05.13.18a6.16,6.16,0,0,0,2.77,1.27,12.14,12.14,0,0,0,2.68.49,1.64,1.64,0,0,1,.38,1.87c0,.09.15.06.25.06-.34.23-.38.75-.86.81-.86.32-2.13,0-4.14-.8a8.32,8.32,0,0,1-3.39-2c-.09,0,0,.11-.12.11a3.9,3.9,0,0,1-.81,2c-.36-.07-.45.14-.62.25-.48.09-.36-.27-.88-.25,0-.22,0-.47-.36-.43.13-.44-.18-.54-.07-.94C96.72,49.9,96.65,49.63,96.54,49.45Zm4.34-5a12.49,12.49,0,0,0,3.06-1.06,1.82,1.82,0,0,0-1.22-1.57C102.14,42.75,101.1,43.2,100.88,44.48Z"/><path class="cls-1" d="M108.51,50.15a9.88,9.88,0,0,1-.28-2.68c.07-.43.48-.76.39-1.14.15,0,.11-.21.29-.18.32-1,.83-1.69,1.21-2.75-.8-.76-.6-1.69-.87-2.63.56-.86,1.6-1,2.83-1.24a33,33,0,0,1,5.72-1.08c0,.07.09.07.18,0a.18.18,0,0,0,.19.13s.07,0,.12,0-.07,0-.12,0v-.18c.1,0,.32.18.28-.06a2.64,2.64,0,0,0,1.28,1c.09.4-.11.34,0,.72-1.15,1.91-3.22,1-5.06,2.14-.36-.14-.56.15-1.12.08a2.12,2.12,0,0,1-.72.28c.13.27.06.54.13.72a31.19,31.19,0,0,0,3.4-.12c0,.12,0,.14,0,.25.43.25.72,1,1.28.88a1.1,1.1,0,0,1,.07.78,5.16,5.16,0,0,1-3.08,1.31.47.47,0,0,1-.31,0c-.23.12-.72,0-1,.12-.33-.12-.81-.09-1.13-.18a8.16,8.16,0,0,0-1.1,2c1.92.27,2.3-.2,4.07-.13.57-.27,1.42-.3,2.07-.52.45.16.59.9,1.09.83.22.22.06.7.42.65-.87,1.84-2.16,1.76-4.27,2.16a1.58,1.58,0,0,1-.59-.06c-1.32.26-3.8.58-4.9-.48C108.8,50.6,108.8,50.31,108.51,50.15Z"/><path class="cls-1" d="M94,64.92a6.42,6.42,0,0,0-.89-.07c-1.58,0-2.44.31-2.87.86a25.44,25.44,0,0,1,1.28,4.68c2.67,18.11-18.83,34.38-34.43,38.33-2.67.63-.2,5.73,2.12,5.18,19.25-4.76,42.14-24.67,35.62-46.43C94.6,66.62,94.32,65.77,94,64.92Z"/><path class="cls-1" d="M68.8,101.48c2.12-2.82-2.87-4.38-4.51-2.22-2.74,3.61-5.61,7.22-8.35,10.83-1.09,1.45-.28,2.77,1.22,3.22L69.35,117c2.93.85,5.65-3.19,2.08-4.22l-12.19-3.71c.38,1,.84,2.17,1.22,3.22,2.73-3.61,5.61-7.22,8.34-10.83Z"/></svg>