<?xml version="1.0" encoding="utf-8"?>
<!-- Generator: Adobe Illustrator 25.0.0, SVG Export Plug-In . SVG Version: 6.00 Build 0)  -->
<svg version="1.1" id="Layer_1" xmlns="http://www.w3.org/2000/svg" xmlns:xlink="http://www.w3.org/1999/xlink" x="0px" y="0px"
	 viewBox="0 0 153.1 121.2" style="enable-background:new 0 0 153.1 121.2;" xml:space="preserve">
<style type="text/css">
	.st0{fill:#003E4C;}
</style>
<path class="st0" d="M13.8,14.9c-0.2-0.3-0.2-0.7-0.2-1.1c0-0.2,0.1-0.3,0.2-0.4v-0.3H14h0.6c0.9,0,1.8-0.1,2.8-0.2l1.8-0.2
	c0,0,0.1-0.1,0.1-0.1c0-0.1,0.1-0.2,0.1-0.2l0.1-0.1h0.1h0.1c0.3,0,0.5,0.1,0.7,0.3c0.6,0,1.2-0.1,1.9-0.2c0.9-0.2,1.9-0.3,2.9-0.3
	c0.4,0,0.7,0,1.1,0.1h0.1l0.1,0.1c0.1,0.2,0.2,0.3,0.4,0.4c0.5,0.3,0.8,0.9,0.7,1.5v0.1l-0.1,0c0,0.1-0.1,0.1-0.2,0.1
	c0,0-0.1,0-0.1,0.1l-0.1,0.2h-0.2c-0.2,0-0.3,0-0.4,0.1c-0.1,0.1-0.2,0.1-0.4,0.1H26c-0.2,0-0.3,0-0.5,0c-0.8,0-1.6,0.1-2.4,0.2
	l-1.5,0.2c-0.1,0.5-0.3,1-0.5,1.5c-0.3,0.5-0.5,1-0.6,1.5v0.1c-0.3,0.4-0.4,0.8-0.5,1.2v0.1l-0.1,0.1c-0.2,0.3-0.4,0.7-0.5,1.1
	l0,0.1v0.1l-0.1,0.1c0,0.1-0.1,0.2-0.1,0.3c0,0.2-0.1,0.3-0.1,0.5c-0.1,0.1-0.1,0.2-0.1,0.3v0.1c0,0.1-0.1,0.1-0.1,0.2
	c0,0.1,0,0.3,0,0.4c0,0.1,0,0.3,0,0.5c0.1,0.1,0.2,0.2,0.2,0.3l0.2,0.1c0.1,0,0.2,0.1,0.2,0.1l0.1,0v0.1c0.1,0.3,0,0.7-0.2,1
	c-0.3,0.3-0.7,0.4-1.1,0.4h-0.3l-0.1-0.1c0,0,0,0,0-0.1h-0.1c-0.2,0-0.3-0.1-0.4-0.2c-0.1,0-0.1-0.1-0.2-0.1l-0.3-0.1L16.7,25v-0.1
	c0,0,0-0.1,0-0.1c-0.2-0.3-0.3-0.6-0.4-0.9c0-0.3-0.1-0.5-0.3-0.7V23c0-1.2,0.3-2.4,0.9-3.5c0.2-0.6,0.4-1.2,0.6-1.8v-0.1l0.2-0.1
	c0,0,0.1,0,0.1,0l0.1-0.1c0-0.3,0.1-0.6,0.3-0.9c0.1-0.2,0.2-0.4,0.2-0.5c-0.2,0-0.3,0-0.5,0.1c-0.1,0-0.3,0-0.4,0
	c-0.1,0-0.1,0-0.2,0c-0.2,0.1-0.3,0.1-0.5,0.1c-0.1,0-0.1,0-0.2,0h-0.2c-0.1,0-0.2,0-0.3,0.1h-0.1h-0.1c-0.1,0-0.2,0-0.3,0h-0.2
	h-0.2c-0.3,0-0.5-0.1-0.7-0.2l-0.1-0.1c-0.1-0.1-0.1-0.2-0.2-0.2l-0.2,0v-0.2C13.9,15.2,13.9,15.1,13.8,14.9z"/>
<path class="st0" d="M24.2,22.8c-0.4-3.2,1.6-5.1,3.1-6.9c0.3,0.1,0.4-0.4,0.6-0.5c0.2-0.4,0.7-0.5,0.9-0.9c0.5-0.1,0.6-0.5,1.1-0.7
	v-0.2c0.4-0.2,0.8-0.5,1-0.9c0.2,0,0.4,0,0.7,0c0.2-0.3,0.4-0.6,0.7-0.8c0.3,0.2,0.8,0.1,1.1,0.5c0,0.6,0.7,0.5,0.8,1
	c0.1,0,0.1-0.1,0.2-0.1c0.1,0.4,0.2,0.4,0.3,0.8c-0.1,0.3-0.2,0.6-0.4,0.8c0,0.2,0.2,0.1,0.2,0.3c0,0.1,0,0.2,0,0.3
	c0.7,1.1,1.1,2.4,1.8,3.5c-0.1,0.7,0.4,1.2,0.5,1.9c0.1,0.9-0.2,1.7-0.8,2.3c-0.4,0.5-1,0.7-1.5,1.1c0,0-0.1,0-0.1-0.1c0,0,0,0,0,0
	c-0.3,0.3-0.6,0.4-1,0.4c-0.8,0.4-1.6,0.7-2.5,0.7c-0.8,0.3-1.8,0.4-2.6,0.2C26.5,25.6,24.7,24.5,24.2,22.8z M27,22
	c1,0.8,2.7,0.2,3.8,0.1c0-0.1,0-0.2,0.1-0.1c1-0.2,1.9-0.6,2.7-1.1c0.1-0.3,0.4-0.4,0.4-0.8c-0.1-0.2-0.1-0.4-0.1-0.6
	c-0.6-0.8-1-1.9-1.6-2.8c-0.1,0.1-0.2,0.3-0.4,0.1c-0.1,0.5-0.6,0.3-0.9,0.1c-0.8,0.6-1.6,1.3-2.3,2c-0.1,0-0.1,0-0.2,0
	C28,20.1,27,20.6,27,22z"/>
<path class="st0" d="M44.3,22.5c0.1-0.3,0.3-0.5,0.3-0.9c0.3-0.7,0.5-1.4,0.6-2.1c0-0.1,0.1-0.2,0.2-0.2c0.1-1.3,0-2.7-0.3-4
	c0-0.3,0.1-0.4,0-0.5s0.2-0.2,0.4-0.2c-0.1-0.5-0.2-0.9-0.3-1.3c0.1-0.4,0.2-0.8,0.4-1.2c1.5,0.5,2.9,1.3,4.2,1.6
	c2,1.5,4.5,2.7,4.6,5.7c-0.1,0.2-0.1,0.5-0.1,0.7c-1.7,2.9-5.4,3.8-8.5,5.3C44.4,25.1,44.4,23.9,44.3,22.5z M47.3,15.5
	c0.5,2,0.6,4,0.1,6c0.6,0,0.9-0.5,1.6-0.5c0.1-0.2,0.3-0.3,0.4-0.4c1.2-0.5,2.3-1,2.8-2.1c-0.4-0.7-1.2-0.9-1.5-1.6
	c-0.7-0.1-1-0.7-1.8-0.7c0-0.1-0.1-0.1,0-0.2c-0.5,0-1-0.2-1.4-0.4C47.4,15.5,47.3,15.5,47.3,15.5L47.3,15.5z"/>
<path class="st0" d="M54.8,23.4H55c-0.3-1,0.5-1.7,0.2-2.5c0.2,0.1,0.2-0.6,0.2-0.9c0.6-1.5,0.6-3.2,1.2-4.4
	c0.3-0.1,0.6,0.1,0.9,0.3c1.5-1.1,2-3.5,4.2-3.7c0.7,0.4,1.3,0.9,1.8,1.5c0.2,0.1,0.4,0.2,0.6,0.4v0.2c0.7,0.6,0.8,1.7,1.2,2.6
	c-0.1,0.3,0.1,0.4,0,0.7C65,20,62,20.3,60.1,21.1c0,0.1,0.1,0,0.1,0.2C61,22,62,22.4,63,22.6c0.9,0.3,1.8,0.4,2.7,0.5
	c0.5,0.5,0.7,1.2,0.5,1.9c0,0.1,0.1,0.1,0.2,0.1c-0.3,0.2-0.4,0.8-0.9,0.8c-0.9,0.3-2.1,0-4.2-0.8c-1.3-0.4-2.4-1.1-3.4-2
	c-0.1,0,0,0.1-0.1,0.1c-0.1,0.7-0.4,1.4-0.8,2c-0.4-0.1-0.5,0.1-0.6,0.2c-0.5,0.1-0.4-0.3-0.9-0.2c-0.1-0.2-0.1-0.5-0.4-0.4
	c0.1-0.4-0.2-0.5-0.1-0.9C55,23.8,54.9,23.5,54.8,23.4z M59.1,18.4c1.1-0.2,2.1-0.6,3.1-1.1c-0.1-0.7-0.5-1.3-1.2-1.6
	C60.4,16.7,59.3,17.1,59.1,18.4L59.1,18.4z"/>
<path class="st0" d="M65.8,23.6l0.2-0.2h-0.1l0.2-0.3c0.6-1.4,1.2-2.7,1.9-4.1c0.2-0.4,0.4-0.9,0.7-1.4c0-0.1,0-0.2,0-0.3v-0.1
	c0.2-0.4,0.4-0.7,0.6-1.1c0.2-0.5,0.5-0.9,0.8-1.4l0.2-0.2h0.2c0.1,0,0.2-0.1,0.3-0.1h0.1H71v0.1c0.8-0.6,1.4-1.3,1.9-2.1l0.2-0.3
	l0.3,0.2c0.2,0.1,0.5,0.2,0.7,0.2c0.5,0.1,0.9,0.2,1.3,0.5l0.1,0.1v0.1c0,0.2,0.1,0.5,0.1,0.7c0.2,0.5,0.3,1,0.3,1.5
	c0.1,0.5,0.2,0.9,0.3,1.4c0.1,0.6,0.3,1.3,0.5,1.9h0.2c0.2,0,0.3-0.1,0.5-0.1h0.2l0.1,0.2c0.1,0.1,0.1,0.2,0.2,0.2c0,0,0,0,0.1,0
	c0.2,0,0.4,0.1,0.6,0.3c0,0.1,0.1,0.1,0.2,0.1l0.3,0.1L78.8,20c-0.3,0.6-0.9,1-1.5,1.3c0,0.2,0,0.3,0.1,0.5c0.1,0.5,0.1,1,0.1,1.5
	v0.1c-0.4,1.1-1.4,2-2.6,2.1h-0.1c-0.2-0.1-0.3-0.1-0.4-0.2c-0.1-0.1-0.1-0.1-0.2-0.1L74,25l0.1-0.3c0.1-0.2,0-0.3-0.3-0.5
	c-0.1-0.1-0.2-0.1-0.2-0.2l-0.4-0.5l0.6-0.1c0.7-0.2,0.9-0.4,0.8-1.1l-0.1-0.1c-0.4,0-0.8,0.1-1.2,0.2c-0.5,0.2-1.1,0.3-1.6,0.3
	c-0.2,0-0.4,0-0.6,0h-0.2l-0.1-0.2c0-0.1-0.1-0.1-0.1-0.2c-0.2-0.2-0.3-0.4-0.3-0.7c-0.1-0.1-0.1-0.3-0.1-0.4
	c-0.1,0.2-0.1,0.3-0.2,0.5L70,21.9l-0.2,0.1c-0.1,0.1-0.1,0.1-0.1,0.2l0.1,0.2l-0.2,0.2l-0.2,0.2c-0.1,0.2-0.1,0.5-0.2,0.7
	c-0.1,0.3-0.2,0.7-0.2,1.1v0.1l-0.1,0.1c-0.1,0.1-0.3,0.3-0.5,0.3c-0.1,0-0.2,0.1-0.2,0.1L68,25.3h-0.2h-0.1c-0.1,0-0.3,0.1-0.4,0.1
	H67l-0.1-0.1c-0.2-0.2-0.4-0.3-0.6-0.5l-0.1,0v-0.1c-0.1-0.2-0.1-0.3-0.1-0.5c0-0.2,0-0.3-0.1-0.3L65.8,23.6z M70.9,19.8
	c0.2,0,0.3,0,0.5,0c0.8,0,1.5-0.1,2.3-0.3c-0.2-0.9-0.4-1.8-0.7-2.7L72.9,17V17c-0.6,0.6-1.1,1.3-1.5,2L70.9,19.8z"/>
<path class="st0" d="M78.9,20.4c0.7-1.5,1.7-2.9,2.9-4c0.4-0.2,0.5-0.7,1-0.8c1.2-1.4,3.4-2.1,4.9-3.4c0.3,0.1,0.4,0,0.6,0.1v0.1
	h-0.1c-0.1,0,0,0,0.1,0c0.4,0.6,1.5,0.6,1.8,1.4c-0.3,0,0.2,0.5-0.2,0.5c0,0.2,0.2,0.1,0.2,0.3s-0.1,0.2,0,0.4
	c-1.1,0.7-2.8,1.3-4.4,2.4c-1.6,1.2-3,2.7-4.1,4.4c0.1,0.1,0.2,0.2,0.2,0.3c0.8,0,1.6,0,2.4,0.1c0.1-0.1,0.1-0.2,0.2-0.2
	c1.5-0.2,2.9-0.6,4.4-1c-0.2-0.1-0.4-0.1-0.6-0.2c-0.1-0.1,0.1-0.2,0.2-0.4c-0.4-0.2-0.7-0.6-0.7-1.1c0.1-0.1,0.2-0.3,0-0.4
	c0,0,0,0,0,0c-0.2-0.1,0,0.2-0.3,0.1c0-0.2,0.2-0.4,0.2-0.6l1.4-1c0.6,0.5,1.9,1,2.8,1.6c0.8,0.3,1.1,1.2,1.9,1.5
	c0,0.4,0.1,0.5,0.1,0.9c-1.3,2.4-4.6,2.4-7.3,3.5c-0.6,0-1.2,0.1-1.7,0.2c-0.1,0-0.1,0.1-0.2,0.1c-0.4,0-0.7,0.1-1.1,0
	c-0.3,0-0.7,0.1-1,0.1c-2.1-0.1-3.3-1.6-3.5-4c0-0.1-0.1-0.1-0.1-0.2C79,20.8,79,20.6,78.9,20.4z"/>
<path class="st0" d="M100.5,24.2c-0.6-0.9-0.8-2.1-0.4-3.1c0-0.1,0-0.3,0.1-0.4c0-0.4,0.2-0.9,0.4-1.2c0-0.3,0-0.6,0.2-0.8
	c0-0.1,0.1-0.1,0.1-0.2c0.3-0.8,0.6-1.6,0.8-2.3c0.5-1.3,0.9-2.6,1.2-3.9v-0.1h0.1c0,0,0.1,0,0.1,0c0.1,0,0.1-0.1,0.2-0.1h0.1
	c0.5,0.3,1.1,0.4,1.6,0.5h0.1l0,0c0.1,0.1,0.1,0.1,0.2,0.2c0.4,0.3,0.5,0.8,0.5,1.3l-0.1,0.1c0,0-0.1,0.1-0.1,0.1
	c-0.1,0.5-0.3,0.9-0.5,1.3c-0.2,0.4-0.4,0.9-0.5,1.4v0.1c-0.1,0.1-0.1,0.2-0.2,0.3c0,0.2-0.1,0.3-0.2,0.5V18
	c-0.1,0.5-0.3,0.9-0.5,1.4c-0.4,0.8-0.6,1.8-0.7,2.7h0.4c0.1,0,0.3,0,0.4,0c0.9-0.4,1.9-0.5,2.9-0.5c0.4,0,0.8,0,1.1,0l0.1,0
	c0.1,0.1,0.1,0.1,0.3,0.1h0.2l0.1,0.1c0.2,0.2,0.5,0.4,0.9,0.5c0.3,0.1,0.6,0.2,0.9,0.4l0.1,0.1l0.1,0.8c0,0,0.1,0.1,0.1,0.1
	c0,0,0,0.1,0,0.1c0,0.1,0,0.2-0.1,0.2c0,0,0,0,0,0.1l0.1,0.2h-0.2c-0.2,0-0.4,0.1-0.5,0.3v0H110h-0.2c-0.2,0-0.5,0.1-0.7,0.1h-0.1
	c-0.3-0.1-0.7-0.2-1.1-0.2c-0.3,0-0.7,0-1,0.1c-0.3,0-0.7,0.1-1,0.1h-0.1l-0.4,0.1c-0.9,0.3-1.8,0.5-2.7,0.6c-0.6,0-1.2-0.2-1.7-0.5
	V25c0-0.1-0.1-0.2-0.2-0.2C100.7,24.6,100.6,24.4,100.5,24.2z"/>
<path class="st0" d="M110.5,23.4c0-0.3,0.2-0.4,0.3-0.6c1.1-0.1,1.7-0.3,2.7-0.3c0,0,0.1,0,0.1,0c0.2-0.7,0.5-1.4,0.8-2
	c0.3-1.2,0.9-1.9,1-3c0.3-0.8,0.5-1.6,0.7-2.4c-0.6,0.1-1.1,0.2-1.7,0.4c-0.9-0.1-1-0.7-1.3-1.3c0.1-0.3,0-0.7-0.2-0.9
	c0.2,0,0.3-0.4,0.2-0.5c0.8-0.2,1.8-0.1,2.4-0.4c1.2,0,2.6-0.1,3.8-0.2c0.8,0.3,2.4-0.1,2.8,1c0.7,0.1,0.6,0.6,0.6,1.1
	c-0.8,0.6-2.4,0.7-3.8,0.7c-0.2,1.5-1.3,4.5-1.3,5c-0.5,1-0.6,1.4-1,2.2h1.2c0.1,0.5,0.8,0.3,0.8,0.8c0.9,0.2,0.4,1,0,1.4
	c-0.2,0-0.4,0.1-0.6,0.3c-0.6-0.1-1.3,0-1.9,0.1c-0.1,0,0,0.2-0.1,0.2c-1.4-0.5-3,0.4-4.7,0.5C110.8,25.1,110.7,24.2,110.5,23.4z"/>
<path class="st0" d="M122.7,25c-0.1,0.1,0,0.1,0,0.3c-0.3-0.1-0.4,0.1-0.6,0.1c-1-0.4-1.4-1.9-1.8-2.7c0-0.1,0.1,0,0.2,0
	c-0.1-0.2-0.1-0.6-0.3-0.8c1.4-2.9,3.1-6.4,4.6-9.6c1.3,0.5,2.6,1.3,2.8,2.6c-0.1,0.1-0.1,0-0.2,0.1c0.2,0.2,0,0.2,0.2,0.5
	c-0.1,0-0.1,0.1-0.2,0c0.2,0.6-0.3,0.6-0.1,1.2c-0.2,0-0.1,0.2-0.3,0.2c0.2,1.2-0.2,2.5,0.2,3.9c2-1.2,2.3-3.9,2.7-6.6
	c0.5-0.5,0.5-1.5,0.9-2.2c0.9,0.1,1,1,1.9,1.1c0.3,0.4,0.6,0.9,0.7,1.4c-0.3,0.5-0.2,1.2-0.7,1.5c-0.3,1.3-0.5,2.5-0.6,3.8
	c-0.2,0.7-0.5,1.5-0.6,2.1c-0.4,0.4-0.7,0.9-0.9,1.4c-0.1,0.1-0.1,0-0.3,0c0,0.2-0.2,0.2-0.1,0.5c-0.8,0.4-1.1,1.5-2.6,0.9
	c-1.2-0.8-2.1-2-2.6-3.4c-0.5,0.1-0.4,1.1-0.8,1.1c-0.1,0.4-0.6,0.7-0.4,1.2C123.1,24,123.6,25,122.7,25z"/>
<path class="st0" d="M133.3,24.1c-0.2-0.9-0.3-1.8-0.3-2.7c0.1-0.4,0.5-0.8,0.4-1.1c0.1,0,0.1-0.2,0.3-0.2c0.3-1,0.8-1.7,1.2-2.8
	c-0.8-0.8-0.6-1.7-0.9-2.6c0.6-0.9,1.6-1,2.8-1.2c1.9-0.5,3.8-0.9,5.7-1.1c0,0.1,0.1,0.1,0.2,0c0,0.1,0.1,0.1,0.2,0.1
	c0,0,0.1,0,0.1,0s-0.1,0-0.1,0v-0.2c0.1,0,0.3,0.2,0.3-0.1c0.3,0.5,0.8,0.8,1.3,1c0.1,0.4-0.1,0.3,0,0.7c-1.2,1.9-3.2,1-5.1,2.1
	c-0.4-0.1-0.6,0.1-1.1,0.1c-0.2,0.1-0.5,0.2-0.7,0.3c0.1,0.3,0,0.5,0.1,0.7c1.1,0,2.3,0,3.4-0.1c0,0.1-0.1,0.1-0.1,0.2
	c0.4,0.2,0.7,1,1.3,0.9c0.1,0.2,0.1,0.5,0.1,0.8c-0.8,0.8-1.9,1.2-3.1,1.3c-0.1,0-0.2,0-0.3,0c-0.2,0.1-0.7,0-1,0.1
	c-0.3-0.1-0.8-0.1-1.1-0.2c-0.5,0.6-0.8,1.3-1.1,2c1.9,0.3,2.3-0.2,4.1-0.1c0.6-0.3,1.4-0.3,2.1-0.5c0.4,0.2,0.6,0.9,1.1,0.8
	c0.2,0.2,0,0.7,0.4,0.6c-0.9,1.8-2.2,1.8-4.3,2.2c-0.2,0-0.4,0-0.6,0c-1.3,0.2-3.8,0.6-4.9-0.5C133.5,24.5,133.5,24.2,133.3,24.1z"
	/>
<path class="st0" d="M13.5,40.5c0.5-1.1,1.2-2.2,2.1-3c0.1,0,0.1,0,0.2,0.1c0.2-0.5,0.8-0.7,1.1-1.1c1.2-0.2,1.7-1.2,2.9-1.4
	c0.4-0.5,1.3-0.5,1.7-1.1c0.1,0.2,0.5,0.1,0.6,0s0.4,0.4,0.5,0.1c0.2,0,0,0.2,0,0.3c0.2,0,0.3,0.2,0.6,0.2c0.1,0.1,0,0.2,0,0.3
	c1.7,0.5,0.7,2.5-0.6,2.8c-1.2,0.2-2.4,0.7-3.3,1.6c-1.1,0.5-2.2,1.2-2.9,2.2c0,0.3-0.1,0.6-0.3,0.8c0.1,0.4,0.2,0.7,0.4,1
	c2,0.5,4.1,0.7,6.1,0.7c0.4,0.6,1.2,0.9,1,1.8c-0.4,0.4-0.9,0.8-1.4,1.1c-0.6-0.1-1.2,0-1.7,0.1c-1.5-0.1-3-0.3-4.4-0.8
	c-0.2-0.3-0.6-0.6-1-0.7C13.9,44.3,13.5,42.2,13.5,40.5z"/>
<path class="st0" d="M25.3,45.9c-0.6-0.9-0.8-2.1-0.5-3.1c0-0.1,0-0.3,0.1-0.4c0.1-0.4,0.2-0.8,0.4-1.2c0-0.3,0-0.6,0.2-0.8
	c0-0.1,0.1-0.1,0.1-0.2c0.3-0.8,0.6-1.6,0.8-2.3c0.5-1.3,0.9-2.6,1.2-3.9v-0.1h0.1c0,0,0.1,0,0.1,0c0.1,0,0.1-0.1,0.2-0.1h0.1
	c0.5,0.3,1.1,0.5,1.6,0.5H30l0,0c0.1,0.1,0.1,0.1,0.2,0.2c0.4,0.3,0.5,0.8,0.5,1.3L30.6,36c0,0-0.1,0.1-0.1,0.1
	c-0.1,0.5-0.3,0.9-0.5,1.3c-0.2,0.4-0.4,0.9-0.5,1.4v0.1c-0.1,0.1-0.1,0.2-0.2,0.3c0,0.2-0.1,0.3-0.2,0.5v0.1
	c-0.1,0.5-0.3,0.9-0.5,1.4c-0.4,0.8-0.6,1.7-0.7,2.6h0.4c0.1,0,0.3,0,0.4,0c0.9-0.4,1.9-0.5,2.9-0.5c0.4,0,0.8,0,1.1,0l0.1,0
	c0.1,0.1,0.2,0.1,0.3,0.1h0.3l0.1,0.1c0.2,0.2,0.5,0.4,0.9,0.5c0.3,0.1,0.6,0.2,0.9,0.4v0.1l0.1,0.8c0,0,0.1,0.1,0.1,0.1
	c0,0,0,0.1,0,0.1c0,0.1,0,0.2-0.1,0.2c0,0,0,0,0,0.1l0.1,0.2h-0.2c-0.2,0-0.4,0.1-0.5,0.3h-0.1h-0.1h-0.2c-0.2,0-0.5,0.1-0.7,0.1
	h-0.1c-0.3-0.1-0.7-0.2-1.1-0.2c-0.3,0-0.7,0-1,0.1c-0.3,0-0.7,0.1-1,0.1h-0.1l-0.3,0.1c-0.9,0.3-1.8,0.5-2.7,0.6
	c-0.6,0-1.2-0.2-1.7-0.5l-0.1,0c0-0.1-0.1-0.2-0.1-0.3C25.4,46.1,25.4,46,25.3,45.9z"/>
<path class="st0" d="M35.3,45c0-0.3,0.2-0.4,0.3-0.6c1.1-0.1,1.7-0.3,2.7-0.3c0,0,0.1,0,0.1,0c0.2-0.7,0.5-1.4,0.8-2
	c0.3-1.2,1-1.9,1-3c0.3-0.8,0.5-1.6,0.7-2.4c-0.6,0.1-1.1,0.2-1.7,0.4c-0.9-0.1-1-0.7-1.3-1.3c0.1-0.3,0-0.7-0.2-0.9
	c0.2,0,0.3-0.4,0.2-0.5c0.8-0.2,1.8-0.1,2.4-0.4c1.2,0,2.6-0.1,3.8-0.2c0.8,0.3,2.4-0.1,2.8,1c0.7,0.1,0.6,0.6,0.6,1.1
	c-0.8,0.6-2.4,0.7-3.8,0.7c-0.2,1.5-1.3,4.5-1.3,5c-0.5,1-0.6,1.4-1,2.2h1.2c0.1,0.5,0.8,0.3,0.8,0.8c0.9,0.2,0.4,1,0,1.4
	c-0.2,0-0.4,0.1-0.6,0.3c-0.6-0.1-1.3,0-1.9,0.1c-0.1,0,0,0.2-0.1,0.2c-1.4-0.5-3,0.4-4.7,0.5C35.6,46.7,35.5,45.8,35.3,45z"/>
<path class="st0" d="M45.2,40.5c0.5-1.1,1.2-2.2,2.1-3c0.1,0,0.1,0,0.2,0.1c0.2-0.5,0.8-0.7,1.1-1.1c1.2-0.2,1.7-1.2,2.9-1.4
	c0.4-0.5,1.3-0.5,1.7-1.1c0.1,0.2,0.5,0.1,0.6,0s0.4,0.4,0.5,0.1c0.2,0,0,0.2,0,0.3c0.2,0,0.3,0.2,0.6,0.2c0.1,0.1,0,0.2,0,0.3
	c1.7,0.5,0.7,2.5-0.6,2.8c-1.2,0.2-2.3,0.8-3.3,1.6c-1.2,0.5-2.2,1.2-3,2.2c0,0.3-0.1,0.6-0.3,0.8c0.1,0.4,0.2,0.7,0.4,1
	c2,0.5,4.1,0.7,6.1,0.7c0.4,0.6,1.2,0.9,1,1.8c-0.4,0.4-0.9,0.8-1.4,1.1c-0.6-0.1-1.2,0-1.8,0.1c-1.5-0.1-3-0.4-4.4-0.8
	c-0.2-0.3-0.6-0.6-1-0.7C45.5,44.3,45.2,42.2,45.2,40.5z"/>
<path class="st0" d="M56.5,43.9c0.1,0,0-0.1,0.1-0.2c0,0.1,0.1,0.1,0.2,0.1s-0.1-0.1-0.2-0.1s0.1-0.1,0-0.2s0.1-0.2,0.2-0.2
	c0.2-2.8,1.6-4.5,2.2-7.1c0.6-0.6,0.6-1.8,1.6-2.3c0.4,0,0.7,0.3,1.1,0.3c0.1,0.1,0.2,0.3,0.3,0.4h0.3c0.6,0.5,1.1,1.7,0.2,2.1
	c0.1,0.3-0.2,0.2,0,0.5c-0.5,0.5-0.8,1.2-0.9,1.9c0.8-0.7,1.6-1.3,2.4-1.8c0,0.1,0.1,0.1,0.1,0.1c0.8-0.8,1.6-1.4,2.6-2
	c0.2-0.1,0.3,0,0.5,0.1c0-0.2-0.2-0.1-0.1-0.3c0.3-0.1,0.7-0.3,1-0.4c0.3,0.2,0.4,0.6,0.8,0.7c0.3,0.6,0.9,0.5,0.9,1.3
	c-0.1,0.2-0.2,0.5-0.3,0.7c-1.1,1-2.3,1.4-3.6,2.4c-0.3,0.4-0.9,0.6-1.1,1h-0.2c-0.1,0.2-0.3,0.3-0.4,0.5c0.9,1.8,2.7,1.7,4.9,1.7
	c0.1,0,0-0.2,0.2-0.2c0.7,0.2,0.9,0.7,1.4,1.1c0,1-0.7,1.9-1.7,2.2c-1.1,0.1-2.2,0-3.3-0.4c0,0-0.1-0.2-0.2-0.2
	c-0.1,0-0.5,0-0.6-0.1c-0.4-0.2-0.8-0.4-1.2-0.7c-0.5-0.3-0.9-0.8-1.3-1.2c-0.1-0.1-0.2-0.1-0.3-0.2c-1.7,1-2,3.3-3.7,4
	c-0.5,0-0.7-0.4-1.1-0.5c0-0.7-0.7-1.1-0.3-1.6c-0.1-0.1-0.2-0.2-0.4-0.3C56.8,44.5,56.2,44.2,56.5,43.9z"/>
<path class="st0" d="M77.2,46.1c-0.2-0.3-0.4-0.7-0.5-1.1c0.1-0.1,0.1-0.6,0.3-0.5c-0.1-0.5,0.3-0.6,0.1-1c0.4-0.6,0.6-1.3,0.6-2
	c0.4-0.5,0.6-1.3,0.4-1.9c0-0.1,0.1-0.1,0.2-0.1c0.4-1.9,0-4.9,1.7-5.4c0.3,1.2,1.2,1.7,1.7,2.8c-0.1,1.3-0.3,2.7-0.6,4
	c0,0.1,0.2,0.1,0.1,0.3c1.4-0.2,2.8-0.6,4.2-1.1c0.3-1.1,0.4-2.2,0.3-3.3c0.1-0.1,0.2-0.3,0.4-0.4c-0.3-1.1,0.1-2.5,1.1-2.7
	c0.6,0.9,0.8,2.2,1.7,2.8C89,37.2,89,38.1,89,39c-0.3,1-0.5,2.1-0.7,3.1c-0.4,0.4-0.4,1.2-0.8,1.6c0.1,0.3-0.1,0.6,0.1,1
	c0.1,1.4-1,1.9-2,2.2c-0.2-0.2-0.4-0.3-0.7-0.4c0,0,0-0.1,0-0.2h0.1c0-0.1-0.1,0-0.1,0c-0.4-0.4-0.7-1-0.8-1.7c0,0,0.2-1.3,0.2-1.4
	c-1.3,0.3-2.6,0.8-3.7,1.5c0,0.1-0.5,1.5-0.9,1.5c0,0.1,0.1,0.2,0.1,0.3c-0.8,0.2-1.2,0.9-2.3,0.3c0-0.3-0.6-0.5-0.6-0.6
	C77,46.4,77,46,77.2,46.1z"/>
<path class="st0" d="M89.9,45.7c-0.2-0.9-0.3-1.8-0.3-2.7c0.1-0.4,0.5-0.8,0.4-1.1c0.1,0,0.1-0.2,0.3-0.2c0.3-1,0.8-1.7,1.2-2.8
	c-0.8-0.8-0.6-1.7-0.9-2.6c0.6-0.9,1.6-1,2.8-1.2c1.9-0.5,3.8-0.9,5.7-1.1c0,0.1,0.1,0.1,0.2,0c0,0.1,0.1,0.1,0.2,0.1
	c0,0,0.1,0,0.1,0s-0.1,0-0.1,0v-0.2c0.1,0,0.3,0.2,0.3-0.1c0.3,0.5,0.8,0.8,1.3,1c0.1,0.4-0.1,0.3,0,0.7c-1.2,1.9-3.2,1-5.1,2.1
	c-0.4-0.1-0.6,0.2-1.1,0.1c-0.2,0.1-0.5,0.2-0.7,0.3c0.1,0.3,0.1,0.5,0.1,0.7c1.1,0,2.3,0,3.4-0.1c0,0.1,0,0.1,0,0.2
	c0.4,0.2,0.7,1,1.3,0.9c0.1,0.2,0.2,0.5,0.1,0.8c-0.9,0.8-1.9,1.2-3.1,1.3c-0.1,0-0.2,0-0.3,0c-0.2,0.1-0.7,0-1,0.1
	c-0.3-0.1-0.8-0.1-1.1-0.2c-0.5,0.6-0.8,1.3-1.1,2c1.9,0.3,2.3-0.2,4.1-0.1c0.6-0.3,1.4-0.3,2.1-0.5c0.4,0.2,0.6,0.9,1.1,0.8
	c0.2,0.2,0.1,0.7,0.4,0.7c-0.9,1.8-2.2,1.8-4.3,2.2c-0.2,0-0.4,0-0.6-0.1c-1.3,0.3-3.8,0.6-4.9-0.5C90.2,46.1,90.2,45.8,89.9,45.7z"
	/>
<path class="st0" d="M100.7,45h0.2c-0.3-1,0.5-1.7,0.2-2.5c0.2,0.1,0.2-0.6,0.2-0.9c0.6-1.5,0.6-3.2,1.2-4.4
	c0.3-0.1,0.6,0.1,0.9,0.3c1.5-1.1,2-3.5,4.2-3.7c0.7,0.4,1.3,0.9,1.8,1.5c0.2,0.1,0.4,0.2,0.6,0.4v0.2c0.7,0.6,0.8,1.7,1.2,2.6
	c-0.1,0.3,0.1,0.4,0,0.7c-0.2,2.5-3.2,2.8-5.1,3.6c0,0.1,0.2,0,0.1,0.2c0.8,0.6,1.8,1.1,2.8,1.3c0.9,0.3,1.8,0.4,2.7,0.5
	c0.5,0.5,0.7,1.2,0.4,1.9c0,0.1,0.2,0.1,0.2,0.1c-0.3,0.2-0.4,0.8-0.9,0.8c-0.9,0.3-2.1,0-4.1-0.8c-1.3-0.4-2.4-1.1-3.4-2
	c-0.1,0,0,0.1-0.1,0.1c-0.1,0.7-0.4,1.4-0.8,2c-0.4-0.1-0.4,0.1-0.6,0.2c-0.5,0.1-0.4-0.3-0.9-0.2c0-0.2,0-0.5-0.4-0.4
	c0.1-0.4-0.2-0.5-0.1-0.9C100.8,45.4,100.8,45.2,100.7,45z M105,40c1.1-0.2,2.1-0.6,3.1-1.1c-0.1-0.7-0.5-1.3-1.2-1.6
	C106.3,38.3,105.2,38.7,105,40L105,40z"/>
<path class="st0" d="M112.6,45.7c-0.2-0.9-0.3-1.8-0.3-2.7c0.1-0.4,0.5-0.8,0.4-1.1c0.2,0,0.1-0.2,0.3-0.2c0.3-1,0.8-1.7,1.2-2.8
	c-0.8-0.8-0.6-1.7-0.9-2.6c0.6-0.9,1.6-1,2.8-1.2c1.9-0.5,3.8-0.9,5.7-1.1c0,0.1,0.1,0.1,0.2,0c0,0.1,0.1,0.1,0.2,0.1
	c0,0,0.1,0,0.1,0s-0.1,0-0.1,0v-0.2c0.1,0,0.3,0.2,0.3-0.1c0.3,0.5,0.8,0.8,1.3,1c0.1,0.4-0.1,0.3,0,0.7c-1.2,1.9-3.2,1-5.1,2.1
	c-0.4-0.1-0.6,0.2-1.1,0.1c-0.2,0.1-0.5,0.2-0.7,0.3c0.1,0.3,0.1,0.5,0.1,0.7c1.1,0,2.3,0,3.4-0.1c0,0.1,0,0.1,0,0.2
	c0.4,0.2,0.7,1,1.3,0.9c0.1,0.2,0.1,0.5,0.1,0.8c-0.9,0.8-1.9,1.2-3.1,1.3c-0.1,0-0.2,0-0.3,0c-0.2,0.1-0.7,0-1,0.1
	c-0.3-0.1-0.8-0.1-1.1-0.2c-0.5,0.6-0.8,1.3-1.1,2c1.9,0.3,2.3-0.2,4.1-0.1c0.6-0.3,1.4-0.3,2.1-0.5c0.4,0.2,0.6,0.9,1.1,0.8
	c0.2,0.2,0.1,0.7,0.4,0.7c-0.9,1.8-2.2,1.8-4.3,2.2c-0.2,0-0.4,0-0.6-0.1c-1.3,0.3-3.8,0.6-4.9-0.5
	C112.9,46.1,112.9,45.8,112.6,45.7z"/>
<path class="st0" d="M60.7,63c-6.5,21.8,16.4,41.7,35.6,46.4c2.3,0.6,4.8-4.6,2.1-5.2C82.8,100.3,61.3,84,64,65.9
	c0.3-1.6,0.7-3.2,1.3-4.7c-0.4-0.6-1.3-0.9-2.9-0.9c-0.3,0-0.6,0-0.9,0.1C61.2,61.3,60.9,62.1,60.7,63z"/>
<path class="st0" d="M86.7,97c2.7,3.6,5.6,7.2,8.3,10.8c0.4-1.1,0.8-2.2,1.2-3.2l-12.2,3.7c-3.6,1-0.8,5.1,2.1,4.2l12.2-3.7
	c1.5-0.5,2.3-1.8,1.2-3.2c-2.7-3.6-5.6-7.2-8.3-10.8C89.6,92.6,84.6,94.2,86.7,97L86.7,97z"/>
</svg>
