<svg id="Layer_1" data-name="Layer 1" xmlns="http://www.w3.org/2000/svg" viewBox="0 0 72.71 50.91"><defs><style>.cls-1{fill:#528918;}</style></defs><path class="cls-1" d="M34.48,4.09C35.31,3,30.93,2.5,30,3.56A88.71,88.71,0,0,1,5,24c-.23.07-.53.15-.76.23-.68.3-2,1.05-.83,1.81,9.44,6,17.29,13.13,24.91,21.29.76.75,5,.9,4.23-.53A53.25,53.25,0,0,0,22.25,34.29a77.05,77.05,0,0,0-6-5.21c2.95.07,6-.15,8.91-.23,4.61-.07,9.14.6,13.74.53,9.36-.15,18.65-.83,28-.83,3.7,0,3.7-5.66,0-5.81-9.36-.38-18.65.15-28,.22-4.6,0-9.13-.68-13.74-.6-3.09.07-6.42-.3-9.66-.15A74.7,74.7,0,0,0,34.48,4.09Z"/><path class="cls-1" d="M30.69,50.91a6.61,6.61,0,0,1-4.45-1.44l-.07-.07C17.59,40.21,10.08,33.8,1.85,28.59A3.72,3.72,0,0,1,0,25.13c.09-1.08.7-2.58,3.05-3.63l.27-.1.5-.15h0A84.62,84.62,0,0,0,27.71,1.65c2-2.3,6.78-1.95,8.59-.46a3.36,3.36,0,0,1,.58,4.7A79.06,79.06,0,0,1,24.3,19.37c.25,0,.55,0,.82,0,2.58,0,5.08.13,7.51.3,2.17.16,4.22.3,6.3.3,3.07,0,6.22-.1,9.27-.17,6.16-.15,12.52-.31,18.86-.05a5.82,5.82,0,0,1,5.65,6.09,5.7,5.7,0,0,1-5.77,5.72c-5.2,0-10.5.22-15.62.43-4,.16-8.21.33-12.34.4-2.44,0-4.81-.12-7.12-.27s-4.44-.29-6.62-.26l-1.16,0,.24.23a56.27,56.27,0,0,1,10.87,13.2l.06.1a3.52,3.52,0,0,1-1,4.55A6.09,6.09,0,0,1,30.69,50.91ZM25.9,25.85c2.18,0,4.3.13,6.36.27,2.29.15,4.45.29,6.62.26,4.06-.07,8.19-.23,12.19-.4,3.47-.14,7-.29,10.58-.37-4.48,0-8.94.07-13.3.17-3.07.08-6.25.16-9.39.18-2.32,0-4.57-.16-6.75-.31-2.41-.17-4.67-.33-7-.29-1.49,0-3,0-4.54-.09-1.67-.07-3.41-.14-5-.07l-7.26.34-.15.09.36.25,7.74.2c1.9.05,3.92,0,5.87-.12l2.88-.11Z"/></svg>