<?xml version="1.0" encoding="utf-8"?>
<!-- Generator: Adobe Illustrator 25.0.0, SVG Export Plug-In . SVG Version: 6.00 Build 0)  -->
<svg version="1.1" id="Layer_1" xmlns="http://www.w3.org/2000/svg" xmlns:xlink="http://www.w3.org/1999/xlink" x="0px" y="0px"
	 viewBox="0 0 447.65 114.6" style="enable-background:new 0 0 447.65 114.6;" xml:space="preserve">
<style type="text/css">
	.st0{fill:#002A33;}
	.st1{fill:#FFFFFF;}
	.st2{fill:#E03616;}
</style>
<rect class="st0" width="447.65" height="114.6"/>
<g>
	<path class="st1" d="M47.34,81.13V31.72h7.69l10.13,23.79V31.72h9.03v49.41h-7.38L56.67,55.51v25.62H47.34z"/>
	<path class="st1" d="M95.71,81.86c-3.7,0-6.63-0.65-8.78-1.95c-2.16-1.3-3.7-3.17-4.64-5.61c-0.94-2.44-1.4-5.35-1.4-8.72V47.21
		c0-3.42,0.47-6.32,1.4-8.72c0.94-2.4,2.48-4.24,4.64-5.52c2.15-1.28,5.08-1.92,8.78-1.92c3.74,0,6.7,0.64,8.88,1.92
		c2.17,1.28,3.73,3.12,4.67,5.52c0.94,2.4,1.4,5.31,1.4,8.72v18.36c0,3.38-0.47,6.28-1.4,8.72c-0.94,2.44-2.49,4.31-4.67,5.61
		C102.41,81.21,99.45,81.86,95.71,81.86z M95.71,74.11c1.14,0,1.97-0.28,2.5-0.85c0.53-0.57,0.87-1.3,1.04-2.2s0.24-1.81,0.24-2.75
		V44.53c0-0.98-0.08-1.9-0.24-2.78c-0.16-0.87-0.51-1.6-1.04-2.17c-0.53-0.57-1.36-0.85-2.5-0.85c-1.06,0-1.85,0.29-2.38,0.85
		c-0.53,0.57-0.88,1.29-1.04,2.17c-0.16,0.88-0.24,1.8-0.24,2.78v23.79c0,0.94,0.07,1.85,0.21,2.75s0.47,1.63,0.98,2.2
		C93.75,73.83,94.57,74.11,95.71,74.11z"/>
	<path class="st1" d="M121.27,81.13v-41.3h-7.44v-8.11h25.8v8.11h-7.38v41.3H121.27z"/>
	<path class="st1" d="M184.89,90.82c-0.89-0.41-1.97-1.07-3.23-1.98c-1.26-0.92-2.51-1.99-3.75-3.23c-1.24-1.24-2.29-2.51-3.14-3.81
		c-0.16,0.04-0.33,0.06-0.49,0.06c-0.16,0-0.35,0-0.55,0c-3.7,0-6.63-0.65-8.78-1.95c-2.16-1.3-3.7-3.17-4.64-5.61
		c-0.94-2.44-1.4-5.35-1.4-8.72V47.21c0-3.42,0.47-6.32,1.4-8.72c0.94-2.4,2.48-4.24,4.64-5.52c2.15-1.28,5.08-1.92,8.78-1.92
		c3.74,0,6.7,0.64,8.88,1.92c2.17,1.28,3.73,3.12,4.67,5.52c0.94,2.4,1.4,5.31,1.4,8.72v18.36c0,2.32-0.21,4.41-0.64,6.28
		c-0.43,1.87-1.12,3.5-2.07,4.88c-0.96,1.38-2.23,2.48-3.81,3.29c0.53,0.57,1.08,1.13,1.65,1.68c0.57,0.55,1.14,1.06,1.71,1.53
		c0.57,0.47,1.14,0.84,1.71,1.13L184.89,90.82z M173.73,74.11c1.14,0,1.97-0.28,2.5-0.85c0.53-0.57,0.87-1.3,1.04-2.2
		s0.24-1.81,0.24-2.75V44.53c0-0.98-0.08-1.9-0.24-2.78c-0.16-0.87-0.51-1.6-1.04-2.17c-0.53-0.57-1.36-0.85-2.5-0.85
		s-1.96,0.29-2.47,0.85c-0.51,0.57-0.83,1.29-0.98,2.17c-0.14,0.88-0.21,1.8-0.21,2.78v23.79c0,0.94,0.07,1.85,0.21,2.75
		s0.47,1.63,0.98,2.2C171.77,73.83,172.59,74.11,173.73,74.11z"/>
	<path class="st1" d="M209.6,81.86c-3.78,0-6.74-0.62-8.88-1.86c-2.13-1.24-3.63-3.05-4.48-5.43c-0.85-2.38-1.28-5.3-1.28-8.75
		v-34.1h10.8v35.75c0,1.02,0.08,2.04,0.24,3.05c0.16,1.02,0.52,1.85,1.07,2.5c0.55,0.65,1.39,0.98,2.53,0.98
		c1.18,0,2.03-0.32,2.56-0.98c0.53-0.65,0.86-1.48,1.01-2.5c0.14-1.02,0.21-2.03,0.21-3.05V31.72h10.86v34.1
		c0,3.46-0.44,6.38-1.31,8.75c-0.88,2.38-2.37,4.19-4.48,5.43C216.33,81.24,213.38,81.86,209.6,81.86z"/>
	<path class="st1" d="M231.25,81.13V31.72h10.92v49.41H231.25z"/>
	<path class="st1" d="M254,81.13v-41.3h-7.44v-8.11h25.8v8.11h-7.38v41.3H254z"/>
	<path class="st1" d="M276.69,81.13V31.72h22.21v7.44h-11.29v12.26h8.6v7.56h-8.6v14.76h11.41v7.38H276.69z"/>
</g>
<g>
	<g transform="matrix( 1, 0, 0, 1, 0,0) ">
		<g>
			<g>
				<path class="st2" d="M406.88,33.12c1.19-1.16,1.78-2.57,1.77-4.23c0.01-1.66-0.57-3.09-1.77-4.27
					c-1.16-1.16-2.57-1.75-4.23-1.77c-1.66,0.02-3.09,0.61-4.27,1.77l-23.6,23.65l-23.65-23.65c-1.16-1.16-2.57-1.75-4.23-1.77
					c-1.66,0.02-3.09,0.61-4.27,1.77c-1.16,1.19-1.75,2.61-1.77,4.27c0.02,1.66,0.61,3.07,1.77,4.23l23.65,23.65l-23.65,23.6
					c-1.16,1.19-1.75,2.61-1.77,4.27c0.02,1.66,0.61,3.07,1.77,4.23c1.19,1.19,2.61,1.78,4.27,1.77c1.66,0.01,3.07-0.57,4.23-1.77
					l23.65-23.6l23.6,23.6c1.19,1.19,2.61,1.78,4.27,1.77c1.66,0.01,3.07-0.57,4.23-1.77c1.19-1.16,1.78-2.57,1.77-4.23
					c0.01-1.66-0.57-3.09-1.77-4.27l-23.6-23.6L406.88,33.12z"/>
			</g>
		</g>
	</g>
</g>
</svg>
