<?xml version="1.0" encoding="utf-8"?>
<!-- Generator: Adobe Illustrator 25.0.0, SVG Export Plug-In . SVG Version: 6.00 Build 0)  -->
<svg version="1.1" id="Layer_1" xmlns="http://www.w3.org/2000/svg" xmlns:xlink="http://www.w3.org/1999/xlink" x="0px" y="0px"
	 viewBox="0 0 381.66 97.7" style="enable-background:new 0 0 381.66 97.7;" xml:space="preserve">
<style type="text/css">
	.st0{fill:#E03616;}
	.st1{fill:#FFFFFF;}
</style>
<rect class="st0" width="381.66" height="97.7"/>
<g>
	<path class="st1" d="M40.36,69.17V27.04h6.55l8.63,20.28V27.04h7.7v42.13h-6.29l-8.63-21.84v21.84H40.36z"/>
	<path class="st1" d="M81.6,69.79c-3.16,0-5.65-0.55-7.49-1.66c-1.84-1.11-3.16-2.7-3.95-4.79c-0.8-2.08-1.2-4.56-1.2-7.44V40.25
		c0-2.91,0.4-5.39,1.2-7.44c0.8-2.04,2.11-3.61,3.95-4.71c1.84-1.09,4.33-1.64,7.49-1.64c3.19,0,5.71,0.55,7.57,1.64
		c1.85,1.09,3.18,2.66,3.98,4.71c0.8,2.05,1.2,4.52,1.2,7.44v15.65c0,2.88-0.4,5.36-1.2,7.44c-0.8,2.08-2.12,3.68-3.98,4.79
		C87.31,69.24,84.79,69.79,81.6,69.79z M81.6,63.19c0.97,0,1.68-0.24,2.13-0.73c0.45-0.49,0.75-1.11,0.88-1.87
		c0.14-0.76,0.21-1.54,0.21-2.34V37.96c0-0.83-0.07-1.62-0.21-2.37c-0.14-0.75-0.43-1.36-0.88-1.85c-0.45-0.49-1.16-0.73-2.13-0.73
		c-0.9,0-1.58,0.24-2.03,0.73c-0.45,0.49-0.75,1.1-0.88,1.85c-0.14,0.75-0.21,1.53-0.21,2.37v20.28c0,0.8,0.06,1.58,0.18,2.34
		c0.12,0.76,0.4,1.39,0.83,1.87C79.93,62.94,80.63,63.19,81.6,63.19z"/>
	<path class="st1" d="M103.39,69.17V33.96h-6.35v-6.92h22v6.92h-6.29v35.21H103.39z"/>
	<path class="st1" d="M157.63,77.44c-0.76-0.35-1.68-0.91-2.76-1.69c-1.08-0.78-2.14-1.7-3.2-2.76c-1.06-1.06-1.95-2.14-2.68-3.25
		c-0.14,0.03-0.28,0.05-0.42,0.05c-0.14,0-0.29,0-0.47,0c-3.16,0-5.65-0.55-7.49-1.66s-3.16-2.7-3.95-4.79
		c-0.8-2.08-1.2-4.56-1.2-7.44V40.25c0-2.91,0.4-5.39,1.2-7.44c0.8-2.04,2.11-3.61,3.95-4.71c1.84-1.09,4.33-1.64,7.49-1.64
		c3.19,0,5.71,0.55,7.57,1.64c1.85,1.09,3.18,2.66,3.98,4.71c0.8,2.05,1.2,4.52,1.2,7.44v15.65c0,1.97-0.18,3.76-0.55,5.36
		c-0.36,1.6-0.95,2.98-1.77,4.16c-0.81,1.18-1.9,2.12-3.25,2.81c0.45,0.49,0.92,0.96,1.4,1.43c0.48,0.47,0.97,0.9,1.46,1.3
		c0.48,0.4,0.97,0.72,1.46,0.96L157.63,77.44z M148.12,63.19c0.97,0,1.68-0.24,2.13-0.73c0.45-0.49,0.75-1.11,0.88-1.87
		c0.14-0.76,0.21-1.54,0.21-2.34V37.96c0-0.83-0.07-1.62-0.21-2.37c-0.14-0.75-0.43-1.36-0.88-1.85c-0.45-0.49-1.16-0.73-2.13-0.73
		s-1.67,0.24-2.11,0.73s-0.71,1.1-0.83,1.85c-0.12,0.75-0.18,1.53-0.18,2.37v20.28c0,0.8,0.06,1.58,0.18,2.34
		c0.12,0.76,0.4,1.39,0.83,1.87S147.15,63.19,148.12,63.19z"/>
	<path class="st1" d="M178.7,69.79c-3.22,0-5.75-0.53-7.57-1.59s-3.09-2.6-3.82-4.63c-0.73-2.03-1.09-4.52-1.09-7.46V27.04h9.21
		v30.48c0,0.87,0.07,1.73,0.21,2.6c0.14,0.87,0.44,1.58,0.91,2.13c0.47,0.55,1.19,0.83,2.16,0.83c1.01,0,1.73-0.28,2.18-0.83
		c0.45-0.55,0.74-1.27,0.86-2.13c0.12-0.87,0.18-1.73,0.18-2.6V27.04h9.26v29.07c0,2.95-0.37,5.44-1.12,7.46
		c-0.75,2.03-2.02,3.57-3.82,4.63C184.44,69.26,181.92,69.79,178.7,69.79z"/>
	<path class="st1" d="M197.16,69.17V27.04h9.31v42.13H197.16z"/>
	<path class="st1" d="M216.56,69.17V33.96h-6.34v-6.92h22v6.92h-6.29v35.21H216.56z"/>
	<path class="st1" d="M235.9,69.17V27.04h18.93v6.34h-9.62v10.45h7.33v6.45h-7.33v12.59h9.73v6.29H235.9z"/>
</g>
<g>
	<g transform="matrix( 1, 0, 0, 1, 0,0) ">
		<g>
			<g>
				<g>
					<path class="st1" d="M335.28,31.84c0.81-0.78,1.2-1.74,1.19-2.86c0.01-1.12-0.39-2.09-1.19-2.89
						c-0.78-0.79-1.74-1.18-2.86-1.19c-1.12,0.01-2.09,0.41-2.89,1.19l-15.97,16l-16-16c-0.78-0.79-1.74-1.18-2.86-1.19
						c-1.12,0.01-2.09,0.41-2.89,1.19c-0.79,0.8-1.18,1.77-1.19,2.89c0.01,1.12,0.41,2.08,1.19,2.86l16,16l-16,15.97
						c-0.79,0.8-1.18,1.77-1.19,2.89c0.01,1.12,0.41,2.08,1.19,2.86c0.8,0.81,1.77,1.2,2.89,1.19c1.12,0.01,2.08-0.39,2.86-1.19
						l16-15.97l15.97,15.97c0.8,0.81,1.77,1.2,2.89,1.19c1.12,0.01,2.08-0.39,2.86-1.19c0.81-0.78,1.2-1.74,1.19-2.86
						c0.01-1.12-0.39-2.09-1.19-2.89l-15.97-15.97L335.28,31.84z"/>
				</g>
			</g>
		</g>
	</g>
</g>
</svg>
