<?xml version="1.0" encoding="utf-8"?>
<!-- Generator: Adobe Illustrator 25.0.0, SVG Export Plug-In . SVG Version: 6.00 Build 0)  -->
<svg version="1.1" id="Layer_1" xmlns="http://www.w3.org/2000/svg" xmlns:xlink="http://www.w3.org/1999/xlink" x="0px" y="0px"
	 viewBox="0 0 128.72 33.06" style="enable-background:new 0 0 128.72 33.06;" xml:space="preserve">
<style type="text/css">
	.st0{fill:#003E4C;}
</style>
<g>
	<path class="st0" d="M0.86,19.54C0.39,19.11,0.43,18.21,0,17.69c0.09-0.3,0.13-0.65,0.52-0.6c-0.39-2.5,1.12-4.18,2.37-6.07
		c0.47-0.09,0.43,0.3,0.73,0c0.9-0.6,1.21-1.38,1.16-2.28c0.99-2.88,2.71-5.85,4.86-6.8c1.55-1.42,5.12-2.28,7.58-1.64
		c0.34,0.09,0.26-0.26,0.52-0.3c2.71,0.34,4.99,1.12,6.54,2.5c2.2,3.31,4.13,7.88,2.32,12.4c-3.92,4.82-11.67,5.55-18.17,6.97
		c0.17,3.1-0.13,7.02-2.11,9.77c-1.16-0.04-2.45,0.34-3.36,0.56c-0.47-0.21-0.82-0.56-1.46-0.6c0.34-1.29-2.5-2.97-0.9-4.13
		c-0.26-0.22-0.34-0.52-0.34-0.9c0.09,0.09,0.22,0.13,0.43,0.13c-0.26-2.02,2.07-5.94-0.3-7.02C0.43,19.5,0.69,19.54,0.86,19.54z
		 M10.25,12.61c0.13,0.34,0.56,0.39,0.65,0.77c1.59-0.82,3.14-0.56,4.73-1.33c1.64-0.77,3.83-0.9,5.12-2.11
		c-1.59-1.46-6.72-2.5-9.47-0.09C10.89,11.11,10.72,11.58,10.25,12.61z"/>
	<path class="st0" d="M26.43,26.9c0.13,0,0.3,0,0.43,0c-0.73-2.45,1.21-4.05,0.47-6.07c0.52,0.34,0.56-1.51,0.43-2.07
		c1.42-3.49,1.46-7.58,2.84-10.55c0.77-0.13,1.85,0.26,2.07,0.73c3.53-2.67,4.78-8.39,9.94-8.91c1.33,0.95,3.27,1.89,4.3,3.57
		c0.47,0.26,0.86,0.6,1.33,0.86c0,0.21,0,0.43,0,0.6c1.59,1.46,1.89,4.13,2.97,6.11c-0.26,0.69,0.21,0.86,0.13,1.76
		c-0.39,5.98-7.66,6.71-12.14,8.61c0,0.26,0.34,0.13,0.3,0.43c3.27,2.02,3.14,2.28,6.63,3.06c3.49,0.82,3.36,0.9,6.41,1.16
		c1.25,1.25,1.68,3.53,0.9,4.48c0.04,0.22,0.34,0.13,0.6,0.13c-0.82,0.56-0.9,1.81-2.07,1.94c-2.07,0.78-5.08,0-9.9-1.89
		c-4.82-1.85-5.55-2.63-8.09-4.82c-0.22,0-0.13,0.26-0.3,0.26c-0.3,2.28-0.86,3.44-1.94,4.91c-0.86-0.17-1.08,0.34-1.46,0.6
		c-1.16,0.22-0.86-0.65-2.11-0.6c-0.13-0.52-0.13-1.12-0.86-1.03c0.3-1.03-0.43-1.29-0.17-2.24C26.86,27.98,26.69,27.33,26.43,26.9z
		 M36.8,15.02c2.32-0.3,5.08-1.55,7.32-2.54c-0.22-2.07-1.64-3.31-2.93-3.75C39.82,10.89,37.32,11.97,36.8,15.02z"/>
	<path class="st0" d="M51.05,27.03c0-0.78,0.43-1.03,0.77-1.42c2.71-0.17,4.13-0.69,6.54-0.73c0.09-0.04,0.17-0.09,0.3-0.09
		c0.43-1.59,1.25-3.23,1.89-4.74c0.73-2.8,2.28-4.61,2.5-7.06c0.69-1.94,1.21-3.36,1.55-5.64c-2.2,0.3-3.4,0.65-3.96,0.9
		c-2.24-0.17-2.37-1.59-3.14-3.14c0.22-0.52,0.13-1.72-0.43-2.2c0.43-0.09,0.73-0.95,0.56-1.29c1.89-0.56,4.39-0.17,5.81-0.99
		c2.88-0.09,6.24-0.26,8.95-0.43c1.94,0.65,5.77-0.34,6.59,2.41c1.68,0.17,1.38,1.46,1.33,2.63c-1.81,1.33-5.64,1.59-9.04,1.68
		c-0.52,3.62-3.23,10.8-3.1,11.92c-1.16,2.5-1.38,3.44-2.28,5.38c0,0,1.64-0.04,2.88-0.04c0.22,1.21,1.85,0.73,1.85,1.85
		c2.15,0.56,0.9,2.37,0.13,3.4c-0.52-0.09-0.99,0.34-1.33,0.82c-1.59-0.22-3.27,0.04-4.61,0.17c-0.22,0.04-0.09,0.39-0.26,0.47
		c-3.44-1.16-7.23,0.99-11.28,1.16C51.78,30.99,51.48,28.84,51.05,27.03z"/>
	<path class="st0" d="M74.77,16.27c1.03-3.01,3.1-4.99,4.99-7.15c0.21,0,0.34,0.09,0.47,0.17c0.47-1.29,1.89-1.59,2.62-2.67
		c2.8-0.6,4.05-2.75,6.84-3.4c1.03-1.16,3.14-1.29,4-2.63c0.34,0.47,1.08,0.17,1.55,0c0.65-0.13,0.95,1.03,1.25,0.3
		c0.39,0.04,0.04,0.52,0,0.6c0.56-0.04,0.78,0.43,1.55,0.47c0.3,0.3,0.04,0.39,0,0.77c4.09,1.25,1.68,5.9-1.38,6.67
		c-3.01,0.86-6.07,1.68-7.92,3.74c-3.14,0.9-4.91,3.27-6.97,5.25c0,0.9-0.43,1.38-0.77,1.89c0.09,1.03,0.52,1.72,0.9,2.45
		c4.43,1.38,9.64,1.51,14.59,1.55c0.99,1.38,2.84,2.11,2.5,4.35c-0.99,0.99-2.15,1.81-3.27,2.67c-1.03,0.09-2.88-0.26-4.18,0.3
		c-3.53-0.13-7.49-0.95-10.55-2.02c-0.65-0.69-1.25-1.46-2.32-1.72C75.5,25.35,74.64,20.27,74.77,16.27z"/>
	<path class="st0" d="M101.84,28.58c-0.21-1.72-1.03-4.52-0.69-6.41c0.17-1.03,1.16-1.81,0.95-2.71c0.34-0.04,0.26-0.52,0.69-0.43
		c0.77-2.5,1.98-4.05,2.88-6.59c-1.89-1.81-1.42-4.05-2.07-6.28c1.33-2.07,3.83-2.37,6.76-2.97c5.42-1.72,8.01-1.64,13.69-2.58
		c0.04,0.17,0.22,0.17,0.43,0.13c0.04,0.17,0.17,0.3,0.43,0.3c0,0.13,0.17,0.09,0.3,0.13c0-0.13-0.17-0.09-0.3-0.13
		c0-0.13,0-0.3,0-0.43c0.26-0.04,0.77,0.43,0.69-0.13c0.69,1.12,1.76,1.85,3.06,2.41c0.21,0.95-0.26,0.82,0.04,1.72
		c-2.75,4.56-7.71,2.41-12.1,5.12c-0.86-0.34-1.33,0.34-2.67,0.17c-0.43,0.39-1.12,0.47-1.72,0.69c0.3,0.65,0.13,1.29,0.3,1.72
		c2.33,0.22,5.38-0.22,8.14-0.3c0.04,0.3-0.13,0.34-0.13,0.6c1.03,0.6,1.72,2.28,3.06,2.11c0.26,0.56,0.39,1.21,0.17,1.85
		c-2.24,1.46-4.22,3.23-7.36,3.14c-0.3,0-0.47,0.04-0.73-0.13c-0.56,0.3-1.72,0-2.28,0.3c-0.78-0.3-1.94-0.22-2.71-0.43
		c-1.03,1.42-1.94,3.01-2.63,4.82c4.61,0.65,5.51-0.47,9.73-0.3c1.38-0.65,3.4-0.73,4.95-1.25c1.08,0.39,1.42,2.15,2.63,1.98
		c0.52,0.52,0.13,1.68,0.99,1.55c-2.07,4.39-5.17,4.22-10.2,5.17c-0.6,0.13-0.95-0.09-1.42-0.13c-3.14,0.6-9.08,1.38-11.71-1.16
		C102.53,29.66,102.53,28.97,101.84,28.58z"/>
</g>
</svg>
