<?xml version="1.0" encoding="utf-8"?>
<!-- Generator: Adobe Illustrator 25.0.0, SVG Export Plug-In . SVG Version: 6.00 Build 0)  -->
<svg version="1.1" id="Layer_1" xmlns="http://www.w3.org/2000/svg" xmlns:xlink="http://www.w3.org/1999/xlink" x="0px" y="0px"
	 viewBox="0 0 220.73 34.57" style="enable-background:new 0 0 220.73 34.57;" xml:space="preserve">
<style type="text/css">
	.st0{fill:#003E4C;}
</style>
<g>
	<path class="st0" d="M0.52,23.85C0.34,23.33,0.17,22.86,0,22.34c0.26-5.08,3.87-8.01,6.67-10.68c0.3,0.3,0.3-0.09,0.82,0
		c0.09-0.65,1.29-2.2,2.2-2.02c1.16-2.2,5.08-2.84,5.51-5.64c0.26,0,0.52,0,0.82,0c-1.38-2.07,0.43-4.69,3.31-3.19
		c0.65,0.09,0.69-0.43,1.21-0.52c2.54,1.12,4.56,2.8,6.16,4.86c-0.17,0.3-0.73,0.26-0.34,0.65c1.89,2.41,3.4,5.17,4.69,8.18
		c0.3,2.28,0.17,4.48-0.34,7.02c-0.9,1.94-2.54,3.14-3.66,4.82c-0.04,0.04-0.13,0.09-0.17,0.13l0.9,1.55
		c-0.13,0.86,1.08,2.28,0.73,2.97c0.09,0.17,0.26,0.21,0.52,0.17c-0.22,0.04-0.47,0.65,0.17,0.52c-0.22,1.12-1.64,3.4-3.7,3.4
		c-1.08-0.56-1.59-1.08-2.45-1.89l-1.59-3.66c-4.05,1.85-8.78,3.06-13.95,3.31c-2.8-0.77-5.17-2.02-6.67-4.13
		C0.9,26.3,0.04,25.61,0.52,23.85z M5.9,25.01c0.52,0.26,1.29,0.21,1.94,0.39c3.14-0.86,6.71-1.59,9.86-2.8
		c-1.29-1.55-2.54-3.01-3.23-4.43c0.39-0.65,0.43-2.07,1.76-2.11c1.03,0.39,2.54,0.34,3.66,0.52c1.12,0.82,1.89,2.02,2.75,3.14
		c1.21-1.08,2.11-2.45,2.58-4.18c-0.69-1.76-2.02-4.86-3.87-5.42c-0.47-0.09-0.43,0.34-0.99,0.17c-2.97,2.2-6.16,4.18-8.69,6.8
		C9.21,19.07,7.1,21.78,5.9,25.01z"/>
	<path class="st0" d="M34.87,10.89l-0.04-0.26c-0.04-0.09-0.09-0.22-0.13-0.3c0.39-1.03,0.52-2.02,0.65-2.93
		c0.13-0.77,0.26-1.46,0.47-2.02c0.95-0.22,1.38-0.95,1.68-1.42c0.9,0,1.08,0.34,1.46,1.08c0.3,0.6,0.73,1.42,1.72,1.81
		c0.17,0.56,0.43,1.16,0.69,1.77c0.52,1.21,1.03,2.54,1.08,3.62c-1.33,2.54-1.42,7.1-0.6,9.21l0.26,0.65l0.17,0.09L42.96,22
		c4.05-1.03,6.28-2.45,9.04-5.6c2.75-3.1,4.18-8.22,4.35-11.92c0.56-0.22,0.86-0.65,0.9-1.21l-0.04-0.34l-0.09-0.22
		c-0.17-0.21-0.09-0.52,0-0.73c0.21-0.6,0.77-1.12,1.42-1.46c1.03,0.69,1.89,1.55,2.63,2.32c0.04,1.46,0.47,2.5,0.9,3.49
		c0.34,0.9,0.69,1.76,0.82,3.01c-0.56,1.72-0.73,3.1-0.99,4.74l-0.04,0.43c-1.03,1.77-2.15,3.7-2.71,5.04
		c-0.34,0.39-0.6,0.86-0.82,1.29c-0.09,0.17-0.34,0.69-0.47,0.86l-1.03-0.39l-0.22-0.09v0.26v1.12c0,0.13-0.04,0.26-0.13,0.3
		l-0.6-0.13l-0.17,0.09l-0.3,0.52c-2.54,4.48-5.55,5.77-11.23,8.13c-1.12-0.17-1.89-0.17-2.63-0.21c-0.77,0-1.46-0.04-2.41-0.17
		c-0.21-0.52-0.65-0.69-0.99-0.69c-0.09,0-0.13,0-0.17,0c-0.9-0.56-1.42-1.64-1.98-2.88c-0.3-0.65-0.6-1.33-1.03-1.98l0.86-0.26
		l0.26-0.09l-0.21-0.17l-1.12-0.99c-0.21-0.13-0.39-0.3-0.56-0.52l-0.04-0.82c-0.17-4.61-0.34-8.57,0.65-11.49L34.87,10.89z"/>
	<path class="st0" d="M59.44,27.81L60,27.38l-0.3-0.04l0.34-0.82c1.33-3.4,2.84-6.5,4.48-9.77c0.52-1.03,1.03-2.15,1.55-3.23
		c-0.04-0.17-0.09-0.43,0.04-0.77l0.13-0.22c0.6-0.86,1.03-1.76,1.51-2.71c0.52-1.12,1.08-2.24,1.89-3.31l0.34-0.39h0.52
		c0.13-0.04,0.39-0.17,0.77-0.17c0.09,0,0.17,0,0.3,0l0.43,0.09l0.09,0.34c1.72-1.29,3.1-2.8,4.56-5.04l0.47-0.73l0.69,0.43
		c0.3,0.17,0.99,0.34,1.68,0.52c1.16,0.3,2.37,0.6,3.01,1.25l0.17,0.17l0.04,0.22c0.09,0.6,0.17,1.12,0.26,1.59
		c0.21,1.16,0.43,2.24,0.47,3.66c0.3,1.08,0.56,2.24,0.77,3.4c0.3,1.59,0.6,3.1,1.25,4.43c0.17,0,0.3,0.04,0.39,0.04
		c0.34-0.09,0.73-0.17,1.16-0.22l0.56-0.04l0.17,0.52c0.09,0.17,0.26,0.3,0.52,0.47c0,0.04,0,0.04,0.17,0.04
		c0.65,0,1.03,0.39,1.33,0.69c0.13,0.13,0.3,0.3,0.39,0.34l0.77,0.3l-0.43,0.77c-0.6,1.21-1.98,2.37-3.49,3.1
		c0.04,0.39,0.09,0.73,0.17,1.12c0.22,1.16,0.39,2.37,0.26,3.66l-0.09,0.22c-0.9,2.28-3.19,4.82-6.03,4.91l-0.26-0.04
		c-0.43-0.13-0.77-0.39-1.08-0.6c-0.17-0.13-0.34-0.22-0.52-0.3l-0.56-0.26l0.17-0.65c0.13-0.47-0.04-0.73-0.65-1.29
		c-0.22-0.17-0.39-0.34-0.56-0.56l-0.86-0.99l1.38-0.34c1.68-0.43,2.11-0.99,2.02-2.75c-0.09-0.09-0.13-0.17-0.21-0.3
		c-1.08,0.13-1.98,0.34-2.88,0.56c-1.25,0.34-2.41,0.6-3.87,0.6c-0.47,0-0.99,0-1.51-0.09l-0.47-0.04l-0.13-0.47
		c-0.04-0.09-0.17-0.26-0.3-0.39c-0.3-0.3-0.86-0.86-0.65-1.72c-0.13-0.3-0.26-0.6-0.3-0.95c-0.22,0.43-0.34,0.86-0.47,1.25
		l-0.17,0.52l-0.52,0.13c-0.09,0.04-0.22,0.34-0.17,0.47l0.13,0.47l-0.39,0.39c-0.13,0.13-0.3,0.26-0.43,0.39
		c-0.17,0.6-0.34,1.16-0.56,1.72c-0.3,0.9-0.6,1.72-0.56,2.54v0.3l-0.21,0.26c-0.3,0.39-0.73,0.6-1.12,0.82
		c-0.17,0.09-0.47,0.22-0.56,0.3l-0.17,0.56l-0.6,0.09c-0.09,0-0.22,0.04-0.34,0.04c-0.26,0.09-0.56,0.17-0.95,0.17
		c-0.09,0-0.22,0-0.3-0.04h-0.26l-0.17-0.17c-0.43-0.39-0.86-0.77-1.38-1.08l-0.17-0.13l-0.09-0.22c-0.21-0.43-0.26-0.82-0.34-1.16
		c-0.04-0.39-0.09-0.65-0.26-0.77L59.44,27.81z M71.71,18.64c0.39,0,0.77-0.04,1.12-0.09c1.98-0.13,3.49-0.21,5.47-0.65
		c-0.43-2.02-0.99-4.22-1.59-6.41c-0.04,0.09-0.13,0.22-0.17,0.3l-0.13,0.22c-1.29,1.38-2.67,3.31-3.57,4.91
		C72.49,17.43,72.1,18.04,71.71,18.64z"/>
	<path class="st0" d="M96.07,30.95c-0.17,0.26,0.04,0.17,0.13,0.65c-0.73-0.17-0.99,0.21-1.51,0.3c-2.5-0.86-3.31-4.48-4.3-6.37
		c0-0.17,0.26-0.09,0.43-0.09c-0.3-0.56-0.34-1.38-0.73-1.81c3.27-6.97,7.49-15.28,10.98-22.94c3.1,1.12,6.2,3.01,6.76,6.33
		c-0.17,0.34-0.3,0.04-0.43,0.26c0.56,0.6-0.13,0.47,0.34,1.29c-0.26-0.04-0.3,0.17-0.6,0.09c0.6,1.51-0.73,1.55-0.3,2.97
		c-0.39-0.04-0.26,0.47-0.69,0.39c0.34,2.93-0.43,5.85,0.39,9.38c4.82-2.84,5.42-9.21,6.41-15.71c1.25-1.21,1.21-3.7,2.07-5.29
		c2.11,0.26,2.5,2.32,4.52,2.58c0.77,1.08,1.55,2.11,1.76,3.36c-0.65,1.12-0.52,2.8-1.76,3.62c-0.34,3.36-1.42,5.51-1.33,9.13
		c-0.52,1.64-1.25,3.49-1.55,4.91c-1.03,0.82-1.55,2.15-2.2,3.36c-0.26,0.26-0.22-0.04-0.65-0.04c0.09,0.47-0.39,0.39-0.13,1.08
		c-1.89,0.86-2.54,3.49-6.24,2.11c-2.71-1.98-4.95-4.52-6.24-8.14c-1.16,0.3-0.95,2.63-1.89,2.63c-0.17,1.03-1.51,1.64-0.95,2.93
		C97.24,28.71,98.27,31.04,96.07,30.95z"/>
	<path class="st0" d="M120.78,6.89c-0.26-0.69-0.56-1.42-0.56-2.54c0.09-0.47,0.3-0.69,0.56-0.99l0.09-0.65l0.6,0.04
		c0.47,0,0.95,0,1.42,0c2.11,0,4.35-0.22,6.67-0.43c1.33-0.13,2.71-0.26,4.17-0.39c0.04-0.04,0.13-0.22,0.17-0.3
		c0.09-0.17,0.13-0.34,0.26-0.56l0.21-0.21l0.26-0.04c0.13,0,0.21-0.04,0.3-0.04c0.86,0,1.33,0.47,1.64,0.82
		c1.46-0.13,2.97-0.34,4.56-0.56c2.24-0.3,4.61-0.65,6.76-0.65c0.95,0,1.81,0.09,2.58,0.22l0.34,0.04l0.17,0.3
		c0.21,0.39,0.6,0.73,0.99,1.03c0.86,0.69,1.89,1.55,1.68,3.53l-0.04,0.26l-0.17,0.13c-0.13,0.17-0.26,0.26-0.43,0.34
		c-0.09,0.04-0.22,0.13-0.22,0.17l-0.21,0.39h-0.52c-0.39,0-0.69,0.09-1.03,0.26c-0.21,0.09-0.52,0.22-0.86,0.3h-0.17
		c-0.34-0.04-0.73-0.04-1.12-0.04c-1.68,0-3.75,0.26-5.6,0.52c-1.33,0.17-2.63,0.34-3.7,0.52c-0.39,1.33-0.9,2.45-1.38,3.53
		c-0.52,1.16-0.99,2.24-1.38,3.62l-0.09,0.17c-0.52,0.82-1.03,1.68-1.25,2.84l-0.04,0.21l-0.17,0.17c-0.56,0.47-0.95,1.81-1.16,2.62
		c-0.04,0.13-0.09,0.26-0.13,0.34l-0.09,0.26l-0.26,0.22c-0.04,0.13-0.09,0.39-0.34,0.65c-0.04,0.39-0.17,0.73-0.3,1.08
		c-0.13,0.3-0.26,0.6-0.21,0.77v0.22c-0.04,0.17-0.13,0.34-0.26,0.47c0,0.34-0.09,0.69-0.13,1.03c-0.09,0.34-0.17,0.69-0.04,1.08
		c0.09,0.09,0.34,0.3,0.43,0.65c0.13,0.09,0.3,0.17,0.43,0.26c0.21,0.13,0.39,0.26,0.6,0.34l0.35,0.13l0.09,0.34
		c0.17,0.99,0.04,1.76-0.43,2.37c-0.52,0.6-1.42,0.95-2.54,0.95c-0.13,0-0.21,0-0.34,0h-0.26l-0.22-0.22c0-0.04-0.09-0.13-0.13-0.21
		l-0.17-0.09c-0.3-0.04-0.65-0.17-0.9-0.56c-0.13-0.09-0.3-0.13-0.43-0.22c-0.22-0.09-0.43-0.17-0.65-0.26l-0.47-0.26l0.09-0.34
		c-0.04-0.09-0.04-0.17-0.04-0.26c-0.47-0.6-0.69-1.42-0.86-2.11c-0.13-0.6-0.3-1.21-0.65-1.72v-0.21c0-3.4,1.08-5.98,2.07-8.44
		c0.52-1.33,1.08-2.71,1.46-4.22l0.09-0.34l0.34-0.13c0.04,0,0.13-0.04,0.21-0.13c0.04-0.04,0.13-0.13,0.17-0.17
		c0-0.69,0.34-1.42,0.69-2.11c0.21-0.47,0.43-0.95,0.47-1.29c-0.34,0-0.65,0.04-1.08,0.13c-0.3,0.04-0.65,0.09-0.99,0.09
		c-0.17,0-0.34,0-0.52-0.04c-0.43,0.22-0.86,0.26-1.21,0.26c-0.17,0-0.34,0-0.52-0.04c-0.17,0-0.34,0-0.47,0
		c-0.34,0-0.6,0.04-0.82,0.13l-0.22,0.09l-0.17-0.04c-0.26-0.04-0.47-0.04-0.73-0.04c-0.17,0-0.34,0-0.52,0s-0.34,0.04-0.52,0.04
		c-0.47,0-1.03-0.04-1.76-0.47l-0.17-0.26c-0.17-0.3-0.3-0.47-0.47-0.52l-0.43-0.13l-0.04-0.47C121.08,7.7,120.95,7.32,120.78,6.89z
		"/>
	<path class="st0" d="M144.88,27.29c0-0.78,0.43-1.03,0.77-1.42c2.71-0.17,4.13-0.69,6.54-0.73c0.09-0.04,0.17-0.09,0.3-0.09
		c0.43-1.59,1.25-3.23,1.89-4.74c0.73-2.8,2.28-4.61,2.5-7.06c0.69-1.94,1.21-3.36,1.55-5.64c-2.2,0.3-3.4,0.65-3.96,0.9
		c-2.24-0.17-2.37-1.59-3.14-3.14c0.22-0.52,0.13-1.72-0.43-2.2c0.43-0.09,0.73-0.95,0.56-1.29c1.89-0.56,4.39-0.17,5.81-0.99
		c2.88-0.09,6.24-0.26,8.95-0.43c1.94,0.65,5.77-0.34,6.59,2.41c1.68,0.17,1.38,1.46,1.33,2.63c-1.81,1.33-5.64,1.59-9.04,1.68
		c-0.52,3.62-3.23,10.8-3.1,11.92c-1.16,2.5-1.38,3.44-2.28,5.38c0,0,1.64-0.04,2.88-0.04c0.21,1.21,1.85,0.73,1.85,1.85
		c2.15,0.56,0.9,2.37,0.13,3.4c-0.52-0.09-0.99,0.34-1.33,0.82c-1.59-0.22-3.27,0.04-4.61,0.17c-0.21,0.04-0.09,0.39-0.26,0.47
		c-3.44-1.16-7.23,0.99-11.28,1.16C145.62,31.25,145.31,29.1,144.88,27.29z"/>
	<path class="st0" d="M169.16,6.89c-0.26-0.69-0.56-1.42-0.56-2.54c0.09-0.47,0.3-0.69,0.56-0.99l0.09-0.65l0.6,0.04
		c0.47,0,0.95,0,1.42,0c2.11,0,4.35-0.22,6.67-0.43c1.33-0.13,2.71-0.26,4.18-0.39c0.04-0.04,0.13-0.22,0.17-0.3
		c0.09-0.17,0.13-0.34,0.26-0.56l0.21-0.21l0.26-0.04c0.13,0,0.21-0.04,0.3-0.04c0.86,0,1.33,0.47,1.64,0.82
		c1.46-0.13,2.97-0.34,4.56-0.56c2.24-0.3,4.61-0.65,6.76-0.65c0.95,0,1.81,0.09,2.58,0.22l0.34,0.04l0.17,0.3
		c0.21,0.39,0.6,0.73,0.99,1.03c0.86,0.69,1.89,1.55,1.68,3.53L202,5.77l-0.17,0.13c-0.13,0.17-0.26,0.26-0.43,0.34
		c-0.09,0.04-0.22,0.13-0.22,0.17l-0.21,0.39h-0.52c-0.39,0-0.69,0.09-1.03,0.26c-0.22,0.09-0.52,0.22-0.86,0.3h-0.17
		c-0.34-0.04-0.73-0.04-1.12-0.04c-1.68,0-3.75,0.26-5.6,0.52c-1.33,0.17-2.63,0.34-3.7,0.52c-0.39,1.33-0.9,2.45-1.38,3.53
		c-0.52,1.16-0.99,2.24-1.38,3.62l-0.09,0.17c-0.52,0.82-1.03,1.68-1.25,2.84l-0.04,0.21l-0.17,0.17c-0.56,0.47-0.95,1.81-1.16,2.62
		c-0.04,0.13-0.09,0.26-0.13,0.34l-0.09,0.26l-0.26,0.22c-0.04,0.13-0.09,0.39-0.34,0.65c-0.04,0.39-0.17,0.73-0.3,1.08
		c-0.13,0.3-0.26,0.6-0.21,0.77v0.22c-0.04,0.17-0.13,0.34-0.26,0.47c0,0.34-0.09,0.69-0.13,1.03c-0.09,0.34-0.17,0.69-0.04,1.08
		c0.09,0.09,0.34,0.3,0.43,0.65c0.13,0.09,0.3,0.17,0.43,0.26c0.22,0.13,0.39,0.26,0.6,0.34l0.34,0.13l0.09,0.34
		c0.17,0.99,0.04,1.76-0.43,2.37c-0.52,0.6-1.42,0.95-2.54,0.95c-0.13,0-0.22,0-0.34,0h-0.26l-0.21-0.22c0-0.04-0.09-0.13-0.13-0.21
		l-0.17-0.09c-0.3-0.04-0.65-0.17-0.9-0.56c-0.13-0.09-0.3-0.13-0.43-0.22c-0.22-0.09-0.43-0.17-0.65-0.26l-0.47-0.26l0.09-0.34
		c-0.04-0.09-0.04-0.17-0.04-0.26c-0.47-0.6-0.69-1.42-0.86-2.11c-0.13-0.6-0.3-1.21-0.65-1.72v-0.21c0-3.4,1.08-5.98,2.07-8.44
		c0.52-1.33,1.08-2.71,1.46-4.22l0.09-0.34l0.34-0.13c0.04,0,0.13-0.04,0.21-0.13c0.04-0.04,0.13-0.13,0.17-0.17
		c0-0.69,0.34-1.42,0.69-2.11c0.21-0.47,0.43-0.95,0.47-1.29c-0.34,0-0.64,0.04-1.08,0.13c-0.3,0.04-0.64,0.09-0.99,0.09
		c-0.17,0-0.34,0-0.52-0.04c-0.43,0.22-0.86,0.26-1.21,0.26c-0.17,0-0.34,0-0.52-0.04c-0.17,0-0.34,0-0.47,0
		c-0.34,0-0.6,0.04-0.82,0.13l-0.21,0.09l-0.17-0.04c-0.26-0.04-0.47-0.04-0.73-0.04c-0.17,0-0.34,0-0.52,0
		c-0.17,0-0.35,0.04-0.52,0.04c-0.47,0-1.03-0.04-1.76-0.47l-0.17-0.26c-0.17-0.3-0.3-0.47-0.47-0.52l-0.43-0.13l-0.04-0.47
		C169.46,7.7,169.33,7.32,169.16,6.89z"/>
	<path class="st0" d="M196.54,29.31l-0.04-0.26l0.09-0.26c0.13-0.34,0.26-0.69,0.39-1.12c0.26-0.9,0.52-1.94,1.29-2.67
		c0.17-0.47,0.56-1.38,1.68-3.44c0.9-1.68,1.42-2.54,1.72-3.06c-0.3-0.52-0.69-0.99-1.16-1.42l-0.13-0.13l-0.09-0.17
		c-0.6-1.29-1.38-3.01-1.68-4.26l-0.04-0.17c0-0.6-0.13-1.21-0.3-1.85c-0.17-0.69-0.39-1.46-0.39-2.32
		c-0.09-0.17-0.22-0.34-0.26-0.65l-0.04-0.26l0.13-0.26c0.21-0.43,0-1.29-0.17-2.11c-0.34-1.38-0.82-3.31,0.95-4.39l0.43-0.26
		l0.39,0.26c0.6,0.34,1.16,0.6,1.72,0.9c0.73,0.34,1.38,0.69,2.11,1.16l0.43,0.26l-0.04,0.47c0,0.09,0.09,0.3,0.17,0.43l0.43,0.13
		l0.04,0.56c0.04,0.17,0.04,0.34,0.04,0.52c0,0.52,0,0.65,0.17,0.82l0.26,0.26v0.34c0,0.95,0.21,1.76,0.43,2.5
		c0.21,0.77,0.43,1.59,0.39,2.5c0.13-0.09,0.3-0.22,0.47-0.34c0.13-0.13,0.26-0.22,0.39-0.34l2.93-4.09l-0.04-0.39l0.3-0.3
		c0.26-0.26,0.52-0.47,0.78-0.73c0.52-0.47,1.03-0.95,1.42-1.51l0.21-0.39h0.3c1.12-1.72,2.63-2.75,4.61-3.14L217.5,0l0.21,0.69
		c0.26,0.77,1.21,1.33,2.15,1.89l0.26,0.13l0.17,0.13l0.13,0.22c0.21,0.39,0.13,0.77,0.13,0.99c-0.04,0.13-0.04,0.13,0,0.17
		l0.17,0.34l-0.13,0.39c-0.39,1.12-1.25,1.77-1.98,2.37c-0.6,0.52-1.16,0.95-1.42,1.59l-0.13,0.26l-0.26,0.13
		c-0.69,0.39-1.12,0.9-1.33,1.59l-0.13,0.6h-0.65c-0.04,0-0.26,0.13-0.73,1.08l-0.09,0.17c-0.34,0.43-0.56,0.65-0.69,0.86
		c-0.04,0.13-0.13,0.34-0.26,0.69l-0.09,0.17l-0.17,0.17c-0.52,0.39-0.69,0.82-0.95,1.38c-0.21,0.47-0.43,1.03-0.95,1.59l0.09,0.43
		l-0.34,0.26c-0.43,0.43-0.73,0.99-1.08,1.64c-0.34,0.69-0.73,1.38-1.29,1.98c-0.39,0.99-0.6,1.42-1.33,2.15
		c-0.34,1.33-1.12,2.8-2.37,4.35c-0.04,0.65-0.43,1.21-0.77,1.72c-0.13,0.21-0.3,0.47-0.34,0.65l0.04,0.22l-0.17,0.26
		c-0.3,0.56-0.69,0.95-1.08,1.29c-0.13,0.13-0.26,0.26-0.34,0.39l-0.3,0.34l-0.43-0.09C198.52,32.84,197.1,31.6,196.54,29.31z"/>
</g>
</svg>
