<?xml version="1.0" encoding="utf-8"?>
<!-- Generator: Adobe Illustrator 25.0.0, SVG Export Plug-In . SVG Version: 6.00 Build 0)  -->
<svg version="1.1" id="Layer_1" xmlns="http://www.w3.org/2000/svg" xmlns:xlink="http://www.w3.org/1999/xlink" x="0px" y="0px"
	 viewBox="0 0 1325.8 255" style="enable-background:new 0 0 1325.8 255;" xml:space="preserve">
<style type="text/css">
	.st0{fill:#FFFFFF;}
</style>
<g>
	<path class="st0" d="M72.9,139.2c0.3-1.1,0.5-1.5,0.4-2.5c1.2-3.4,5.1-4.6,7.9-5.4c0-0.3-0.4-0.2-0.3-0.5c7.2-1.4,14.3-5.9,23-3.3
		c0.5,1.6,2.2,2.9,2.3,4.3c0.8,0.7,1.4,1.4,1.1,2.9c-0.7,0.6-1.5,1.1-2.3,1.5c-3-0.7-6.1-0.3-8.5-0.1c-1.5-1.5-4.1,0.6-6,0.3
		c-0.8,0.7-2,0.8-3.4,0.9c-0.1,0.4,0.3,0.4,0.2,0.8c0.9,1.1,3.5,0.6,3.9,2.2c2.3,0.1,3.5,2.5,3.5,3.9c0.2,0.7,0.6,0.2,0.9,0.7
		c0.3,1,1.5,2.1,2,3.3c0.1,2,0.4,3.5-0.2,5c-2.3,5.9-9,9.1-14.8,10.9c-0.3-0.1-0.8,0.2-0.6-0.3c-1.1,1.1-3.2,0.3-4.9,0.6
		c-0.5-0.5-1-1-1.2-1.7c-0.4-0.1-0.2-0.6-0.5-0.7c0-0.2,0.1-0.3,0.2-0.5c0.6-0.3-0.5-0.4-0.3-0.8c0.7-1.2-0.9-3.6,1-4.6
		c5.5,0.6,9.5-2.5,13.3-4.3c0.5-1.4,1.9-1.7,2.2-3.2c0.2-0.5-0.5-0.5-0.5-0.9c-0.4-0.2-0.6-0.2-0.6-0.2c-1.5-0.9-3.8-1.4-5-2.1
		c-0.8,0.5-1.5,0.1-2.7-0.2c-2.7-0.2-5.2-0.5-7.5-1.5c-0.2-0.4-0.3-0.8-1-0.7c-0.5-0.6-1-1.2-1.4-1.9
		C73.3,140.4,73.5,139.8,72.9,139.2z"/>
	<path class="st0" d="M102.8,161.5c-0.8-1.1-0.8-1.8-1.5-3.1c0.4-0.4,0.3-1.8,0.9-1.3c-0.3-1.4,0.8-1.8,0.3-2.8
		c1.2-1.7,1.5-4,1.6-5.6c1.2-1.2,1.7-4.3,1.2-5.5c0.1-0.3,0.4-0.3,0.7-0.3c1-5.3,0.1-13.9,4.9-15.3c0.9,3.3,3.3,4.8,4.8,7.8
		c-0.1,3.1-1.1,8.4-1.7,11.1c0.1,0.4,0.7,0.2,0.4,0.9c3.9-1,8.4-1.5,11.8-3.2c0.5-3.2,1.4-6.2,0.9-9.4c0.4-0.3,0.6-0.9,1.1-1.1
		c-0.8-3.1,0.2-7.1,3.1-7.8c1.8,2.4,2.3,6.1,4.7,8c0.2,2.3,0.4,4.8,0.4,7.4c-0.6,2.9-1.6,5.7-1.8,8.8c-1.1,1.2-1.2,3.5-2.4,4.5
		c0.3,0.9-0.2,1.6,0.4,2.8c0.3,4.1-2.9,5.3-5.7,6.2c-0.6-0.4-1.1-0.9-1.9-1.1c0.1-0.1,0.1-0.3,0.1-0.4c0.1,0,0.1,0,0.2,0
		c-0.1-0.3-0.2-0.1-0.2,0c-1-1.3-2.2-2.8-2.2-4.7c0-0.2,0.7-3.8,0.7-4c-3.7,0.4-8.3,3-10.4,4.2c-0.1,0.4-1.4,4.3-2.5,4.2
		c0.1,0.3,0.3,0.5,0.2,0.9c-2.2,0.7-3.4,2.5-6.4,1c0-1-1.7-1.4-1.7-1.7C102.1,162.3,102.2,161.2,102.8,161.5z"/>
	<path class="st0" d="M135.5,158.5c0-0.9,0.5-1.2,0.9-1.7c3.2-0.2,4.9-0.8,7.8-0.9c0.1-0.1,0.2-0.1,0.4-0.1c0.5-1.9,1.5-3.8,2.2-5.6
		c0.9-3.3,2.7-5.5,3-8.4c0.8-2.3,1.4-4,1.8-6.7c-2.6,0.4-4,0.8-4.7,1.1c-2.7-0.2-2.8-1.9-3.7-3.7c0.3-0.6,0.2-2-0.5-2.6
		c0.5-0.1,0.9-1.1,0.7-1.5c2.2-0.7,5.2-0.2,6.9-1.2c3.4-0.1,7.4-0.3,10.6-0.5c2.3,0.8,6.8-0.4,7.8,2.9c2,0.2,1.6,1.7,1.6,3.1
		c-2.1,1.6-6.7,1.9-10.7,2c-0.6,4.3-3.8,12.8-3.7,14.1c-1.4,3-1.6,4.1-2.7,6.4c0,0,1.9-0.1,3.4-0.1c0.3,1.4,2.2,0.9,2.2,2.2
		c2.5,0.7,1.1,2.8,0.2,4c-0.6-0.1-1.2,0.4-1.6,1c-1.9-0.3-3.9,0.1-5.5,0.2c-0.3,0.1-0.1,0.5-0.3,0.6c-4.1-1.4-8.6,1.2-13.4,1.4
		C136.4,163.2,136,160.6,135.5,158.5z"/>
	<path class="st0" d="M162.6,148.4v-0.2c0.5-2.6,2.8-3.4,4.4-3.8l0.5-0.1l0.3,0.4c0.3,0.3,0.7,0.6,1.1,0.9c0.1,0.1,0.2,0.2,0.3,0.2
		c0.3-0.5,0.4-1.1,0.6-1.6c0.2-0.7,0.5-1.4,0.9-2.1c-0.1-0.6,0.1-1.1,0.2-1.5c-0.3-0.2-0.4-0.2-0.8-0.3c-0.2-0.1-0.4-0.1-0.7-0.2
		l-0.2-0.1l-0.2-0.2c-0.5-0.5-0.8-1-1.1-1.5c-0.3-0.5-0.6-1-0.9-1.2l-0.6-0.4l0.3-0.6c0.1-0.2,0.2-0.4-0.2-0.8l-0.1-0.3
		c0-0.3,0.1-0.5,0.1-0.6l-0.1-0.3l0.2-0.3c0.1-0.1,0.2-0.2,0.2-0.3c0.2-0.2,0.3-0.3,0.3-0.4l0.1-0.4l0.4-0.1c1.5-0.4,3.2-1,4.7-1.5
		c1.5-0.5,3.1-1.1,4.7-1.5c0.6-0.4,1.2-0.5,1.8-0.5c0.5-0.1,0.9-0.1,1.1-0.3l0.2-0.2l0.2-0.1c0.3-0.1,0.7-0.2,1.3-0.3
		c2-0.6,5.4-1.4,9.4-1.7h1.1c0.4-0.1,0.8-0.1,1.2-0.1c1.7,0,2.9,0.5,3.4,1.6c0.7,0.3,1.2,0.9,1.7,1.4c0.3,0.3,0.6,0.6,0.8,0.7
		l0.3,0.2l0.2,0.3c0.4,0.7,0.5,1.5,0.2,2.3l-0.1,0.2c-0.3,0.5-0.9,0.6-1.3,0.7c-0.2,0.1-0.4,0.1-0.5,0.2l-0.2,0.2h-0.4
		c-0.4-0.1-0.8-0.1-1.4-0.1c-4,0-11,1-14.8,2.5c-0.3,0.2-0.7,0.4-1.1,0.6c-0.2,0.1-0.3,0.2-0.5,0.2c0.1,0.6-0.1,1.1-0.1,1.5
		c-0.1,0.4-0.2,0.7-0.2,1.1v0.3l-0.2,0.2c-0.6,0.6-0.9,1.3-0.8,2.5v0.3l-0.2,0.2c-0.3,0.3-0.5,0.8-0.4,1.3l0.2,0.6
		c1.3-0.1,2.6-0.3,4-0.5c1.8-0.3,3.8-0.6,5.8-0.6h1.9l-0.4,0.5l0.6,0.1l-0.3,0.8c0.1,0.1,0.2,0.1,0.2,0.1c0.2,0.1,0.4,0.2,0.6,0.4
		l0.3,0.2l0.1,0.3c0.3,0.2,0.7,0.6,0.7,1.3l0.1,0.3l-0.2,0.2l-2.3,3l-0.3,0.4l-0.5-0.2c-0.1,0-0.2-0.1-0.4-0.1
		c-0.4,0-0.9,0.2-1.4,0.3c-0.6,0.2-1.2,0.3-1.8,0.3c-0.1,0-0.2,0-0.3,0c-1.1,0.3-2.2,0.5-3.3,0.6c-1.4,0.2-2.8,0.4-4,0.9l-0.2,0.1
		l-0.3-0.1c-0.1-0.1-0.2-0.1-0.4-0.1c-0.6,0-1.3,0.3-2,0.5c-0.3,0.3-0.4,0.7-0.6,1.1c-0.2,0.5-0.3,0.9-0.7,1.4
		c0,0.1,0.1,0.2,0.1,0.3l-0.1,0.6l-0.5,0.2c0,0.6-0.2,1-0.4,1.4c-0.1,0.3-0.2,0.5-0.2,0.7c0.3,0.6,0.4,1.3,0.3,2.1
		c-0.3,1.2-1,2.3-2,2.8l-0.3,0.1c-0.6,0-1.2-0.2-1.6-0.4c-0.4-0.1-0.7-0.3-1-0.3l-0.4-0.1l-0.2-0.4c-0.2-0.4-0.5-0.8-0.7-1.2
		c-0.4-0.5-0.7-0.9-1-1.5l-0.1-0.3c-0.4-2,0.1-3.5,0.6-5c0.2-0.5,0.3-1,0.4-1.5C163.8,152.6,162.7,150.3,162.6,148.4z"/>
	<path class="st0" d="M193.6,134.3c-0.3-0.8-0.7-1.7-0.7-3c0.1-0.6,0.4-0.8,0.7-1.2l0.1-0.8l0.7,0.1c0.6,0,1.1,0,1.7,0
		c2.5,0,5.2-0.3,7.9-0.5c1.6-0.2,3.2-0.3,4.9-0.5c0.1-0.1,0.2-0.3,0.2-0.4c0.1-0.2,0.2-0.4,0.3-0.7l0.3-0.3l0.3-0.1
		c0.2,0,0.3-0.1,0.4-0.1c1,0,1.6,0.6,1.9,1c1.7-0.2,3.5-0.4,5.4-0.7c2.7-0.4,5.5-0.8,8-0.8c1.1,0,2.1,0.1,3.1,0.3l0.4,0.1l0.2,0.4
		c0.3,0.5,0.7,0.9,1.2,1.2c1,0.8,2.2,1.8,2,4.2l-0.1,0.3l-0.2,0.2c-0.2,0.2-0.3,0.3-0.5,0.4c-0.1,0.1-0.3,0.2-0.3,0.2l-0.3,0.5h-0.6
		c-0.5,0-0.8,0.1-1.2,0.3c-0.3,0.1-0.6,0.3-1,0.4h-0.2c-0.4-0.1-0.9-0.1-1.3-0.1c-2,0-4.4,0.3-6.6,0.6c-1.6,0.2-3.1,0.4-4.4,0.6
		c-0.5,1.6-1.1,2.9-1.6,4.2c-0.6,1.4-1.2,2.7-1.6,4.3l-0.1,0.2c-0.6,1-1.2,2-1.5,3.4l-0.1,0.3l-0.2,0.2c-0.7,0.6-1.1,2.1-1.4,3.1
		c-0.1,0.2-0.1,0.3-0.2,0.4l-0.1,0.3l-0.3,0.3c-0.1,0.2-0.1,0.5-0.4,0.8c-0.1,0.5-0.2,0.9-0.4,1.3c-0.2,0.4-0.3,0.7-0.3,0.9v0.3
		c-0.1,0.2-0.2,0.4-0.3,0.6c0,0.4-0.1,0.8-0.2,1.2c-0.1,0.4-0.2,0.8-0.1,1.3c0.1,0.1,0.4,0.4,0.5,0.8c0.2,0.1,0.4,0.2,0.5,0.3
		c0.3,0.2,0.5,0.3,0.7,0.4l0.4,0.2l0.1,0.4c0.2,1.2,0.1,2.1-0.5,2.8c-0.6,0.7-1.7,1.1-3,1.1c-0.2,0-0.3,0-0.4,0h-0.3l-0.3-0.3
		c0-0.1-0.1-0.2-0.2-0.3l-0.2-0.1c-0.4-0.1-0.8-0.2-1.1-0.7c-0.2-0.1-0.4-0.2-0.5-0.3c-0.3-0.1-0.5-0.2-0.8-0.3l-0.6-0.3l0.1-0.4
		c-0.1-0.1-0.1-0.2-0.1-0.3c-0.6-0.7-0.8-1.7-1-2.5c-0.2-0.7-0.4-1.4-0.8-2v-0.3c0-4,1.3-7.1,2.4-10c0.6-1.6,1.3-3.2,1.7-5l0.1-0.4
		l0.4-0.2c0.1,0,0.2-0.1,0.3-0.2c0.1-0.1,0.2-0.2,0.2-0.2c0-0.8,0.4-1.7,0.8-2.5c0.3-0.6,0.5-1.1,0.6-1.5c-0.4,0-0.8,0.1-1.3,0.2
		c-0.4,0.1-0.8,0.1-1.2,0.1c-0.2,0-0.4,0-0.6-0.1c-0.5,0.3-1,0.3-1.4,0.3c-0.2,0-0.4,0-0.6-0.1c-0.2,0-0.4,0-0.6,0
		c-0.4,0-0.7,0.1-1,0.2l-0.3,0.1l-0.2-0.1c-0.3-0.1-0.6-0.1-0.9-0.1c-0.2,0-0.4,0-0.6,0s-0.4,0.1-0.6,0.1c-0.6,0-1.2-0.1-2.1-0.6
		l-0.2-0.3c-0.2-0.4-0.4-0.6-0.6-0.6l-0.5-0.2l-0.1-0.6C194,135.3,193.8,134.8,193.6,134.3z"/>
	<path class="st0" d="M243.5,134.3c-0.3-0.8-0.7-1.7-0.7-3c0.1-0.6,0.4-0.8,0.7-1.2l0.1-0.8l0.7,0.1c0.6,0,1.1,0,1.7,0
		c2.5,0,5.2-0.3,7.9-0.5c1.6-0.2,3.2-0.3,4.9-0.5c0.1-0.1,0.2-0.3,0.2-0.4c0.1-0.2,0.2-0.4,0.3-0.7l0.3-0.3l0.3-0.1
		c0.2,0,0.3-0.1,0.4-0.1c1,0,1.6,0.6,1.9,1c1.7-0.2,3.5-0.4,5.4-0.7c2.7-0.4,5.5-0.8,8-0.8c1.1,0,2.1,0.1,3.1,0.3l0.4,0.1l0.2,0.4
		c0.3,0.5,0.7,0.9,1.2,1.2c1,0.8,2.2,1.8,2,4.2l-0.1,0.3l-0.2,0.2c-0.2,0.2-0.3,0.3-0.5,0.4c-0.1,0.1-0.3,0.2-0.3,0.2l-0.3,0.5h-0.6
		c-0.5,0-0.8,0.1-1.2,0.3c-0.3,0.1-0.6,0.3-1,0.4h-0.2c-0.4-0.1-0.9-0.1-1.3-0.1c-2,0-4.4,0.3-6.6,0.6c-1.6,0.2-3.1,0.4-4.4,0.6
		c-0.5,1.6-1.1,2.9-1.6,4.2c-0.6,1.4-1.2,2.7-1.6,4.3l-0.1,0.2c-0.6,1-1.2,2-1.5,3.4l-0.1,0.3l-0.2,0.2c-0.7,0.6-1.1,2.1-1.4,3.1
		c-0.1,0.2-0.1,0.3-0.2,0.4l-0.1,0.3l-0.3,0.3c-0.1,0.2-0.1,0.5-0.4,0.8c-0.1,0.5-0.2,0.9-0.4,1.3c-0.2,0.4-0.3,0.7-0.3,0.9v0.3
		c-0.1,0.2-0.2,0.4-0.3,0.6c0,0.4-0.1,0.8-0.2,1.2c-0.1,0.4-0.2,0.8-0.1,1.3c0.1,0.1,0.4,0.4,0.5,0.8c0.2,0.1,0.4,0.2,0.5,0.3
		c0.3,0.2,0.5,0.3,0.7,0.4l0.4,0.2l0.1,0.4c0.2,1.2,0.1,2.1-0.5,2.8c-0.6,0.7-1.7,1.1-3,1.1c-0.2,0-0.3,0-0.4,0h-0.3l-0.3-0.3
		c0-0.1-0.1-0.2-0.2-0.3l-0.2-0.1c-0.4-0.1-0.8-0.2-1.1-0.7c-0.2-0.1-0.4-0.2-0.5-0.3c-0.3-0.1-0.5-0.2-0.8-0.3l-0.6-0.3l0.1-0.4
		c-0.1-0.1-0.1-0.2-0.1-0.3c-0.6-0.7-0.8-1.7-1-2.5c-0.2-0.7-0.4-1.4-0.8-2v-0.3c0-4,1.3-7.1,2.4-10c0.6-1.6,1.3-3.2,1.7-5l0.1-0.4
		l0.4-0.2c0.1,0,0.2-0.1,0.3-0.2c0.1-0.1,0.2-0.2,0.2-0.2c0-0.8,0.4-1.7,0.8-2.5c0.3-0.6,0.5-1.1,0.6-1.5c-0.4,0-0.8,0.1-1.3,0.2
		c-0.4,0.1-0.8,0.1-1.2,0.1c-0.2,0-0.4,0-0.6-0.1c-0.5,0.3-1,0.3-1.4,0.3c-0.2,0-0.4,0-0.6-0.1c-0.2,0-0.4,0-0.6,0
		c-0.4,0-0.7,0.1-1,0.2l-0.3,0.1l-0.2-0.1c-0.3-0.1-0.6-0.1-0.9-0.1c-0.2,0-0.4,0-0.6,0s-0.4,0.1-0.6,0.1c-0.6,0-1.2-0.1-2.1-0.6
		l-0.2-0.3c-0.2-0.4-0.4-0.6-0.6-0.6l-0.5-0.2l-0.1-0.6C243.9,135.3,243.7,134.8,243.5,134.3z"/>
	<path class="st0" d="M274.8,161.5c-0.8-1.1-0.8-1.8-1.5-3.1c0.4-0.4,0.3-1.8,0.9-1.3c-0.3-1.4,0.8-1.8,0.3-2.8
		c1.2-1.7,1.5-4,1.6-5.6c1.2-1.2,1.7-4.3,1.2-5.5c0.1-0.3,0.4-0.3,0.7-0.3c1-5.3,0.1-13.9,4.9-15.3c0.9,3.3,3.3,4.8,4.8,7.8
		c-0.1,3.1-1.1,8.4-1.7,11.1c0.1,0.4,0.7,0.2,0.4,0.9c3.9-1,8.4-1.5,11.8-3.2c0.5-3.2,1.4-6.2,0.9-9.4c0.4-0.3,0.6-0.9,1.1-1.1
		c-0.8-3.1,0.2-7.1,3.1-7.8c1.8,2.4,2.3,6.1,4.7,8c0.2,2.3,0.4,4.8,0.4,7.4c-0.6,2.9-1.6,5.7-1.8,8.8c-1.1,1.2-1.2,3.5-2.4,4.5
		c0.3,0.9-0.2,1.6,0.4,2.8c0.3,4.1-2.9,5.3-5.7,6.2c-0.6-0.4-1.1-0.9-1.9-1.1c0.1-0.1,0.1-0.3,0.1-0.4c0.1,0,0.1,0,0.2,0
		c-0.1-0.3-0.2-0.1-0.2,0c-1-1.3-2.2-2.8-2.2-4.7c0-0.2,0.7-3.8,0.7-4c-3.7,0.4-8.3,3-10.4,4.2c-0.1,0.4-1.4,4.3-2.5,4.2
		c0.1,0.3,0.3,0.5,0.2,0.9c-2.2,0.7-3.4,2.5-6.4,1c0-1-1.7-1.4-1.7-1.7C274.2,162.3,274.3,161.2,274.8,161.5z"/>
	<path class="st0" d="M310.8,160.3c-0.3-2-1.2-5.4-0.8-7.6c0.2-1.2,1.4-2.1,1.1-3.2c0.4-0.1,0.3-0.6,0.8-0.5c0.9-3,2.3-4.8,3.4-7.8
		c-2.2-2.1-1.7-4.8-2.4-7.4c1.6-2.4,4.5-2.8,8-3.5c6.4-2,9.5-1.9,16.2-3.1c0.1,0.2,0.3,0.2,0.5,0.2c0.1,0.2,0.2,0.4,0.5,0.4
		c0,0.2,0.2,0.1,0.4,0.2c0-0.2-0.2-0.1-0.4-0.2c0-0.2,0-0.4,0-0.5c0.3-0.1,0.9,0.5,0.8-0.2c0.8,1.3,2.1,2.2,3.6,2.9
		c0.3,1.1-0.3,1,0.1,2c-3.3,5.4-9.1,2.9-14.3,6.1c-1-0.4-1.6,0.4-3.2,0.2c-0.5,0.5-1.3,0.6-2,0.8c0.4,0.8,0.2,1.5,0.4,2
		c2.8,0.3,6.4-0.3,9.6-0.4c0.1,0.4-0.2,0.4-0.2,0.7c1.2,0.7,2,2.7,3.6,2.5c0.3,0.7,0.5,1.4,0.2,2.2c-2.7,1.7-5,3.8-8.7,3.7
		c-0.4,0-0.6,0.1-0.9-0.2c-0.7,0.4-2,0-2.7,0.4c-0.9-0.4-2.3-0.3-3.2-0.5c-1.2,1.7-2.3,3.6-3.1,5.7c5.5,0.8,6.5-0.6,11.5-0.4
		c1.6-0.8,4-0.9,5.9-1.5c1.3,0.5,1.7,2.5,3.1,2.3c0.6,0.6,0.2,2,1.2,1.8c-2.4,5.2-6.1,5-12.1,6.1c-0.7,0.2-1.1-0.1-1.7-0.2
		c-3.7,0.7-10.8,1.6-13.9-1.4C311.6,161.6,311.6,160.8,310.8,160.3z"/>
	<path class="st0" d="M360.2,145.7c1.2-3.6,3.7-5.9,5.9-8.5c0.3,0,0.4,0.1,0.6,0.2c0.6-1.5,2.2-1.9,3.1-3.2c3.3-0.7,4.8-3.3,8.1-4
		c1.2-1.4,3.7-1.5,4.7-3.1c0.4,0.6,1.3,0.2,1.8,0c0.8-0.2,1.1,1.2,1.5,0.4c0.5,0.1,0.1,0.6,0,0.7c0.7-0.1,0.9,0.5,1.8,0.6
		c0.4,0.4,0.1,0.5,0,0.9c4.8,1.5,2,7-1.6,7.9c-3.6,1-7.2,2-9.4,4.4c-3.7,1.1-5.8,3.9-8.3,6.2c0,1.1-0.5,1.6-0.9,2.2
		c0.1,1.2,0.6,2,1.1,2.9c5.3,1.6,11.4,1.8,17.3,1.8c1.2,1.6,3.4,2.5,3,5.2c-1.2,1.2-2.5,2.1-3.9,3.2c-1.2,0.1-3.4-0.3-4.9,0.4
		c-4.2-0.2-8.9-1.1-12.5-2.4c-0.8-0.8-1.5-1.7-2.8-2C361.1,156.5,360.1,150.5,360.2,145.7z"/>
	<path class="st0" d="M393.4,139l-0.1-0.3c-0.1-0.1-0.1-0.3-0.2-0.4c0.5-1.2,0.6-2.4,0.8-3.5c0.2-0.9,0.3-1.7,0.6-2.4
		c1.1-0.3,1.6-1.1,2-1.7c1.1,0,1.3,0.4,1.7,1.3c0.4,0.7,0.9,1.7,2,2.1c0.2,0.7,0.5,1.4,0.8,2.1c0.6,1.4,1.2,3,1.3,4.3
		c-1.6,3-1.7,8.4-0.7,10.9l0.3,0.8l0.2,0.1l0.8-0.2c4.8-1.2,7.4-2.9,10.7-6.6c3.3-3.7,4.9-9.7,5.2-14.1c0.7-0.3,1-0.8,1.1-1.4
		l-0.1-0.4l-0.1-0.3c-0.2-0.3-0.1-0.6,0-0.9c0.3-0.7,0.9-1.3,1.7-1.7c1.2,0.8,2.2,1.8,3.1,2.8c0.1,1.7,0.6,3,1.1,4.1
		c0.4,1.1,0.8,2.1,1,3.6c-0.7,2-0.9,3.7-1.2,5.6l-0.1,0.5c-1.2,2.1-2.5,4.4-3.2,6c-0.4,0.5-0.7,1-1,1.5c-0.1,0.2-0.4,0.8-0.6,1
		l-1.2-0.5l-0.3-0.1v0.3v1.3c0,0.2-0.1,0.3-0.2,0.4l-0.7-0.2l-0.2,0.1l-0.4,0.6c-3,5.3-6.6,6.8-13.3,9.6c-1.3-0.2-2.2-0.2-3.1-0.3
		c-0.9,0-1.7-0.1-2.9-0.2c-0.3-0.6-0.8-0.8-1.2-0.8c-0.1,0-0.2,0-0.2,0c-1.1-0.7-1.7-1.9-2.3-3.4c-0.4-0.8-0.7-1.6-1.2-2.3l1-0.3
		l0.3-0.1l-0.3-0.2l-1.3-1.2c-0.3-0.2-0.5-0.4-0.7-0.6l-0.1-1c-0.2-5.5-0.4-10.1,0.8-13.6L393.4,139z"/>
	<path class="st0" d="M425.8,158.3c0.2,0,0.4,0,0.5,0c-0.9-2.9,1.4-4.8,0.6-7.2c0.6,0.4,0.7-1.8,0.5-2.4c1.7-4.1,1.7-9,3.4-12.5
		c0.9-0.2,2.2,0.3,2.4,0.9c4.2-3.2,5.7-9.9,11.8-10.6c1.6,1.1,3.9,2.2,5.1,4.2c0.6,0.3,1,0.7,1.6,1c0,0.3,0,0.5,0,0.7
		c1.9,1.7,2.2,4.9,3.5,7.2c-0.3,0.8,0.3,1,0.2,2.1c-0.5,7.1-9.1,8-14.4,10.2c0,0.3,0.4,0.2,0.4,0.5c3.9,2.4,3.7,2.7,7.9,3.6
		c4.1,1,4,1.1,7.6,1.4c1.5,1.5,2,4.2,1.1,5.3c0.1,0.3,0.4,0.2,0.7,0.2c-1,0.7-1.1,2.1-2.4,2.3c-2.4,0.9-6,0-11.7-2.2
		c-5.7-2.2-6.6-3.1-9.6-5.7c-0.3,0-0.2,0.3-0.4,0.3c-0.4,2.7-1,4.1-2.3,5.8c-1-0.2-1.3,0.4-1.7,0.7c-1.4,0.3-1-0.8-2.5-0.7
		c-0.2-0.6-0.2-1.3-1-1.2c0.4-1.2-0.5-1.5-0.2-2.7C426.3,159.6,426.1,158.8,425.8,158.3z M438.1,144.3c2.8-0.4,6-1.8,8.7-3
		c-0.3-2.4-1.9-3.9-3.5-4.4C441.7,139.4,438.7,140.6,438.1,144.3z"/>
	<path class="st0" d="M460.7,139.4c0-3.6-1.1-8.5-0.3-10.2c0,0.1,0,0.2,0,0.2c0.3,0,0.2-0.2,0-0.2c0.5-1,1.4-1.4,2.1-2.1
		c1.7,0.2,3,1.7,2.7,2.9c5,3,3.5,12.6,4.8,17c5.9-8.5,7.1-12.4,15.1-20.2c1.7,0.2,1.6,1,3.5,0.7c0.7,1.5,0.5,1.1,1.3,3.3
		c0.5,0.5-0.4,1.8,0.4,1.5c-0.3,1.1-1.1,1.9-1.1,3.1c-3.5,4.8-9.1,10-11.9,16.6c-0.8,0-0.7,1.1-1.4,1.1c-0.1,2.1-1.9,4.1-3.3,5.5
		c0.3,1-0.1,1.3-0.1,2.3c-1.2,3.1-4,4.3-6.2,2.9c-0.9-0.6-1.3-1.9-2.3-2.2c0.2-1.3-0.4-3-1-3.1c-0.5-3.4-2-7.9-1.8-11.1
		c0.1-0.8-0.5-1.4-0.6-2.2C460.4,143.3,460.7,141.1,460.7,139.4z"/>
	<path class="st0" d="M488,160.3c-0.3-2-1.2-5.4-0.8-7.6c0.2-1.2,1.4-2.1,1.1-3.2c0.4-0.1,0.3-0.6,0.8-0.5c0.9-3,2.3-4.8,3.4-7.8
		c-2.2-2.1-1.7-4.8-2.4-7.4c1.6-2.4,4.5-2.8,8-3.5c6.4-2,9.5-1.9,16.2-3.1c0.1,0.2,0.3,0.2,0.5,0.2c0.1,0.2,0.2,0.4,0.5,0.4
		c0,0.2,0.2,0.1,0.4,0.2c0-0.2-0.2-0.1-0.4-0.2c0-0.2,0-0.4,0-0.5c0.3-0.1,0.9,0.5,0.8-0.2c0.8,1.3,2.1,2.2,3.6,2.9
		c0.3,1.1-0.3,1,0.1,2c-3.3,5.4-9.1,2.9-14.3,6.1c-1-0.4-1.6,0.4-3.2,0.2c-0.5,0.5-1.3,0.6-2,0.8c0.4,0.8,0.2,1.5,0.4,2
		c2.8,0.3,6.4-0.3,9.6-0.4c0.1,0.4-0.2,0.4-0.2,0.7c1.2,0.7,2,2.7,3.6,2.5c0.3,0.7,0.5,1.4,0.2,2.2c-2.7,1.7-5,3.8-8.7,3.7
		c-0.4,0-0.6,0.1-0.9-0.2c-0.7,0.4-2,0-2.7,0.4c-0.9-0.4-2.3-0.3-3.2-0.5c-1.2,1.7-2.3,3.6-3.1,5.7c5.5,0.8,6.5-0.6,11.5-0.4
		c1.6-0.8,4-0.9,5.9-1.5c1.3,0.5,1.7,2.5,3.1,2.3c0.6,0.6,0.2,2,1.2,1.8c-2.4,5.2-6.1,5-12.1,6.1c-0.7,0.2-1.1-0.1-1.7-0.2
		c-3.7,0.7-10.8,1.6-13.9-1.4C488.8,161.6,488.8,160.8,488,160.3z"/>
</g>
<g>
	<path class="st0" d="M747.4,165.6c-2.1-2.3-3.6-8.4-2.1-11.8c0.1-0.2,6.2-15.1,8.6-18.8c0.6-0.9,1.1-1.8,1.6-2.5c1.4-2.4,2.4-4,5-5
		c0.8,0.4,1.4,0.7,1.8,1.3l0.2,0.7c0.2,0.5,0.5,0.6,0.7,0.6c0.1,0,0.2-0.1,0.3-0.1c0.6,0.3,1.1,0.5,1.9,0.6c0.3,0.4,0.5,0.7,0.8,1.1
		c1.3,1.9,2.4,3.6,1.6,5.7l-0.1,0.3l0.2,0.3c0.3,0.4,0.3,0.8,0.2,1.5c-0.1,0.5-0.2,1.1,0.1,1.9l0.1,0.3l0.3,0.1
		c0.6,0.3,1.1,0.4,1.6,0.4c1.3,0,2.3-0.8,3.3-1.4c0.7-0.5,1.3-0.9,1.9-1l0.3-0.2c1-1.2,2.2-2.1,3.5-3.2c2.4-1.9,4.8-4,6.2-7.3
		c0.4-0.3,0.8-0.4,1.2-0.4c0.9,0,1.9,0.5,2.8,0.9c0.2,0.1,0.4,0.2,0.6,0.3c0,0.4,0.2,0.7,0.6,1.2c0.2,0.1,0.3,0.2,0.4,0.2
		c0.6,0.3,0.9,0.6,1.1,1c0.3,0.9,0.8,1.6,1.5,2.1c-0.2,0.8,0.2,1.5,0.4,2.1c0.1,0.3,0.2,0.5,0.3,0.8c-0.1,0.1-0.2,0.3-0.2,0.4
		l-0.9-0.5l0.2,1.1c0.2,1.1-0.3,2.7-0.7,3.5l-0.1,0.4c0.4,3.2,0.1,4.5-0.8,6.5l-0.1,0.3c0.3,4.7-1.5,8.9-3.2,12.5
		c-0.2,0.4-0.4,0.8-0.6,1.2c-0.7,0.2-1.2,0.5-1.8,0.8c-0.8,0.4-1.5,0.8-2.3,0.8c-0.1,0-0.2,0-0.3,0c-2.8-2.3-2.9-8.2-0.4-16.9
		c0.2-0.1,0.3-0.3,0.3-0.8v-0.5l-0.6-0.1c-0.1,0-0.6,0.1-0.7,0.5c-4.1,3.1-10.1,7-15.4,7c-3.4,0-5.8-1.6-7.5-5l-0.5-0.9l-0.5,0.8
		c-0.4,0.6-2.2,4.4-2.1,6.4c-0.7,0.7-1.6,1.6-2,2.8c-0.1,0.4,0,0.7,0.1,1c0,0.1,0.1,0.2,0.1,0.2c-0.1,0.2-0.3,0.4-0.6,0.6
		c-0.3,0.3-0.7,0.7-0.9,1.1c-0.2,0.4-0.3,0.8-0.3,1.2c0,0.3-0.1,0.6-0.1,0.8c-1.4,2.8-1.8,3.3-3.2,3.3
		C748.6,165.7,748,165.7,747.4,165.6z"/>
	<path class="st0" d="M794.7,158c-1.2-9,4.5-14.5,8.7-19.6c0.9,0.3,1-1.1,1.8-1.3c0.6-1.2,1.9-1.5,2.5-2.6c1.4-0.3,1.8-1.5,3.1-1.9
		c0-0.2,0-0.4,0-0.6c1.5-0.7,1.9-1.4,2.8-2.7c0.7-0.1,1,0,1.9-0.2c0.6-1.1,1-1.5,2-2.2c1,0.5,2.2,0.4,3.1,1.3c0.1,1.6,1.9,1.5,2.2,3
		c0.3,0,0.3-0.2,0.6-0.2c0.3,1.1,0.6,1.1,0.9,2.1c-0.4,0.8-0.5,1.8-1.2,2.2c-0.1,0.5,0.6,0.3,0.6,0.8c0.1,0.4,0,0.6-0.2,0.8
		c1.9,3.1,3.2,6.7,5.1,9.8c-0.2,1.9,1.2,3.5,1.4,5.3c0.3,2.2-0.6,5.5-2.3,6.5c-1,1.4-2.9,1.9-4.2,3.1c-0.1-0.1-0.2-0.2-0.2-0.3
		c-0.7,1-1.8,1-3,1.2c-1.8,1-5,2.2-7,2c-2.4,0.8-4.4,1.2-7.4,0.6C800.3,166.1,796.4,162.3,794.7,158z M802.6,155.6
		c2.7,2.2,7.5,0.5,10.7,0.4c0-0.3,0.1-0.5,0.4-0.4c2.8-0.3,5-1.8,7.6-3.2c0.4-0.8,1.1-1.2,1.1-2.3c-0.3-0.6-0.4-0.8-0.4-1.6
		c-1.7-2.4-2.8-5.5-4.4-7.9c-0.2,0.3-0.6,0.8-1.1,0.4c-0.4,1.3-1.7,0.9-2.5,0.3c-2.2,1.8-4.7,3.5-6.5,5.8c-0.3,0.2-0.3-0.1-0.7,0.1
		C805.4,150.2,802.7,151.8,802.6,155.6z"/>
	<path class="st0" d="M834.3,140.6c0-3.6-1.1-8.5-0.3-10.2c0,0.1,0,0.2,0,0.2c0.3,0,0.2-0.2,0-0.2c0.5-1,1.4-1.4,2.1-2.1
		c1.7,0.2,3,1.7,2.7,2.9c5,3,3.5,12.6,4.8,17c5.9-8.5,7.1-12.4,15.1-20.2c1.7,0.2,1.6,1,3.5,0.7c0.7,1.5,0.5,1.1,1.3,3.3
		c0.5,0.5-0.4,1.8,0.4,1.5c-0.3,1.1-1.1,1.9-1.1,3.1c-3.5,4.8-9.1,10-11.9,16.6c-0.8,0-0.7,1.1-1.4,1.1c-0.1,2.1-1.9,4.1-3.3,5.5
		c0.3,1-0.1,1.3-0.1,2.3c-1.2,3.1-4,4.3-6.2,2.9c-0.9-0.6-1.3-1.9-2.3-2.2c0.2-1.3-0.4-3-1-3.1c-0.5-3.4-2-7.9-1.8-11.1
		c0.1-0.8-0.5-1.4-0.6-2.2C834.1,144.5,834.3,142.4,834.3,140.6z"/>
	<path class="st0" d="M861.7,161.5c-0.3-2-1.2-5.4-0.8-7.6c0.2-1.2,1.4-2.1,1.1-3.2c0.4-0.1,0.3-0.6,0.8-0.5c0.9-3,2.3-4.8,3.4-7.8
		c-2.2-2.1-1.7-4.8-2.4-7.4c1.6-2.4,4.5-2.8,8-3.5c6.4-2,9.5-1.9,16.2-3.1c0.1,0.2,0.3,0.2,0.5,0.2c0.1,0.2,0.2,0.4,0.5,0.4
		c0,0.2,0.2,0.1,0.4,0.2c0-0.2-0.2-0.1-0.4-0.2c0-0.2,0-0.4,0-0.5c0.3-0.1,0.9,0.5,0.8-0.2c0.8,1.3,2.1,2.2,3.6,2.9
		c0.3,1.1-0.3,1,0.1,2c-3.3,5.4-9.1,2.9-14.3,6.1c-1-0.4-1.6,0.4-3.2,0.2c-0.5,0.5-1.3,0.6-2,0.8c0.4,0.8,0.2,1.5,0.4,2
		c2.8,0.3,6.4-0.3,9.6-0.4c0.1,0.4-0.2,0.4-0.2,0.7c1.2,0.7,2,2.7,3.6,2.5c0.3,0.7,0.5,1.4,0.2,2.2c-2.7,1.7-5,3.8-8.7,3.7
		c-0.4,0-0.6,0.1-0.9-0.2c-0.7,0.4-2,0-2.7,0.4c-0.9-0.4-2.3-0.3-3.2-0.5c-1.2,1.7-2.3,3.6-3.1,5.7c5.5,0.8,6.5-0.6,11.5-0.4
		c1.6-0.8,4-0.9,5.9-1.5c1.3,0.5,1.7,2.5,3.1,2.3c0.6,0.6,0.2,2,1.2,1.8c-2.4,5.2-6.1,5-12.1,6.1c-0.7,0.2-1.1-0.1-1.7-0.2
		c-3.7,0.7-10.8,1.6-13.9-1.4C862.5,162.8,862.5,162,861.7,161.5z"/>
	<path class="st0" d="M911.8,135.5c-0.3-0.8-0.7-1.7-0.7-3c0.1-0.6,0.4-0.8,0.7-1.2l0.1-0.8l0.7,0.1c0.6,0,1.1,0,1.7,0
		c2.5,0,5.2-0.3,7.9-0.5c1.6-0.2,3.2-0.3,4.9-0.5c0.1-0.1,0.2-0.3,0.2-0.4c0.1-0.2,0.2-0.4,0.3-0.7l0.3-0.3l0.3-0.1
		c0.2,0,0.3-0.1,0.4-0.1c1,0,1.6,0.6,1.9,1c1.7-0.2,3.5-0.4,5.4-0.7c2.7-0.4,5.5-0.8,8-0.8c1.1,0,2.1,0.1,3.1,0.3l0.4,0.1l0.2,0.4
		c0.3,0.5,0.7,0.9,1.2,1.2c1,0.8,2.2,1.8,2,4.2l-0.1,0.3l-0.2,0.2c-0.2,0.2-0.3,0.3-0.5,0.4c-0.1,0.1-0.3,0.2-0.3,0.2l-0.3,0.5h-0.6
		c-0.5,0-0.8,0.1-1.2,0.3c-0.3,0.1-0.6,0.3-1,0.4h-0.2c-0.4-0.1-0.9-0.1-1.3-0.1c-2,0-4.4,0.3-6.6,0.6c-1.6,0.2-3.1,0.4-4.4,0.6
		c-0.5,1.6-1.1,2.9-1.6,4.2c-0.6,1.4-1.2,2.7-1.6,4.3l-0.1,0.2c-0.6,1-1.2,2-1.5,3.4l-0.1,0.3l-0.2,0.2c-0.7,0.6-1.1,2.1-1.4,3.1
		c-0.1,0.2-0.1,0.3-0.2,0.4l-0.1,0.3l-0.3,0.3c-0.1,0.2-0.1,0.5-0.4,0.8c-0.1,0.5-0.2,0.9-0.4,1.3c-0.2,0.4-0.3,0.7-0.3,0.9v0.3
		c-0.1,0.2-0.2,0.4-0.3,0.6c0,0.4-0.1,0.8-0.2,1.2c-0.1,0.4-0.2,0.8-0.1,1.3c0.1,0.1,0.4,0.4,0.5,0.8c0.2,0.1,0.4,0.2,0.5,0.3
		c0.3,0.2,0.5,0.3,0.7,0.4l0.4,0.2l0.1,0.4c0.2,1.2,0.1,2.1-0.5,2.8c-0.6,0.7-1.7,1.1-3,1.1c-0.2,0-0.3,0-0.4,0h-0.3l-0.3-0.3
		c0-0.1-0.1-0.2-0.2-0.3l-0.2-0.1c-0.4-0.1-0.8-0.2-1.1-0.7c-0.2-0.1-0.4-0.2-0.5-0.3c-0.3-0.1-0.5-0.2-0.8-0.3l-0.6-0.3l0.1-0.4
		c-0.1-0.1-0.1-0.2-0.1-0.3c-0.6-0.7-0.8-1.7-1-2.5c-0.2-0.7-0.4-1.4-0.8-2v-0.3c0-4,1.3-7.1,2.4-10c0.6-1.6,1.3-3.2,1.7-5l0.1-0.4
		l0.4-0.2c0.1,0,0.2-0.1,0.3-0.2c0.1-0.1,0.2-0.2,0.2-0.2c0-0.8,0.4-1.7,0.8-2.5c0.3-0.6,0.5-1.1,0.6-1.5c-0.4,0-0.8,0.1-1.3,0.2
		c-0.4,0.1-0.8,0.1-1.2,0.1c-0.2,0-0.4,0-0.6-0.1c-0.5,0.3-1,0.3-1.4,0.3c-0.2,0-0.4,0-0.6-0.1c-0.2,0-0.4,0-0.6,0
		c-0.4,0-0.7,0.1-1,0.2l-0.3,0.1l-0.2-0.1c-0.3-0.1-0.6-0.1-0.9-0.1c-0.2,0-0.4,0-0.6,0s-0.4,0.1-0.6,0.1c-0.6,0-1.2-0.1-2.1-0.6
		l-0.2-0.3c-0.2-0.4-0.4-0.6-0.6-0.6l-0.5-0.2l-0.1-0.6C912.1,136.5,912,136.1,911.8,135.5z"/>
	<path class="st0" d="M943.1,162.8c-0.8-1.1-0.8-1.8-1.5-3.1c0.4-0.4,0.3-1.8,0.9-1.3c-0.3-1.4,0.8-1.8,0.3-2.8
		c1.2-1.7,1.5-4,1.6-5.6c1.2-1.2,1.7-4.3,1.2-5.5c0.1-0.3,0.4-0.3,0.7-0.3c1-5.3,0.1-13.9,4.9-15.3c0.9,3.3,3.3,4.8,4.8,7.8
		c-0.1,3.1-1.1,8.4-1.7,11.1c0.1,0.4,0.7,0.2,0.4,0.9c3.9-1,8.4-1.5,11.8-3.2c0.5-3.2,1.4-6.2,0.9-9.4c0.4-0.3,0.6-0.9,1.1-1.1
		c-0.8-3.1,0.2-7.1,3.1-7.8c1.8,2.4,2.3,6.1,4.7,8c0.2,2.3,0.4,4.8,0.4,7.4c-0.6,2.9-1.6,5.7-1.8,8.8c-1.1,1.2-1.2,3.5-2.4,4.5
		c0.3,0.9-0.2,1.6,0.4,2.8c0.3,4.1-2.9,5.3-5.7,6.2c-0.6-0.4-1.1-0.9-1.9-1.1c0.1-0.1,0.1-0.3,0.1-0.4c0.1,0,0.1,0,0.2,0
		c-0.1-0.3-0.2-0.1-0.2,0c-1-1.3-2.2-2.8-2.2-4.7c0-0.2,0.7-3.8,0.7-4c-3.7,0.4-8.3,3-10.4,4.2c-0.1,0.4-1.4,4.3-2.5,4.2
		c0.1,0.3,0.3,0.5,0.2,0.9c-2.2,0.7-3.4,2.5-6.4,1c0-1-1.7-1.4-1.7-1.7C942.5,163.5,942.6,162.4,943.1,162.8z"/>
	<path class="st0" d="M979,161.5c-0.3-2-1.2-5.4-0.8-7.6c0.2-1.2,1.4-2.1,1.1-3.2c0.4-0.1,0.3-0.6,0.8-0.5c0.9-3,2.3-4.8,3.4-7.8
		c-2.2-2.1-1.7-4.8-2.4-7.4c1.6-2.4,4.5-2.8,8-3.5c6.4-2,9.5-1.9,16.2-3.1c0.1,0.2,0.3,0.2,0.5,0.2c0.1,0.2,0.2,0.4,0.5,0.4
		c0,0.2,0.2,0.1,0.4,0.2c0-0.2-0.2-0.1-0.4-0.2c0-0.2,0-0.4,0-0.5c0.3-0.1,0.9,0.5,0.8-0.2c0.8,1.3,2.1,2.2,3.6,2.9
		c0.3,1.1-0.3,1,0.1,2c-3.3,5.4-9.1,2.9-14.3,6.1c-1-0.4-1.6,0.4-3.2,0.2c-0.5,0.5-1.3,0.6-2,0.8c0.4,0.8,0.2,1.5,0.4,2
		c2.8,0.3,6.4-0.3,9.6-0.4c0.1,0.4-0.2,0.4-0.2,0.7c1.2,0.7,2,2.7,3.6,2.5c0.3,0.7,0.5,1.4,0.2,2.2c-2.7,1.7-5,3.8-8.7,3.7
		c-0.4,0-0.6,0.1-0.9-0.2c-0.7,0.4-2,0-2.7,0.4c-0.9-0.4-2.3-0.3-3.2-0.5c-1.2,1.7-2.3,3.6-3.1,5.7c5.5,0.8,6.5-0.6,11.5-0.4
		c1.6-0.8,4-0.9,5.9-1.5c1.3,0.5,1.7,2.5,3.1,2.3c0.6,0.6,0.2,2,1.2,1.8c-2.4,5.2-6.1,5-12.1,6.1c-0.7,0.2-1.1-0.1-1.7-0.2
		c-3.7,0.7-10.8,1.6-13.9-1.4C979.8,162.8,979.8,162,979,161.5z"/>
	<path class="st0" d="M1031.3,150.8c-0.6-0.5-0.5-1.6-1-2.2c0.1-0.4,0.2-0.8,0.6-0.7c-0.5-3,1.3-4.9,2.8-7.2c0.6-0.1,0.5,0.4,0.9,0
		c1.1-0.7,1.4-1.6,1.4-2.7c1.2-3.4,3.2-6.9,5.8-8.1c1.8-1.7,6.1-2.7,9-1.9c0.4,0.1,0.3-0.3,0.6-0.4c3.2,0.4,5.9,1.3,7.8,3
		c2.6,3.9,4.9,9.3,2.8,14.7c-4.6,5.7-13.8,6.6-21.5,8.3c0.2,3.7-0.2,8.3-2.5,11.6c-1.4-0.1-2.9,0.4-4,0.7c-0.6-0.3-1-0.7-1.7-0.7
		c0.4-1.5-3-3.5-1.1-4.9c-0.3-0.3-0.4-0.6-0.4-1.1c0.1,0.1,0.3,0.2,0.5,0.2c-0.3-2.4,2.4-7-0.4-8.3
		C1030.7,150.8,1031,150.8,1031.3,150.8z M1042.4,142.6c0.2,0.4,0.7,0.5,0.8,0.9c1.9-1,3.7-0.7,5.6-1.6c1.9-0.9,4.5-1.1,6.1-2.5
		c-1.9-1.7-8-3-11.2-0.1C1043.1,140.8,1042.9,141.4,1042.4,142.6z"/>
	<path class="st0" d="M1060.7,158c-1.2-9,4.5-14.5,8.7-19.6c0.9,0.3,1-1.1,1.8-1.3c0.6-1.2,1.9-1.5,2.5-2.6c1.4-0.3,1.8-1.5,3.1-1.9
		c0-0.2,0-0.4,0-0.6c1.5-0.7,1.9-1.4,2.8-2.7c0.7-0.1,1,0,1.9-0.2c0.6-1.1,1-1.5,2-2.2c1,0.5,2.2,0.4,3.1,1.3c0.1,1.6,1.9,1.5,2.2,3
		c0.3,0,0.3-0.2,0.6-0.2c0.3,1.1,0.6,1.1,0.9,2.1c-0.4,0.8-0.5,1.8-1.2,2.2c-0.1,0.5,0.6,0.3,0.6,0.8c0.1,0.4,0,0.6-0.2,0.8
		c1.9,3.1,3.2,6.7,5.1,9.8c-0.2,1.9,1.2,3.5,1.4,5.3c0.3,2.2-0.6,5.5-2.3,6.5c-1,1.4-2.9,1.9-4.2,3.1c-0.1-0.1-0.2-0.2-0.2-0.3
		c-0.7,1-1.8,1-3,1.2c-1.8,1-5,2.2-7,2c-2.4,0.8-4.4,1.2-7.4,0.6C1066.2,166.1,1062.4,162.3,1060.7,158z M1068.5,155.6
		c2.7,2.2,7.5,0.5,10.7,0.4c0-0.3,0.1-0.5,0.4-0.4c2.8-0.3,5-1.8,7.6-3.2c0.4-0.8,1.1-1.2,1.1-2.3c-0.3-0.6-0.4-0.8-0.4-1.6
		c-1.7-2.4-2.8-5.5-4.4-7.9c-0.2,0.3-0.6,0.8-1.1,0.4c-0.4,1.3-1.7,0.9-2.5,0.3c-2.2,1.8-4.7,3.5-6.5,5.8c-0.3,0.2-0.3-0.1-0.7,0.1
		C1071.4,150.2,1068.7,151.8,1068.5,155.6z"/>
	<path class="st0" d="M1094.1,159.7c0-0.9,0.5-1.2,0.9-1.7c3.2-0.2,4.9-0.8,7.8-0.9c0.1-0.1,0.2-0.1,0.4-0.1
		c0.5-1.9,1.5-3.8,2.2-5.6c0.9-3.3,2.7-5.5,3-8.4c0.8-2.3,1.4-4,1.8-6.7c-2.6,0.4-4,0.8-4.7,1.1c-2.7-0.2-2.8-1.9-3.7-3.7
		c0.3-0.6,0.2-2-0.5-2.6c0.5-0.1,0.9-1.1,0.7-1.5c2.2-0.7,5.2-0.2,6.9-1.2c3.4-0.1,7.4-0.3,10.6-0.5c2.3,0.8,6.8-0.4,7.8,2.9
		c2,0.2,1.6,1.7,1.6,3.1c-2.1,1.6-6.7,1.9-10.7,2c-0.6,4.3-3.8,12.8-3.7,14.1c-1.4,3-1.6,4.1-2.7,6.4c0,0,1.9-0.1,3.4-0.1
		c0.3,1.4,2.2,0.9,2.2,2.2c2.5,0.7,1.1,2.8,0.2,4c-0.6-0.1-1.2,0.4-1.6,1c-1.9-0.3-3.9,0.1-5.5,0.2c-0.3,0.1-0.1,0.5-0.3,0.6
		c-4.1-1.4-8.6,1.2-13.4,1.4C1095,164.4,1094.6,161.9,1094.1,159.7z"/>
	<path class="st0" d="M1128.6,164c-0.2,0.3,0.1,0.2,0.2,0.8c-0.9-0.2-1.2,0.3-1.8,0.4c-3-1-3.9-5.3-5.1-7.5c0-0.2,0.3-0.1,0.5-0.1
		c-0.4-0.7-0.4-1.6-0.9-2.1c3.9-8.3,8.9-18.1,13-27.2c3.7,1.3,7.3,3.6,8,7.5c-0.2,0.4-0.4,0.1-0.5,0.3c0.7,0.7-0.2,0.6,0.4,1.5
		c-0.3-0.1-0.4,0.2-0.7,0.1c0.7,1.8-0.9,1.8-0.4,3.5c-0.5-0.1-0.3,0.6-0.8,0.5c0.4,3.5-0.5,6.9,0.5,11.1c5.7-3.4,6.4-10.9,7.6-18.6
		c1.5-1.4,1.4-4.4,2.4-6.3c2.5,0.3,3,2.8,5.4,3.1c0.9,1.3,1.8,2.5,2.1,4c-0.8,1.3-0.6,3.3-2.1,4.3c-0.4,4-1.7,6.5-1.6,10.8
		c-0.6,1.9-1.5,4.1-1.8,5.8c-1.2,1-1.8,2.5-2.6,4c-0.3,0.3-0.3-0.1-0.8-0.1c0.1,0.6-0.5,0.5-0.2,1.3c-2.2,1-3,4.1-7.4,2.5
		c-3.2-2.3-5.9-5.4-7.4-9.6c-1.4,0.4-1.1,3.1-2.2,3.1c-0.2,1.2-1.8,1.9-1.1,3.5C1129.9,161.4,1131.2,164.2,1128.6,164z"/>
	<path class="st0" d="M1157.8,135.5c-0.3-0.8-0.7-1.7-0.7-3c0.1-0.6,0.4-0.8,0.7-1.2l0.1-0.8l0.7,0.1c0.6,0,1.1,0,1.7,0
		c2.5,0,5.2-0.3,7.9-0.5c1.6-0.2,3.2-0.3,4.9-0.5c0.1-0.1,0.2-0.3,0.2-0.4c0.1-0.2,0.2-0.4,0.3-0.7l0.3-0.3l0.3-0.1
		c0.2,0,0.3-0.1,0.4-0.1c1,0,1.6,0.6,1.9,1c1.7-0.2,3.5-0.4,5.4-0.7c2.7-0.4,5.5-0.8,8-0.8c1.1,0,2.1,0.1,3.1,0.3l0.4,0.1l0.2,0.4
		c0.3,0.5,0.7,0.9,1.2,1.2c1,0.8,2.2,1.8,2,4.2l-0.1,0.3l-0.2,0.2c-0.2,0.2-0.3,0.3-0.5,0.4c-0.1,0.1-0.3,0.2-0.3,0.2l-0.3,0.5h-0.6
		c-0.5,0-0.8,0.1-1.2,0.3c-0.3,0.1-0.6,0.3-1,0.4h-0.2c-0.4-0.1-0.9-0.1-1.3-0.1c-2,0-4.4,0.3-6.6,0.6c-1.6,0.2-3.1,0.4-4.4,0.6
		c-0.5,1.6-1.1,2.9-1.6,4.2c-0.6,1.4-1.2,2.7-1.6,4.3l-0.1,0.2c-0.6,1-1.2,2-1.5,3.4l-0.1,0.3l-0.2,0.2c-0.7,0.6-1.1,2.1-1.4,3.1
		c-0.1,0.2-0.1,0.3-0.2,0.4l-0.1,0.3l-0.3,0.3c-0.1,0.2-0.1,0.5-0.4,0.8c-0.1,0.5-0.2,0.9-0.4,1.3c-0.2,0.4-0.3,0.7-0.3,0.9v0.3
		c-0.1,0.2-0.2,0.4-0.3,0.6c0,0.4-0.1,0.8-0.2,1.2c-0.1,0.4-0.2,0.8-0.1,1.3c0.1,0.1,0.4,0.4,0.5,0.8c0.2,0.1,0.4,0.2,0.5,0.3
		c0.3,0.2,0.5,0.3,0.7,0.4l0.4,0.2l0.1,0.4c0.2,1.2,0.1,2.1-0.5,2.8c-0.6,0.7-1.7,1.1-3,1.1c-0.2,0-0.3,0-0.4,0h-0.3l-0.3-0.3
		c0-0.1-0.1-0.2-0.2-0.3l-0.2-0.1c-0.4-0.1-0.8-0.2-1.1-0.7c-0.2-0.1-0.4-0.2-0.5-0.3c-0.3-0.1-0.5-0.2-0.8-0.3l-0.6-0.3l0.1-0.4
		c-0.1-0.1-0.1-0.2-0.1-0.3c-0.6-0.7-0.8-1.7-1-2.5c-0.2-0.7-0.4-1.4-0.8-2v-0.3c0-4,1.3-7.1,2.4-10c0.6-1.6,1.3-3.2,1.7-5l0.1-0.4
		l0.4-0.2c0.1,0,0.2-0.1,0.3-0.2c0.1-0.1,0.2-0.2,0.2-0.2c0-0.8,0.4-1.7,0.8-2.5c0.3-0.6,0.5-1.1,0.6-1.5c-0.4,0-0.8,0.1-1.3,0.2
		c-0.4,0.1-0.8,0.1-1.2,0.1c-0.2,0-0.4,0-0.6-0.1c-0.5,0.3-1,0.3-1.4,0.3c-0.2,0-0.4,0-0.6-0.1c-0.2,0-0.4,0-0.6,0
		c-0.4,0-0.7,0.1-1,0.2l-0.3,0.1l-0.2-0.1c-0.3-0.1-0.6-0.1-0.9-0.1c-0.2,0-0.4,0-0.6,0s-0.4,0.1-0.6,0.1c-0.6,0-1.2-0.1-2.1-0.6
		l-0.2-0.3c-0.2-0.4-0.4-0.6-0.6-0.6l-0.5-0.2l-0.1-0.6C1158.2,136.5,1158,136.1,1157.8,135.5z"/>
</g>
<g>
	<g>
		<path class="st0" d="M592.5,155.5c-1.5-10.8,5.4-17.4,10.4-23.4c1,0.4,1.2-1.3,2.2-1.5c0.7-1.4,2.3-1.8,3-3.1
			c1.6-0.4,2.2-1.8,3.7-2.3c0-0.2,0-0.5,0-0.7c1.8-0.8,2.3-1.7,3.4-3.2c0.9-0.1,1.2,0,2.3-0.2c0.7-1.3,1.2-1.8,2.4-2.6
			c1.2,0.6,2.7,0.5,3.7,1.5c0.1,1.9,2.3,1.8,2.6,3.5c0.3,0,0.4-0.2,0.7-0.2c0.3,1.3,0.7,1.3,1.1,2.6c-0.4,1-0.5,2.2-1.5,2.6
			c-0.1,0.6,0.7,0.4,0.7,0.9c0.1,0.4,0,0.7-0.2,0.9c2.3,3.7,3.8,8.1,6.1,11.7c-0.2,2.3,1.4,4.2,1.7,6.3c0.4,2.7-0.7,6.5-2.8,7.8
			c-1.2,1.6-3.5,2.3-5,3.7c-0.1-0.1-0.2-0.2-0.2-0.4c-0.9,1.2-2.2,1.2-3.5,1.5c-2.1,1.2-6,2.6-8.4,2.4c-2.9,1-5.3,1.5-8.9,0.7
			C599.1,165.2,594.6,160.6,592.5,155.5z M601.9,152.7c3.2,2.6,9,0.5,12.8,0.5c0-0.4,0.1-0.5,0.5-0.5c3.3-0.3,6-2.2,9.1-3.8
			c0.4-1,1.3-1.5,1.3-2.8c-0.4-0.7-0.4-1-0.4-2c-2.1-2.9-3.4-6.5-5.3-9.5c-0.2,0.4-0.7,1-1.3,0.5c-0.4,1.5-2,1-3.1,0.3
			c-2.7,2.2-5.6,4.1-7.8,6.9c-0.4,0.2-0.3-0.1-0.8,0.1C605.3,146.1,602.1,148,601.9,152.7z"/>
		<path class="st0" d="M637.7,157.4c0.2,0,0.4,0,0.6,0c-1-3.5,1.7-5.7,0.7-8.6c0.7,0.5,0.8-2.1,0.6-2.9c2-4.9,2.1-10.7,4-14.9
			c1.1-0.2,2.6,0.4,2.9,1c5-3.8,6.8-11.9,14.1-12.6c1.9,1.3,4.6,2.7,6.1,5.1c0.7,0.4,1.2,0.9,1.9,1.2c0,0.3,0,0.6,0,0.9
			c2.3,2.1,2.7,5.9,4.2,8.7c-0.4,1,0.3,1.2,0.2,2.5c-0.5,8.5-10.9,9.5-17.2,12.2c0,0.4,0.5,0.2,0.4,0.6c4.6,2.9,4.5,3.2,9.4,4.3
			c4.9,1.2,4.8,1.3,9.1,1.6c1.8,1.8,2.4,5,1.3,6.3c0.1,0.3,0.5,0.2,0.9,0.2c-1.2,0.8-1.3,2.6-2.9,2.7c-2.9,1.1-7.2,0-14-2.7
			c-6.8-2.6-7.9-3.7-11.5-6.8c-0.3,0-0.2,0.4-0.4,0.4c-0.4,3.2-1.2,4.9-2.7,7c-1.2-0.2-1.5,0.5-2.1,0.9c-1.6,0.3-1.2-0.9-3-0.9
			c-0.2-0.7-0.2-1.6-1.2-1.5c0.4-1.5-0.6-1.8-0.2-3.2C638.3,158.9,638.1,158,637.7,157.4z M652.4,140.5c3.3-0.4,7.2-2.2,10.4-3.6
			c-0.3-2.9-2.3-4.7-4.1-5.3C656.7,134.7,653.1,136.2,652.4,140.5z"/>
	</g>
</g>
<path class="st0" d="M603.2,180c6.3-0.4,12.7-0.7,19-1l9.5-0.4l9.5-0.3c3.2-0.1,6.3-0.3,9.5-0.5c3.2-0.2,6.3-0.2,9.5,0
	c3.2,0.1,6.3,0.4,9.5,0.7c3.2,0.3,6.3,0.8,9.5,1.5v0.5c-3.2,0.7-6.3,1.2-9.5,1.5c-3.2,0.3-6.3,0.6-9.5,0.7c-3.2,0.1-6.3,0.1-9.5,0
	c-3.2-0.2-6.3-0.3-9.5-0.5l-9.5-0.3l-9.5-0.4c-6.3-0.3-12.7-0.6-19-1V180z"/>
<g>
	<g>
		<path class="st0" d="M517.3,64.3l0-0.3l0.1-0.3c0.1-0.4,0.3-0.8,0.4-1.2c0.3-1,0.6-2.2,1.4-3c0.2-0.5,0.6-1.5,1.9-3.8
			c1-1.9,1.6-2.8,1.9-3.4c-0.3-0.6-0.8-1.1-1.3-1.6l-0.1-0.1l-0.1-0.2c-0.7-1.4-1.5-3.4-1.9-4.8l0-0.2c0-0.7-0.1-1.3-0.3-2.1
			c-0.2-0.8-0.4-1.6-0.4-2.6c-0.1-0.2-0.2-0.4-0.3-0.7l0-0.3l0.1-0.3c0.2-0.5,0-1.4-0.2-2.4c-0.4-1.5-0.9-3.7,1.1-4.9l0.5-0.3
			l0.4,0.3c0.7,0.4,1.3,0.7,1.9,1c0.8,0.4,1.5,0.8,2.4,1.3l0.5,0.3l0,0.5c0,0.1,0.1,0.3,0.2,0.5l0.5,0.1l0,0.6c0,0.2,0,0.4,0,0.6
			c0,0.6,0,0.7,0.2,0.9l0.3,0.3v0.4c0,1.1,0.2,2,0.5,2.8c0.2,0.9,0.5,1.8,0.4,2.8c0.1-0.1,0.3-0.2,0.5-0.4c0.1-0.1,0.3-0.2,0.4-0.4
			l3.3-4.6l0-0.4l0.3-0.3c0.3-0.3,0.6-0.5,0.9-0.8c0.6-0.5,1.2-1.1,1.6-1.7l0.2-0.4h0.3c1.2-1.9,2.9-3.1,5.1-3.5l0.8-0.1l0.2,0.8
			c0.3,0.9,1.3,1.5,2.4,2.1l0.3,0.1l0.2,0.1l0.1,0.2c0.2,0.4,0.1,0.9,0.1,1.1c0,0.1,0,0.1,0,0.2l0.2,0.4l-0.1,0.4
			c-0.4,1.2-1.4,2-2.2,2.6c-0.7,0.6-1.3,1.1-1.6,1.8l-0.1,0.3l-0.3,0.1c-0.8,0.4-1.2,1-1.5,1.8l-0.1,0.7h-0.7c0,0-0.3,0.1-0.8,1.2
			l-0.1,0.2c-0.4,0.5-0.6,0.7-0.8,1c0,0.1-0.1,0.4-0.3,0.8l-0.1,0.2l-0.2,0.2c-0.6,0.4-0.8,0.9-1.1,1.5c-0.2,0.5-0.5,1.2-1.1,1.8
			l0.1,0.5l-0.4,0.3c-0.5,0.5-0.8,1.1-1.2,1.8c-0.4,0.8-0.8,1.5-1.4,2.2c-0.4,1.1-0.7,1.6-1.5,2.4c-0.4,1.5-1.2,3.1-2.6,4.8
			c0,0.7-0.5,1.3-0.9,1.9c-0.1,0.2-0.3,0.5-0.4,0.7l0,0.2l-0.2,0.3c-0.3,0.6-0.8,1.1-1.2,1.4c-0.1,0.1-0.3,0.3-0.4,0.4l-0.3,0.4
			l-0.5-0.1C519.5,68.3,517.9,66.9,517.3,64.3z"/>
		<path class="st0" d="M538.1,60.4c-1.2-8.5,4.2-13.7,8.2-18.4c0.8,0.3,1-1,1.7-1.2c0.5-1.1,1.8-1.4,2.4-2.4
			c1.3-0.3,1.7-1.4,2.9-1.8c0-0.2,0-0.4,0-0.6c1.4-0.6,1.8-1.3,2.6-2.5c0.7,0,1,0,1.8-0.1c0.6-1,0.9-1.4,1.9-2.1
			c0.9,0.5,2.1,0.4,2.9,1.2c0.1,1.5,1.8,1.4,2.1,2.8c0.2,0,0.3-0.2,0.6-0.1c0.2,1.1,0.6,1.1,0.9,2c-0.3,0.8-0.4,1.7-1.2,2.1
			c0,0.5,0.5,0.3,0.6,0.7c0,0.3,0,0.6-0.1,0.7c1.8,2.9,3,6.3,4.8,9.2c-0.2,1.8,1.1,3.3,1.3,5c0.3,2.1-0.6,5.1-2.2,6.1
			c-1,1.3-2.7,1.8-3.9,2.9c-0.1,0-0.2-0.1-0.1-0.3c-0.7,0.9-1.7,1-2.8,1.2c-1.7,1-4.7,2.1-6.6,1.9c-2.3,0.8-4.2,1.2-7,0.6
			C543.4,68.1,539.8,64.5,538.1,60.4z M545.5,58.2c2.5,2.1,7.1,0.4,10,0.4c0-0.3,0.1-0.4,0.4-0.4c2.6-0.2,4.8-1.7,7.2-3
			c0.3-0.8,1-1.2,1-2.2c-0.3-0.6-0.3-0.8-0.3-1.5c-1.6-2.3-2.6-5.1-4.2-7.4c-0.1,0.3-0.5,0.8-1,0.4c-0.3,1.2-1.6,0.8-2.4,0.2
			c-2.1,1.7-4.4,3.3-6.1,5.4c-0.3,0.1-0.2,0-0.6,0.1C548.2,53.1,545.7,54.6,545.5,58.2z"/>
		<path class="st0" d="M575.6,43.8l0-0.3c0-0.1-0.1-0.2-0.1-0.3c0.4-1.2,0.6-2.3,0.7-3.3c0.1-0.9,0.3-1.6,0.5-2.3
			c1.1-0.2,1.5-1.1,1.9-1.6c1,0,1.2,0.4,1.6,1.2c0.3,0.7,0.8,1.6,1.9,2c0.2,0.6,0.5,1.3,0.8,2c0.6,1.3,1.2,2.8,1.2,4
			c-1.5,2.8-1.6,7.9-0.7,10.3l0.3,0.7l0.2,0.1l0.8-0.2c4.5-1.2,7-2.7,10.1-6.2c3.1-3.5,4.7-9.2,4.8-13.3c0.6-0.2,1-0.7,1-1.3l0-0.4
			l-0.1-0.2c-0.2-0.2-0.1-0.6,0-0.8c0.2-0.7,0.9-1.2,1.6-1.6c1.2,0.8,2.1,1.7,2.9,2.6c0,1.6,0.5,2.8,1,3.9c0.4,1,0.8,2,0.9,3.4
			c-0.6,1.9-0.8,3.5-1.1,5.3l0,0.5c-1.2,2-2.4,4.1-3,5.6c-0.4,0.4-0.7,1-0.9,1.4c-0.1,0.2-0.4,0.8-0.5,1l-1.2-0.4l-0.2-0.1v0.3v1.2
			c0,0.1,0,0.3-0.1,0.3l-0.7-0.1l-0.2,0.1l-0.3,0.6c-2.8,5-6.2,6.4-12.5,9.1c-1.2-0.2-2.1-0.2-2.9-0.2c-0.9,0-1.6,0-2.7-0.2
			c-0.2-0.6-0.7-0.8-1.1-0.8c-0.1,0-0.1,0-0.2,0c-1-0.6-1.6-1.8-2.2-3.2c-0.3-0.7-0.7-1.5-1.2-2.2l1-0.3l0.3-0.1l-0.2-0.2l-1.2-1.1
			c-0.2-0.1-0.4-0.3-0.6-0.6l0-0.9c-0.2-5.1-0.4-9.6,0.7-12.8L575.6,43.8z"/>
		<path class="st0" d="M623.4,50.1c1.2-3.4,3.5-5.6,5.6-8c0.2,0,0.4,0.1,0.5,0.2c0.5-1.4,2.1-1.8,2.9-3c3.1-0.7,4.5-3.1,7.6-3.8
			c1.2-1.3,3.5-1.4,4.5-2.9c0.4,0.5,1.2,0.2,1.7,0c0.7-0.1,1.1,1.2,1.4,0.3c0.4,0,0,0.6,0,0.7c0.6,0,0.9,0.5,1.7,0.5
			c0.3,0.3,0,0.4,0,0.9c4.6,1.4,1.9,6.6-1.5,7.4c-3.4,1-6.8,1.9-8.8,4.2c-3.5,1-5.5,3.6-7.8,5.9c0,1-0.5,1.5-0.9,2.1
			c0.1,1.2,0.6,1.9,1,2.7c4.9,1.5,10.8,1.7,16.3,1.7c1.1,1.5,3.2,2.4,2.8,4.8c-1.1,1.1-2.4,2-3.6,3c-1.2,0.1-3.2-0.3-4.7,0.3
			c-3.9-0.1-8.4-1.1-11.8-2.3c-0.7-0.8-1.4-1.6-2.6-1.9C624.3,60.2,623.3,54.5,623.4,50.1z"/>
		<path class="st0" d="M651.6,62.7l0.6-0.5l-0.3,0l0.4-0.9c1.5-3.8,3.2-7.2,5-10.9c0.6-1.2,1.2-2.4,1.7-3.6c0-0.2-0.1-0.5,0-0.9
			l0.1-0.2c0.7-1,1.2-2,1.7-3c0.6-1.2,1.2-2.5,2.1-3.7l0.4-0.4h0.6c0.1,0,0.4-0.2,0.9-0.2c0.1,0,0.2,0,0.3,0l0.5,0.1l0.1,0.4
			c1.9-1.4,3.5-3.1,5.1-5.6l0.5-0.8l0.8,0.5c0.3,0.2,1.1,0.4,1.9,0.6c1.3,0.3,2.6,0.7,3.4,1.4l0.2,0.2l0,0.2
			c0.1,0.7,0.2,1.2,0.3,1.8c0.2,1.3,0.5,2.5,0.5,4.1c0.3,1.2,0.6,2.5,0.9,3.8c0.3,1.8,0.7,3.5,1.4,4.9c0.2,0,0.3,0,0.4,0
			c0.4-0.1,0.8-0.2,1.3-0.2l0.6,0l0.2,0.6c0.1,0.2,0.3,0.3,0.6,0.5c0,0,0,0,0.2,0c0.7,0,1.2,0.4,1.5,0.8c0.1,0.1,0.3,0.3,0.4,0.4
			l0.9,0.3l-0.5,0.9c-0.7,1.3-2.2,2.6-3.9,3.5c0,0.4,0.1,0.8,0.2,1.2c0.2,1.3,0.4,2.6,0.3,4.1l-0.1,0.2c-1,2.5-3.6,5.4-6.7,5.5
			l-0.3,0c-0.5-0.1-0.9-0.4-1.2-0.7c-0.2-0.1-0.4-0.2-0.6-0.3l-0.6-0.3l0.2-0.7c0.1-0.5,0-0.8-0.7-1.4c-0.2-0.2-0.4-0.4-0.6-0.6
			l-1-1.1l1.5-0.4c1.9-0.5,2.4-1.1,2.3-3.1c-0.1-0.1-0.1-0.2-0.2-0.3c-1.2,0.1-2.2,0.4-3.2,0.6c-1.4,0.4-2.7,0.7-4.3,0.7
			c-0.5,0-1.1,0-1.7-0.1l-0.5,0l-0.1-0.5c0-0.1-0.2-0.3-0.3-0.4c-0.3-0.3-1-1-0.7-1.9c-0.1-0.3-0.3-0.7-0.3-1.1
			c-0.2,0.5-0.4,1-0.5,1.4l-0.2,0.6l-0.6,0.1c-0.1,0-0.2,0.4-0.2,0.5l0.1,0.5l-0.4,0.4c-0.1,0.1-0.3,0.3-0.5,0.4
			c-0.2,0.7-0.4,1.3-0.6,1.9c-0.3,1-0.7,1.9-0.6,2.8v0.3l-0.2,0.3c-0.3,0.4-0.8,0.7-1.2,0.9c-0.2,0.1-0.5,0.2-0.6,0.3l-0.2,0.6
			l-0.7,0.1c-0.1,0-0.2,0-0.4,0c-0.3,0.1-0.6,0.2-1.1,0.2c-0.1,0-0.2,0-0.3,0h-0.3l-0.2-0.2c-0.5-0.4-1-0.9-1.5-1.2l-0.2-0.1
			l-0.1-0.2c-0.2-0.5-0.3-0.9-0.4-1.3c0-0.4-0.1-0.7-0.3-0.9L651.6,62.7z M665.3,52.4c0.4,0,0.9,0,1.2-0.1c2.2-0.1,3.9-0.2,6.1-0.7
			c-0.5-2.3-1.1-4.7-1.8-7.2c0,0.1-0.1,0.2-0.2,0.3l-0.1,0.2c-1.4,1.5-3,3.7-4,5.5C666.1,51.1,665.7,51.8,665.3,52.4z"/>
		<path class="st0" d="M692.4,66.2c-0.2,0.3,0,0.2,0.1,0.7c-0.8-0.2-1.1,0.2-1.7,0.3c-2.8-1-3.7-5-4.8-7.1c0-0.2,0.3-0.1,0.5-0.1
			c-0.3-0.6-0.4-1.5-0.8-2c3.6-7.8,8.4-17,12.2-25.6c3.5,1.2,6.9,3.4,7.5,7.1c-0.2,0.4-0.3,0-0.5,0.3c0.6,0.7-0.1,0.5,0.4,1.4
			c-0.3,0-0.3,0.2-0.7,0.1c0.7,1.7-0.8,1.7-0.3,3.3c-0.4,0-0.3,0.5-0.8,0.4c0.4,3.3-0.5,6.5,0.4,10.5c5.4-3.2,6-10.3,7.2-17.5
			c1.4-1.3,1.3-4.1,2.3-5.9c2.4,0.3,2.8,2.6,5,2.9c0.9,1.2,1.7,2.4,2,3.7c-0.7,1.2-0.6,3.1-2,4c-0.4,3.7-1.6,6.1-1.5,10.2
			c-0.6,1.8-1.4,3.9-1.7,5.5c-1.2,0.9-1.7,2.4-2.4,3.7c-0.3,0.3-0.2,0-0.7,0c0.1,0.5-0.4,0.4-0.1,1.2c-2.1,1-2.8,3.9-7,2.4
			c-3-2.2-5.5-5-7-9.1c-1.3,0.3-1.1,2.9-2.1,2.9c-0.2,1.2-1.7,1.8-1.1,3.3C693.7,63.7,694.9,66.3,692.4,66.2z"/>
		<path class="st0" d="M726.2,61.5c0.1,0.5,0.1,1,0.2,1.4c-0.1,0.6-0.4,1.2-0.6,1.8c-0.3,0.9-0.2,0.2-0.1,1.1v0.3l-0.2,0.3
			c-0.3,0.4-0.8,0.6-1.2,0.8c-0.2,0.1-0.5,0.2-0.6,0.3l-0.1,0.5l-0.6,0.1c-0.1,0-0.2,0-0.4,0.1c-0.2,0-0.6,0.1-1,0.1
			c0,0-0.1,0-0.2,0H721l-0.2-0.2c-0.4-0.4-0.9-0.8-1.4-1.1l-0.2-0.1l-0.1-0.2c-0.2-0.4-0.2-0.9-0.3-1.2c-0.1-0.4-0.1-0.7-0.3-0.8
			l-0.6-0.7l0.6-0.4l-0.3,0l-0.3-0.8c1.5-1.2,1.2-0.7,2.5-2.6l0.4-0.7l0.6,0.4c0.2,0.1,1.3,0.3,1.9,0.5c1,0.2,2.1,0.3,2.6,0.8
			l0.1,0.1L726.2,61.5z"/>
		<path class="st0" d="M737.2,61.5c0.1,0.5,0.1,1,0.2,1.4c-0.1,0.6-0.4,1.2-0.6,1.8c-0.3,0.9-0.2,0.2-0.1,1.1v0.3l-0.2,0.3
			c-0.3,0.4-0.8,0.6-1.2,0.8c-0.2,0.1-0.5,0.2-0.6,0.3l-0.1,0.5l-0.6,0.1c-0.1,0-0.2,0-0.4,0.1c-0.2,0-0.6,0.1-1,0.1
			c0,0-0.1,0-0.2,0H732l-0.2-0.2c-0.4-0.4-0.9-0.8-1.4-1.1l-0.2-0.1l-0.1-0.2c-0.2-0.4-0.2-0.9-0.3-1.2c-0.1-0.4-0.1-0.7-0.3-0.8
			l-0.6-0.7l0.6-0.4l-0.3,0l-0.3-0.8c1.5-1.2,1.2-0.7,2.5-2.6l0.4-0.7l0.6,0.4c0.2,0.1,1.3,0.3,1.9,0.5c1,0.2,2.1,0.3,2.6,0.8
			l0.1,0.1L737.2,61.5z"/>
		<path class="st0" d="M748.1,61.5c0.1,0.5,0.1,1,0.2,1.4c-0.1,0.6-0.4,1.2-0.6,1.8c-0.3,0.9-0.2,0.2-0.1,1.1v0.3l-0.2,0.3
			c-0.3,0.4-0.8,0.6-1.2,0.8c-0.2,0.1-0.5,0.2-0.6,0.3l-0.1,0.5l-0.6,0.1c-0.1,0-0.2,0-0.4,0.1c-0.2,0-0.6,0.1-1,0.1
			c0,0-0.1,0-0.2,0h-0.3l-0.2-0.2c-0.4-0.4-0.9-0.8-1.4-1.1l-0.2-0.1l-0.1-0.2c-0.2-0.4-0.2-0.9-0.3-1.2c-0.1-0.4-0.1-0.7-0.3-0.8
			l-0.6-0.7l0.6-0.4l-0.3,0l-0.3-0.8c1.5-1.2,1.2-0.7,2.5-2.6l0.4-0.7l0.6,0.4c0.2,0.1,1.3,0.3,1.9,0.5c1,0.2,2.1,0.3,2.6,0.8
			l0.1,0.1L748.1,61.5z"/>
	</g>
</g>
</svg>
